<svg width="32" height="32" viewBox="0 0 32 32" fill="none" xmlns="http://www.w3.org/2000/svg">
<rect width="32" height="32" rx="16" fill="#BFF5EB"/>
<path d="M12.448 11.66V17.672C12.448 18.416 12.22 19.004 11.764 19.436C11.316 19.868 10.724 20.084 9.988 20.084C9.252 20.084 8.656 19.868 8.2 19.436C7.752 19.004 7.528 18.416 7.528 17.672H8.908C8.916 18.04 9.008 18.332 9.184 18.548C9.368 18.764 9.636 18.872 9.988 18.872C10.34 18.872 10.608 18.764 10.792 18.548C10.976 18.324 11.068 18.032 11.068 17.672V11.66H12.448ZM23.4574 11.66V20H22.0894V14.288L19.5454 20H18.5974L16.0414 14.288V20H14.6734V11.66H16.1494L19.0774 18.2L21.9934 11.66H23.4574Z" fill="#3A665E"/>
</svg>
