<svg width="32" height="32" viewBox="0 0 32 32" fill="none" xmlns="http://www.w3.org/2000/svg">
<path d="M0 16C0 7.16344 7.16344 0 16 0C24.8366 0 32 7.16344 32 16C32 24.8366 24.8366 32 16 32C7.16344 32 0 24.8366 0 16Z" fill="#F5DDBF"/>
<path d="M11.732 20L9.812 16.664H8.768V20H7.4V11.66H10.28C10.92 11.66 11.46 11.772 11.9 11.996C12.348 12.22 12.68 12.52 12.896 12.896C13.12 13.272 13.232 13.692 13.232 14.156C13.232 14.7 13.072 15.196 12.752 15.644C12.44 16.084 11.956 16.384 11.3 16.544L13.364 20H11.732ZM8.768 15.572H10.28C10.792 15.572 11.176 15.444 11.432 15.188C11.696 14.932 11.828 14.588 11.828 14.156C11.828 13.724 11.7 13.388 11.444 13.148C11.188 12.9 10.8 12.776 10.28 12.776H8.768V15.572ZM23.766 11.66V20H22.398V14.288L19.854 20H18.906L16.35 14.288V20H14.982V11.66H16.458L19.386 18.2L22.302 11.66H23.766Z" fill="#665239"/>
</svg>
