<svg width="44" height="44" viewBox="0 0 44 44" fill="none" xmlns="http://www.w3.org/2000/svg">
<g clip-path="url(#clip0_3458_117081)">
<rect width="44" height="44" rx="22" fill="#E6EDF6"/>
<g clip-path="url(#clip1_3458_117081)">
<path d="M33.5861 27.6144V23.2868L32.7956 17.1302C32.6197 15.7604 31.4536 14.7344 30.0724 14.7344H10.1942C9.28439 14.7344 8.54688 15.4719 8.54688 16.3817V27.0654L11.1678 27.6145H33.5861V27.6144Z" fill="white"/>
<path d="M19.1191 20.3575C19.1191 18.3949 19.4308 16.5055 20.0052 14.7344H10.1942C9.28439 14.7344 8.54688 15.4719 8.54688 16.3817V27.0654L11.1678 27.6145H20.6239C19.6566 25.3908 19.1191 22.9371 19.1191 20.3575Z" fill="#9AB8DF"/>
<path d="M32.7956 17.1484H8.54688V21.3649H29.4733L33.5861 23.2848L32.7956 17.1484Z" fill="#E6EDF6"/>
<path d="M12.9793 29.2633C13.8891 29.2633 14.6266 28.5258 14.6266 27.616C14.6266 26.7063 13.8891 25.9688 12.9793 25.9688C12.0696 25.9688 11.332 26.7063 11.332 27.616C11.332 28.5258 12.0696 29.2633 12.9793 29.2633Z" fill="#9AB8DF"/>
<path d="M27.5028 29.2633C28.4125 29.2633 29.1501 28.5258 29.1501 27.616C29.1501 26.7063 28.4125 25.9688 27.5028 25.9688C26.593 25.9688 25.8555 26.7063 25.8555 27.616C25.8555 28.5258 26.593 29.2633 27.5028 29.2633Z" fill="#E6EDF6"/>
<path d="M19.1191 20.3554C19.1191 19.2612 19.2157 18.1895 19.4008 17.1484H8.54688V21.3649H19.1474C19.1291 21.0306 19.1191 20.6942 19.1191 20.3554Z" fill="#9AB8DF"/>
<path d="M35.4552 20.0723C35.1531 20.0723 34.9083 19.8274 34.9083 19.5254V17.6953H33.0391C32.737 17.6953 32.4922 17.4505 32.4922 17.1484C32.4922 16.8464 32.737 16.6016 33.0391 16.6016H35.4552C35.7572 16.6016 36.002 16.8464 36.002 17.1484V19.5254C36.002 19.8274 35.7572 20.0723 35.4552 20.0723Z" fill="#9AB8DF"/>
<path d="M33.4791 25.7422H31.9609C31.6589 25.7422 31.4141 25.4974 31.4141 25.1953C31.4141 24.8933 31.6589 24.6484 31.9609 24.6484H33.4791C33.7811 24.6484 34.0259 24.8933 34.0259 25.1953C34.0259 25.4974 33.7811 25.7422 33.4791 25.7422Z" fill="#014EA2"/>
<path d="M34.1286 23.2172L33.338 17.0606C33.1277 15.4227 31.7238 14.1875 30.0724 14.1875H10.1942C8.98432 14.1875 8 15.1718 8 16.3817V27.0654C8 27.3241 8.1814 27.5475 8.43477 27.6006L10.8416 28.1049C11.0651 29.0793 11.9386 29.8087 12.9799 29.8087C14.001 29.8087 14.8615 29.1075 15.1051 28.1613H25.3802C25.6238 29.1075 26.4842 29.8087 27.5054 29.8087C28.5266 29.8087 29.3869 29.1075 29.6305 28.1613H33.5862C33.8882 28.1613 34.1331 27.9165 34.1331 27.6144V23.2868C34.133 23.2635 34.1315 23.2402 34.1286 23.2172ZM9.09375 20.8201V17.6973H12.185V20.8201H9.09375ZM13.2788 17.6973H16.3703V20.8201H13.2788V17.6973ZM15.1741 21.9138H17.8685V27.0676H15.1741V21.9138ZM17.4641 20.8201V17.6973H20.5555V20.8201H17.4641ZM21.6493 17.6973H24.7408V20.8201H21.6493V17.6973ZM25.8346 17.6973H28.9263V20.8201H25.8346V17.6973ZM30.02 17.6973H32.3171L32.9172 22.371L30.02 21.0186V17.6973ZM10.1942 15.2812H30.0724C30.9634 15.2812 31.7463 15.8199 32.0883 16.6036H9.09375V16.3817C9.09375 15.7749 9.58741 15.2812 10.1942 15.2812ZM10.8755 26.9944L9.09375 26.6212V21.9139H14.0803V25.7174C13.7566 25.5289 13.3808 25.4203 12.9799 25.4203C11.9853 25.4203 11.1437 26.0856 10.8755 26.9944ZM12.9799 28.7149C12.3731 28.7149 11.8794 28.2212 11.8794 27.6144C11.8794 27.0076 12.3731 26.514 12.9799 26.514C13.5865 26.514 14.08 27.0073 14.0803 27.6139V27.6144C14.0803 28.2212 13.5867 28.7149 12.9799 28.7149ZM25.3801 27.0676H18.9622V21.9138H28.9263V25.9444C28.5431 25.618 28.047 25.4202 27.5053 25.4202C26.4842 25.4203 25.6238 26.1214 25.3801 27.0676ZM27.5053 28.7149C26.8985 28.7149 26.4049 28.2212 26.4049 27.6144C26.4049 27.0076 26.8985 26.514 27.5053 26.514C28.1121 26.514 28.6058 27.0076 28.6058 27.6144C28.6058 28.2212 28.1121 28.7149 27.5053 28.7149ZM30.02 27.0676V22.2257L33.0393 23.6351V27.0676H30.02V27.0676Z" fill="#014EA2"/>
</g>
</g>
<defs>
<clipPath id="clip0_3458_117081">
<rect width="44" height="44" rx="22" fill="white"/>
</clipPath>
<clipPath id="clip1_3458_117081">
<rect width="28" height="28" fill="white" transform="translate(8 8)"/>
</clipPath>
</defs>
</svg>
