<svg width="44" height="44" viewBox="0 0 44 44" fill="none" xmlns="http://www.w3.org/2000/svg">
<g clip-path="url(#clip0_3458_117080)">
<rect width="44" height="44" rx="22" fill="#E6EDF6"/>
<path d="M35.4531 27.3603V23.4511C35.4531 22.6035 34.81 21.8942 33.9664 21.8116L29.0949 21.3343L25.5805 18.0279C24.9694 17.453 24.162 17.1328 23.3229 17.1328H15.7015L12.3037 21.3343H10.1942C9.28439 21.3343 8.54688 22.0718 8.54688 22.9816V27.3603H35.4531Z" fill="white"/>
<path d="M18.3359 20.606C18.3359 19.4181 18.451 18.2572 18.6682 17.1328H15.7015L12.3038 21.3343H10.1942C9.28439 21.3343 8.54688 22.0719 8.54688 22.9816V27.3604H19.6305C18.7958 25.2717 18.3359 22.9926 18.3359 20.606Z" fill="#9AB8DF"/>
<path d="M18.6835 17.1328C18.5535 17.2925 15.2656 21.3343 15.2656 21.3343H29.0916L25.5772 18.0279C24.9661 17.453 24.1586 17.1328 23.3196 17.1328H18.6835Z" fill="#E6EDF6"/>
<path d="M18.3327 20.6072C18.3327 19.4299 18.4458 18.2791 18.6591 17.1641C18.333 17.565 15.2656 21.3356 15.2656 21.3356H18.3484C18.3389 21.0939 18.3327 20.8513 18.3327 20.6072Z" fill="#9AB8DF"/>
<path d="M18.3594 17.1348V15.9268C18.3594 15.2596 18.9002 14.7188 19.5674 14.7188H21.7638C22.431 14.7188 22.9719 15.2596 22.9719 15.9268V17.1348H18.3594Z" fill="white"/>
<path d="M13.5781 29.2813C14.6396 29.2813 15.5 28.4208 15.5 27.3594C15.5 26.298 14.6396 25.4375 13.5781 25.4375C12.5167 25.4375 11.6562 26.298 11.6562 27.3594C11.6562 28.4208 12.5167 29.2813 13.5781 29.2813Z" fill="#014EA2"/>
<path d="M30.2852 29.2813C31.3466 29.2813 32.207 28.4208 32.207 27.3594C32.207 26.298 31.3466 25.4375 30.2852 25.4375C29.2237 25.4375 28.3633 26.298 28.3633 27.3594C28.3633 28.4208 29.2237 29.2813 30.2852 29.2813Z" fill="#014EA2"/>
<path d="M35.1638 24.8359H33.8672C33.5652 24.8359 33.3203 24.5911 33.3203 24.2891C33.3203 23.987 33.5652 23.7422 33.8672 23.7422H35.1638C35.4658 23.7422 35.7106 23.987 35.7106 24.2891C35.7106 24.5911 35.4658 24.8359 35.1638 24.8359Z" fill="#014EA2"/>
<path d="M11.0507 24.2969H8.71094C8.40895 24.2969 8.16406 24.052 8.16406 23.75C8.16406 23.448 8.40895 23.2031 8.71094 23.2031H11.0507C11.3527 23.2031 11.5976 23.448 11.5976 23.75C11.5976 24.052 11.3527 24.2969 11.0507 24.2969Z" fill="#014EA2"/>
<path d="M34.0198 21.2694L29.3338 20.8102L25.9553 17.6316C25.2874 17.0033 24.4282 16.6388 23.518 16.5931V15.9268C23.518 14.9592 22.7307 14.1719 21.763 14.1719H19.5666C18.599 14.1719 17.8117 14.9592 17.8117 15.9268V16.588H15.7015C15.5364 16.588 15.3801 16.6626 15.2763 16.791L12.0427 20.7894H10.1942C8.98432 20.7894 8 21.7737 8 22.9836V27.3623C8 27.6644 8.24489 27.9092 8.54688 27.9092H11.1741C11.4237 29.008 12.4077 29.8311 13.581 29.8311C14.7542 29.8311 15.7383 29.0081 15.9879 27.9092H27.8802C28.1298 29.008 29.1138 29.8311 30.2871 29.8311C31.4604 29.8311 32.4444 29.0081 32.694 27.9092H35.4531C35.7551 27.9092 36 27.6644 36 27.3623V23.4531C36 22.3188 35.1487 21.38 34.0198 21.2694ZM27.7156 20.7894H21.2117V17.6817H23.3229C24.0255 17.6817 24.6941 17.9468 25.2058 18.4282L27.7156 20.7894ZM20.118 17.6817V20.7894H16.4145L18.9278 17.6817H20.118ZM18.9055 15.9268C18.9055 15.5622 19.2021 15.2656 19.5666 15.2656H21.7631C22.1276 15.2656 22.4242 15.5622 22.4242 15.9268V16.588H18.9055V15.9268ZM15.9626 17.6817H17.5211L15.0079 20.7894H13.4493L15.9626 17.6817ZM13.581 28.7373C12.8229 28.7373 12.206 28.1205 12.206 27.3623C12.206 26.6041 12.8228 25.9873 13.581 25.9873C14.3392 25.9873 14.956 26.6041 14.956 27.3623C14.956 28.1205 14.3392 28.7373 13.581 28.7373ZM30.2872 28.7373C29.529 28.7373 28.9122 28.1205 28.9122 27.3623C28.9122 26.6041 29.529 25.9873 30.2872 25.9873C31.0454 25.9873 31.6622 26.6041 31.6622 27.3623C31.6622 28.1205 31.0454 28.7373 30.2872 28.7373ZM34.9062 26.8155H32.6942C32.4446 25.7166 31.4606 24.8936 30.2873 24.8936C29.114 24.8936 28.1299 25.7166 27.8803 26.8155H15.9879C15.7383 25.7166 14.7543 24.8936 13.581 24.8936C12.4078 24.8936 11.4237 25.7166 11.1741 26.8155H9.09375V22.9836C9.09375 22.3769 9.58736 21.8832 10.1942 21.8832H29.0682L33.9131 22.3579C34.4794 22.4134 34.9062 22.8842 34.9062 23.4531V26.8155Z" fill="#014EA2"/>
</g>
<defs>
<clipPath id="clip0_3458_117080">
<rect width="44" height="44" rx="22" fill="white"/>
</clipPath>
</defs>
</svg>
