<svg width="44" height="44" viewBox="0 0 44 44" fill="none" xmlns="http://www.w3.org/2000/svg">
<g clip-path="url(#clip0_3458_117083)">
<rect width="44" height="44" rx="22" fill="#E6EDF6"/>
<path d="M15.9599 27.0424L12.9872 24.7042C12.8248 24.582 12.7717 24.3664 12.8691 24.2253C13.3456 23.5352 14.2634 23.2996 15.1652 23.6357L17.8538 25.1608L15.9599 27.0424ZM16.9575 28.04L19.3019 31.0188C19.424 31.1812 19.6397 31.2344 19.7808 31.1369L19.958 31.0145C20.5417 30.6116 20.741 29.8352 20.4567 29.0724L18.8453 26.1522L16.9575 28.04Z" fill="#014EA2"/>
<path d="M16.7737 17.8648C16.4004 17.4914 16.3708 16.8966 16.7044 16.4873C17.1814 15.9019 17.7791 15.25 18.1376 14.8915C18.6281 14.401 18.6709 14.4596 19.195 14.1384C19.2324 14.1154 19.2765 14.1056 19.3202 14.1107C19.3639 14.1158 19.4046 14.1354 19.4357 14.1665L20.472 15.2028C20.5031 15.2339 20.5227 15.2746 20.5278 15.3183C20.5329 15.362 20.5231 15.4061 20.5001 15.4435C20.1789 15.9676 20.2375 16.0104 19.747 16.5009C19.3885 16.8594 18.7366 17.4571 18.1512 17.9341C17.7419 18.2676 17.147 18.2381 16.7737 17.8648ZM26.1296 27.2207C25.7563 26.8474 25.7268 26.2525 26.0603 25.8432C26.5373 25.2578 27.135 24.606 27.4935 24.2474C27.984 23.757 28.0268 23.8156 28.5509 23.4943C28.5884 23.4713 28.6325 23.4615 28.6762 23.4666C28.7198 23.4717 28.7605 23.4914 28.7916 23.5224L29.828 24.5587C29.859 24.5899 29.8786 24.6306 29.8837 24.6742C29.8888 24.7179 29.8791 24.762 29.856 24.7995C29.5348 25.3235 29.5934 25.3663 29.1029 25.8568C28.7444 26.2154 28.0926 26.813 27.5071 27.2901C27.0978 27.6236 26.503 27.594 26.1296 27.2207Z" fill="#93A8BF"/>
<path d="M21.4504 21.4011L25.118 17.7335L13.7566 14.1639C13.5226 14.1042 13.2901 14.161 13.1353 14.3158L12.1754 15.2757C11.8539 15.5971 11.9919 16.1864 12.4457 16.4301L21.4504 21.4011Z" fill="#014EA2"/>
<path d="M22.5898 22.5504L26.2574 18.8828L29.8271 30.2442C29.8868 30.4782 29.8299 30.7108 29.6752 30.8655L28.7153 31.8254C28.3938 32.1469 27.8046 32.0089 27.5609 31.5551L22.5898 22.5504Z" fill="#014EA2"/>
<path d="M15.7637 27.1667L15.7637 27.1667L18.0125 24.2352C18.8818 23.1019 19.8317 22.0192 20.8503 21.0006L27.0117 14.8392C27.8181 14.0329 28.739 13.3666 29.703 12.912C30.1255 12.7129 30.5283 12.5675 30.8585 12.5181C31.2022 12.4665 31.3472 12.5339 31.4062 12.5929C31.4651 12.6519 31.5325 12.7968 31.481 13.1406C31.4315 13.4708 31.2862 13.8736 31.087 14.296L31.087 14.2961C30.6326 15.2602 29.9662 16.181 29.1599 16.9874L22.9984 23.1488C21.9799 24.1673 20.8972 25.1172 19.7639 25.9866L16.8324 28.2354L17.1367 28.6321L16.8324 28.2354C16.2441 28.6868 15.7448 28.6025 15.5707 28.4284C15.3966 28.2542 15.3123 27.755 15.7637 27.1667Z" fill="#E0F3FC" stroke="#014EA2"/>
<path d="M30.0257 16.1518L29.8153 16.3622C29.6199 16.5576 27.4341 14.3718 27.6295 14.1765L27.8399 13.9661C27.9726 13.8334 28.1672 13.7916 28.3257 13.8618C29.1156 14.2111 29.7806 14.8762 30.13 15.6661C30.2001 15.8246 30.1583 16.0192 30.0257 16.1518Z" fill="#014793"/>
<path d="M15.8828 28.4023C15.8443 28.4023 15.8062 28.3948 15.7707 28.38C15.7351 28.3653 15.7028 28.3437 15.6756 28.3164C15.6207 28.2615 15.5898 28.187 15.5898 28.1093C15.5898 28.0316 15.6207 27.9571 15.6756 27.9021L18.2342 25.3436C18.2891 25.2887 18.3636 25.2578 18.4413 25.2578C18.519 25.2578 18.5935 25.2887 18.6485 25.3436C18.7034 25.3986 18.7343 25.4731 18.7343 25.5508C18.7343 25.6285 18.7034 25.703 18.6485 25.7579L16.09 28.3164C16.0628 28.3437 16.0305 28.3653 15.9949 28.38C15.9594 28.3948 15.9213 28.4023 15.8828 28.4023Z" fill="#06376C"/>
</g>
<defs>
<clipPath id="clip0_3458_117083">
<rect width="44" height="44" rx="22" fill="white"/>
</clipPath>
</defs>
</svg>
