<svg width="44" height="44" viewBox="0 0 44 44" fill="none" xmlns="http://www.w3.org/2000/svg">
<g clip-path="url(#clip0_3458_128288)">
<rect width="44" height="44" rx="22" fill="#E6EDF6"/>
<rect x="11" y="17" width="4" height="13" fill="white"/>
<rect x="29" y="17" width="4" height="13" fill="white"/>
<rect x="15" y="17" width="14" height="13" fill="#9AB8DF"/>
<path d="M31.434 15.9073H26.1754V13.2471C26.1754 12.8302 25.8374 12.4922 25.4205 12.4922H18.5795C18.1626 12.4922 17.8246 12.8302 17.8246 13.2471V15.9073H12.566C11.1511 15.9073 10 17.0584 10 18.4732V28.9421C10 30.357 11.1511 31.5081 12.566 31.5081H31.434C32.8489 31.5081 34 30.357 34 28.9421V18.4732C34 17.0584 32.8488 15.9073 31.434 15.9073ZM19.3343 14.002H24.6656V15.9074H19.3343V14.002ZM14.1744 29.9984H12.566C11.9836 29.9984 11.5097 29.5246 11.5097 28.9422V18.4732C11.5097 17.8909 11.9836 17.4171 12.566 17.4171H14.1744V29.9984ZM28.3158 29.9984H15.6842V17.4171H28.3158V29.9984H28.3158ZM32.4902 28.9422C32.4902 29.5246 32.0164 29.9984 31.434 29.9984H29.8256V17.4171H31.434C32.0164 17.4171 32.4902 17.8909 32.4902 18.4732V28.9422Z" fill="#014EA2"/>
</g>
<defs>
<clipPath id="clip0_3458_128288">
<rect width="44" height="44" rx="22" fill="white"/>
</clipPath>
</defs>
</svg>
