<svg width="100" height="80" viewBox="0 0 100 80" fill="none" xmlns="http://www.w3.org/2000/svg">
<rect width="100" height="80" rx="12" fill="#E6EDF6"/>
<g clip-path="url(#clip0_4_67)">
<path d="M22.7577 41.8694V65.3541C22.7577 67.4293 24.44 69.1117 26.5153 69.1117H73.4847C75.56 69.1117 77.2423 67.4294 77.2423 65.3541V41.8694H22.7577Z" fill="#407093"/>
<path d="M22.7577 41.8694V65.3541C22.7577 67.4294 24.44 69.1117 26.5153 69.1117H73.4847C75.56 69.1117 77.2423 67.4294 77.2423 65.3541H36.8485C32.6981 65.3541 29.3334 61.9894 29.3334 57.839V53.6532C29.3334 53.0553 29.8847 52.6059 30.4674 52.7396C31.6361 53.0075 32.8313 53.1425 34.0303 53.1421H65.9695C70.3653 53.1421 74.3516 51.3561 77.2422 48.4724V41.8695L22.7577 41.8694Z" fill="#407093"/>
<path d="M65.9696 50.3243H34.0304C26.767 50.3243 20.8789 44.4362 20.8789 37.173V25.9002C20.8789 24.8627 21.7201 24.0215 22.7577 24.0215H77.2422C78.2798 24.0215 79.121 24.8627 79.121 25.9002V37.173C79.1211 44.4362 73.233 50.3243 65.9696 50.3243Z" fill="#407093"/>
<path d="M41.5447 20.2637H39.6659C39.4168 20.2637 39.1779 20.3626 39.0017 20.5388C38.8255 20.715 38.7266 20.9539 38.7266 21.203V24.0212H42.4842V21.203C42.4841 20.9539 42.3852 20.715 42.209 20.5388C42.0328 20.3626 41.7938 20.2637 41.5447 20.2637ZM60.3324 20.2637H58.4537C58.2045 20.2637 57.9656 20.3626 57.7894 20.5388C57.6133 20.715 57.5143 20.9539 57.5143 21.203V24.0212H61.2719V21.203C61.2719 21.0797 61.2476 20.9575 61.2004 20.8435C61.1532 20.7296 61.084 20.626 60.9967 20.5388C60.9095 20.4515 60.8059 20.3823 60.6919 20.3351C60.578 20.2879 60.4558 20.2637 60.3324 20.2637Z" fill="#5A4146"/>
<path d="M67.8468 31.5366H31.2106C28.0977 31.5366 25.5742 29.0131 25.5742 25.9002V24.0215H73.4832V25.9002C73.4832 29.0132 70.9598 31.5366 67.8468 31.5366Z" fill="#365E7D"/>
<path d="M39.6676 53.1413H35.91C34.8724 53.1413 34.0312 52.3002 34.0312 51.2626V49.8535H41.5464V51.2626C41.5464 52.3002 40.7052 53.1413 39.6676 53.1413Z" fill="#E7CA05"/>
<path d="M40.1373 51.2634H35.4403C34.6621 51.2634 34.0312 50.6326 34.0312 49.8544C34.0312 49.0761 34.6621 48.4453 35.4403 48.4453H40.1373C40.9155 48.4453 41.5464 49.0761 41.5464 49.8544C41.5464 50.6324 40.9154 51.2634 40.1373 51.2634Z" fill="#FFDE00"/>
<path d="M64.0895 53.1413H60.3319C59.2943 53.1413 58.4531 52.3002 58.4531 51.2626V49.8535H65.9682V51.2626C65.9682 52.3002 65.1271 53.1413 64.0895 53.1413Z" fill="#E7CA05"/>
<path d="M64.5592 51.2634H59.8622C59.0839 51.2634 58.4531 50.6326 58.4531 49.8544C58.4531 49.0761 59.0839 48.4453 59.8622 48.4453H64.5592C65.3374 48.4453 65.9682 49.0761 65.9682 49.8544C65.9682 50.6324 65.3374 51.2634 64.5592 51.2634Z" fill="#FFDE00"/>
<path d="M80 25.909C80 24.3884 78.7629 23.1512 77.2423 23.1512H62.1515V21.2121C62.1515 20.2095 61.3359 19.3939 60.3332 19.3939H60.2348C59.7874 14.1394 55.3684 10 50 10C44.6316 10 40.2126 14.1394 39.7652 19.3939H39.6668C38.6641 19.3939 37.8485 20.2095 37.8485 21.2121V23.1514H22.7577C21.2371 23.1515 20 24.3885 20 25.909V37.1816C20 39.7322 20.6844 42.1258 21.8787 44.189V65.3634C21.8787 67.9199 23.9587 69.9998 26.5152 69.9998H73.4847C76.0413 69.9998 78.1211 67.9198 78.1211 65.3634V44.1957C79.3511 42.0687 80 39.6589 80 37.1818V25.909ZM60.3937 21.2121V23.1514H58.394V21.2121C58.394 21.1788 58.4211 21.1517 58.4545 21.1517H60.3332C60.3666 21.1517 60.3937 21.1789 60.3937 21.2121ZM50 11.7578C54.3984 11.7578 58.0284 15.1101 58.4697 19.3939H58.4545C57.4518 19.3939 56.6362 20.2095 56.6362 21.2121V23.1514H43.3638V21.2121C43.3638 20.2095 42.5482 19.3939 41.5455 19.3939H41.5303C41.9716 15.1101 45.6016 11.7578 50 11.7578ZM39.6063 21.2121C39.6063 21.1788 39.6334 21.1517 39.6668 21.1517H41.5455C41.5789 21.1517 41.606 21.1788 41.606 21.2121V23.1514H39.6063V21.2121ZM78.2422 37.1818C78.2422 39.5484 77.5675 41.8454 76.291 43.8243C75.0506 45.7499 73.2972 47.2909 71.2284 48.2739C71.0179 48.3739 70.8557 48.5535 70.7775 48.773C70.6993 48.9926 70.7116 49.2343 70.8116 49.4448C70.861 49.5491 70.9306 49.6426 71.0162 49.72C71.1019 49.7974 71.2019 49.8572 71.3107 49.8959C71.4194 49.9346 71.5347 49.9515 71.65 49.9456C71.7653 49.9398 71.8783 49.9112 71.9825 49.8617C73.6417 49.0731 75.1301 47.9667 76.3633 46.605V65.3635C76.3633 66.9508 75.0719 68.2421 73.4847 68.2421H26.5153C24.928 68.2421 23.6367 66.9507 23.6367 65.3635V46.5965C26.0213 49.2266 29.3879 50.95 33.1515 51.1839V51.2727C33.1515 52.7934 34.3886 54.0304 35.9093 54.0304H36.9091V54.0909C36.9091 54.324 37.0017 54.5475 37.1665 54.7123C37.3314 54.8772 37.5549 54.9698 37.788 54.9698C38.0211 54.9698 38.2447 54.8772 38.4095 54.7123C38.5743 54.5475 38.6669 54.324 38.6669 54.0909V54.0304H39.6668C41.1874 54.0304 42.4244 52.7932 42.4244 51.2727V51.2123H57.5756V51.2727C57.5756 52.7934 58.8127 54.0304 60.3332 54.0304H61.3331V54.0909C61.3331 54.324 61.4257 54.5475 61.5905 54.7123C61.7553 54.8772 61.9789 54.9698 62.212 54.9698C62.4451 54.9698 62.6686 54.8772 62.8335 54.7123C62.9983 54.5475 63.0909 54.324 63.0909 54.0909V54.0304H64.0907C65.6114 54.0304 66.8485 52.7932 66.8485 51.2727V51.1833C67.226 51.16 67.602 51.1233 67.973 51.0701C68.0873 51.0538 68.1972 51.0151 68.2965 50.9562C68.3958 50.8974 68.4826 50.8196 68.5518 50.7272C68.621 50.6349 68.6714 50.5298 68.7 50.418C68.7286 50.3062 68.7349 50.1898 68.7186 50.0755C68.6499 49.595 68.2043 49.2604 67.724 49.33C67.3851 49.3785 67.0414 49.4112 66.6963 49.4314C66.3218 48.3525 65.2957 47.5756 64.0909 47.5756H63.091V44.697C63.091 44.4639 62.9984 44.2403 62.8336 44.0755C62.6688 43.9107 62.4452 43.8181 62.2121 43.8181C61.979 43.8181 61.7555 43.9107 61.5906 44.0755C61.4258 44.2403 61.3332 44.4639 61.3332 44.697V47.5756H60.3334C59.12 47.5756 58.088 48.3636 57.7201 49.4543H42.2799C41.9121 48.3636 40.88 47.5756 39.6666 47.5756H38.6668V44.697C38.6668 44.4639 38.5742 44.2403 38.4094 44.0755C38.2445 43.9107 38.021 43.8181 37.7879 43.8181C37.5548 43.8181 37.3312 43.9107 37.1664 44.0755C37.0016 44.2403 36.909 44.4639 36.909 44.697V47.5756H35.9091C34.704 47.5756 33.6777 48.3529 33.3034 49.4322C26.8734 49.0547 21.7578 43.7048 21.7578 37.1818V25.9093C21.7578 25.3579 22.2064 24.9093 22.7577 24.9093H77.2423C77.7937 24.9093 78.2422 25.3579 78.2422 25.9093V37.1818ZM39.6668 49.3334C40.2181 49.3334 40.6666 49.782 40.6666 50.3332V51.2726C40.6666 51.824 40.218 52.2725 39.6668 52.2725H35.9093C35.3579 52.2725 34.9093 51.8239 34.9093 51.2726V50.3332C34.9093 49.7819 35.3579 49.3334 35.9093 49.3334H39.6668ZM64.0909 49.3334C64.6422 49.3334 65.0908 49.782 65.0908 50.3332V51.2726C65.0908 51.824 64.6422 52.2725 64.0909 52.2725H60.3334C59.782 52.2725 59.3335 51.8239 59.3335 51.2726V50.3389L59.3338 50.3332L59.3336 50.3304C59.3352 49.7805 59.783 49.3334 60.3334 49.3334H64.0909Z" fill="#161C22"/>
<path d="M32.2105 65.3633C32.2105 65.5964 32.3031 65.8199 32.4679 65.9848C32.6327 66.1496 32.8563 66.2422 33.0894 66.2422H72.5438C72.7769 66.2422 73.0005 66.1496 73.1653 65.9848C73.3301 65.8199 73.4227 65.5964 73.4227 65.3633C73.4227 65.1302 73.3301 64.9066 73.1653 64.7418C73.0005 64.577 72.7769 64.4844 72.5438 64.4844H33.0894C32.8563 64.4844 32.6327 64.577 32.4679 64.7418C32.3031 64.9066 32.2105 65.1302 32.2105 65.3633ZM29.3315 64.4844H27.4531C27.22 64.4844 26.9965 64.577 26.8316 64.7418C26.6668 64.9066 26.5742 65.1302 26.5742 65.3633C26.5742 65.5964 26.6668 65.8199 26.8316 65.9848C26.9965 66.1496 27.22 66.2422 27.4531 66.2422H29.3315C29.5646 66.2422 29.7882 66.1496 29.953 65.9848C30.1178 65.8199 30.2104 65.5964 30.2104 65.3633C30.2104 65.1302 30.1178 64.9066 29.953 64.7418C29.7882 64.577 29.5646 64.4844 29.3315 64.4844Z" fill="#161C22"/>
</g>
<defs>
<clipPath id="clip0_4_67">
<rect width="60" height="60" fill="white" transform="translate(20 10)"/>
</clipPath>
</defs>
</svg>
