<svg width="100" height="80" viewBox="0 0 100 80" fill="none" xmlns="http://www.w3.org/2000/svg">
<rect width="100" height="80" rx="12" fill="#E6EDF6"/>
<g clip-path="url(#clip0_4_86)">
<path d="M60.625 31.875H39.375C37.3039 31.875 35.625 33.5539 35.625 35.625V61.875C35.625 63.9461 37.3039 65.625 39.375 65.625H60.625C62.6961 65.625 64.375 63.9461 64.375 61.875V35.625C64.375 33.5539 62.6961 31.875 60.625 31.875Z" fill="#7190C4"/>
<path d="M40.625 32.5H60.625C61.4538 32.5 62.2487 32.8292 62.8347 33.4153C63.4208 34.0013 63.75 34.7962 63.75 35.625V61.25C63.75 61.913 63.4866 62.5489 63.0178 63.0178C62.5489 63.4866 61.913 63.75 61.25 63.75H39.375C38.8777 63.75 38.4008 63.5525 38.0492 63.2008C37.6975 62.8492 37.5 62.3723 37.5 61.875V35.625C37.5 34.7962 37.8292 34.0013 38.4153 33.4153C39.0013 32.8292 39.7962 32.5 40.625 32.5Z" fill="#89A3CE"/>
<path d="M43.75 39.375C43.75 38.3395 42.9105 37.5 41.875 37.5C40.8395 37.5 40 38.3395 40 39.375V58.125C40 59.1605 40.8395 60 41.875 60C42.9105 60 43.75 59.1605 43.75 58.125V39.375Z" fill="#7190C4"/>
<path d="M51.875 39.375C51.875 38.3395 51.0355 37.5 50 37.5C48.9645 37.5 48.125 38.3395 48.125 39.375V58.125C48.125 59.1605 48.9645 60 50 60C51.0355 60 51.875 59.1605 51.875 58.125V39.375Z" fill="#7190C4"/>
<path d="M60 39.375C60 38.3395 59.1605 37.5 58.125 37.5C57.0895 37.5 56.25 38.3395 56.25 39.375V58.125C56.25 59.1605 57.0895 60 58.125 60C59.1605 60 60 59.1605 60 58.125V39.375Z" fill="#7190C4"/>
<path d="M38.75 69.375C39.7855 69.375 40.625 68.5355 40.625 67.5C40.625 66.4645 39.7855 65.625 38.75 65.625C37.7145 65.625 36.875 66.4645 36.875 67.5C36.875 68.5355 37.7145 69.375 38.75 69.375Z" fill="#8288A1"/>
<path d="M61.25 69.375C62.2855 69.375 63.125 68.5355 63.125 67.5C63.125 66.4645 62.2855 65.625 61.25 65.625C60.2145 65.625 59.375 66.4645 59.375 67.5C59.375 68.5355 60.2145 69.375 61.25 69.375Z" fill="#8288A1"/>
<path d="M59.375 15.625V17.5H55.625V15.625C55.625 15.2935 55.4933 14.9755 55.2589 14.7411C55.0245 14.5067 54.7065 14.375 54.375 14.375H45.625C45.2935 14.375 44.9755 14.5067 44.7411 14.7411C44.5067 14.9755 44.375 15.2935 44.375 15.625V17.5H40.625V15.625C40.625 14.2989 41.1518 13.0271 42.0895 12.0895C43.0271 11.1518 44.2989 10.625 45.625 10.625H54.375C55.7011 10.625 56.9729 11.1518 57.9105 12.0895C58.8482 13.0271 59.375 14.2989 59.375 15.625Z" fill="#89A3CE"/>
<path d="M57.5 15.625V17.5H55.625V15.625C55.625 15.2935 55.4933 14.9755 55.2589 14.7411C55.0245 14.5067 54.7065 14.375 54.375 14.375H45.625C45.2935 14.375 44.9755 14.5067 44.7411 14.7411C44.5067 14.9755 44.375 15.2935 44.375 15.625V17.5H42.5V15.625C42.5 14.7962 42.8292 14.0013 43.4153 13.4153C44.0013 12.8292 44.7962 12.5 45.625 12.5H54.375C55.2038 12.5 55.9987 12.8292 56.5847 13.4153C57.1708 14.0013 57.5 14.7962 57.5 15.625Z" fill="#7190C4"/>
<path d="M56.25 17.5H58.75V31.875H56.25V17.5ZM41.25 17.5H43.75V31.875H41.25V17.5Z" fill="#8288A1"/>
<path d="M65 61.875V35.625C65 34.4647 64.5391 33.3519 63.7186 32.5314C62.8981 31.7109 61.7853 31.25 60.625 31.25H59.375V18.125C59.5408 18.125 59.6997 18.0592 59.8169 17.9419C59.9342 17.8247 60 17.6658 60 17.5V15.625C60 14.1332 59.4074 12.7024 58.3525 11.6475C57.2976 10.5926 55.8668 10 54.375 10H45.625C44.1332 10 42.7024 10.5926 41.6475 11.6475C40.5926 12.7024 40 14.1332 40 15.625V17.5C40 17.6658 40.0658 17.8247 40.1831 17.9419C40.3003 18.0592 40.4592 18.125 40.625 18.125V31.25H39.375C38.2147 31.25 37.1019 31.7109 36.2814 32.5314C35.4609 33.3519 35 34.4647 35 35.625V61.875C35.0004 62.6303 35.1963 63.3727 35.5687 64.0298C35.941 64.687 36.4772 65.2365 37.125 65.625C36.8538 65.857 36.6353 66.1443 36.4844 66.4677C36.3335 66.7911 36.2536 67.1431 36.25 67.5C36.25 68.163 36.5134 68.7989 36.9822 69.2678C37.4511 69.7366 38.087 70 38.75 70C39.413 70 40.0489 69.7366 40.5178 69.2678C40.9866 68.7989 41.25 68.163 41.25 67.5C41.2482 67.0594 41.1272 66.6275 40.9 66.25H59.1C58.8728 66.6275 58.7518 67.0594 58.75 67.5C58.75 68.163 59.0134 68.7989 59.4822 69.2678C59.9511 69.7366 60.587 70 61.25 70C61.913 70 62.5489 69.7366 63.0178 69.2678C63.4866 68.7989 63.75 68.163 63.75 67.5C63.7464 67.1431 63.6665 66.7911 63.5156 66.4677C63.3647 66.1443 63.1462 65.857 62.875 65.625C63.5228 65.2365 64.059 64.687 64.4313 64.0298C64.8037 63.3727 64.9996 62.6303 65 61.875ZM58.125 31.25H56.875V18.125H58.125V31.25ZM44.375 31.25V18.125C44.5408 18.125 44.6997 18.0592 44.8169 17.9419C44.9342 17.8247 45 17.6658 45 17.5V15.625C45 15.4592 45.0658 15.3003 45.1831 15.1831C45.3003 15.0658 45.4592 15 45.625 15H54.375C54.5408 15 54.6997 15.0658 54.8169 15.1831C54.9342 15.3003 55 15.4592 55 15.625V17.5C55 17.6658 55.0658 17.8247 55.1831 17.9419C55.3003 18.0592 55.4592 18.125 55.625 18.125V31.25H44.375ZM41.25 15.625C41.25 14.4647 41.7109 13.3519 42.5314 12.5314C43.3519 11.7109 44.4647 11.25 45.625 11.25H54.375C55.5353 11.25 56.6481 11.7109 57.4686 12.5314C58.2891 13.3519 58.75 14.4647 58.75 15.625V16.875H56.25V15.625C56.25 15.1277 56.0525 14.6508 55.7008 14.2992C55.3492 13.9475 54.8723 13.75 54.375 13.75H45.625C45.1277 13.75 44.6508 13.9475 44.2992 14.2992C43.9475 14.6508 43.75 15.1277 43.75 15.625V16.875H41.25V15.625ZM41.875 18.125H43.125V31.25H41.875V18.125ZM36.25 61.875V35.625C36.25 34.7962 36.5792 34.0013 37.1653 33.4153C37.7513 32.8292 38.5462 32.5 39.375 32.5H60.625C61.4538 32.5 62.2487 32.8292 62.8347 33.4153C63.4208 34.0013 63.75 34.7962 63.75 35.625V61.875C63.75 62.7038 63.4208 63.4987 62.8347 64.0847C62.2487 64.6708 61.4538 65 60.625 65H39.375C38.5462 65 37.7513 64.6708 37.1653 64.0847C36.5792 63.4987 36.25 62.7038 36.25 61.875ZM38.75 68.75C38.5028 68.75 38.2611 68.6767 38.0555 68.5393C37.85 68.402 37.6898 68.2068 37.5952 67.9784C37.5005 67.7499 37.4758 67.4986 37.524 67.2561C37.5722 67.0137 37.6913 66.7909 37.8661 66.6161C38.0409 66.4413 38.2637 66.3222 38.5061 66.274C38.7486 66.2258 38.9999 66.2505 39.2284 66.3452C39.4568 66.4398 39.652 66.6 39.7893 66.8055C39.9267 67.0111 40 67.2528 40 67.5C40 67.8315 39.8683 68.1495 39.6339 68.3839C39.3995 68.6183 39.0815 68.75 38.75 68.75ZM61.25 68.75C61.0028 68.75 60.7611 68.6767 60.5555 68.5393C60.35 68.402 60.1898 68.2068 60.0952 67.9784C60.0005 67.7499 59.9758 67.4986 60.024 67.2561C60.0722 67.0137 60.1913 66.7909 60.3661 66.6161C60.5409 66.4413 60.7637 66.3222 61.0061 66.274C61.2486 66.2258 61.4999 66.2505 61.7284 66.3452C61.9568 66.4398 62.152 66.6 62.2893 66.8055C62.4267 67.0111 62.5 67.2528 62.5 67.5C62.5 67.8315 62.3683 68.1495 62.1339 68.3839C61.8995 68.6183 61.5815 68.75 61.25 68.75Z" fill="#39426A"/>
<path d="M41.875 60.625C42.538 60.625 43.1739 60.3616 43.6428 59.8928C44.1116 59.4239 44.375 58.788 44.375 58.125V39.375C44.375 38.712 44.1116 38.0761 43.6428 37.6072C43.1739 37.1384 42.538 36.875 41.875 36.875C41.212 36.875 40.5761 37.1384 40.1072 37.6072C39.6384 38.0761 39.375 38.712 39.375 39.375V58.125C39.375 58.788 39.6384 59.4239 40.1072 59.8928C40.5761 60.3616 41.212 60.625 41.875 60.625ZM40.625 39.375C40.625 39.0435 40.7567 38.7255 40.9911 38.4911C41.2255 38.2567 41.5435 38.125 41.875 38.125C42.2065 38.125 42.5245 38.2567 42.7589 38.4911C42.9933 38.7255 43.125 39.0435 43.125 39.375V58.125C43.125 58.4565 42.9933 58.7745 42.7589 59.0089C42.5245 59.2433 42.2065 59.375 41.875 59.375C41.5435 59.375 41.2255 59.2433 40.9911 59.0089C40.7567 58.7745 40.625 58.4565 40.625 58.125V39.375ZM50 60.625C50.663 60.625 51.2989 60.3616 51.7678 59.8928C52.2366 59.4239 52.5 58.788 52.5 58.125V39.375C52.5 38.712 52.2366 38.0761 51.7678 37.6072C51.2989 37.1384 50.663 36.875 50 36.875C49.337 36.875 48.7011 37.1384 48.2322 37.6072C47.7634 38.0761 47.5 38.712 47.5 39.375V58.125C47.5 58.788 47.7634 59.4239 48.2322 59.8928C48.7011 60.3616 49.337 60.625 50 60.625ZM48.75 39.375C48.75 39.0435 48.8817 38.7255 49.1161 38.4911C49.3505 38.2567 49.6685 38.125 50 38.125C50.3315 38.125 50.6495 38.2567 50.8839 38.4911C51.1183 38.7255 51.25 39.0435 51.25 39.375V58.125C51.25 58.4565 51.1183 58.7745 50.8839 59.0089C50.6495 59.2433 50.3315 59.375 50 59.375C49.6685 59.375 49.3505 59.2433 49.1161 59.0089C48.8817 58.7745 48.75 58.4565 48.75 58.125V39.375ZM58.125 60.625C58.788 60.625 59.4239 60.3616 59.8928 59.8928C60.3616 59.4239 60.625 58.788 60.625 58.125V39.375C60.625 38.712 60.3616 38.0761 59.8928 37.6072C59.4239 37.1384 58.788 36.875 58.125 36.875C57.462 36.875 56.8261 37.1384 56.3572 37.6072C55.8884 38.0761 55.625 38.712 55.625 39.375V58.125C55.625 58.788 55.8884 59.4239 56.3572 59.8928C56.8261 60.3616 57.462 60.625 58.125 60.625ZM56.875 39.375C56.875 39.0435 57.0067 38.7255 57.2411 38.4911C57.4755 38.2567 57.7935 38.125 58.125 38.125C58.4565 38.125 58.7745 38.2567 59.0089 38.4911C59.2433 38.7255 59.375 39.0435 59.375 39.375V58.125C59.375 58.4565 59.2433 58.7745 59.0089 59.0089C58.7745 59.2433 58.4565 59.375 58.125 59.375C57.7935 59.375 57.4755 59.2433 57.2411 59.0089C57.0067 58.7745 56.875 58.4565 56.875 58.125V39.375Z" fill="#39426A"/>
<path d="M60.95 33.75H43.425C42.9141 33.75 42.5 34.1641 42.5 34.675V34.7C42.5 35.2109 42.9141 35.625 43.425 35.625H60.95C61.4609 35.625 61.875 35.2109 61.875 34.7V34.675C61.875 34.1641 61.4609 33.75 60.95 33.75Z" fill="#A5B9DB"/>
<path d="M39.6875 35.625C40.2053 35.625 40.625 35.2053 40.625 34.6875C40.625 34.1697 40.2053 33.75 39.6875 33.75C39.1697 33.75 38.75 34.1697 38.75 34.6875C38.75 35.2053 39.1697 35.625 39.6875 35.625Z" fill="#A5B9DB"/>
</g>
<defs>
<clipPath id="clip0_4_86">
<rect width="60" height="60" fill="white" transform="translate(20 10)"/>
</clipPath>
</defs>
</svg>
