<svg width="100" height="80" viewBox="0 0 100 80" fill="none" xmlns="http://www.w3.org/2000/svg">
<rect width="100" height="80" rx="12" fill="#E6EDF6"/>
<path d="M62.2111 24.0312H37.7869C36.2304 24.0312 34.9688 25.293 34.9688 26.8494V58.7886C34.9688 60.3451 36.2305 61.6067 37.7869 61.6067H62.2111C63.7676 61.6067 65.0292 60.345 65.0292 58.7886V26.8494C65.0292 25.293 63.7675 24.0312 62.2111 24.0312Z" fill="#FFDE00"/>
<path d="M64.8565 58.7888H39.6656C38.628 58.7888 37.7869 57.9477 37.7869 56.9101V24.0312C36.2304 24.0312 34.9688 25.293 34.9688 26.8494V58.7886C34.9688 60.3451 36.2305 61.6067 37.7869 61.6067H62.211C63.7675 61.6067 65.0291 60.345 65.0291 58.7886H64.8565V58.7888Z" fill="#BEA608"/>
<path d="M37.7869 69.1207H35.9081C35.659 69.1207 35.4201 69.0217 35.2439 68.8456C35.0677 68.6694 34.9688 68.4305 34.9688 68.1813V65.3632C34.9688 65.1141 35.0677 64.8751 35.2439 64.699C35.4201 64.5228 35.659 64.4238 35.9081 64.4238H37.7869C38.036 64.4238 38.2749 64.5228 38.4511 64.699C38.6273 64.8751 38.7263 65.1141 38.7263 65.3632V68.1813C38.7263 68.4305 38.6273 68.6694 38.4511 68.8456C38.2749 69.0217 38.036 69.1207 37.7869 69.1207Z" fill="#6F6571"/>
<path d="M39.6656 61.6068V59.7281C39.6656 58.1716 38.4039 56.91 36.8475 56.91H34.9688V58.7887C34.9688 60.3452 36.2305 61.6068 37.7869 61.6068H39.6656ZM39.6656 24.0312V25.91C39.6656 27.4665 38.4039 28.7281 36.8475 28.7281H34.9688V26.8494C34.9688 25.2929 36.2305 24.0312 37.7869 24.0312H39.6656Z" fill="#5D5360"/>
<path d="M60.3328 61.606V59.7272C60.3328 58.1707 61.5945 56.9091 63.1509 56.9091H65.0296V58.7879C65.0296 60.3443 63.7679 61.606 62.2115 61.606H60.3328ZM60.3328 24.0304V25.9091C60.3328 27.4656 61.5945 28.7273 63.1509 28.7273H65.0296V26.8485C65.0296 25.292 63.7679 24.0304 62.2115 24.0304H60.3328ZM64.0904 69.1211H62.2116C61.9625 69.1211 61.7236 69.0221 61.5474 68.846C61.3712 68.6698 61.2723 68.4309 61.2723 68.1817V65.3636C61.2723 65.1145 61.3712 64.8755 61.5474 64.6994C61.7236 64.5232 61.9625 64.4242 62.2116 64.4242H64.0904C64.2138 64.4242 64.3359 64.4485 64.4499 64.4957C64.5638 64.5429 64.6674 64.6121 64.7546 64.6994C64.8419 64.7866 64.9111 64.8901 64.9583 65.0041C65.0055 65.1181 65.0298 65.2402 65.0298 65.3636V68.1817C65.0298 68.3051 65.0055 68.4272 64.9583 68.5412C64.9111 68.6552 64.8419 68.7587 64.7546 68.846C64.6674 68.9332 64.5638 69.0024 64.4499 69.0496C64.3359 69.0968 64.2138 69.1211 64.0904 69.1211ZM54.6965 14.6365H45.3027C45.0535 14.6365 44.8146 14.5376 44.6384 14.3614C44.4622 14.1852 44.3633 13.9463 44.3633 13.6971V11.8183C44.3633 11.5691 44.4622 11.3302 44.6384 11.154C44.8146 10.9779 45.0535 10.8789 45.3027 10.8789H54.6965C54.9457 10.8789 55.1846 10.9779 55.3608 11.154C55.5369 11.3302 55.6359 11.5691 55.6359 11.8183V13.697C55.6359 13.8204 55.6116 13.9426 55.5644 14.0566C55.5172 14.1705 55.448 14.2741 55.3608 14.3613C55.2736 14.4486 55.17 14.5178 55.056 14.565C54.9421 14.6122 54.8199 14.6365 54.6965 14.6365Z" fill="#6F6571"/>
<path d="M45.3027 10.8789C45.0535 10.8789 44.8146 10.9779 44.6384 11.154C44.4623 11.3302 44.3633 11.5691 44.3633 11.8183V13.697C44.3633 13.9462 44.4623 14.1851 44.6384 14.3613C44.8146 14.5374 45.0535 14.6364 45.3027 14.6364H47.1814V10.8789H45.3027Z" fill="#5D5360"/>
<path d="M62.211 23.1515H55.5748V15.2877C56.1342 14.9773 56.5141 14.3809 56.5141 13.697V11.8183C56.5143 10.8156 55.6985 10 54.696 10H45.3021C44.2995 10 43.4838 10.8156 43.4838 11.8183V13.697C43.4838 14.3809 43.8638 14.9773 44.4232 15.2877V23.1515H37.787C35.7484 23.1515 34.0898 24.81 34.0898 26.8486V58.7879C34.0898 60.5236 35.2925 61.983 36.9081 62.3785V63.5453H35.9082C34.9056 63.5453 34.0898 64.3609 34.0898 65.3636V68.1817C34.0898 69.1844 34.9056 70 35.9082 70H37.787C38.7896 70 39.6053 69.1844 39.6053 68.1817V65.3636C39.6053 64.6797 39.2254 64.0833 38.6659 63.7729V62.4849H61.3322V63.7729C60.7727 64.0833 60.3928 64.6797 60.3928 65.3636V68.1817C60.3928 69.1844 61.2084 70 62.2111 70H64.0898C65.0925 70 65.9082 69.1844 65.9082 68.1817V65.3636C65.9082 64.3609 65.0925 63.5453 64.0898 63.5453H63.09V62.3785C64.7055 61.983 65.9082 60.5236 65.9082 58.7879V55.0301C65.9082 54.797 65.8156 54.5735 65.6508 54.4086C65.486 54.2438 65.2624 54.1512 65.0293 54.1512C64.7962 54.1512 64.5727 54.2438 64.4079 54.4086C64.243 54.5735 64.1504 54.797 64.1504 55.0301V56.0302H63.1505C61.1119 56.0302 59.4534 57.6886 59.4534 59.7272V60.7271H40.5446V59.7272C40.5446 57.6886 38.8862 56.0302 36.8476 56.0302H35.8477V29.6063H36.8476C38.8862 29.6063 40.5446 27.9479 40.5446 25.9093V24.9093H59.4533V25.9093C59.4533 27.9479 61.1118 29.6063 63.1504 29.6063H64.1503V51.2723C64.1503 51.5054 64.2429 51.7289 64.4077 51.8937C64.5726 52.0586 64.7961 52.1512 65.0292 52.1512C65.2623 52.1512 65.4859 52.0586 65.6507 51.8937C65.8155 51.7289 65.9081 51.5054 65.9081 51.2723V26.8485C65.9081 24.8099 64.2496 23.1515 62.211 23.1515ZM46.1809 15.5153H47.1804C47.4135 15.5153 47.637 15.4227 47.8019 15.2579C47.9667 15.0931 48.0593 14.8695 48.0593 14.6364C48.0593 14.4033 47.9667 14.1798 47.8019 14.0149C47.637 13.8501 47.4135 13.7575 47.1804 13.7575H45.302C45.286 13.7575 45.2706 13.7511 45.2592 13.7398C45.2479 13.7284 45.2415 13.7131 45.2415 13.697V11.8183C45.2415 11.7849 45.2686 11.7578 45.302 11.7578H54.6959C54.7293 11.7578 54.7563 11.7849 54.7563 11.8183V13.697C54.7563 13.7131 54.75 13.7284 54.7386 13.7398C54.7273 13.7511 54.7119 13.7575 54.6959 13.7575H50.9381C50.705 13.7575 50.4815 13.8501 50.3166 14.0149C50.1518 14.1798 50.0592 14.4033 50.0592 14.6364C50.0592 14.8695 50.1518 15.0931 50.3166 15.2579C50.4815 15.4227 50.705 15.5153 50.9381 15.5153H53.817V23.1514H46.1809V15.5153ZM37.8475 68.1817C37.8475 68.1978 37.8411 68.2131 37.8298 68.2245C37.8184 68.2358 37.803 68.2422 37.787 68.2422H35.9082C35.8922 68.2422 35.8768 68.2358 35.8654 68.2245C35.8541 68.2131 35.8477 68.1978 35.8477 68.1817V65.3636C35.8477 65.3302 35.8748 65.3031 35.9082 65.3031H37.787C37.8204 65.3031 37.8475 65.3302 37.8475 65.3636V68.1817ZM64.1503 65.3636V68.1817C64.1503 68.1978 64.1439 68.2131 64.1325 68.2245C64.1212 68.2358 64.1058 68.2422 64.0897 68.2422H62.211C62.1949 68.2422 62.1796 68.2358 62.1682 68.2245C62.1569 68.2131 62.1505 68.1978 62.1505 68.1817V65.3636C62.1505 65.3302 62.1776 65.3031 62.211 65.3031H64.0897C64.0977 65.3031 64.1056 65.3047 64.1129 65.3077C64.1203 65.3107 64.1269 65.3152 64.1326 65.3208C64.1382 65.3264 64.1427 65.3331 64.1457 65.3404C64.1487 65.3478 64.1503 65.3556 64.1503 65.3636ZM61.2111 59.7272C61.2111 58.6579 62.081 57.788 63.1504 57.788H64.1503V58.7879C64.1503 59.8572 63.2803 60.7271 62.211 60.7271H61.2111V59.7272ZM36.8475 57.788C37.9168 57.788 38.7867 58.6579 38.7867 59.7272V60.7271H37.7869C36.7175 60.7271 35.8475 59.8572 35.8475 58.7879V57.788H36.8475ZM38.7868 25.9091C38.7868 26.9785 37.917 27.8484 36.8476 27.8484H35.8477V26.8485C35.8477 25.7792 36.7177 24.9092 37.787 24.9092H38.7868V25.9091ZM63.1505 27.8485C62.0811 27.8485 61.2113 26.9786 61.2113 25.9093V24.9093H62.2111C63.2804 24.9093 64.1504 25.7793 64.1504 26.8486V27.8485H63.1505Z" fill="black"/>
<path d="M44.4234 27.7871V57.8476C44.4234 58.0807 44.516 58.3042 44.6809 58.4691C44.8457 58.6339 45.0692 58.7265 45.3023 58.7265C45.5354 58.7265 45.759 58.6339 45.9238 58.4691C46.0887 58.3042 46.1813 58.0807 46.1813 57.8476V27.7871C46.1813 27.554 46.0887 27.3305 45.9238 27.1656C45.759 27.0008 45.5354 26.9082 45.3023 26.9082C45.0692 26.9082 44.8457 27.0008 44.6809 27.1656C44.516 27.3305 44.4234 27.554 44.4234 27.7871ZM53.8174 27.7871V57.8476C53.8174 58.0807 53.91 58.3042 54.0748 58.4691C54.2397 58.6339 54.4632 58.7265 54.6963 58.7265C54.9294 58.7265 55.153 58.6339 55.3178 58.4691C55.4826 58.3042 55.5752 58.0807 55.5752 57.8476V27.7871C55.5752 27.554 55.4826 27.3305 55.3178 27.1656C55.153 27.0008 54.9294 26.9082 54.6963 26.9082C54.4632 26.9082 54.2397 27.0008 54.0748 27.1656C53.91 27.3305 53.8174 27.554 53.8174 27.7871ZM58.5143 32.484V53.1505C58.5143 53.3836 58.6069 53.6071 58.7717 53.7719C58.9365 53.9368 59.1601 54.0294 59.3932 54.0294C59.6263 54.0294 59.8499 53.9368 60.0147 53.7719C60.1795 53.6071 60.2721 53.3836 60.2721 53.1505V32.484C60.2721 32.2509 60.1795 32.0273 60.0147 31.8625C59.8499 31.6977 59.6263 31.6051 59.3932 31.6051C59.1601 31.6051 58.9365 31.6977 58.7717 31.8625C58.6069 32.0273 58.5143 32.2509 58.5143 32.484ZM39.7266 32.484V53.1505C39.7266 53.3836 39.8192 53.6071 39.984 53.7719C40.1488 53.9368 40.3724 54.0294 40.6055 54.0294C40.8386 54.0294 41.0621 53.9368 41.2269 53.7719C41.3918 53.6071 41.4844 53.3836 41.4844 53.1505V32.484C41.4844 32.2509 41.3918 32.0273 41.2269 31.8625C41.0621 31.6977 40.8386 31.6051 40.6055 31.6051C40.3724 31.6051 40.1488 31.6977 39.984 31.8625C39.8192 32.0273 39.7266 32.2509 39.7266 32.484ZM49.1204 27.7871V57.8476C49.1204 58.0807 49.213 58.3042 49.3779 58.4691C49.5427 58.6339 49.7662 58.7265 49.9993 58.7265C50.2324 58.7265 50.456 58.6339 50.6208 58.4691C50.7856 58.3042 50.8782 58.0807 50.8782 57.8476V27.7871C50.8782 27.554 50.7856 27.3305 50.6208 27.1656C50.456 27.0008 50.2324 26.9082 49.9993 26.9082C49.7662 26.9082 49.5427 27.0008 49.3779 27.1656C49.213 27.3305 49.1204 27.554 49.1204 27.7871Z" fill="black"/>
</svg>
