<svg width="100" height="80" viewBox="0 0 100 80" fill="none" xmlns="http://www.w3.org/2000/svg">
<rect width="100" height="80" rx="12" fill="#E6EDF6"/>
<path d="M49.5486 65.5356H28.081C25.8833 65.5356 24.1016 63.7539 24.1016 61.5562V50.3017C24.1016 48.104 25.8833 46.3223 28.081 46.3223H49.5486C51.7463 46.3223 53.528 48.104 53.528 50.3017V61.5562C53.528 63.7539 51.7463 65.5356 49.5486 65.5356Z" fill="#FC657E"/>
<path d="M71.9982 27.9805H50.3973C48.2361 27.9805 46.4844 29.7322 46.4844 31.8931V46.3222H49.5486C51.7463 46.3222 53.528 48.1039 53.528 50.3016V61.5561C53.528 63.6085 51.9683 65.2784 49.9728 65.4927C50.1141 65.5081 50.2517 65.5353 50.3973 65.5353H71.9982C74.1591 65.5353 75.9109 63.7836 75.9109 61.6227V31.8931C75.9109 29.7322 74.1591 27.9805 71.9982 27.9805Z" fill="#FFDE00"/>
<path d="M54.4727 14.5703H57.5695V27.9812H54.4727V14.5703ZM64.8234 14.5703H67.9202V27.9812H64.8234V14.5703Z" fill="#DAE6F1"/>
<path d="M44.5859 46.3223H47.6115V65.5354H44.5859V46.3223Z" fill="#F98FA6"/>
<path d="M52.9511 48.2439V37.6103C52.9511 37.2091 52.7917 36.8244 52.508 36.5407C52.2244 36.257 51.8396 36.0977 51.4384 36.0977C51.0373 36.0977 50.6525 36.257 50.3688 36.5407C50.0852 36.8244 49.9258 37.2091 49.9258 37.6103V46.3412C51.2106 46.462 52.3148 47.1948 52.9511 48.2439ZM57.9344 36.0977C57.5332 36.0977 57.1484 36.257 56.8648 36.5407C56.5811 36.8244 56.4217 37.2091 56.4217 37.6103V58.8534C56.4217 59.052 56.4608 59.2487 56.5369 59.4322C56.6129 59.6158 56.7243 59.7825 56.8648 59.923C57.0052 60.0634 57.172 60.1749 57.3555 60.2509C57.539 60.3269 57.7357 60.366 57.9344 60.366C58.133 60.366 58.3297 60.3269 58.5132 60.2509C58.6968 60.1749 58.8635 60.0634 59.004 59.923C59.1444 59.7825 59.2559 59.6158 59.3319 59.4322C59.4079 59.2487 59.447 59.052 59.447 58.8534V37.6103C59.4471 37.4117 59.408 37.2149 59.3319 37.0314C59.2559 36.8479 59.1445 36.6811 59.0041 36.5406C58.8636 36.4002 58.6968 36.2887 58.5133 36.2127C58.3297 36.1367 58.133 36.0976 57.9344 36.0977ZM64.4308 36.0977C64.0296 36.0977 63.6448 36.257 63.3612 36.5407C63.0775 36.8244 62.9181 37.2091 62.9181 37.6103V58.8534C62.9181 59.052 62.9573 59.2487 63.0333 59.4322C63.1093 59.6158 63.2207 59.7825 63.3612 59.923C63.5016 60.0634 63.6684 60.1749 63.8519 60.2509C64.0354 60.3269 64.2321 60.366 64.4308 60.366C64.6294 60.366 64.8261 60.3269 65.0096 60.2509C65.1932 60.1749 65.3599 60.0634 65.5004 59.923C65.6409 59.7825 65.7523 59.6158 65.8283 59.4322C65.9043 59.2487 65.9434 59.052 65.9434 58.8534V37.6103C65.9434 37.2092 65.784 36.8244 65.5003 36.5408C65.2167 36.2571 64.8319 36.0977 64.4308 36.0977ZM70.927 36.0977C70.5258 36.0977 70.141 36.257 69.8573 36.5407C69.5737 36.8244 69.4143 37.2091 69.4143 37.6103V58.8534C69.4143 59.2545 69.5737 59.6393 69.8573 59.923C70.141 60.2066 70.5258 60.366 70.927 60.366C71.3281 60.366 71.7129 60.2066 71.9966 59.923C72.2802 59.6393 72.4396 59.2545 72.4396 58.8534V37.6103C72.4396 37.4117 72.4005 37.215 72.3245 37.0314C72.2484 36.8479 72.137 36.6812 71.9966 36.5407C71.8561 36.4002 71.6893 36.2888 71.5058 36.2128C71.3223 36.1368 71.1256 36.0977 70.927 36.0977Z" fill="#BEA608"/>
<path d="M30.0195 46.3223H33.0451V65.5354H30.0195V46.3223Z" fill="#F98FA6"/>
<path d="M69.1163 15.1562H53.2794C53.124 15.1562 52.975 15.0945 52.8651 14.9846C52.7552 14.8747 52.6935 14.7257 52.6935 14.5703C52.6935 14.4149 52.7552 14.2659 52.8651 14.156C52.975 14.0461 53.124 13.9844 53.2794 13.9844H69.1163C69.2717 13.9844 69.4208 14.0461 69.5307 14.156C69.6405 14.2659 69.7023 14.4149 69.7023 14.5703C69.7023 14.7257 69.6405 14.8747 69.5307 14.9846C69.4208 15.0945 69.2717 15.1562 69.1163 15.1562ZM67.112 33.231H55.2835C55.1281 33.231 54.9791 33.1693 54.8692 33.0594C54.7593 32.9495 54.6976 32.8005 54.6976 32.6451C54.6976 32.4897 54.7593 32.3406 54.8692 32.2308C54.9791 32.1209 55.1281 32.0591 55.2835 32.0591H67.112C67.2674 32.0591 67.4164 32.1209 67.5263 32.2308C67.6362 32.3406 67.6979 32.4897 67.6979 32.6451C67.6979 32.8005 67.6362 32.9495 67.5263 33.0594C67.4164 33.1693 67.2674 33.231 67.112 33.231ZM43.5125 46.3841C43.3571 46.3841 43.2081 46.3224 43.0982 46.2125C42.9883 46.1026 42.9266 45.9536 42.9266 45.7982V44.7805C42.9266 42.5132 41.082 40.6687 38.8147 40.6687C36.5476 40.6687 34.7031 42.5132 34.7031 44.7805V45.7982C34.7031 45.9536 34.6413 46.1026 34.5314 46.2125C34.4216 46.3224 34.2725 46.3841 34.1171 46.3841C33.9617 46.3841 33.8127 46.3224 33.7028 46.2125C33.5929 46.1026 33.5312 45.9536 33.5312 45.7982V44.7805C33.5312 41.867 35.9012 39.4968 38.8147 39.4968C41.7282 39.4968 44.0985 41.867 44.0985 44.7805V45.7982C44.0985 45.9536 44.0367 46.1026 43.9268 46.2125C43.817 46.3224 43.6679 46.3841 43.5125 46.3841Z" fill="black"/>
<path d="M49.5486 66.1216H28.081C25.5636 66.1216 23.5156 64.0736 23.5156 61.5562V50.3017C23.5156 47.7843 25.5636 45.7363 28.081 45.7363H49.5488C52.066 45.7363 54.1142 47.7843 54.1142 50.3017V61.5562C54.114 64.0736 52.0658 66.1216 49.5486 66.1216ZM28.081 46.9084C26.2098 46.9084 24.6875 48.4307 24.6875 50.302V61.5564C24.6875 63.4277 26.2098 64.9499 28.081 64.9499H49.5488C51.4198 64.9499 52.9423 63.4277 52.9423 61.5564V50.302C52.9423 48.4307 51.4201 46.9084 49.5488 46.9084H28.081Z" fill="black"/>
<path d="M41.0904 50.5318H36.5391C36.4621 50.5318 36.3859 50.5166 36.3148 50.4872C36.2437 50.4577 36.1792 50.4146 36.1247 50.3602C36.0703 50.3058 36.0272 50.2412 35.9977 50.1701C35.9683 50.099 35.9531 50.0228 35.9531 49.9459C35.9531 49.8689 35.9683 49.7927 35.9977 49.7216C36.0272 49.6505 36.0703 49.5859 36.1247 49.5315C36.1792 49.4771 36.2437 49.434 36.3148 49.4045C36.3859 49.3751 36.4621 49.3599 36.5391 49.3599H41.0904C41.1673 49.3599 41.2435 49.3751 41.3146 49.4045C41.3857 49.434 41.4503 49.4771 41.5047 49.5315C41.5591 49.5859 41.6023 49.6505 41.6317 49.7216C41.6612 49.7927 41.6763 49.8689 41.6763 49.9459C41.6763 50.0228 41.6612 50.099 41.6317 50.1701C41.6023 50.2412 41.5591 50.3058 41.5047 50.3602C41.4503 50.4146 41.3857 50.4577 41.3146 50.4872C41.2435 50.5166 41.1673 50.5318 41.0904 50.5318ZM71.9981 66.1215H50.397C50.2559 66.1215 50.1314 66.1046 50.0215 66.0896C49.984 66.0847 49.9467 66.0795 49.909 66.0753C49.7653 66.0597 49.6325 65.9915 49.5361 65.884C49.4396 65.7764 49.3863 65.6369 49.3864 65.4925C49.3865 65.348 49.44 65.2086 49.5366 65.1011C49.6331 64.9937 49.766 64.9257 49.9097 64.9102C51.6384 64.7246 52.942 63.2825 52.942 61.5561V50.3016C52.942 48.4304 51.4198 46.9081 49.5485 46.9081H46.4843C46.3289 46.9081 46.1799 46.8464 46.07 46.7365C45.9601 46.6266 45.8984 46.4776 45.8984 46.3222V31.8931C45.8984 29.4125 47.9163 27.3945 50.397 27.3945H71.9981C74.4787 27.3945 76.4967 29.4125 76.4967 31.8931V61.6227C76.4969 64.1033 74.4787 66.1215 71.9981 66.1215ZM52.5886 64.9496H71.9981C73.8326 64.9496 75.3248 63.4571 75.3248 61.6227V31.8931C75.3248 30.0587 73.8326 28.5664 71.9981 28.5664H50.397C48.5625 28.5664 47.0702 30.0589 47.0702 31.8931V45.7362H49.5485C52.0659 45.7362 54.1139 47.7842 54.1139 50.3016V61.5561C54.1148 62.1975 53.9793 62.8319 53.7163 63.4169C53.4533 64.002 53.0689 64.5245 52.5886 64.9496Z" fill="black"/>
<path d="M64.3603 28.4516C64.2049 28.4516 64.0559 28.3899 63.946 28.28C63.8361 28.1701 63.7744 28.0211 63.7744 27.8657C63.7744 26.444 62.6175 25.2871 61.1958 25.2871C59.7741 25.2871 58.6172 26.444 58.6172 27.8657C58.6172 28.0211 58.5555 28.1701 58.4456 28.28C58.3357 28.3899 58.1867 28.4516 58.0312 28.4516C57.8758 28.4516 57.7268 28.3899 57.6169 28.28C57.507 28.1701 57.4453 28.0211 57.4453 27.8657C57.4453 25.7976 59.1279 24.1152 61.1958 24.1152C63.2637 24.1152 64.9462 25.7976 64.9462 27.8657C64.9462 28.0211 64.8845 28.1701 64.7746 28.28C64.6647 28.3899 64.5157 28.4516 64.3603 28.4516Z" fill="black"/>
<path d="M57.5713 28.5672H54.4745C54.3191 28.5672 54.17 28.5055 54.0601 28.3956C53.9502 28.2857 53.8885 28.1367 53.8885 27.9812V14.5703C53.8885 14.4149 53.9502 14.2659 54.0601 14.156C54.17 14.0461 54.3191 13.9844 54.4745 13.9844H57.5713C57.7267 13.9844 57.8757 14.0461 57.9856 14.156C58.0955 14.2659 58.1572 14.4149 58.1572 14.5703V27.9812C58.1572 28.1367 58.0955 28.2857 57.9856 28.3956C57.8757 28.5055 57.7267 28.5672 57.5713 28.5672ZM55.0604 27.3953H56.9853V15.1562H55.0604V27.3953ZM67.922 28.5672H64.8252C64.6698 28.5672 64.5207 28.5055 64.4108 28.3956C64.301 28.2857 64.2392 28.1367 64.2392 27.9812V14.5703C64.2392 14.4149 64.301 14.2659 64.4108 14.156C64.5207 14.0461 64.6698 13.9844 64.8252 13.9844H67.922C68.0774 13.9844 68.2264 14.0461 68.3363 14.156C68.4462 14.2659 68.5079 14.4149 68.5079 14.5703V27.9812C68.5079 28.1367 68.4462 28.2857 68.3363 28.3956C68.2264 28.5055 68.0774 28.5672 67.922 28.5672ZM65.4111 27.3953H67.336V15.1562H65.4111V27.3953ZM47.611 66.1223H44.5855C44.4301 66.1223 44.281 66.0605 44.1711 65.9506C44.0613 65.8408 43.9995 65.6917 43.9995 65.5363V46.3232C43.9995 46.1678 44.0613 46.0188 44.1711 45.9089C44.281 45.799 44.4301 45.7373 44.5855 45.7373H47.6108C47.7662 45.7373 47.9152 45.799 48.0251 45.9089C48.135 46.0188 48.1967 46.1678 48.1967 46.3232V65.5363C48.1968 65.6133 48.1817 65.6895 48.1523 65.7606C48.1229 65.8317 48.0797 65.8963 48.0253 65.9507C47.9709 66.0051 47.9063 66.0483 47.8352 66.0777C47.7642 66.1072 47.688 66.1223 47.611 66.1223ZM45.1714 64.9504H47.0248V46.9091H45.1714V64.9504ZM52.9505 48.8305C52.8498 48.8305 52.7508 48.8046 52.663 48.7551C52.5752 48.7057 52.5017 48.6345 52.4495 48.5484C51.8935 47.6315 50.9293 47.0247 49.8702 46.9255C49.7249 46.9119 49.5899 46.8445 49.4916 46.7367C49.3934 46.6288 49.3389 46.4881 49.3388 46.3422V37.6112C49.3388 36.4539 50.2803 35.5127 51.4374 35.5127C52.5945 35.5127 53.5362 36.4541 53.5362 37.6112V48.2448C53.5362 48.4002 53.4745 48.5491 53.3646 48.6589C53.2548 48.7688 53.1059 48.8305 52.9505 48.8305ZM50.5109 45.8411C51.187 45.9886 51.8208 46.2875 52.3646 46.7153V37.611C52.3646 37.1001 51.9488 36.6843 51.4377 36.6843C50.9265 36.6843 50.5109 37.1001 50.5109 37.611V45.8411ZM57.9341 60.9529C56.7767 60.9529 55.8352 60.0114 55.8352 58.8543V37.611C55.8352 36.4537 56.777 35.5122 57.9341 35.5122C59.0912 35.5122 60.0327 36.4537 60.0327 37.611V58.8543C60.0327 60.0114 59.0912 60.9529 57.9341 60.9529ZM57.9341 36.6843C57.6883 36.6846 57.4527 36.7824 57.2789 36.9561C57.1052 37.1299 57.0074 37.3655 57.0071 37.6112V58.8545C57.0071 59.3655 57.4229 59.7812 57.9341 59.7812C58.4452 59.7812 58.8608 59.3655 58.8608 58.8545V37.6112C58.8605 37.3655 58.7628 37.1299 58.5891 36.9562C58.4154 36.7824 58.1798 36.6846 57.9341 36.6843ZM64.43 60.9529C63.2727 60.9529 62.3314 60.0114 62.3314 58.8543V37.611C62.3314 36.4537 63.2729 35.5122 64.43 35.5122C65.5871 35.5122 66.5288 36.4537 66.5288 37.611V58.8543C66.5288 60.0114 65.5873 60.9529 64.43 60.9529ZM64.43 36.6843C64.1843 36.6845 63.9486 36.7823 63.7749 36.9561C63.6012 37.1299 63.5035 37.3655 63.5033 37.6112V58.8545C63.5033 59.3655 63.9188 59.7812 64.43 59.7812C64.9412 59.7812 65.357 59.3655 65.357 58.8545V37.6112C65.3566 37.3655 65.2589 37.1299 65.0851 36.9561C64.9113 36.7824 64.6757 36.6846 64.43 36.6843ZM70.9264 60.9529C69.7691 60.9529 68.8278 60.0114 68.8278 58.8543V37.611C68.8278 36.4537 69.7693 35.5122 70.9264 35.5122C72.0835 35.5122 73.025 36.4537 73.025 37.611V58.8543C73.025 60.0114 72.0838 60.9529 70.9264 60.9529ZM70.9264 36.6843C70.6807 36.6845 70.4451 36.7823 70.2713 36.9561C70.0976 37.1299 69.9999 37.3655 69.9997 37.6112V58.8545C69.9997 59.3655 70.4152 59.7812 70.9264 59.7812C71.4376 59.7812 71.8531 59.3655 71.8531 58.8545V37.6112C71.8529 37.3655 71.7553 37.1299 71.5815 36.9561C71.4078 36.7823 71.1722 36.6845 70.9264 36.6843ZM33.0451 66.1223H30.0195C29.8641 66.1223 29.7151 66.0605 29.6052 65.9506C29.4953 65.8408 29.4336 65.6917 29.4336 65.5363V46.3232C29.4336 46.1678 29.4953 46.0188 29.6052 45.9089C29.7151 45.799 29.8641 45.7373 30.0195 45.7373H33.0451C33.2005 45.7373 33.3495 45.799 33.4594 45.9089C33.5693 46.0188 33.631 46.1678 33.631 46.3232V65.5363C33.631 65.6917 33.5693 65.8408 33.4594 65.9506C33.3495 66.0605 33.2005 66.1223 33.0451 66.1223ZM30.6055 64.9504H32.4591V46.9091H30.6055V64.9504Z" fill="black"/>
</svg>
