<svg width="100" height="80" viewBox="0 0 100 80" fill="none" xmlns="http://www.w3.org/2000/svg">
<rect width="100" height="80" rx="12" fill="#E6EDF6"/>
<path d="M47.2344 41.3125H52.7656V46.3844H47.2344V41.3125Z" fill="white"/>
<path d="M73.2609 29.3785V35.5473C73.2609 36.391 72.6891 37.1223 71.8641 37.3285L54.6422 41.6129C54.7631 40.4841 53.9409 39.4304 52.7672 39.4379H47.2359C46.0631 39.4304 45.2391 40.4841 45.3609 41.6129L28.1391 37.3285C27.7406 37.2306 27.3864 37.0019 27.1332 36.679C26.8799 36.3561 26.7423 35.9576 26.7422 35.5473V29.3785C26.7422 28.366 27.5672 27.541 28.5797 27.541H71.4234C72.4359 27.541 73.2609 28.366 73.2609 29.3785Z" fill="#E69973"/>
<path d="M72.2187 39.1758V57.2227C72.2187 58.2352 71.3937 59.0602 70.3812 59.0602H29.6187C28.6062 59.0602 27.7812 58.2352 27.7812 57.2227V39.1758L45.3594 43.5445V46.3852C45.3594 47.4258 46.1937 48.2602 47.2344 48.2602H52.7656C53.8062 48.2602 54.6406 47.4258 54.6406 46.3852V43.5445L72.2187 39.1758Z" fill="#AF5526"/>
<path d="M29.6203 60.9352H70.3828C72.4359 60.9352 74.0953 59.2664 74.0953 57.2227V38.1164C74.7516 37.4508 75.1359 36.532 75.1359 35.5477V29.3789C75.1359 27.3352 73.4766 25.6664 71.4234 25.6664H59.0484V22.7789C59.0484 20.7258 57.3797 19.0664 55.3266 19.0664H44.3297C42.2766 19.0664 40.6078 20.7258 40.6078 22.7789V25.6664H28.5797C26.5266 25.6664 24.8672 27.3352 24.8672 29.3789V35.5477C24.8672 36.532 25.2516 37.4508 25.9078 38.1164V57.2227C25.9078 59.2664 27.5672 60.9352 29.6203 60.9352ZM72.2203 57.2227C72.2203 58.2352 71.3953 59.0602 70.3828 59.0602H29.6203C28.6078 59.0602 27.7828 58.2352 27.7828 57.2227V39.1758L45.3609 43.5445V46.3852C45.3609 47.4258 46.1953 48.2602 47.2359 48.2602H52.7672C53.8078 48.2602 54.6422 47.4258 54.6422 46.3852V43.5445L72.2203 39.1758V57.2227ZM47.2359 46.3852V41.3133H52.7672V46.3852H47.2359ZM42.4828 22.7789C42.4828 21.7664 43.3172 20.9414 44.3297 20.9414H55.3266C56.3391 20.9414 57.1734 21.7664 57.1734 22.7789V25.6664H42.4828V22.7789ZM26.7422 29.3789C26.7422 28.3664 27.5672 27.5414 28.5797 27.5414H71.4234C72.4359 27.5414 73.2609 28.3664 73.2609 29.3789V35.5477C73.2609 36.3914 72.6891 37.1227 71.8641 37.3289L54.6422 41.6133C54.7631 40.4845 53.9409 39.4308 52.7672 39.4383H47.2359C46.0631 39.4308 45.2391 40.4845 45.3609 41.6133L28.1391 37.3289C27.7406 37.231 27.3864 37.0023 27.1332 36.6794C26.8799 36.3565 26.7423 35.958 26.7422 35.5477V29.3789Z" fill="black"/>
</svg>
