<svg width="100" height="80" viewBox="0 0 100 80" fill="none" xmlns="http://www.w3.org/2000/svg">
<rect width="100" height="80" rx="12" fill="#E6EDF6"/>
<path d="M70.7264 29.5449V64.2302C70.7264 66.4449 68.9352 68.236 66.7205 68.236H33.2793C31.0646 68.236 29.2734 66.4449 29.2734 64.2302V29.5449C29.2734 23.1919 34.4176 18.0566 40.7617 18.0566H59.2381C65.5823 18.0566 70.7264 23.1919 70.7264 29.5449Z" fill="#FC9E11"/>
<path d="M37.6085 38.1483H33.4632C32.9134 38.1491 32.3688 38.0414 31.8606 37.8314C31.3524 37.6214 30.8907 37.3132 30.5019 36.9244C30.113 36.5357 29.8047 36.074 29.5946 35.5659C29.3845 35.0578 29.2767 34.5132 29.2773 33.9633V29.5383C29.2773 23.1951 34.4197 18.0527 40.7629 18.0527H59.2394C65.5835 18.0527 70.725 23.1951 70.725 29.5383V33.9633C70.7271 34.5125 70.6207 35.0566 70.4119 35.5645C70.2031 36.0724 69.896 36.534 69.5083 36.9229C69.1205 37.3117 68.6598 37.6202 68.1526 37.8305C67.6453 38.0408 67.1015 38.1488 66.5523 38.1483H41.9382H37.6085Z" fill="#00A651"/>
<path d="M39.4558 68.2354H33.2793C31.0646 68.2354 29.2734 66.4443 29.2734 64.2295V33.9648C29.2734 34.5148 29.3819 35.0594 29.5926 35.5674C29.8034 36.0754 30.1122 36.5369 30.5015 36.9253C30.8908 37.3138 31.3529 37.6217 31.8614 37.8314C32.3698 38.041 32.9146 38.1484 33.4646 38.1472H35.4499V64.2295C35.4499 66.4443 37.2411 68.2354 39.4558 68.2354Z" fill="#C77D0E"/>
<path d="M29.2755 47.9863V62.9334H27.3255C25.6226 62.9334 24.2461 61.5569 24.2461 59.8628V51.0569C24.2461 49.3628 25.6226 47.9863 27.3255 47.9863H29.2755ZM75.7579 51.0569V59.8628C75.7579 61.5569 74.3814 62.9334 72.6784 62.9334H70.7285V47.9863H72.6784C74.3814 47.9863 75.7579 49.3628 75.7579 51.0569Z" fill="#00A651"/>
<path d="M46.9381 18.0566C40.594 18.0566 35.4499 23.1919 35.4499 29.5449V38.1478H33.4646C32.9146 38.149 32.3698 38.0417 31.8614 37.832C31.3529 37.6223 30.8908 37.3144 30.5015 36.926C30.1122 36.5375 29.8034 36.076 29.5926 35.568C29.3819 35.06 29.2734 34.5154 29.2734 33.9655V29.5361C29.2734 23.1919 34.4176 18.0566 40.7617 18.0566H46.9381Z" fill="#098746"/>
<path d="M44.229 64.229V38.3672H41.1055V64.229C41.1055 66.4437 42.8966 68.2348 45.1114 68.2348H48.2349C46.0202 68.2348 44.229 66.4437 44.229 64.229Z" fill="#EF9D65" fill-opacity="0.188235"/>
<path d="M60.543 68.2354H66.7194C68.9341 68.2354 70.7253 66.4443 70.7253 64.2295V33.9648C70.7253 34.5148 70.6169 35.0594 70.4061 35.5674C70.1954 36.0754 69.8865 36.5369 69.4972 36.9253C69.1079 37.3138 68.6458 37.6217 68.1374 37.8314C67.6289 38.041 67.0841 38.1484 66.5341 38.1472H64.5489V64.2295C64.5489 66.4443 62.7577 68.2354 60.543 68.2354Z" fill="#FC9E11"/>
<path d="M53.0625 18.0566C59.4066 18.0566 64.5507 23.1919 64.5507 29.5449V38.1478H66.536C67.086 38.149 67.6308 38.0417 68.1393 37.832C68.6477 37.6223 69.1098 37.3144 69.4991 36.926C69.8884 36.5375 70.1973 36.076 70.408 35.568C70.6187 35.06 70.7272 34.5154 70.7272 33.9655V29.5361C70.7272 23.1919 65.5831 18.0566 59.239 18.0566H53.0625Z" fill="#00A651"/>
<path d="M38.4723 34.625H41.0806C41.557 34.625 41.9435 35.0115 41.9435 35.4888V40.28C41.9435 40.7565 41.557 41.1438 41.0806 41.1438H38.4723C38.2435 41.1438 38.024 41.0529 37.8621 40.8911C37.7003 40.7292 37.6094 40.5098 37.6094 40.2809V35.4888C37.6094 35.0124 37.9958 34.625 38.4723 34.625ZM58.9288 34.625H61.5361C62.0126 34.625 62.4 35.0115 62.4 35.4888V40.28C62.4 40.7565 62.0135 41.1438 61.5361 41.1438H58.9288C58.6999 41.1438 58.4804 41.0529 58.3186 40.8911C58.1568 40.7292 58.0658 40.5098 58.0658 40.2809V35.4888C58.0658 35.0124 58.4523 34.625 58.9288 34.625Z" fill="#FFF48B"/>
<path d="M62.247 51.7983V61.0189C62.247 62.616 60.95 63.913 59.3441 63.913H40.6558C39.0588 63.913 37.7617 62.616 37.7617 61.0189V51.7983C37.7617 50.3513 38.9352 49.1777 40.3735 49.1777H59.6264C60.3214 49.1777 60.988 49.4538 61.4795 49.9453C61.9709 50.4367 62.247 51.1033 62.247 51.7983Z" fill="#F2F1E8"/>
<path d="M62.247 57.1172V61.0172C62.247 62.6142 60.95 63.9113 59.3441 63.9113H40.6558C39.0588 63.9113 37.7617 62.6142 37.7617 61.0172V57.1172C37.7617 58.7231 39.0588 60.0201 40.6558 60.0201H59.3441C60.95 60.0201 62.247 58.7231 62.247 57.1172Z" fill="#D0D2C7" fill-opacity="0.313726"/>
<path d="M72.678 47.1034H71.6103V29.5446C71.6103 22.7152 66.0603 17.174 59.2398 17.174H58.8692C57.528 13.4416 53.9456 10.8828 49.9398 10.8828C45.925 10.8828 42.3427 13.4416 41.0103 17.174H40.7633C33.9427 17.174 28.3927 22.7152 28.3927 29.5446V47.1034H27.325C25.1368 47.1034 23.3633 48.8769 23.3633 51.0563V59.8622C23.3633 62.0416 25.1368 63.8152 27.325 63.8152H28.3927V64.2299C28.3927 66.9299 30.5898 69.1181 33.2809 69.1181H66.7221C68.0185 69.1181 69.2619 68.6031 70.1786 67.6864C71.0953 66.7697 71.6103 65.5263 71.6103 64.2299V63.8152H72.678C74.8662 63.8152 76.6398 62.0416 76.6398 59.8622V51.0563C76.6398 48.8769 74.8662 47.1034 72.678 47.1034ZM28.3927 62.0505H27.325C26.1162 62.0505 25.128 61.071 25.128 59.8622V51.0563C25.128 49.8475 26.1162 48.8681 27.325 48.8681H28.3927V62.0505ZM49.9398 12.6475C52.9839 12.6475 55.728 14.4652 56.9721 17.174H42.9074C44.1427 14.4652 46.8868 12.6475 49.9398 12.6475ZM69.8456 64.2299C69.8456 65.9593 68.4515 67.3534 66.7221 67.3534H33.2809C32.4525 67.3534 31.658 67.0243 31.0723 66.4385C30.4865 65.8528 30.1574 65.0583 30.1574 64.2299V37.7946C31.0398 38.571 32.2045 39.0299 33.4662 39.0299H36.7221V40.2828C36.7221 41.2446 37.5074 42.021 38.4692 42.021H41.0809C42.0427 42.021 42.828 41.2446 42.828 40.2828V39.0299H57.1839V40.2828C57.1839 41.2446 57.9692 42.021 58.9309 42.021H61.5339C62.4956 42.021 63.2809 41.2446 63.2809 40.2828V39.0299H66.5545C67.8162 39.0299 68.9633 38.571 69.8456 37.8034V64.2299ZM38.4868 40.2828V35.5093L41.0633 35.4916L41.0809 40.2563L38.4868 40.2828ZM58.9486 40.2828V35.5093L61.5162 35.4916L61.5339 40.2563L58.9486 40.2828ZM69.8456 33.9652C69.8456 35.7828 68.3633 37.2652 66.5545 37.2652H63.2809V35.4916C63.2809 34.521 62.4956 33.7446 61.5339 33.7446H58.9309C57.9692 33.7446 57.1839 34.521 57.1839 35.4916V37.2652H42.828V35.4916C42.828 34.521 42.0427 33.7446 41.0809 33.7446H38.4692C37.5074 33.7446 36.7221 34.521 36.7221 35.4916V37.2652H33.4662C32.5902 37.2652 31.7499 36.9178 31.1296 36.2992C30.5094 35.6805 30.1597 34.8412 30.1574 33.9652V29.5446C30.1574 23.6946 34.9133 18.9387 40.7633 18.9387H59.2398C65.0898 18.9387 69.8456 23.6946 69.8456 29.5446V33.9652ZM74.875 59.8622C74.875 61.071 73.8868 62.0505 72.678 62.0505H71.6103V48.8681H72.678C73.8868 48.8681 74.875 49.8475 74.875 51.0563V59.8622Z" fill="#1A1A1A"/>
<path d="M59.6295 48.2949H40.3792C39.4512 48.2959 38.5614 48.6649 37.9052 49.3212C37.2489 49.9774 36.8798 50.8672 36.8789 51.7952V61.0185C36.8803 62.0205 37.279 62.981 37.9876 63.6895C38.6963 64.3979 39.6569 64.7964 40.6589 64.7976H59.3498C60.3518 64.7964 61.3124 64.3979 62.021 63.6895C62.7297 62.981 63.1284 62.0205 63.1298 61.0185V51.7952C63.1289 50.8672 62.7598 49.9774 62.1035 49.3212C61.4473 48.6649 60.5575 48.2959 59.6295 48.2949ZM40.3792 50.0596H59.6295C60.5868 50.0596 61.3651 50.8379 61.3651 51.7952V52.4129H38.6445V51.7952C38.6445 50.8379 39.4218 50.0596 40.3792 50.0596ZM59.3498 63.0329H40.6589C40.1247 63.0324 39.6125 62.82 39.2347 62.4424C38.8569 62.0647 38.6443 61.5526 38.6436 61.0185V54.1776H40.4966V56.0887C40.4966 56.3228 40.5895 56.5472 40.755 56.7127C40.9205 56.8781 41.1449 56.9711 41.3789 56.9711C41.6129 56.9711 41.8374 56.8781 42.0028 56.7127C42.1683 56.5472 42.2613 56.3228 42.2613 56.0887V54.1776H61.3651V61.0185C61.3644 61.5526 61.1518 62.0647 60.774 62.4424C60.3962 62.82 59.884 63.0324 59.3498 63.0329ZM67.0845 55.6643C66.8505 55.6643 66.6261 55.7573 66.4606 55.9228C66.2951 56.0882 66.2021 56.3127 66.2021 56.5467V60.2879C66.2026 60.8216 66.0648 61.3463 65.8023 61.8109C65.5397 62.2756 65.1613 62.6643 64.7039 62.9393C64.6038 62.9991 64.5165 63.0781 64.4471 63.1718C64.3777 63.2655 64.3276 63.3721 64.2996 63.4853C64.2716 63.5985 64.2664 63.7161 64.2841 63.8313C64.3019 63.9466 64.3423 64.0571 64.4031 64.1567C64.4638 64.2562 64.5437 64.3427 64.6381 64.4112C64.7325 64.4796 64.8395 64.5287 64.953 64.5556C65.0664 64.5824 65.1841 64.5865 65.2992 64.5676C65.4142 64.5487 65.5244 64.5072 65.6233 64.4455C66.3396 64.0138 66.932 63.4039 67.3426 62.6753C67.7533 61.9467 67.9684 61.1242 67.9668 60.2879V56.5467C67.9668 56.3127 67.8739 56.0882 67.7084 55.9228C67.5429 55.7573 67.3185 55.6643 67.0845 55.6643ZM67.0845 52.1437C66.8505 52.1437 66.6261 52.2367 66.4606 52.4022C66.2951 52.5677 66.2021 52.7921 66.2021 53.0261V53.5043C66.2021 53.7383 66.2951 53.9628 66.4606 54.1283C66.6261 54.2937 66.8505 54.3867 67.0845 54.3867C67.3185 54.3867 67.5429 54.2937 67.7084 54.1283C67.8739 53.9628 67.9668 53.7383 67.9668 53.5043V53.0261C67.9668 52.7921 67.8739 52.5677 67.7084 52.4022C67.5429 52.2367 67.3185 52.1437 67.0845 52.1437Z" fill="#1A1A1A"/>
</svg>
