<svg width="49" height="70" viewBox="0 0 49 70" fill="none" xmlns="http://www.w3.org/2000/svg">
<path fill-rule="evenodd" clip-rule="evenodd" d="M48.9443 56.3594V69.5H1.61426V58.8942L22.9159 35.8812C25.0469 33.4613 26.7014 31.3921 27.8986 29.6659C29.097 27.9379 29.8914 26.4548 30.3409 25.2063L30.3446 25.1959L30.3485 25.1856C30.8368 23.8748 31.0576 22.6911 31.0576 21.6211C31.0576 19.8964 30.7492 18.4893 30.1999 17.345L30.1966 17.338L30.1933 17.3311C29.649 16.1744 28.8834 15.3228 27.8869 14.7162L27.8785 14.7111L27.8702 14.7059C26.9384 14.1261 25.7002 13.7773 24.0488 13.7773C22.2296 13.7773 20.7947 14.1971 19.6502 14.9454L19.6422 14.9506C18.4932 15.6941 17.5958 16.7335 16.9524 18.134C16.3245 19.5643 15.9854 21.2553 15.9854 23.2471V25.2471H0.339844V23.2471C0.339844 19.145 1.2974 15.361 3.23415 11.9381C5.17852 8.47217 7.96498 5.7133 11.5429 3.66879C15.18 1.59041 19.4324 0.592773 24.2246 0.592773C28.8295 0.592773 32.8621 1.35874 36.2463 2.98419C39.6185 4.57452 42.2477 6.88442 44.05 9.92174C45.8476 12.951 46.7031 16.4968 46.7031 20.4785C46.7031 22.7528 46.3288 24.9905 45.5869 27.1838C44.8588 29.3365 43.8368 31.4534 42.5329 33.534C41.2758 35.5573 39.7835 37.5954 38.062 39.6491C36.3626 41.6765 34.4762 43.7414 32.405 45.8437L22.9543 56.3594H48.9443ZM18.4678 58.3594H46.9443V67.5H3.61426V59.6777L24.4004 37.2217C26.5684 34.7607 28.2822 32.6221 29.542 30.8057C30.8018 28.9893 31.6953 27.3486 32.2227 25.8838C32.7793 24.3896 33.0576 22.9688 33.0576 21.6211C33.0576 19.6582 32.7061 17.9443 32.0029 16.4795C31.2998 14.9854 30.2744 13.8281 28.9268 13.0078C27.6084 12.1875 25.9824 11.7773 24.0488 11.7773C21.9102 11.7773 20.0791 12.2754 18.5557 13.2715C17.0615 14.2383 15.9189 15.5859 15.1279 17.3145C14.3662 19.043 13.9854 21.0205 13.9854 23.2471H2.33984C2.33984 22.5696 2.36809 21.9029 2.42458 21.2471C2.6832 18.2444 3.53386 15.4687 4.97656 12.9199C6.73438 9.78516 9.25391 7.28027 12.5352 5.40527C15.8164 3.53027 19.7129 2.59277 24.2246 2.59277C28.6191 2.59277 32.3398 3.3252 35.3867 4.79004C38.4336 6.22559 40.748 8.27637 42.3301 10.9424C43.9121 13.6084 44.7031 16.7871 44.7031 20.4785C44.7031 22.5293 44.3662 24.5508 43.6924 26.543C43.0186 28.5352 42.0664 30.5127 40.8359 32.4756C39.6348 34.4092 38.1992 36.3721 36.5293 38.3643C34.8594 40.3564 32.999 42.3926 30.9482 44.4727L18.4678 58.3594Z" fill="#FF6401"/>
</svg>
