<svg width="48" height="70" viewBox="0 0 48 70" fill="none" xmlns="http://www.w3.org/2000/svg">
<path fill-rule="evenodd" clip-rule="evenodd" d="M14.3145 27.8662H22.8623C24.9612 27.8662 26.5145 27.506 27.6333 26.9153C28.8341 26.2674 29.6557 25.4325 30.1852 24.416L30.1887 24.4092L30.1923 24.4024C30.7787 23.2972 31.1016 21.9727 31.1016 20.374C31.1016 18.7701 30.8092 17.4928 30.302 16.4784L30.2981 16.4708L30.2944 16.4631C29.8092 15.4716 29.0873 14.7239 28.0754 14.1857L28.0528 14.1736L28.0305 14.161C27.0725 13.6196 25.7134 13.2773 23.8291 13.2773C22.4053 13.2773 21.1331 13.5571 19.9841 14.0951C18.8951 14.6183 18.048 15.3497 17.4045 16.3021C16.8399 17.1508 16.5127 18.2274 16.5127 19.627V21.627H0.867188V19.627C0.867188 15.7988 1.87999 12.3596 3.95074 9.38706L3.95333 9.38335C6.01266 6.44146 8.78077 4.15925 12.202 2.52858C15.6347 0.89241 19.4346 0.0927734 23.5654 0.0927734C28 0.0927734 31.975 0.831203 35.4419 2.37006C38.9587 3.88856 41.7496 6.16632 43.7375 9.21174C45.7847 12.3024 46.7471 16.0473 46.7471 20.3301C46.7471 22.5611 46.2134 24.7559 45.1928 26.8979C44.1851 29.0454 42.7053 30.9583 40.796 32.641L40.7943 32.6426C40.2812 33.0938 39.7388 33.5198 39.1681 33.9212C40.1889 34.5062 41.1263 35.1706 41.9753 35.918C43.919 37.6 45.3823 39.5899 46.328 41.8813C47.2859 44.1317 47.7578 46.5349 47.7578 49.0703C47.7578 52.3105 47.1531 55.2767 45.8944 57.9265L45.8902 57.9353C44.6466 60.5207 42.8904 62.7198 40.6379 64.5166C38.433 66.2987 35.863 67.6395 32.9558 68.5559L32.9463 68.5589L32.9368 68.5618C30.0328 69.4456 26.9195 69.8789 23.6094 69.8789C20.703 69.8789 17.8676 69.4879 15.1087 68.7041L15.0956 68.7004L15.0826 68.6965C12.3272 67.8731 9.8209 66.647 7.57814 65.013L7.57065 65.0075L7.56321 65.002C5.26909 63.2978 3.44678 61.1618 2.1076 58.6142L2.10274 58.6049C0.730832 55.9614 0.0761719 52.9551 0.0761719 49.6416V47.6416H15.7217V49.6416C15.7217 51.0558 16.0573 52.2494 16.6902 53.2806C17.366 54.3344 18.2878 55.1762 19.501 55.8102C20.7439 56.4158 22.1736 56.7383 23.8291 56.7383C25.7311 56.7383 27.2382 56.4001 28.4211 55.8102C29.64 55.1878 30.5262 54.3439 31.1411 53.2709C31.7606 52.1613 32.1123 50.7713 32.1123 49.0264C32.1123 46.8587 31.7004 45.3054 31.041 44.2205C30.3654 43.1091 29.4023 42.2833 28.0742 41.7338L28.0627 41.729C26.6964 41.1537 24.9812 40.8311 22.8623 40.8311H14.3145V27.8662ZM32.8818 54.2559C32.0615 55.6914 30.875 56.8047 29.3223 57.5957C27.7988 58.3574 25.9678 58.7383 23.8291 58.7383C21.8955 58.7383 20.1523 58.3574 18.5996 57.5957C17.0762 56.8047 15.875 55.7207 14.9961 54.3438C14.1465 52.9668 13.7217 51.3994 13.7217 49.6416H2.07617C2.07617 50.3268 2.10654 50.9935 2.16729 51.6416C2.37667 53.8756 2.94688 55.8896 3.87793 57.6836C5.0791 59.9688 6.70508 61.873 8.75586 63.3965C10.8066 64.8906 13.1064 66.0186 15.6553 66.7803C18.2334 67.5127 20.8848 67.8789 23.6094 67.8789C26.7441 67.8789 29.6592 67.4688 32.3545 66.6484C35.0498 65.7988 37.3936 64.5684 39.3857 62.957C41.4072 61.3457 42.9746 59.3828 44.0879 57.0684C45.2012 54.7246 45.7578 52.0586 45.7578 49.0703C45.7578 46.7852 45.333 44.6465 44.4834 42.6543C43.6631 40.6621 42.3887 38.9189 40.6602 37.4248C39.6649 36.5476 38.5141 35.7869 37.208 35.1429C36.446 34.7671 35.6311 34.431 34.7632 34.1346C35.5924 33.7557 36.3709 33.3412 37.0989 32.8911C37.9616 32.3576 38.7532 31.7742 39.4736 31.1406C41.2021 29.6172 42.5059 27.918 43.3848 26.043C44.293 24.1387 44.7471 22.2344 44.7471 20.3301C44.7471 16.3457 43.8535 13.0059 42.0664 10.3105C40.3086 7.61523 37.833 5.5791 34.6396 4.20215C31.4756 2.7959 27.7842 2.09277 23.5654 2.09277C19.6982 2.09277 16.1973 2.83984 13.0625 4.33398C9.92773 5.82812 7.4375 7.89355 5.5918 10.5303C4.13439 12.6224 3.26167 14.9879 2.97362 17.627C2.90266 18.277 2.86719 18.9437 2.86719 19.627H14.5127C14.5127 17.8984 14.9229 16.4189 15.7432 15.1885C16.5928 13.9287 17.7207 12.9619 19.127 12.2881C20.5625 11.6143 22.1299 11.2773 23.8291 11.2773C25.9385 11.2773 27.667 11.6582 29.0146 12.4199C30.3916 13.1523 31.417 14.207 32.0908 15.584C32.7646 16.9316 33.1016 18.5283 33.1016 20.374C33.1016 22.249 32.7207 23.9043 31.959 25.3398C31.2266 26.7461 30.0986 27.8594 28.5752 28.6797C27.0811 29.4707 25.1768 29.8662 22.8623 29.8662H16.3145V38.8311H22.8623C25.1768 38.8311 27.1689 39.1826 28.8389 39.8857C30.5381 40.5889 31.8418 41.6875 32.75 43.1816C33.6582 44.6758 34.1123 46.624 34.1123 49.0264C34.1123 51.0479 33.7021 52.791 32.8818 54.2559Z" fill="#DB0F2A"/>
</svg>
