<svg width="47" height="70" viewBox="0 0 47 70" fill="none" xmlns="http://www.w3.org/2000/svg">
<path fill-rule="evenodd" clip-rule="evenodd" d="M13.7487 39.2643L1.67469 36.3459L5.62334 0.515625H44.6152V14.1396H18.828L17.7446 23.8329C18.0532 23.724 18.3724 23.6166 18.7017 23.5105C20.6946 22.8475 22.8874 22.5322 25.2568 22.5322C28.5182 22.5322 31.5064 23.0651 34.187 24.1749C36.852 25.2489 39.1381 26.8229 41.0163 28.8968C42.929 30.9764 44.3369 33.4896 45.2639 36.3928C46.22 39.2666 46.6807 42.4699 46.6807 45.9775C46.6807 49.1078 46.2109 52.0792 45.2574 54.8784C44.3239 57.6762 42.8867 60.18 40.9508 62.374L40.946 62.3795L40.9411 62.385C38.9699 64.5862 36.5099 66.3016 33.6033 67.5473L33.5947 67.5509L33.5861 67.5545C30.6237 68.7916 27.216 69.3789 23.4111 69.3789C20.4898 69.3789 17.6654 68.9544 14.9458 68.1005L14.9325 68.0964L14.9192 68.092C12.2191 67.2025 9.77209 65.9096 7.5918 64.2103L7.58464 64.2047L7.57752 64.199C5.36423 62.4414 3.58953 60.2902 2.26092 57.7626L2.25622 57.7536L2.25161 57.7447C0.928258 55.1641 0.226157 52.2501 0.0992224 49.045L0.01688 46.9658H15.3693L15.5566 48.758C15.7372 50.4866 16.1905 51.8541 16.8515 52.9254C17.5205 54.0096 18.3728 54.8108 19.4211 55.37C20.497 55.9286 21.7942 56.2383 23.3672 56.2383C24.7897 56.2383 25.8957 55.9773 26.7545 55.5392C27.6943 55.0452 28.4565 54.3705 29.0617 53.4963C29.6946 52.5822 30.1901 51.4663 30.5214 50.1154C30.8587 48.7403 31.0352 47.2034 31.0352 45.4941C31.0352 43.8697 30.8354 42.441 30.4603 41.1909L30.4572 41.1806C30.0875 39.9235 29.5357 38.886 28.8215 38.0335C28.1277 37.2054 27.2476 36.5542 26.1436 36.0844L26.1365 36.0814L26.1293 36.0783C25.0852 35.6243 23.7856 35.3652 22.1807 35.3652C19.909 35.3652 18.428 35.7144 17.5348 36.2078C16.3972 36.8552 15.4026 37.6104 14.5421 38.4709L13.7487 39.2643ZM16.5557 34.4639C17.874 33.7314 19.749 33.3652 22.1807 33.3652C23.9971 33.3652 25.5791 33.6582 26.9268 34.2441C28.3037 34.8301 29.4463 35.665 30.3545 36.749C31.2627 37.833 31.9365 39.1221 32.376 40.6162C32.8154 42.0811 33.0352 43.707 33.0352 45.4941C33.0352 47.3398 32.8447 49.0391 32.4639 50.5918C32.083 52.1445 31.4971 53.4922 30.7061 54.6348C29.915 55.7773 28.9043 56.6709 27.6738 57.3154C26.4727 57.9307 25.0371 58.2383 23.3672 58.2383C21.5215 58.2383 19.8955 57.8721 18.4893 57.1396C17.1123 56.4072 15.999 55.3525 15.1494 53.9756C14.2998 52.5986 13.7725 50.9287 13.5674 48.9658H2.09766C2.12477 49.6505 2.18013 50.3172 2.26372 50.9658C2.54137 53.1203 3.13055 55.0757 4.03125 56.832C5.23242 59.1172 6.8291 61.0508 8.82129 62.6328C10.8135 64.1855 13.0547 65.3721 15.5449 66.1924C18.0645 66.9834 20.6865 67.3789 23.4111 67.3789C27.0146 67.3789 30.1494 66.8223 32.8154 65.709C35.4814 64.5664 37.6934 63.0137 39.4512 61.0508C41.209 59.0586 42.5127 56.7881 43.3623 54.2393C44.2412 51.6611 44.6807 48.9072 44.6807 45.9775C44.6807 42.6377 44.2412 39.6494 43.3623 37.0127C42.5127 34.3467 41.2383 32.0908 39.5391 30.2451C37.8691 28.3994 35.833 26.9932 33.4307 26.0264C31.0283 25.0303 28.3037 24.5322 25.2568 24.5322C23.0596 24.5322 21.082 24.8252 19.3242 25.4111C18.6528 25.6273 18.0434 25.8435 17.4957 26.0597C16.6335 26.4002 15.9246 26.7406 15.3691 27.0811L17.0391 12.1396H42.6152V2.51562H7.41504L3.85547 34.8154L13.1279 37.0566C14.124 36.0605 15.2666 35.1963 16.5557 34.4639Z" fill="#EC1D25"/>
</svg>
