<svg width="20" height="20" viewBox="0 0 20 20" fill="none" xmlns="http://www.w3.org/2000/svg">
<path d="M17.2856 4H1.85713C1.37141 4 1 4.37141 1 4.85713V10.5714C1 11.0571 1.37141 11.4285 1.85713 11.4285H17.2856C17.7714 11.4285 18.1428 11.0571 18.1428 10.5714V4.85713C18.1428 4.37141 17.7714 4 17.2856 4ZM17.5714 10.5714C17.5714 10.7428 17.4571 10.8571 17.2857 10.8571H1.85713C1.6857 10.8571 1.57143 10.7428 1.57143 10.5714V4.85713C1.57143 4.6857 1.7143 4.57143 1.85713 4.57143H17.2856C17.4571 4.57143 17.5713 4.6857 17.5713 4.85713V10.5714H17.5714Z" fill="#2E363D"/>
<path d="M8.42824 6.56944H10.714C10.8854 6.56944 10.9997 6.45517 10.9997 6.28374C10.9997 6.11232 10.8854 5.99805 10.714 5.99805H8.42824C8.25682 5.99805 8.14254 6.11232 8.14254 6.28374C8.14254 6.45517 8.25682 6.56944 8.42824 6.56944ZM16.7139 9.71229H2.42828C2.25685 9.71229 2.14258 9.82656 2.14258 9.99799C2.14258 10.1694 2.25685 10.2837 2.42828 10.2837H16.7139C16.8854 10.2837 16.9996 10.1694 16.9996 9.99799C16.9996 9.82656 16.8854 9.71229 16.7139 9.71229ZM16.7139 8.56943H2.42828C2.25685 8.56943 2.14258 8.6837 2.14258 8.85513C2.14258 9.02656 2.25685 9.14083 2.42828 9.14083H16.7139C16.8854 9.14083 16.9996 9.02656 16.9996 8.85513C16.9996 8.6837 16.8854 8.56943 16.7139 8.56943ZM9.71397 13.4551C9.42827 13.3123 9.2854 13.1408 9.2854 12.998C9.2854 12.8551 9.45683 12.6837 9.68541 12.5123C9.82827 12.4551 9.85683 12.2837 9.79968 12.1408C9.74253 11.998 9.5711 11.9409 9.42827 12.0266C8.97111 12.2837 8.71397 12.6266 8.71397 12.998C8.71397 13.3694 8.97111 13.7123 9.42827 13.998C9.71397 14.1409 9.85683 14.3123 9.85683 14.4552C9.85683 14.598 9.68541 14.7695 9.42827 14.9123C9.2854 14.9694 9.22828 15.1409 9.314 15.2837C9.37115 15.3694 9.45686 15.4266 9.57114 15.4266C9.62829 15.4266 9.65685 15.4266 9.714 15.398C10.1712 15.1409 10.4283 14.798 10.4283 14.4266C10.4283 14.0551 10.1711 13.6837 9.71397 13.4551ZM6.57112 14.0266C6.28542 13.8837 6.14256 13.7123 6.14256 13.5694C6.14256 13.4265 6.31398 13.2551 6.54256 13.0837C6.68543 13.0265 6.74255 12.8551 6.65683 12.7123C6.59968 12.5694 6.42825 12.5123 6.28542 12.598C5.82826 12.8551 5.57112 13.198 5.57112 13.5694C5.57112 13.9408 5.82826 14.2837 6.28542 14.5694C6.57112 14.7123 6.71399 14.8837 6.71399 15.0266C6.71399 15.1695 6.54256 15.3409 6.28542 15.4837C6.14256 15.5409 6.08544 15.7123 6.17115 15.8552C6.2283 15.9409 6.31401 15.998 6.42829 15.998C6.48544 15.998 6.514 15.998 6.57115 15.9695C7.02831 15.7123 7.28545 15.3695 7.28545 14.998C7.28545 14.6266 7.02828 14.2551 6.57112 14.0266ZM12.8568 14.0266C12.5711 13.8837 12.4283 13.7123 12.4283 13.5694C12.4283 13.4265 12.5997 13.2551 12.8283 13.0837C12.9711 13.0265 12.9997 12.8551 12.9425 12.7123C12.8854 12.5694 12.714 12.5123 12.5711 12.598C12.114 12.8551 11.8568 13.198 11.8568 13.5694C11.8568 13.9408 12.114 14.2837 12.5711 14.5694C12.8568 14.7123 12.9997 14.8837 12.9997 15.0266C12.9997 15.1695 12.8283 15.3409 12.5711 15.4837C12.4283 15.5409 12.3711 15.7123 12.4568 15.8552C12.514 15.9409 12.5997 15.998 12.714 15.998C12.7711 15.998 12.7997 15.998 12.8569 15.9695C13.314 15.7123 13.5711 15.3695 13.5711 14.998C13.5711 14.6266 13.3139 14.2551 12.8568 14.0266Z" fill="#2E363D"/>
</svg>
