<svg width="1118" height="69" viewBox="0 0 1118 69" fill="none" xmlns="http://www.w3.org/2000/svg">
<g clip-path="url(#clip0_3187_139167)">
<path d="M0 12C0 5.37258 5.37258 0 12 0H1106C1112.63 0 1118 5.37258 1118 12V69H0V12Z" fill="url(#paint0_linear_3187_139167)"/>
<path opacity="0.12" d="M48.9662 200.154C47.1705 199.778 46.0188 198.018 46.3947 196.221L101.505 -67.1811C101.881 -68.9768 103.642 -70.1283 105.437 -69.7526C107.234 -69.3768 108.385 -67.6161 108.009 -65.8204L52.8984 197.582C52.5226 199.378 50.7625 200.529 48.9662 200.154ZM74.3517 181.026C72.5554 180.651 71.4044 178.89 71.7802 177.094L90.1504 89.2933C90.5263 87.497 92.2863 86.346 94.0827 86.7218L181.883 105.092C183.68 105.468 184.831 107.228 184.455 109.024C184.079 110.821 182.319 111.972 180.523 111.596L95.9738 93.906L78.284 178.455C77.9082 180.251 76.1481 181.402 74.3517 181.026ZM33.378 172.454C31.5823 172.078 30.4307 170.318 30.8065 168.521L48.4963 83.9724L-36.0526 66.2826C-37.8483 65.9069 -38.9999 64.1467 -38.6241 62.3504C-38.2483 60.554 -36.4875 59.4032 -34.6918 59.7789L53.109 78.1491C54.9047 78.5248 56.0563 80.285 55.6805 82.0813L37.3103 169.882C36.9345 171.678 35.1737 172.829 33.378 172.454ZM97.9003 170.679C96.104 170.303 94.953 168.543 95.3288 166.747L105.739 116.993C106.114 115.197 107.874 114.046 109.671 114.422L159.425 124.832C161.221 125.207 162.372 126.967 161.996 128.764C161.62 130.56 159.86 131.711 158.064 131.335L111.562 121.606L101.833 168.108C101.457 169.904 99.6966 171.055 97.9003 170.679ZM13.6385 149.995C11.8428 149.619 10.6912 147.859 11.067 146.062L20.7964 99.5606L-25.7055 89.8312C-27.5012 89.4555 -28.6528 87.6953 -28.277 85.8989C-27.9012 84.1026 -26.1404 82.9517 -24.3447 83.3274L25.409 93.7372C27.2047 94.1129 28.3564 95.8731 27.9806 97.6695L17.5708 147.423C17.1949 149.22 15.4342 150.37 13.6385 149.995ZM208.223 96.0076L97.0109 72.7393C95.2146 72.3634 94.0636 70.6033 94.4394 68.807C94.8151 67.0113 96.5753 65.8597 98.3717 66.2355L209.583 89.5038C211.38 89.8797 212.531 91.6404 212.155 93.4361C211.779 95.2324 210.019 96.3835 208.223 96.0076ZM56.032 64.1654L-55.1798 40.8971C-56.9755 40.5214 -58.1271 38.7612 -57.7513 36.9648C-57.3756 35.1691 -55.6147 34.0176 -53.819 34.3933L57.3927 57.6617C59.1884 58.0374 60.34 59.7982 59.9643 61.5939C59.5884 63.3903 57.8283 64.5413 56.032 64.1654ZM189.095 70.622L101.295 52.2519C99.4983 51.876 98.3475 50.1153 98.7232 48.3196L117.093 -39.4812C117.469 -41.2769 119.229 -42.4285 121.026 -42.0527C122.822 -41.6769 123.973 -39.9161 123.597 -38.1204L105.907 46.4285L190.456 64.1183C192.253 64.4941 193.403 66.2549 193.028 68.0505C192.652 69.8462 190.892 70.9979 189.095 70.622ZM60.321 43.6791L-27.4798 25.3089C-29.2755 24.9332 -30.4271 23.1724 -30.0513 21.3767C-29.6756 19.581 -27.9148 18.4295 -26.1191 18.8052L58.4298 36.495L76.1196 -48.054C76.4953 -49.8496 78.2562 -51.0012 80.0519 -50.6255C81.8476 -50.2498 82.9991 -48.4889 82.6234 -46.6932L64.2532 41.1076C63.8775 42.9033 62.1167 44.0548 60.321 43.6791ZM178.748 47.0735L128.995 36.6637C127.198 36.2879 126.047 34.5272 126.423 32.7315L136.833 -17.0223C137.209 -18.818 138.969 -19.9697 140.765 -19.5938C142.561 -19.218 143.712 -17.4573 143.337 -15.6616L133.607 30.8403L180.109 40.5697C181.905 40.9456 183.056 42.7063 182.681 44.502C182.305 46.2977 180.545 47.4493 178.748 47.0735ZM44.7328 15.9792L-5.02097 5.56942C-6.81666 5.19372 -7.96818 3.43285 -7.59247 1.63716C-7.21677 -0.158525 -5.4559 -1.31005 -3.66021 -0.934341L42.8417 8.79505L52.5711 -37.7069C52.9468 -39.5025 54.7077 -40.6541 56.5034 -40.2784C58.299 -39.9027 59.4506 -38.1418 59.0749 -36.3461L48.6651 13.4077C48.2894 15.2034 46.5285 16.3549 44.7328 15.9792Z" fill="url(#paint1_linear_3187_139167)"/>
<path opacity="0.12" d="M1094.42 201.154C1096.22 200.778 1097.37 199.018 1097 197.221L1041.89 -66.1811C1041.51 -67.9768 1039.75 -69.1283 1037.95 -68.7526C1036.16 -68.3768 1035.01 -66.6161 1035.38 -64.8204L1090.49 198.582C1090.87 200.378 1092.63 201.529 1094.42 201.154ZM1069.04 182.026C1070.84 181.651 1071.99 179.89 1071.61 178.094L1053.24 90.2933C1052.86 88.497 1051.1 87.346 1049.31 87.7218L961.507 106.092C959.711 106.468 958.56 108.228 958.936 110.024C959.311 111.821 961.072 112.972 962.868 112.596L1047.42 94.906L1065.11 179.455C1065.48 181.251 1067.24 182.402 1069.04 182.026ZM1110.01 173.454C1111.81 173.078 1112.96 171.318 1112.58 169.521L1094.89 84.9724L1179.44 67.2826C1181.24 66.9069 1182.39 65.1467 1182.01 63.3504C1181.64 61.554 1179.88 60.4032 1178.08 60.7789L1090.28 79.1491C1088.49 79.5248 1087.33 81.285 1087.71 83.0813L1106.08 170.882C1106.46 172.678 1108.22 173.829 1110.01 173.454ZM1045.49 171.679C1047.29 171.303 1048.44 169.543 1048.06 167.747L1037.65 117.993C1037.28 116.197 1035.52 115.046 1033.72 115.422L983.966 125.832C982.17 126.207 981.019 127.967 981.395 129.764C981.77 131.56 983.53 132.711 985.327 132.335L1031.83 122.606L1041.56 169.108C1041.93 170.904 1043.69 172.055 1045.49 171.679ZM1129.75 150.995C1131.55 150.619 1132.7 148.859 1132.32 147.062L1122.59 100.561L1169.1 90.8312C1170.89 90.4555 1172.04 88.6953 1171.67 86.8989C1171.29 85.1026 1169.53 83.9517 1167.74 84.3274L1117.98 94.7372C1116.19 95.1129 1115.03 96.8731 1115.41 98.6695L1125.82 148.423C1126.2 150.22 1127.96 151.37 1129.75 150.995ZM935.168 97.0076L1046.38 73.7393C1048.18 73.3634 1049.33 71.6033 1048.95 69.807C1048.58 68.0113 1046.82 66.8597 1045.02 67.2355L933.807 90.5038C932.011 90.8797 930.86 92.6404 931.236 94.4361C931.612 96.2324 933.372 97.3835 935.168 97.0076ZM1087.36 65.1654L1198.57 41.8971C1200.37 41.5214 1201.52 39.7612 1201.14 37.9648C1200.77 36.1691 1199.01 35.0176 1197.21 35.3933L1086 58.6617C1084.2 59.0374 1083.05 60.7982 1083.43 62.5939C1083.8 64.3903 1085.56 65.5413 1087.36 65.1654ZM954.295 71.622L1042.1 53.2519C1043.89 52.876 1045.04 51.1153 1044.67 49.3196L1026.3 -38.4812C1025.92 -40.2769 1024.16 -41.4285 1022.37 -41.0527C1020.57 -40.6769 1019.42 -38.9161 1019.79 -37.1204L1037.48 47.4285L952.934 65.1183C951.138 65.4941 949.987 67.2549 950.363 69.0505C950.739 70.8462 952.499 71.9979 954.295 71.622ZM1083.07 44.6791L1170.87 26.3089C1172.67 25.9332 1173.82 24.1724 1173.44 22.3767C1173.07 20.581 1171.31 19.4295 1169.51 19.8052L1084.96 37.495L1067.27 -47.054C1066.9 -48.8496 1065.13 -50.0012 1063.34 -49.6255C1061.54 -49.2498 1060.39 -47.4889 1060.77 -45.6932L1079.14 42.1076C1079.51 43.9033 1081.27 45.0548 1083.07 44.6791ZM964.642 48.0735L1014.4 37.6637C1016.19 37.2879 1017.34 35.5272 1016.97 33.7315L1006.56 -16.0223C1006.18 -17.818 1004.42 -18.9697 1002.63 -18.5938C1000.83 -18.218 999.678 -16.4573 1000.05 -14.6616L1009.78 31.8403L963.281 41.5697C961.485 41.9456 960.334 43.7063 960.71 45.502C961.086 47.2977 962.846 48.4493 964.642 48.0735ZM1098.66 16.9792L1148.41 6.56942C1150.21 6.19372 1151.36 4.43285 1150.98 2.63716C1150.61 0.841475 1148.85 -0.310045 1147.05 0.0656592L1100.55 9.79505L1090.82 -36.7069C1090.44 -38.5025 1088.68 -39.6541 1086.89 -39.2784C1085.09 -38.9027 1083.94 -37.1418 1084.32 -35.3461L1094.73 14.4077C1095.1 16.2034 1096.86 17.3549 1098.66 16.9792Z" fill="url(#paint2_linear_3187_139167)"/>
</g>
<defs>
<linearGradient id="paint0_linear_3187_139167" x1="-329.723" y1="34.5" x2="1118" y2="34.5" gradientUnits="userSpaceOnUse">
<stop stop-color="#0E75E3"/>
<stop offset="1" stop-color="#014EA2"/>
</linearGradient>
<linearGradient id="paint1_linear_3187_139167" x1="11.0005" y1="5.00001" x2="200.5" y2="69" gradientUnits="userSpaceOnUse">
<stop stop-color="white"/>
<stop offset="1" stop-color="#0865C8"/>
</linearGradient>
<linearGradient id="paint2_linear_3187_139167" x1="1140.5" y1="-2" x2="962.5" y2="76" gradientUnits="userSpaceOnUse">
<stop stop-color="white"/>
<stop offset="1" stop-color="#0353AB"/>
</linearGradient>
<clipPath id="clip0_3187_139167">
<path d="M0 12C0 5.37258 5.37258 0 12 0H1106C1112.63 0 1118 5.37258 1118 12V69H0V12Z" fill="white"/>
</clipPath>
</defs>
</svg>
