<svg width="44" height="44" viewBox="0 0 44 44" fill="none" xmlns="http://www.w3.org/2000/svg">
<path d="M4.16602 22.0013C4.16602 12.1758 12.1738 4.16797 21.9993 4.16797C31.8249 4.16797 39.8327 12.1758 39.8327 22.0013C39.8327 31.8268 31.8249 39.8346 21.9993 39.8346C12.1738 39.8346 4.16602 31.8268 4.16602 22.0013ZM20.9962 29.7982L27.4651 23.3293C28.2141 22.6018 28.2141 21.4009 27.4652 20.6734L20.9962 14.2044C20.2693 13.4775 19.0727 13.4775 18.3458 14.2044C17.6189 14.9313 17.6189 16.1279 18.3458 16.8549L23.4922 22.0013L18.3458 27.1477C17.6189 27.8747 17.6189 29.0713 18.3458 29.7982C18.7195 30.1719 19.1972 30.348 19.671 30.348C20.1448 30.348 20.6225 30.1719 20.9962 29.7982Z" fill="#161C22" stroke="#161C22"/>
</svg>
