<svg width="44" height="44" viewBox="0 0 44 44" fill="none" xmlns="http://www.w3.org/2000/svg">
<path d="M39.834 21.9987C39.834 31.8242 31.8262 39.832 22.0007 39.832C12.1751 39.832 4.16732 31.8242 4.16732 21.9987C4.16732 12.1732 12.1751 4.16537 22.0007 4.16537C31.8262 4.16537 39.834 12.1732 39.834 21.9987ZM23.0038 14.2018L16.5349 20.6707C15.7859 21.3982 15.7859 22.5991 16.5348 23.3266L23.0038 29.7956C23.7307 30.5225 24.9273 30.5225 25.6542 29.7956C26.3811 29.0687 26.3811 27.8721 25.6542 27.1451L20.5078 21.9987L25.6542 16.8523C26.3811 16.1253 26.3811 14.9287 25.6542 14.2018C25.2805 13.8281 24.8028 13.652 24.329 13.652C23.8552 13.652 23.3775 13.8281 23.0038 14.2018Z" fill="#161C22" stroke="#161C22"/>
</svg>
