<svg width="33" height="32" viewBox="0 0 33 32" fill="none" xmlns="http://www.w3.org/2000/svg">
<g clip-path="url(#clip0_1_24)">
<path d="M21.2532 31.5242C20.7634 31.5242 20.3664 31.1272 20.3664 30.6374V28.8H22.1399V30.6374C22.1399 31.1272 21.7429 31.5242 21.2532 31.5242ZM28.7588 31.5242C28.2691 31.5242 27.8721 31.1272 27.8721 30.6374V28.8H29.6458V30.6374C29.6458 31.1272 29.2486 31.5242 28.7588 31.5242ZM5.76269 31.5242C5.11281 31.5242 4.58594 30.9973 4.58594 30.3476V28.5371H6.9395V30.3476C6.9395 30.9973 6.41256 31.5242 5.76269 31.5242ZM15.7222 31.5242C15.0722 31.5242 14.5454 30.9973 14.5454 30.3476V28.5371H16.8989V30.3476C16.8989 30.9973 16.3721 31.5242 15.7222 31.5242Z" fill="#FFDE00"/>
<path d="M20.2823 8.78145V25.791C20.2823 27.6585 18.7683 29.1721 16.9009 29.1721H4.58816C2.72072 29.1721 1.20703 27.6585 1.20703 25.791V8.78145C1.20703 6.91402 2.72078 5.40039 4.58816 5.40039H16.9009C18.7683 5.40039 20.2823 6.91402 20.2823 8.78145Z" fill="#E7CA04"/>
<path d="M20.2823 8.78145V25.791C20.2823 27.6585 18.7683 29.1721 16.9009 29.1721H7.12722C5.25978 29.1721 3.74609 27.6585 3.74609 25.791V8.78145C3.74609 6.91402 5.25984 5.40039 7.12722 5.40039H16.9009C18.7683 5.40039 20.2823 6.91402 20.2823 8.78145Z" fill="#FFDE00"/>
<path d="M32.1963 14.3838V27.2029C32.1963 28.6101 31.0549 29.7507 29.6477 29.7507H20.3682C18.9617 29.7507 17.8203 28.6101 17.8203 27.2029V14.3838C17.8203 12.9766 18.9617 11.8359 20.3682 11.8359H29.6477C31.0549 11.8359 32.1963 12.9766 32.1963 14.3838Z" fill="#E7CA04"/>
<path d="M32.1965 14.3838V27.2029C32.1965 28.6101 31.0551 29.7507 29.6478 29.7507H22.1618C20.7543 29.7507 19.6133 28.6101 19.6133 27.2029V14.3838C19.6133 12.9766 20.7543 11.8359 22.1618 11.8359H29.6479C31.0552 11.8359 32.1965 12.9766 32.1965 14.3838H32.1965Z" fill="#FFDE00"/>
<path d="M5.78787 14.0705C5.72546 14.0705 5.66366 14.0828 5.606 14.1066C5.54833 14.1305 5.49593 14.1655 5.45179 14.2096C5.40764 14.2537 5.37262 14.3061 5.34872 14.3638C5.32483 14.4214 5.31252 14.4832 5.3125 14.5456V25.5215C5.31535 25.6456 5.36668 25.7638 5.4555 25.8506C5.54433 25.9374 5.66361 25.986 5.78781 25.986C5.91202 25.986 6.03129 25.9374 6.12012 25.8506C6.20895 25.7638 6.26028 25.6456 6.26312 25.5215V14.5456C6.26319 14.2832 6.05031 14.0706 5.78787 14.0706V14.0705ZM5.78787 8.57227C5.72546 8.57225 5.66366 8.58453 5.606 8.60839C5.54833 8.63226 5.49593 8.66726 5.45179 8.71138C5.40764 8.75549 5.37262 8.80788 5.34872 8.86553C5.32483 8.92318 5.31252 8.98498 5.3125 9.04739V12.6445C5.31535 12.7687 5.36668 12.8868 5.4555 12.9736C5.54433 13.0604 5.66361 13.1091 5.78781 13.1091C5.91202 13.1091 6.03129 13.0604 6.12012 12.9736C6.20895 12.8868 6.26028 12.7687 6.26312 12.6445V9.04739C6.26319 8.78489 6.05031 8.57227 5.78787 8.57227ZM10.7424 8.57227C10.6164 8.57225 10.4955 8.6223 10.4064 8.7114C10.3173 8.8005 10.2672 8.92136 10.2671 9.04739V25.5215C10.2671 25.784 10.48 25.9968 10.7424 25.9968C11.0049 25.9968 11.2178 25.784 11.2178 25.5215V9.04739C11.2178 8.78489 11.0049 8.57227 10.7424 8.57227ZM15.697 8.57227C15.6346 8.57226 15.5728 8.58454 15.5152 8.60842C15.4575 8.63229 15.4052 8.66729 15.361 8.71141C15.3169 8.75553 15.2819 8.80792 15.2581 8.86556C15.2342 8.92321 15.2219 8.985 15.2219 9.04739V25.5215C15.2212 25.5843 15.233 25.6467 15.2565 25.705C15.2801 25.7633 15.315 25.8163 15.3592 25.861C15.4034 25.9057 15.456 25.9412 15.514 25.9655C15.572 25.9897 15.6343 26.0022 15.6972 26.0022C15.76 26.0022 15.8223 25.9897 15.8803 25.9655C15.9383 25.9412 15.9909 25.9057 16.0351 25.861C16.0793 25.8163 16.1142 25.7633 16.1378 25.705C16.1613 25.6467 16.1731 25.5843 16.1724 25.5215V9.04739C16.1724 8.78489 15.9595 8.57227 15.697 8.57227Z" fill="#014EA2"/>
<path d="M32.1948 24.677C32.4573 24.677 32.6699 24.4641 32.6699 24.2017V14.3841C32.6699 12.7171 31.3137 11.3606 29.6468 11.3606H28.2358V8.60031H28.6708C28.7332 8.60033 28.795 8.58805 28.8527 8.56419C28.9103 8.54032 28.9627 8.50533 29.0068 8.46121C29.0509 8.41709 29.0859 8.36472 29.1098 8.30707C29.1337 8.24943 29.146 8.18764 29.146 8.12525C29.146 7.86275 28.9333 7.64988 28.6709 7.64988H21.343C21.2806 7.64989 21.2188 7.6622 21.1611 7.6861C21.1035 7.71 21.0511 7.74502 21.007 7.78916C20.9628 7.8333 20.9278 7.8857 20.904 7.94337C20.8801 8.00104 20.8678 8.06284 20.8678 8.12525C20.8678 8.18764 20.8801 8.24943 20.904 8.30707C20.9279 8.36472 20.9629 8.41709 21.007 8.46121C21.0511 8.50533 21.1035 8.54032 21.1611 8.56419C21.2188 8.58805 21.2806 8.60033 21.343 8.60031H21.778V11.3606H20.7561V8.7805C20.7561 6.65406 19.0261 4.92406 16.8996 4.92406H14.8727V0.950437H15.6052C15.8676 0.950437 16.0802 0.737812 16.0802 0.475313C16.0802 0.212813 15.8677 0 15.6053 0H5.88153C5.61903 0 5.40641 0.212875 5.40641 0.475313C5.40641 0.73775 5.61909 0.950437 5.88153 0.950437H6.61422V4.92406H4.58691C2.46047 4.92406 0.730469 6.65406 0.730469 8.7805V25.7901C0.730469 27.7554 2.20872 29.3811 4.11159 29.6162V30.3481C4.11159 31.2591 4.85278 32 5.76366 32C6.67453 32 7.41553 31.2591 7.41553 30.3481V29.6465H14.0713V30.3481C14.0713 31.2591 14.8123 32 15.7232 32C16.634 32 17.375 31.2591 17.375 30.3481V29.6169C17.6857 29.5788 17.9905 29.5025 18.2825 29.3896C18.7168 29.8037 19.2732 30.0906 19.8918 30.1887V30.6379C19.8918 31.3889 20.5029 32 21.2539 32C22.0052 32 22.616 31.3889 22.616 30.6379V30.2263H27.3977V30.6379C27.3977 31.3889 28.0088 32 28.7598 32C29.5108 32 30.1218 31.3889 30.1218 30.6379V30.1887C31.5637 29.96 32.67 28.7085 32.67 27.2031V24.1028C32.67 23.9768 32.6199 23.8559 32.5308 23.7668C32.4416 23.6776 32.3208 23.6276 32.1947 23.6276C32.0687 23.6276 31.9478 23.6776 31.8587 23.7668C31.7695 23.8559 31.7195 23.9768 31.7195 24.1028V27.2031C31.7195 28.3459 30.7895 29.2759 29.6465 29.2759H20.3672C19.2243 29.2759 18.2944 28.3459 18.2944 27.2031V14.3841C18.2944 13.2409 19.2244 12.3112 20.3672 12.3112H29.6465C30.7895 12.3112 31.7195 13.2409 31.7195 14.3841V24.2017C31.7195 24.4641 31.9322 24.677 32.1948 24.677ZM13.9221 0.950437V4.92381H7.56472V0.950437H13.9221ZM29.1714 30.2263V30.6379C29.1713 30.7471 29.1279 30.8517 29.0507 30.9289C28.9735 31.006 28.8689 31.0494 28.7598 31.0496C28.5329 31.0496 28.3484 30.8648 28.3484 30.6379V30.2263H29.1714ZM21.6658 30.2263V30.6379C21.6658 30.8648 21.481 31.0496 21.2542 31.0496C21.145 31.0494 21.0404 31.006 20.9632 30.9289C20.8861 30.8517 20.8427 30.7471 20.8425 30.6379V30.2263H21.6658ZM6.46509 30.3482C6.46509 30.7349 6.15041 31.0496 5.76366 31.0496C5.37691 31.0496 5.06234 30.7349 5.06234 30.3481V29.6465H6.46516L6.46509 30.3482ZM16.4245 30.3482C16.4245 30.7349 16.1102 31.0496 15.7232 31.0496C15.3364 31.0496 15.0217 30.7349 15.0217 30.3481V29.6465H16.4248L16.4245 30.3482ZM17.344 14.3841V27.2031C17.344 27.7024 17.4665 28.1736 17.6819 28.5891C17.4273 28.6603 17.1641 28.6962 16.8997 28.696H4.58691C2.98459 28.696 1.68091 27.3923 1.68091 25.7901V8.78075C1.68091 7.17825 2.98466 5.87475 4.58691 5.87475H16.8997C18.502 5.87475 19.8057 7.17825 19.8057 8.78075V11.4139C18.4063 11.678 17.344 12.9089 17.344 14.3841ZM22.7285 11.3606V8.60031H27.2854V11.3606H22.7285Z" fill="#014EA2"/>
<path d="M20.7969 14.5862V27.0015C20.7969 27.2639 21.0095 27.4765 21.2723 27.4765C21.3347 27.4766 21.3964 27.4643 21.4541 27.4404C21.5117 27.4165 21.5641 27.3815 21.6082 27.3374C21.6523 27.2933 21.6873 27.2409 21.7112 27.1833C21.7351 27.1256 21.7474 27.0639 21.7473 27.0015V14.5862C21.7481 14.5233 21.7363 14.4609 21.7127 14.4026C21.6892 14.3443 21.6543 14.2913 21.6101 14.2466C21.5659 14.2019 21.5133 14.1664 21.4553 14.1422C21.3972 14.1179 21.335 14.1055 21.2721 14.1055C21.2093 14.1055 21.147 14.1179 21.089 14.1422C21.031 14.1664 20.9784 14.2019 20.9342 14.2466C20.89 14.2913 20.8551 14.3443 20.8315 14.4026C20.8079 14.4609 20.7962 14.5233 20.7969 14.5862ZM24.5308 14.5862V27.0015C24.5308 27.2639 24.7435 27.4765 25.0062 27.4765C25.0685 27.4766 25.1303 27.4643 25.188 27.4404C25.2456 27.4165 25.298 27.3815 25.3421 27.3374C25.3862 27.2933 25.4212 27.2409 25.4451 27.1833C25.4689 27.1256 25.4812 27.0639 25.4812 27.0015V14.5862C25.4819 14.5233 25.4702 14.4609 25.4466 14.4026C25.4231 14.3443 25.3882 14.2913 25.344 14.2466C25.2998 14.2019 25.2471 14.1664 25.1891 14.1422C25.1311 14.1179 25.0689 14.1055 25.006 14.1055C24.9431 14.1055 24.8809 14.1179 24.8229 14.1422C24.7649 14.1664 24.7122 14.2019 24.668 14.2466C24.6238 14.2913 24.5889 14.3443 24.5654 14.4026C24.5418 14.4609 24.5301 14.5233 24.5308 14.5862ZM28.2647 14.5862V27.0015C28.2647 27.2639 28.4776 27.4765 28.74 27.4765C29.0025 27.4765 29.2152 27.2639 29.2152 27.0015V14.5862C29.2159 14.5233 29.2041 14.4609 29.1806 14.4026C29.157 14.3443 29.1221 14.2913 29.0779 14.2466C29.0337 14.2019 28.9811 14.1664 28.9231 14.1422C28.8651 14.1179 28.8028 14.1055 28.7399 14.1055C28.6771 14.1055 28.6148 14.1179 28.5568 14.1422C28.4988 14.1664 28.4462 14.2019 28.402 14.2466C28.3578 14.2913 28.3229 14.3443 28.2993 14.4026C28.2758 14.4609 28.264 14.5233 28.2647 14.5862Z" fill="#014EA2"/>
</g>
<defs>
<clipPath id="clip0_1_24">
<rect width="32" height="32" fill="white" transform="translate(0.667969)"/>
</clipPath>
</defs>
</svg>
