<svg height="512" viewBox="0 0 64 64" width="512" xmlns="http://www.w3.org/2000/svg"><g id="Mocktail"><path d="m36.57 28.51-.15.12-.15-.12a1.13 1.13 0 0 1 .3 0z"/><path d="m57.54 14.49a1.002 1.002 0 0 0 -.62-1.79h-29.92a10.5138 10.5138 0 1 0 -2.97 8.69l.6.47a.8277.8277 0 0 0 .15.11l10.64 8.42v23.49l-9.54 4.72a1.0021 1.0021 0 0 0 .44 1.9h20.2a1.0021 1.0021 0 0 0 .44-1.9l-9.54-4.73v-23.48zm-40.96 8.01a8.5 8.5 0 1 1 8.39-9.8h-9.05a1.0067 1.0067 0 0 0 -.62 1.79l7.15 5.65a8.4177 8.4177 0 0 1 -5.87 2.36zm7.99-3.24-.01-.01c-.01-.01-.02-.01-.03-.02l-5.73-4.53h35.24l-1.22.97a54.8854 54.8854 0 0 0 -14.45 2.12 72.1316 72.1316 0 0 1 -12.75 2.3zm17.68 39.24h-11.65l5.82-2.88zm-5.68-29.99-.15.12-.15-.12-8.39-6.63a77.9013 77.9013 0 0 0 10.98-2.15 55.6881 55.6881 0 0 1 11.3-1.96z"/><path d="m16.5781 10.5a1 1 0 0 1 -1-1v-2a1 1 0 0 1 2 0v2a1 1 0 0 1 -1 1z"/><path d="m13.4385 11.7769a.997.997 0 0 1 -.7158-.3018l-1.3965-1.4326a1 1 0 1 1 1.4316-1.3965l1.3965 1.4326a1 1 0 0 1 -.7158 1.6983z"/><path d="m19.7188 11.7769a1 1 0 0 1 -.7168-1.6978l1.3955-1.4326a1 1 0 0 1 1.4336 1.3955l-1.3956 1.4326a.9992.9992 0 0 1 -.7167.3023z"/><path d="m12.042 19.6553a1 1 0 0 1 -.7158-1.6983l1.3965-1.4321a1 1 0 1 1 1.4316 1.3965l-1.3965 1.4321a.9987.9987 0 0 1 -.7158.3018z"/><path d="m12.0781 15h-2a1 1 0 0 1 0-2h2a1 1 0 0 1 0 2z"/><path d="m16.5762 21.4976a1 1 0 0 1 -1-1v-2a1 1 0 0 1 2 0v2a1 1 0 0 1 -1 1z"/></g></svg>