<svg width="24" height="24" viewBox="0 0 24 24" fill="none" xmlns="http://www.w3.org/2000/svg">
<rect width="24" height="24" rx="12" fill="#E8E8E8" fill-opacity="0.5"/>
<path d="M5.97144 12.3143C6.0286 12.4 6.14287 12.4286 6.25715 12.4C6.37142 12.3715 6.42858 12.2857 6.45714 12.1714C6.54285 11.7429 6.88571 11.4286 7.31428 11.4286C7.62858 11.4286 7.91428 11.5714 8.05715 11.8571C8.1143 11.9714 8.25714 12.0286 8.37145 12M5.97144 12.3143C5.77145 12.1143 5.54287 12 5.28573 12C4.93264 12 4.63123 12.2065 4.50411 12.5214H4.55831M5.97144 12.3143L5.92984 12.342C5.93082 12.3435 5.93182 12.345 5.93282 12.3464M5.97144 12.3143L5.93609 12.3496C5.935 12.3486 5.93391 12.3475 5.93282 12.3464M4.55831 12.5214C4.55122 12.5378 4.54464 12.5545 4.53859 12.5714H9.20427C9.19822 12.5545 9.19164 12.5378 9.18456 12.5214M4.55831 12.5214H9.18456M4.55831 12.5214C4.68201 12.236 4.96006 12.05 5.28573 12.05C5.52514 12.05 5.74058 12.1554 5.93282 12.3464M9.18456 12.5214H9.23875C9.11166 12.2065 8.81022 12 8.45716 12H8.37145M9.18456 12.5214C9.06088 12.236 8.7828 12.05 8.45716 12.05H8.37729M8.37145 12V12.05H8.37729M8.37145 12L8.38357 12.0485C8.38148 12.049 8.37939 12.0495 8.37729 12.05M8.37729 12.05C8.24297 12.0803 8.07972 12.014 8.01243 11.8795L8.01243 11.8795C7.8796 11.6139 7.61342 11.4786 7.31428 11.4786C6.91254 11.4786 6.58782 11.773 6.50617 12.1812L6.5057 12.1836L6.50565 12.1835C6.47464 12.3076 6.40834 12.4138 6.26927 12.4485C6.14383 12.4799 6.00631 12.4518 5.93282 12.3464M16.7019 19.5491L16.378 18.9014C17.2517 18.8372 17.9979 18.2162 18.2198 17.3843L18.2199 17.3836L18.9885 14.3357H19.2857C19.7991 14.3357 20.1929 13.9419 20.1929 13.4285C20.1929 12.9152 19.7991 12.5214 19.2857 12.5214H19.05V6.57143C19.05 5.11523 17.8848 3.95 16.4286 3.95C15.1454 3.95 14.223 4.8949 14.1058 6.27012C13.4376 6.41418 12.95 6.99813 12.95 7.71428C12.95 7.81136 12.9826 7.89614 13.0432 7.95677C13.1039 8.01741 13.1887 8.04998 13.2857 8.04998H15.5715C15.6685 8.04998 15.7533 8.01741 15.814 7.95677C15.8746 7.89614 15.9072 7.81135 15.9072 7.71428C15.9072 7.0087 15.4339 6.43131 14.7809 6.27662C14.8286 5.84655 14.982 5.43867 15.2455 5.13599C15.517 4.82424 15.9074 4.62141 16.4286 4.62141C17.5153 4.62141 18.3786 5.48473 18.3786 6.5714V12.5214H9.8701C9.72295 11.8671 9.15283 11.3891 8.45198 11.3787C8.15975 11.0367 7.75251 10.8071 7.28575 10.8071C6.74122 10.8071 6.25224 11.1124 6.00682 11.5623C5.78528 11.4568 5.5367 11.3786 5.28573 11.3786C4.57417 11.3786 3.99297 11.8599 3.84421 12.5215C3.3372 12.528 2.95 12.9195 2.95 13.4285C2.95 13.9419 3.3438 14.3357 3.85714 14.3357H4.16155L4.92295 17.3551L4.92302 17.3553C5.15721 18.2628 5.97686 18.9072 6.9143 18.9072H7.06199L6.72757 19.576C6.63014 19.7405 6.6924 19.9421 6.85873 20.0143C6.88287 20.0341 6.91241 20.042 6.93466 20.0457C6.9602 20.05 6.98503 20.05 6.99918 20.05H7.00002C7.13369 20.05 7.23393 19.9821 7.29876 19.8849L7.29908 19.8851L7.30188 19.8795L7.78805 18.9072H15.6548L16.1267 19.8509L16.1715 19.8286L16.1267 19.8509C16.1583 19.914 16.1992 19.9643 16.2509 19.9987C16.3028 20.0334 16.3627 20.05 16.4286 20.05L16.4331 20.05C16.4577 20.05 16.488 20.0501 16.515 20.0393C16.5436 20.0278 16.5637 20.0071 16.5798 19.9797C16.644 19.9419 16.6892 19.8765 16.712 19.8043C16.7366 19.7264 16.7368 19.6359 16.7036 19.5529L16.7037 19.5528L16.7019 19.5491ZM14.4572 6.90714C14.7828 6.90714 15.0609 7.09316 15.1846 7.37858H13.7016C13.8282 7.09457 14.1298 6.90714 14.4572 6.90714ZM17.6087 17.1877C17.4427 17.795 16.8905 18.2357 16.2572 18.2357H6.94286C6.30938 18.2357 5.75711 17.7949 5.59122 17.1873C5.59118 17.1871 5.59115 17.187 5.59111 17.1869L4.86435 14.3357H18.2797L17.6087 17.1877ZM19.2857 13.6643H3.85714C3.78279 13.6643 3.72472 13.6397 3.68536 13.6004C3.646 13.561 3.62144 13.5029 3.62144 13.4286C3.62144 13.3542 3.646 13.2962 3.68536 13.2568C3.72472 13.2174 3.78279 13.1929 3.85714 13.1929H19.2857C19.3601 13.1929 19.4182 13.2174 19.4575 13.2568C19.4969 13.2962 19.5214 13.3542 19.5214 13.4286C19.5214 13.5029 19.4969 13.561 19.4575 13.6004C19.4182 13.6397 19.3601 13.6643 19.2857 13.6643Z" fill="#2E363D" stroke="#2E363D" stroke-width="0.1"/>
<path d="M13.2857 9.28459C13.4571 9.28459 13.5714 9.17031 13.5714 8.99888V8.85602C13.5714 8.68459 13.4571 8.57031 13.2857 8.57031C13.1143 8.57031 13 8.68459 13 8.85602V8.99888C13 9.17031 13.1143 9.28459 13.2857 9.28459ZM13.2857 10.5989C13.4571 10.5989 13.5714 10.456 13.5714 10.3132V9.9989C13.5714 9.82747 13.4571 9.71319 13.2857 9.71319C13.1143 9.71319 13 9.82747 13 9.9989V10.3132C13 10.4846 13.1143 10.5989 13.2857 10.5989ZM13.2857 11.7132C13.4571 11.7132 13.5714 11.5989 13.5714 11.4275V11.2846C13.5714 11.1132 13.4571 10.9989 13.2857 10.9989C13.1143 10.9989 13 11.1132 13 11.2846V11.4275C13 11.5989 13.1143 11.7132 13.2857 11.7132ZM14.4286 9.28459C14.6 9.28459 14.7143 9.17031 14.7143 8.99888V8.85602C14.7143 8.68459 14.6 8.57031 14.4286 8.57031C14.2571 8.57031 14.1428 8.68459 14.1428 8.85602V8.99888C14.1428 9.17031 14.2571 9.28459 14.4286 9.28459ZM14.1428 10.3132C14.1428 10.4846 14.2571 10.5989 14.4286 10.5989C14.6 10.5989 14.7143 10.456 14.7143 10.3132V9.99886C14.7143 9.82743 14.6 9.71316 14.4286 9.71316C14.2571 9.71316 14.1428 9.82743 14.1428 9.99886V10.3132ZM14.1428 11.4274C14.1428 11.5989 14.2571 11.7132 14.4286 11.7132C14.6 11.7132 14.7143 11.5989 14.7143 11.4274V11.2846C14.7143 11.1132 14.6 10.9989 14.4286 10.9989C14.2571 10.9989 14.1428 11.1132 14.1428 11.2846V11.4274ZM15.5714 9.28459C15.7429 9.28459 15.8571 9.17031 15.8571 8.99888V8.85602C15.8571 8.68459 15.7429 8.57031 15.5714 8.57031C15.4 8.57031 15.2857 8.68459 15.2857 8.85602V8.99888C15.2857 9.17031 15.4 9.28459 15.5714 9.28459ZM15.2857 10.3132C15.2857 10.4846 15.4 10.5989 15.5714 10.5989C15.7428 10.5989 15.8571 10.456 15.8571 10.3132V9.99886C15.8571 9.82743 15.7429 9.71316 15.5714 9.71316C15.4 9.71316 15.2857 9.82743 15.2857 9.99886L15.2857 10.3132ZM15.2857 11.4274C15.2857 11.5989 15.4 11.7132 15.5714 11.7132C15.7428 11.7132 15.8571 11.5989 15.8571 11.4274V11.2846C15.8571 11.1132 15.7428 10.9989 15.5714 10.9989C15.4 10.9989 15.2857 11.1132 15.2857 11.2846V11.4274Z" fill="#2E363D"/>
</svg>
