<svg width="31" height="31" viewBox="0 0 31 31" fill="none" xmlns="http://www.w3.org/2000/svg">
<path d="M15.6359 30.0938C19.4797 30.0938 23.2561 29.4931 26.557 28.3568C27.4089 28.0634 27.8532 27.1592 27.5494 26.3365C27.3105 25.6899 26.6797 25.2861 26.007 25.2861L5.26468 25.2865C4.5915 25.2866 3.9609 25.6896 3.72234 26.3365C3.41854 27.1592 3.8628 28.0634 4.71465 28.3568C8.01556 29.4931 11.792 30.0938 15.6359 30.0938Z" fill="#86B3E5"/>
<path d="M4.17535 3.75194V20.341C4.17535 22.4613 5.76323 24.2529 7.90551 24.5707C10.2871 24.9239 12.8986 25.1192 15.6386 25.1192C18.3785 25.1192 20.99 24.9239 23.3717 24.5707C25.514 24.2529 27.1019 22.4613 27.1019 20.341V3.75194C27.1019 1.98181 25.6355 0.546875 23.8267 0.546875H7.45054C5.64167 0.54681 4.17535 1.98181 4.17535 3.75194Z" fill="#B2D7FF"/>
<path d="M1.78654 23.1932C1.03285 23.1932 0.421875 22.5953 0.421875 21.8578V9.57155C0.421875 8.834 1.03285 8.23611 1.78654 8.23611C2.54023 8.23611 3.1512 8.834 3.1512 9.57155V21.8578C3.1512 22.5953 2.54023 23.1932 1.78654 23.1932Z" fill="#5D5360"/>
<path d="M29.4775 23.1932C28.7238 23.1932 28.1128 22.5953 28.1128 21.8578V9.57155C28.1128 8.834 28.7238 8.23611 29.4775 8.23611C30.2312 8.23611 30.8422 8.834 30.8422 9.57155V21.8578C30.8422 22.5953 30.2312 23.1932 29.4775 23.1932Z" fill="#5D5360"/>
</svg>
