<svg width="80" height="113" viewBox="0 0 80 113" fill="none" xmlns="http://www.w3.org/2000/svg">
<rect width="80" height="113" rx="6" fill="#E6EDF6"/>
<path d="M54.6687 40.4102H24.4727V81.0189H54.6687V40.4102Z" fill="#EFF6FF"/>
<path d="M35.1621 61.1354C35.1621 52.5596 39.4324 44.9821 45.9616 40.4102H24.4727V81.0189H44.8255C38.9411 76.3893 35.1621 69.2038 35.1621 61.1354Z" fill="#014EA2"/>
<path d="M36.5488 69.4102H43.6507V80.0353L40.9078 78.9373L36.9329 74.5758L36.5488 69.4102Z" fill="#9AB8DF"/>
<path d="M36.5496 69.4102H35.4902V81.0197H43.6515V80.0353C40.4514 77.1893 37.9803 73.5429 36.5496 69.4102Z" fill="white"/>
<path d="M47.0134 32.9805H32.1523V47.8415H47.0134V32.9805Z" fill="white"/>
<path d="M33.1008 52.1562H28.7871V56.47H33.1008V52.1562Z" fill="white"/>
<path d="M33.1008 60.7852H28.7871V65.0989H33.1008V60.7852Z" fill="white"/>
<path d="M41.7278 52.1562H37.4141V56.47H41.7278V52.1562Z" fill="#9AB8DF"/>
<path d="M41.7278 60.7852H37.4141V65.0989H41.7278V60.7852Z" fill="#9AB8DF"/>
<path d="M50.3567 52.1562H46.043V56.47H50.3567V52.1562Z" fill="#9AB8DF"/>
<path d="M50.3567 60.7852H46.043V65.0989H50.3567V60.7852Z" fill="#9AB8DF"/>
<path d="M60.5975 70.0723C61.0642 69.0732 61.0982 67.8813 60.5887 66.8072C60.1492 65.8808 59.3855 65.2131 58.4981 64.8732C58.4686 62.7831 56.7661 61.0977 54.6691 61.0977C52.572 61.0977 50.8695 62.7831 50.84 64.8732C49.9526 65.2131 49.189 65.8808 48.7495 66.8072C48.2398 67.8813 48.2739 69.0731 48.7406 70.0723C48.2533 70.7333 47.9648 71.55 47.9648 72.4342C47.9648 74.6352 49.7491 76.4194 51.95 76.4194C53.0014 76.4194 53.957 76.0116 54.6692 75.3464C55.3813 76.0116 56.3369 76.4194 57.3883 76.4194C59.5893 76.4194 61.3735 74.6352 61.3735 72.4342C61.3733 71.55 61.0848 70.7333 60.5975 70.0723Z" fill="white"/>
<path d="M18.5436 70.0723C18.0769 69.0732 18.0429 67.8813 18.5524 66.8072C18.9919 65.8808 19.7555 65.2131 20.643 64.8732C20.6725 62.7831 22.3749 61.0977 24.472 61.0977C26.569 61.0977 28.2716 62.7831 28.301 64.8732C29.1885 65.2131 29.9521 65.8808 30.3916 66.8072C30.9012 67.8813 30.8672 69.0731 30.4004 70.0723C30.8878 70.7333 31.1762 71.55 31.1762 72.4342C31.1762 74.6352 29.392 76.4194 27.191 76.4194C26.1396 76.4194 25.184 76.0116 24.4719 75.3464C23.7597 76.0116 22.8041 76.4194 21.7528 76.4194C19.5518 76.4194 17.7676 74.6352 17.7676 72.4342C17.7678 71.55 18.0562 70.7333 18.5436 70.0723Z" fill="white"/>
<path d="M41.7277 36.3125C41.1863 36.3125 40.7473 36.7514 40.7473 37.2929V39.3224H38.3944V37.2929C38.3944 36.7514 37.9555 36.3125 37.414 36.3125C36.8725 36.3125 36.4336 36.7514 36.4336 37.2929V43.5265C36.4336 44.068 36.8725 44.5069 37.414 44.5069C37.9555 44.5069 38.3944 44.068 38.3944 43.5265V41.2832H40.7473V43.5265C40.7473 44.068 41.1863 44.5069 41.7277 44.5069C42.2691 44.5069 42.7081 44.068 42.7081 43.5265V37.2929C42.7081 36.7514 42.2691 36.3125 41.7277 36.3125Z" fill="#014EA2"/>
<path d="M57.3876 77.3979C60.1256 77.3979 62.3531 75.1704 62.3531 72.4325C62.3531 71.5542 62.1267 70.7096 61.6944 69.9599C62.0832 68.7893 62.0095 67.5141 61.4738 66.3851C61.0332 65.4563 60.3181 64.7051 59.4263 64.2218C59.1301 62.2304 57.5982 60.6279 55.6488 60.2182V41.3914H56.4251C56.9665 41.3914 57.4055 40.9525 57.4055 40.411C57.4055 39.8695 56.9665 39.4306 56.4251 39.4306H47.9938V32.9804C47.9938 32.4389 47.5548 32 47.0134 32H32.1524C31.6109 32 31.172 32.4389 31.172 32.9804V39.4306H22.7406C22.1992 39.4306 21.7602 39.8695 21.7602 40.411C21.7602 40.9525 22.1992 41.3914 22.7406 41.3914H23.4921V60.2182C21.5424 60.6277 20.0101 62.2303 19.7139 64.2219C18.8221 64.7052 18.1071 65.4564 17.6664 66.3852C17.1308 67.5142 17.057 68.7893 17.4458 69.96C17.0134 70.7096 16.7871 71.5542 16.7871 72.4325C16.7871 75.1706 19.0147 77.398 21.7526 77.398C22.3537 77.398 22.9412 77.29 23.4917 77.084V80.0392H19.877C19.3355 80.0392 18.8966 80.4781 18.8966 81.0196C18.8966 81.5611 19.3355 82 19.877 82H59.2888C59.8302 82 60.2692 81.5611 60.2692 81.0196C60.2692 80.4781 59.8302 80.0392 59.2888 80.0392H55.6485V77.0839C56.199 77.2899 56.7866 77.3979 57.3876 77.3979ZM33.1328 33.9608H46.0331V46.8611H33.1328V33.9608ZM24.4722 70.2829C23.9307 70.2829 23.4918 70.7219 23.4918 71.2633V74.8815C22.9859 75.2418 22.3814 75.4372 21.7527 75.4372C20.0959 75.4372 18.748 74.0892 18.748 72.4325C18.748 71.7865 18.9501 71.1709 19.3325 70.6523C19.5456 70.3632 19.5837 69.9809 19.4316 69.6555C19.0701 68.8817 19.0724 67.9961 19.438 67.2256C19.7531 66.5614 20.3055 66.0505 20.9935 65.787C21.3681 65.6435 21.6175 65.2864 21.6231 64.8853C21.645 63.3364 22.9229 62.0763 24.4718 62.0763C26.0207 62.0763 27.2987 63.3365 27.3206 64.8853C27.3263 65.2864 27.5757 65.6435 27.9502 65.787C28.6382 66.0505 29.1905 66.5613 29.5057 67.2256C29.8713 67.996 29.8736 68.8817 29.5121 69.6555C29.3601 69.9808 29.3981 70.3632 29.6112 70.6523C29.9936 71.171 30.1957 71.7865 30.1957 72.4325C30.1957 74.0892 28.8478 75.4372 27.191 75.4372C26.5626 75.4372 25.9584 75.2421 25.4527 74.8821V71.2633C25.4526 70.7219 25.0137 70.2829 24.4722 70.2829ZM53.6877 80.0392H25.4526V77.0842C26.0029 77.29 26.5901 77.3979 27.1909 77.3979C29.929 77.3979 32.1564 75.1704 32.1564 72.4325C32.1564 71.5542 31.9301 70.7096 31.4977 69.9599C31.8865 68.7892 31.8127 67.5141 31.2771 66.3852C30.8364 65.4564 30.1214 64.7052 29.2297 64.2219C28.9335 62.2308 27.4018 60.6284 25.4528 60.2185V41.3914H31.1719V47.8415C31.1719 48.3829 31.6108 48.8219 32.1523 48.8219H47.0134C47.5548 48.8219 47.9938 48.3829 47.9938 47.8415V41.3914H53.688V60.2183C51.7385 60.628 50.2066 62.2305 49.9105 64.2219C49.0187 64.7052 48.3038 65.4564 47.8631 66.3852C47.3274 67.514 47.2537 68.7892 47.6424 69.96C47.2101 70.7096 46.9837 71.5543 46.9837 72.4325C46.9837 75.1706 49.2112 77.398 51.9492 77.398C52.55 77.398 53.1373 77.2901 53.6875 77.0843V80.0392H53.6877ZM54.6681 70.2829C54.1267 70.2829 53.6877 70.7219 53.6877 71.2633V74.8821C53.182 75.242 52.5778 75.4372 51.9494 75.4372C50.2926 75.4372 48.9447 74.0892 48.9447 72.4325C48.9447 71.7866 49.1468 71.171 49.5292 70.6522C49.7423 70.3631 49.7803 69.9809 49.6284 69.6555C49.2668 68.8816 49.2693 67.996 49.6347 67.2256C49.95 66.5613 50.5023 66.0504 51.1901 65.787C51.5648 65.6435 51.8142 65.2864 51.8199 64.8852C51.8416 63.3363 53.1196 62.0762 54.6686 62.0762C56.2176 62.0762 57.4955 63.3364 57.5174 64.8852C57.5231 65.2863 57.7725 65.6434 58.1471 65.7869C58.835 66.0504 59.3874 66.5613 59.7025 67.2255C60.0681 67.996 60.0703 68.8817 59.7088 69.6554C59.5568 69.9807 59.5949 70.363 59.808 70.6521C60.1903 71.1709 60.3925 71.7864 60.3925 72.4324C60.3925 74.0891 59.0446 75.4371 57.3878 75.4371C56.7591 75.4371 56.1546 75.2417 55.6487 74.8814V71.2632C55.6485 70.7219 55.2095 70.2829 54.6681 70.2829Z" fill="#014EA2"/>
</svg>
