<svg width="80" height="113" viewBox="0 0 80 113" fill="none" xmlns="http://www.w3.org/2000/svg">
<rect width="80" height="113" rx="6" fill="#E6EDF6"/>
<g clip-path="url(#clip0_1426_68999)">
<path d="M27.9314 67.0611L21.9861 62.3848C21.6614 62.1405 21.555 61.7093 21.7499 61.427C22.7028 60.047 24.5385 59.5757 26.3421 60.248L31.7189 63.298L27.9314 67.0611ZM29.9265 69.0562L34.615 75.0137C34.8593 75.3385 35.2906 75.4448 35.5728 75.2499L35.9273 75.0052C37.0946 74.1992 37.4931 72.6466 36.9246 71.121L33.7018 65.2809L29.9265 69.0562Z" fill="#014EA2"/>
<path d="M29.5396 48.7488C28.7929 48.0022 28.7339 46.8125 29.4009 45.994C30.3549 44.8232 31.5503 43.5195 32.2673 42.8025C33.2482 41.8215 33.3339 41.9387 34.382 41.2963C34.4569 41.2502 34.5451 41.2307 34.6324 41.2409C34.7198 41.2511 34.8011 41.2904 34.8634 41.3525L36.936 43.4251C36.998 43.4873 37.0373 43.5687 37.0475 43.656C37.0577 43.7434 37.0382 43.8316 36.9921 43.9065C36.3497 44.9545 36.4669 45.0401 35.486 46.0211C34.7689 46.7381 33.4653 47.9334 32.2945 48.8875C31.4759 49.5544 30.2861 49.4955 29.5396 48.7488ZM48.2508 67.4601C47.5042 66.7134 47.4451 65.5237 48.1121 64.7052C49.0662 63.5344 50.2615 62.2308 50.9785 61.5137C51.9595 60.5328 52.0451 60.65 53.0932 60.0076C53.1681 59.9615 53.2563 59.942 53.3437 59.9522C53.431 59.9624 53.5124 60.0017 53.5746 60.0637L55.6472 62.1363C55.7093 62.1986 55.7486 62.28 55.7587 62.3673C55.7689 62.4546 55.7494 62.5428 55.7034 62.6177C55.061 63.6658 55.1781 63.7514 54.1972 64.7324C53.4802 65.4494 52.1765 66.6448 51.0057 67.5988C50.1871 68.2658 48.9974 68.2067 48.2508 67.4601Z" fill="#93A8BF"/>
<path d="M38.9002 55.8174L46.2351 48.4825L23.5131 41.3434C23.0452 41.224 22.58 41.3377 22.2705 41.6472L20.3508 43.5669C19.7079 44.2098 19.9838 45.3883 20.8914 45.8757L38.9002 55.8174Z" fill="#014EA2"/>
<path d="M41.1836 58.1005L48.5185 50.7656L55.6576 73.4877C55.777 73.9555 55.6633 74.4207 55.3538 74.7302L53.4341 76.6499C52.7912 77.2928 51.6127 77.0169 51.1253 76.1093L41.1836 58.1005Z" fill="#014EA2"/>
<path d="M27.1345 67.028L27.1345 67.028L31.632 61.1652C33.3841 58.8813 35.2981 56.6996 37.3505 54.6471L49.673 42.3247L49.3195 41.9712L49.673 42.3247C51.3216 40.6761 53.2098 39.3081 55.1958 38.3718C56.0582 37.9652 56.9149 37.6512 57.6457 37.5416C58.3901 37.4301 58.8825 37.5461 59.1687 37.8322C59.4548 38.1184 59.5708 38.6108 59.4593 39.3552C59.3497 40.086 59.0357 40.9427 58.6291 41.8051L59.0814 42.0184L58.6291 41.8052C57.6929 43.7912 56.3248 45.6794 54.6763 47.3279L42.3538 59.6504C40.3014 61.7027 38.1196 63.6168 35.8357 65.3689L29.9729 69.8664L30.2772 70.2631L29.9729 69.8664C28.7059 70.8384 27.3996 70.8171 26.7917 70.2092C26.1838 69.6013 26.1625 68.295 27.1345 67.028Z" fill="#E0F3FC" stroke="#014EA2"/>
<path d="M56.0513 45.3191L55.6305 45.7399C55.2397 46.1307 50.8683 41.7593 51.2591 41.3685L51.6798 40.9477C51.9451 40.6825 52.3344 40.5989 52.6514 40.7391C54.231 41.4379 55.5611 42.768 56.2599 44.3476C56.4 44.6646 56.3165 45.0539 56.0513 45.3191Z" fill="#014793"/>
<path d="M27.7695 69.816C27.6925 69.8162 27.6163 69.801 27.5452 69.7716C27.4741 69.7421 27.4095 69.6989 27.3552 69.6444C27.2453 69.5345 27.1836 69.3855 27.1836 69.2301C27.1836 69.0747 27.2453 68.9257 27.3552 68.8158L32.4721 63.6989C32.5819 63.5891 32.731 63.5273 32.8864 63.5273C33.0417 63.5273 33.1908 63.5891 33.3007 63.6989C33.4105 63.8088 33.4723 63.9578 33.4723 64.1132C33.4723 64.2686 33.4105 64.4176 33.3007 64.5275L28.1838 69.6444C28.1294 69.6989 28.0649 69.7421 27.9938 69.7716C27.9227 69.801 27.8464 69.8161 27.7695 69.816Z" fill="#06376C"/>
</g>
<defs>
<clipPath id="clip0_1426_68999">
<rect width="40" height="40" fill="white" transform="translate(20 37)"/>
</clipPath>
</defs>
</svg>
