<svg width="80" height="113" viewBox="0 0 80 113" fill="none" xmlns="http://www.w3.org/2000/svg">
<rect width="80" height="113" rx="6" fill="#E6EDF6"/>
<g clip-path="url(#clip0_1426_69030)">
<path d="M60.6895 67.0274V59.2995L59.2778 48.3057C58.9637 45.8595 56.8813 44.0273 54.415 44.0273H18.9182C17.2936 44.0273 15.9766 45.3444 15.9766 46.969V66.047L20.6568 67.0275H60.6895V67.0274Z" fill="#E6EDF6"/>
<path d="M34.8555 54.0686C34.8555 50.5641 35.4121 47.19 36.4379 44.0273H18.9182C17.2936 44.0273 15.9766 45.3444 15.9766 46.969V66.047L20.6568 67.0275H37.5427C35.8153 63.0566 34.8555 58.675 34.8555 54.0686Z" fill="#014EA2"/>
<path d="M59.2778 48.3438H15.9766V55.8731H53.3452L60.6895 59.3016L59.2778 48.3438Z" fill="#E6EDF6"/>
<path d="M23.8947 69.9691C25.5193 69.9691 26.8363 68.6521 26.8363 67.0275C26.8363 65.4029 25.5193 64.0859 23.8947 64.0859C22.2701 64.0859 20.9531 65.4029 20.9531 67.0275C20.9531 68.6521 22.2701 69.9691 23.8947 69.9691Z" fill="#9AB8DF"/>
<path d="M49.8322 69.9691C51.4568 69.9691 52.7738 68.6521 52.7738 67.0275C52.7738 65.4029 51.4568 64.0859 49.8322 64.0859C48.2076 64.0859 46.8906 65.4029 46.8906 67.0275C46.8906 68.6521 48.2076 69.9691 49.8322 69.9691Z" fill="#E6EDF6"/>
<path d="M34.8555 54.0705C34.8555 52.1165 35.0281 50.2028 35.3585 48.3438H15.9766V55.8731H34.9061C34.8734 55.2763 34.8555 54.6755 34.8555 54.0705Z" fill="#9AB8DF"/>
<path d="M64.0254 53.5648C63.486 53.5648 63.0488 53.1276 63.0488 52.5883V49.3203H59.7109C59.1716 49.3203 58.7344 48.8831 58.7344 48.3438C58.7344 47.8044 59.1716 47.3672 59.7109 47.3672H64.0254C64.5647 47.3672 65.002 47.8044 65.002 48.3438V52.5883C65.002 53.1276 64.5647 53.5648 64.0254 53.5648Z" fill="#014EA2"/>
<path d="M60.4922 63.6875H57.7812C57.2419 63.6875 56.8047 63.2503 56.8047 62.7109C56.8047 62.1716 57.2419 61.7344 57.7812 61.7344H60.4922C61.0315 61.7344 61.4688 62.1716 61.4688 62.7109C61.4688 63.2503 61.0315 63.6875 60.4922 63.6875Z" fill="#93A8BF"/>
<path d="M61.6582 59.1752L60.2465 48.1813C59.8709 45.2564 57.3639 43.0508 54.415 43.0508H18.9183C16.7577 43.0508 15 44.8085 15 46.969V66.047C15 66.5091 15.3239 66.908 15.7764 67.0028L20.0743 67.9032C20.4733 69.6434 22.0332 70.9457 23.8927 70.9457C25.7161 70.9457 27.2526 69.6936 27.6877 68.004H46.036C46.4711 69.6936 48.0075 70.9457 49.8311 70.9457C51.6546 70.9457 53.1909 69.6936 53.626 68.004H60.6896C61.229 68.004 61.6662 67.5668 61.6662 67.0274V59.2995C61.6661 59.258 61.6635 59.2164 61.6582 59.1752ZM16.9531 54.8946V49.3183H22.4732V54.8946H16.9531ZM24.4264 49.3184H29.947V54.8947H24.4264V49.3184ZM27.8108 56.8478H32.6223V66.0509H27.8108V56.8478ZM31.9001 54.8946V49.3183H37.4206V54.8946H31.9001ZM39.3737 49.3184H44.8943V54.8947H39.3737V49.3184ZM46.8475 49.3184H52.3684V54.8947H46.8475V49.3184ZM54.3215 49.3184H58.4233L59.495 57.6642L54.3215 55.2492V49.3184ZM18.9183 45.0039H54.415C56.0061 45.0039 57.4042 45.9657 58.0148 47.3652H16.9531V46.969C16.9531 45.8854 17.8347 45.0039 18.9183 45.0039ZM20.1348 65.9203L16.9531 65.2538V56.8479H25.8577V63.6398C25.2796 63.3032 24.6085 63.1093 23.8927 63.1093C22.1166 63.1093 20.6137 64.2975 20.1348 65.9203ZM23.8927 68.9926C22.8091 68.9926 21.9275 68.111 21.9275 67.0274C21.9275 65.9438 22.8091 65.0623 23.8927 65.0623C24.9759 65.0623 25.8572 65.9434 25.8577 67.0265V67.0274C25.8577 68.111 24.9762 68.9926 23.8927 68.9926ZM46.0359 66.0509H34.5753V56.8478H52.3684V64.0453C51.6842 63.4623 50.7982 63.1092 49.831 63.1092C48.0075 63.1093 46.471 64.3613 46.0359 66.0509ZM49.831 68.9926C48.7474 68.9926 47.8658 68.111 47.8658 67.0274C47.8658 65.9438 48.7474 65.0623 49.831 65.0623C50.9145 65.0623 51.7961 65.9438 51.7961 67.0274C51.7961 68.111 50.9145 68.9926 49.831 68.9926ZM54.3215 66.0509V57.4047L59.713 59.9215V66.051H54.3215V66.0509Z" fill="#014EA2"/>
</g>
<defs>
<clipPath id="clip0_1426_69030">
<rect width="50" height="50" fill="white" transform="translate(15 32)"/>
</clipPath>
</defs>
</svg>
