<svg width="80" height="113" viewBox="0 0 80 113" fill="none" xmlns="http://www.w3.org/2000/svg">
<rect width="80" height="113" rx="6" fill="#E6EDF6"/>
<path d="M64.0234 66.572V59.5912C64.0234 58.0776 62.875 56.8111 61.3687 56.6636L52.6695 55.8112L46.3937 49.9069C45.3025 48.8803 43.8606 48.3086 42.3624 48.3086H28.7527L22.6853 55.8112H18.9182C17.2936 55.8112 15.9766 57.1282 15.9766 58.7528V66.572H64.0234Z" fill="white"/>
<path d="M33.457 54.5106C33.457 52.3895 33.6625 50.3165 34.0503 48.3086H28.7527L22.6854 55.8112H18.9182C17.2936 55.8113 15.9766 57.1283 15.9766 58.7529V66.5721H35.7688C34.2782 62.8423 33.457 58.7726 33.457 54.5106Z" fill="#9AB8DF"/>
<path d="M34.0799 48.3125C33.8479 48.5977 27.9766 55.8151 27.9766 55.8151H52.6658L46.39 49.9108C45.2988 48.8842 43.8569 48.3125 42.3587 48.3125H34.0799Z" fill="#E6EDF6"/>
<path d="M33.4534 54.5118C33.4534 52.4095 33.6554 50.3545 34.0364 48.3633C33.454 49.0793 27.9766 55.8125 27.9766 55.8125H33.4814C33.4646 55.3809 33.4534 54.9477 33.4534 54.5118Z" fill="#9AB8DF"/>
<path d="M33.5 48.3105V46.1533C33.5 44.9619 34.4658 43.9961 35.6572 43.9961H39.5794C40.7708 43.9961 41.7366 44.9619 41.7366 46.1533V48.3105H33.5Z" fill="white"/>
<path d="M24.9632 70.0045C26.8586 70.0045 28.3951 68.468 28.3951 66.5726C28.3951 64.6772 26.8586 63.1406 24.9632 63.1406C23.0678 63.1406 21.5312 64.6772 21.5312 66.5726C21.5312 68.468 23.0678 70.0045 24.9632 70.0045Z" fill="#014EA2"/>
<path d="M54.7972 70.0045C56.6926 70.0045 58.2291 68.468 58.2291 66.5726C58.2291 64.6772 56.6926 63.1406 54.7972 63.1406C52.9018 63.1406 51.3652 64.6772 51.3652 66.5726C51.3652 68.468 52.9018 70.0045 54.7972 70.0045Z" fill="#014EA2"/>
<path d="M63.5067 62.0664H61.1914C60.6521 62.0664 60.2148 61.6292 60.2148 61.0898C60.2148 60.5505 60.6521 60.1133 61.1914 60.1133H63.5067C64.046 60.1133 64.4833 60.5505 64.4833 61.0898C64.4833 61.6292 64.046 62.0664 63.5067 62.0664Z" fill="#014EA2"/>
<path d="M20.4478 61.1055H16.2695C15.7303 61.1055 15.293 60.6683 15.293 60.1289C15.293 59.5896 15.7303 59.1523 16.2695 59.1523H20.4478C20.987 59.1523 21.4243 59.5896 21.4243 60.1289C21.4243 60.6683 20.987 61.1055 20.4478 61.1055Z" fill="#014EA2"/>
<path d="M61.464 55.6937L53.0961 54.8737L47.063 49.1976C45.8704 48.0756 44.3361 47.4247 42.7106 47.3431V46.1533C42.7106 44.4254 41.3048 43.0195 39.5769 43.0195H35.6547C33.9268 43.0195 32.5209 44.4254 32.5209 46.1533V47.334H28.7527C28.4578 47.334 28.1788 47.4672 27.9935 47.6965L22.2191 54.8366H18.9182C16.7577 54.8366 15 56.5942 15 58.7548V66.5739C15 67.1133 15.4373 67.5505 15.9766 67.5505H20.668C21.1137 69.5127 22.8709 70.9824 24.966 70.9824C27.0611 70.9824 28.8184 69.5128 29.2641 67.5505H50.5003C50.946 69.5127 52.7032 70.9824 54.7984 70.9824C56.8936 70.9824 58.6508 69.5128 59.0965 67.5505H64.0234C64.5627 67.5505 65 67.1133 65 66.5739V59.5932C65 57.5676 63.4799 55.8911 61.464 55.6937ZM50.2063 54.8366H38.5924V49.2871H42.3623C43.6169 49.2871 44.8109 49.7605 45.7246 50.6201L50.2063 54.8366ZM36.6393 49.2871V54.8366H30.026L34.5139 49.2871H36.6393ZM34.474 46.1533C34.474 45.5022 35.0037 44.9727 35.6547 44.9727H39.577C40.2279 44.9727 40.7575 45.5022 40.7575 46.1533V47.334H34.474V46.1533ZM29.2189 49.2871H32.002L27.5141 54.8366H24.731L29.2189 49.2871ZM24.9661 69.0293C23.6123 69.0293 22.5107 67.9278 22.5107 66.5739C22.5107 65.22 23.6122 64.1186 24.9661 64.1186C26.32 64.1186 27.4215 65.22 27.4215 66.5739C27.4215 67.9278 26.3199 69.0293 24.9661 69.0293ZM54.7986 69.0293C53.4447 69.0293 52.3432 67.9278 52.3432 66.5739C52.3432 65.22 53.4446 64.1186 54.7986 64.1186C56.1524 64.1186 57.254 65.22 57.254 66.5739C57.254 67.9278 56.1524 69.0293 54.7986 69.0293ZM63.0469 65.5974H59.0968C58.6511 63.6351 56.8938 62.1654 54.7987 62.1654C52.7035 62.1654 50.9462 63.6351 50.5006 65.5974H29.2642C28.8185 63.6351 27.0612 62.1654 24.9661 62.1654C22.871 62.1654 21.1137 63.6351 20.6681 65.5974H16.9531V58.7548C16.9531 57.6713 17.8346 56.7897 18.9182 56.7897H52.6219L61.2734 57.6374C62.2846 57.7365 63.0469 58.5772 63.0469 59.5932V65.5974Z" fill="#014EA2"/>
</svg>
