<svg width="20" height="20" viewBox="0 0 20 20" fill="none" xmlns="http://www.w3.org/2000/svg">
<rect width="20" height="20" rx="10" fill="#E8E8E8" fill-opacity="0.5"/>
<path d="M15.4019 12.9811L15.4019 12.9812C15.5897 13.2519 15.6052 13.4702 15.5706 13.6246C15.8263 13.8365 16.095 14.1681 16.2657 14.526C16.4377 14.8868 16.5114 15.2776 16.3668 15.5996L16.3531 15.5934L16.3668 15.5995C16.2266 15.9142 15.9065 16.0122 15.5427 16.0122C15.162 16.0122 14.7259 15.9059 14.3838 15.8225C14.3557 15.8169 14.3263 15.8099 14.2976 15.8029L14.2901 15.8011C14.2666 15.7955 14.2437 15.79 14.2221 15.7853C14.086 15.9215 13.8997 16.015 13.6185 16.015C13.1835 16.015 12.9099 16.0072 12.6437 15.8367C12.3728 16.0016 12.0004 16.015 11.7472 16.015H11.5968C11.3237 16.015 11.0697 15.935 10.8515 15.7804C10.6033 15.8885 10.2353 16.015 9.94267 16.015C9.68954 16.015 9.49326 15.9463 9.33562 15.8327C9.10528 15.9026 8.677 16.015 8.31362 16.015C8.14551 16.015 7.89513 15.9927 7.69858 15.7905L7.69856 15.7904C7.52194 15.6081 7.44365 15.336 7.45765 14.9636L15.4019 12.9811ZM15.4019 12.9811C15.2015 12.6945 14.8306 12.3971 14.4574 12.2769C14.4495 12.0808 14.377 11.9312 14.3017 11.8281C14.1008 11.5507 13.7504 11.4027 13.4159 11.3238C13.0808 11.2448 12.7586 11.2343 12.6104 11.2343C11.9822 11.2343 11.2741 11.3117 10.7465 11.8747C9.90116 11.8714 9.31265 12.2955 9.08919 12.4854L9.08908 12.4855M15.4019 12.9811L9.08908 12.4855M9.08908 12.4855C8.96212 12.5955 8.86138 12.7688 8.78866 12.9793M9.08908 12.4855L8.78866 12.9793M9.62747 15.3071L9.62774 15.3074C9.72957 15.4146 9.83613 15.4308 9.94267 15.4308C10.0668 15.4308 10.2489 15.3846 10.427 15.321C10.1433 14.8588 10.0502 14.2924 10.053 14.0423M9.62747 15.3071L9.32243 13.2602L9.32247 13.26C9.32317 13.2565 9.32371 13.2539 9.32478 13.2507L9.3248 13.2507L9.32502 13.2499C9.34713 13.1683 9.37189 13.1004 9.39783 13.0471C9.42387 12.9937 9.45062 12.9561 9.4762 12.9343L9.47637 12.9342C9.60583 12.8209 9.90475 12.6043 10.3314 12.5094C10.0695 13.0873 10.0588 13.6708 10.0533 13.9703C10.0532 13.9767 10.0531 13.983 10.053 13.9892V13.9894V14.0423M9.62747 15.3071L9.62233 15.302C9.62226 15.3019 9.62219 15.3019 9.62212 15.3018C9.52738 15.1988 9.43629 15.0098 9.35576 14.6738L9.35576 14.6737M9.62747 15.3071L9.35576 14.6737M10.053 14.0423C10.053 14.0422 10.053 14.0422 10.053 14.0422L10.068 14.0424M10.053 14.0423V14.0424H10.068M10.068 14.0424V13.9894L10.4414 15.3159C10.1581 14.8559 10.0652 14.2906 10.068 14.0424ZM9.35576 14.6737C9.21436 14.0887 9.24214 13.5902 9.31941 13.2723L9.35576 14.6737ZM14.7212 14.8722C14.6423 15.0029 14.5846 15.131 14.53 15.2537C14.5349 15.2549 14.5399 15.2561 14.5449 15.2573M14.7212 14.8722L15.8435 15.3734C15.8323 15.3957 15.7349 15.457 15.4313 15.4347C15.1502 15.4163 14.8221 15.3384 14.5684 15.2783C14.5584 15.2759 14.5486 15.2736 14.5388 15.2712C14.5397 15.2698 14.5404 15.2681 14.5408 15.2664C14.5421 15.2633 14.5435 15.2603 14.5449 15.2573M14.7212 14.8722C14.8521 14.655 14.983 14.499 15.1111 14.3487L14.7212 14.8722ZM14.5449 15.2573C14.5991 15.1353 14.6562 15.0089 14.7341 14.88L14.7341 14.8799C14.8643 14.6638 14.9945 14.5087 15.1225 14.3584L15.1228 14.3581C15.1408 14.3358 15.1589 14.3137 15.1769 14.2916C15.2136 14.2467 15.25 14.2021 15.2854 14.1566M14.5449 15.2573C14.5536 15.2593 14.5625 15.2615 14.5715 15.2636C14.8255 15.3238 15.1525 15.4014 15.4323 15.4197L15.4324 15.4197C15.5832 15.4308 15.6818 15.421 15.7435 15.4062C15.7744 15.3988 15.7958 15.3901 15.8098 15.3824C15.8239 15.3746 15.8289 15.3686 15.83 15.3669M15.2854 14.1566L15.8297 15.3674C15.8298 15.3672 15.8299 15.3671 15.83 15.3669M15.2854 14.1566C15.4579 14.323 15.6229 14.5547 15.7307 14.7802C15.7859 14.8954 15.8258 15.0086 15.8442 15.1101C15.8627 15.2115 15.8594 15.2998 15.83 15.3669M15.2854 14.1566L15.83 15.3669M14.5235 15.2676H14.5385C14.5385 15.2688 14.5383 15.2699 14.538 15.271C14.5331 15.2699 14.5283 15.2688 14.5235 15.2676ZM14.5235 15.2676L14.5239 15.2661C14.5237 15.2665 14.5235 15.267 14.5235 15.2676ZM7.89592 7.19306L7.89598 7.19299C8.14584 6.91953 8.22343 6.73101 8.20335 6.56337C8.19327 6.47916 8.1584 6.3987 8.10577 6.31386C8.05306 6.22889 7.98316 6.14049 7.90365 6.04006L7.90359 6.03999L7.90094 6.0366C7.74161 5.83294 7.53964 5.57478 7.49364 5.2514C7.44718 4.92476 7.56008 4.53531 8.02454 4.07085C8.139 3.95638 8.32672 3.95638 8.44118 4.07085C8.55565 4.18531 8.55565 4.37303 8.44118 4.48749C8.15487 4.7738 8.06036 4.96871 8.07274 5.1403C8.07894 5.22635 8.1121 5.30817 8.16421 5.39448C8.21571 5.47977 8.28504 5.5684 8.36392 5.66922L8.36717 5.67337L8.3672 5.67342L8.36737 5.67363C8.52296 5.87089 8.7217 6.12287 8.77743 6.43924C8.83343 6.75715 8.7447 7.1369 8.33307 7.58914M7.89592 7.19306L8.32197 7.57905M7.89592 7.19306C7.78743 7.31328 7.79611 7.5009 7.91636 7.60955M7.89592 7.19306L7.92655 7.59854M8.33307 7.58914L8.32197 7.57905M8.33307 7.58914C8.33307 7.58914 8.33307 7.58914 8.33307 7.58914L8.32197 7.57905M8.33307 7.58914C8.27445 7.65362 8.19519 7.68594 8.11591 7.68594C8.04307 7.68594 7.97242 7.66259 7.91636 7.60955M8.32197 7.57905C8.26628 7.64031 8.19109 7.67094 8.11591 7.67094C8.04629 7.67094 7.97946 7.64866 7.92655 7.59854M7.91636 7.60955C7.91641 7.60959 7.91645 7.60963 7.9165 7.60967L7.92655 7.59854M7.91636 7.60955C7.91632 7.60951 7.91627 7.60947 7.91623 7.60943L7.92655 7.59854M8.78866 12.9793C8.43999 13.169 8.1145 13.4855 7.8727 13.8432C7.62978 14.2025 7.47032 14.6048 7.45765 14.9635L8.78866 12.9793ZM11.0868 15.2098L11.0867 15.2098C10.9179 15.0382 10.8067 14.7937 10.7381 14.5685C10.6695 14.3432 10.6441 14.1395 10.6455 14.0509V14.0507L10.6455 13.9951C10.6455 13.9951 10.6455 13.9951 10.6455 13.9951C10.6483 13.6467 10.657 12.925 11.11 12.3586C11.4178 11.974 11.8382 11.824 12.6132 11.824C12.8918 11.824 13.1591 11.8615 13.3752 11.9244C13.5921 11.9875 13.7543 12.0755 13.8264 12.1743L13.8266 12.1746C13.8436 12.1968 13.8597 12.2253 13.8665 12.2648C13.8733 12.3044 13.871 12.3562 13.8492 12.4255C13.8179 12.5222 13.7542 12.6313 13.6741 12.7466C13.594 12.8616 13.4982 12.9817 13.4035 13.1001L13.4034 13.1002C13.3899 13.1174 13.3763 13.1347 13.3627 13.152C13.2331 13.3167 13.0994 13.4867 12.993 13.6614L12.993 13.6614C12.633 14.256 12.4762 14.67 12.3951 15.2432L12.3951 15.2434C12.3895 15.2853 12.3652 15.318 12.3246 15.3439C12.2836 15.3701 12.2269 15.3888 12.1589 15.4019C12.023 15.428 11.8476 15.4308 11.6775 15.4308H11.6051C11.4032 15.4308 11.2344 15.3601 11.0868 15.2098ZM14.2322 14.5776L14.2322 14.5776C14.1409 14.729 14.0739 14.8754 14.0157 15.0027C14.0114 15.012 14.0072 15.0212 14.0031 15.0302L14.003 15.0304C13.9475 15.1554 13.9064 15.2429 13.8657 15.3028C13.8633 15.3055 13.862 15.3081 13.8614 15.3094L13.8613 15.3096C13.8612 15.3097 13.8612 15.3098 13.8612 15.3098L13.8611 15.3097L13.8594 15.3122C13.8268 15.3611 13.7966 15.3901 13.7613 15.4073C13.7257 15.4246 13.6831 15.4308 13.6241 15.4308C13.2426 15.4308 13.0974 15.4225 12.9757 15.3523C12.9775 15.3444 12.979 15.3359 12.9791 15.3272C13.0484 14.8373 13.1784 14.4968 13.4976 13.9722C13.5935 13.8151 13.7228 13.6501 13.8491 13.4889L13.8641 13.4697C13.8641 13.4697 13.8642 13.4697 13.8642 13.4696C14.0254 13.2674 14.1877 13.0612 14.3023 12.8494C14.5171 12.9266 14.7774 13.1188 14.9178 13.3185C14.9575 13.376 14.9776 13.42 14.9875 13.4504C14.9925 13.4656 14.9949 13.4773 14.9959 13.4856C14.9964 13.4898 14.9965 13.493 14.9965 13.4953C14.9965 13.4967 14.9964 13.4976 14.9963 13.498C14.9305 13.6701 14.8182 13.8073 14.6708 13.9826C14.537 14.1414 14.386 14.3231 14.2322 14.5776ZM9.77219 7.20771L9.77208 7.20786C9.67257 7.33664 9.69278 7.52141 9.8219 7.62138C9.87492 7.66547 9.93958 7.68594 10.0039 7.68594C10.0919 7.68594 10.177 7.64779 10.2356 7.57449L10.2357 7.57441C10.4662 7.28205 10.5138 7.03359 10.4817 6.82696C10.4502 6.62378 10.3419 6.46318 10.2616 6.34414L10.2586 6.33982L10.2586 6.33978C10.2202 6.28317 10.1889 6.23693 10.1667 6.19489C10.1447 6.15302 10.1323 6.1164 10.131 6.07931C10.1284 6.00523 10.1699 5.92355 10.2854 5.78993L10.2854 5.78989C10.391 5.66674 10.3793 5.48193 10.2561 5.37344L10.256 5.37331C10.1328 5.26775 9.94801 5.27947 9.83952 5.40263L9.83943 5.40273C9.57967 5.70322 9.5185 5.95865 9.54524 6.17116C9.57184 6.38249 9.6852 6.54877 9.76856 6.67102L9.76877 6.67133L9.76883 6.67141C9.80656 6.72591 9.83774 6.771 9.86048 6.81231C9.88315 6.85347 9.89684 6.88987 9.90024 6.92671C9.90698 6.99989 9.87348 7.08007 9.77219 7.20771ZM6.26068 7.20771L6.26056 7.20786C6.16105 7.33664 6.18126 7.52141 6.31038 7.62138C6.3634 7.66547 6.42806 7.68594 6.49242 7.68594C6.58037 7.68594 6.66549 7.64779 6.72413 7.57449L6.72419 7.57441C6.9547 7.28205 7.00226 7.03359 6.9702 6.82696C6.93867 6.62378 6.83034 6.46318 6.75004 6.34414L6.74713 6.33982L6.7471 6.33978C6.70866 6.28317 6.67735 6.23693 6.6552 6.19489C6.63314 6.15302 6.62078 6.1164 6.6195 6.07931C6.61693 6.00523 6.65836 5.92355 6.77389 5.78993L6.77393 5.78989C6.87948 5.66674 6.86776 5.48193 6.74461 5.37344L6.74445 5.37331C6.6213 5.26775 6.4365 5.27947 6.32801 5.40263L6.32791 5.40273C6.06815 5.70322 6.00698 5.95865 6.03373 6.17116C6.06032 6.38249 6.17369 6.54877 6.25704 6.67102L6.25725 6.67133L6.25731 6.67141C6.29504 6.72591 6.32622 6.771 6.34897 6.81231C6.37163 6.85347 6.38533 6.88987 6.38872 6.92671C6.39546 6.99989 6.36196 7.08007 6.26068 7.20771ZM8.1293 15.3851C8.10579 15.3616 8.04463 15.2693 8.05293 14.9869C8.05978 14.8006 8.13182 14.5858 8.24674 14.3743C8.35584 14.1735 8.50309 13.9767 8.66824 13.8116C8.6634 14.1286 8.70019 14.4727 8.78358 14.8117C8.82412 14.9846 8.87787 15.166 8.95507 15.3327C8.76046 15.3814 8.51994 15.4308 8.31919 15.4308C8.21374 15.4308 8.1581 15.4139 8.1293 15.3851Z" fill="#2E363D" stroke="#2E363D" stroke-width="0.03"/>
<path d="M6.3034 13.0271L6.30341 13.0271L6.31036 13.0372C6.46853 13.2662 6.60924 13.47 6.64836 13.718C6.64837 13.7181 6.64839 13.7182 6.6484 13.7183L6.3034 13.0271ZM6.3034 13.0271C6.11289 12.7518 5.86182 12.3876 5.65295 11.7725C5.44484 11.1595 5.27842 10.2968 5.25648 9.02394H11.3774C11.3658 9.61896 11.3242 10.1617 11.2497 10.6413C11.2234 10.8028 11.3351 10.9523 11.496 10.9786L11.4963 10.9787M6.3034 13.0271L11.4963 10.9787M11.4963 10.9787C11.6575 11.0021 11.8071 10.8936 11.8335 10.7323L11.8335 10.7322M11.4963 10.9787L11.8335 10.7322M11.8335 10.7322C11.9256 10.1437 11.9702 9.46898 11.9702 8.72769C11.9702 8.56625 11.8381 8.43422 11.6767 8.43422H4.95998C4.79853 8.43422 4.66651 8.56625 4.66651 8.72769C4.66651 9.11611 4.67974 9.47278 4.70105 9.80027C4.43885 9.67774 4.17999 9.65392 4.02988 9.65392C3.73066 9.65392 3.47037 9.76696 3.27804 9.97909L3.28915 9.98916L3.27808 9.97904C3.06909 10.2078 2.95914 10.5434 2.99019 10.8539L3.00511 10.8524M11.8335 10.7322L6.65127 13.7502H7.05686C7.22078 13.7502 7.3532 13.882 7.35033 14.041M7.35033 14.041C7.35026 14.2024 7.21826 14.3344 7.05686 14.3344H4.11899C3.95755 14.3344 3.82552 14.2024 3.82552 14.0409C3.82552 13.8795 3.95755 13.7474 4.11899 13.7474H6.05319C6.03612 13.6989 6.00865 13.6464 5.97263 13.5871C5.93592 13.5268 5.89079 13.4602 5.83948 13.3846C5.83371 13.3761 5.82787 13.3675 5.82196 13.3587L5.83437 13.3503M7.35033 14.041C7.35033 14.0411 7.35033 14.0411 7.35033 14.0412L7.33533 14.0409H7.35033C7.35033 14.041 7.35033 14.041 7.35033 14.041ZM5.83437 13.3503L5.82211 13.3589C5.71658 13.209 5.597 13.0338 5.47458 12.8143C5.11555 12.5222 4.72072 12.3563 4.33747 12.1952L4.33598 12.1946L4.33596 12.1946L4.33252 12.1931C4.02496 12.0643 3.70961 11.9322 3.46143 11.7319C3.21155 11.5302 3.0296 11.2594 2.99018 10.8539L3.00511 10.8524M5.83437 13.3503C5.8403 13.359 5.84615 13.3677 5.85193 13.3762C5.95513 13.5284 6.03438 13.6453 6.06906 13.7474L5.83437 13.3503ZM3.00511 10.8524C3.08298 11.6534 3.72194 11.9211 4.33942 12.1797L4.34177 12.1807L4.34404 12.1817C4.72763 12.3429 5.12498 12.5099 5.48629 12.8045L3.00511 10.8524ZM4.56207 11.6545L4.562 11.6545C4.24962 11.5234 4.01352 11.4197 3.8497 11.2931C3.68707 11.1673 3.59606 11.0193 3.5742 10.7981C3.56338 10.6789 3.60159 10.4996 3.71238 10.378L3.71239 10.378C3.79274 10.2896 3.89712 10.2464 4.02988 10.2464C4.24196 10.2464 4.61473 10.3069 4.79788 10.6953C4.86797 11.161 4.96148 11.5489 5.06843 11.8765C4.9195 11.8063 4.77434 11.7447 4.63608 11.686C4.61118 11.6754 4.58651 11.665 4.56207 11.6545Z" fill="#2E363D" stroke="#2E363D" stroke-width="0.03"/>
</svg>
