<svg width="22" height="24" viewBox="0 0 22 24" fill="none" xmlns="http://www.w3.org/2000/svg">
<path d="M21.5164 23.191H20.8422V2.02247C20.8422 1.79902 20.6611 1.61798 20.4377 1.61798H12.8871C12.6637 1.61798 12.4827 1.79902 12.4827 2.02247V3.77527H11.6737V2.02247C11.6737 1.79902 11.4926 1.61798 11.2692 1.61798H9.51636V0.404484C9.51636 0.181031 9.33523 0 9.11188 0C8.88852 0 8.70739 0.181031 8.70739 0.404484V1.61798H6.95459C6.73119 1.61798 6.55011 1.79902 6.55011 2.02247V3.77527H5.33661C5.1132 3.77527 4.93213 3.9563 4.93213 4.17975V7.55053H1.56134C1.33794 7.55053 1.15686 7.73156 1.15686 7.95502V23.191H0.482609C0.259203 23.191 0.078125 23.372 0.078125 23.5955C0.078125 23.8189 0.25925 24 0.482609 24H21.5164C21.7398 24 21.9208 23.819 21.9208 23.5955C21.9208 23.3721 21.7397 23.191 21.5164 23.191ZM7.35903 2.42695H10.8646V3.77527H7.35903V2.42695ZM6.01072 23.191H5.74105V22.5169C5.74105 22.2934 5.55992 22.1124 5.33656 22.1124C5.1132 22.1124 4.93208 22.2934 4.93208 22.5169V23.191H4.66241V21.8427H6.01072V23.191ZM8.70734 12.809V13.5048V23.191H6.81969V21.4382C6.81969 21.2148 6.63856 21.0338 6.4152 21.0338H4.25792C4.03452 21.0338 3.85344 21.2148 3.85344 21.4382V23.191H1.96578V8.35955H8.70734V12.809ZM9.11183 7.55058H5.74105V4.58428H12.4826V12.4045H9.51636V11.0562H10.7299C10.9533 11.0562 11.1343 10.8751 11.1343 10.6517C11.1343 10.4282 10.9532 10.2472 10.7299 10.2472H9.51636V8.89889H10.7299C10.9533 8.89889 11.1343 8.71786 11.1343 8.49441C11.1343 8.27095 10.9532 8.08992 10.7299 8.08992H9.51636V7.95511C9.51636 7.73161 9.33523 7.55058 9.11183 7.55058ZM16.2579 23.191H9.51636V13.5048V13.2135H16.2579V23.191ZM20.0332 23.191H17.0669V12.809V12.2696C17.0669 12.0462 16.8858 11.8651 16.6624 11.8651C16.439 11.8651 16.2579 12.0462 16.2579 12.2696V12.4044H15.449V12.2696C15.449 12.0462 15.2678 11.8651 15.0445 11.8651C14.8211 11.8651 14.64 12.0462 14.64 12.2696V12.4044H13.2917V4.1798V2.42695H20.0332V23.191H20.0332Z" fill="#566575"/>
<path d="M11.2697 22.3829C11.4931 22.3829 11.6742 22.2018 11.6742 21.9785V14.4279C11.6742 14.2045 11.4931 14.0234 11.2697 14.0234C11.0464 14.0234 10.8652 14.2045 10.8652 14.4279V21.9785C10.8652 22.2019 11.0463 22.3829 11.2697 22.3829Z" fill="#566575"/>
<path d="M12.8869 22.3829C13.1103 22.3829 13.2914 22.2018 13.2914 21.9785V14.4279C13.2914 14.2045 13.1103 14.0234 12.8869 14.0234C12.6635 14.0234 12.4824 14.2045 12.4824 14.4279V21.9785C12.4824 22.2019 12.6635 22.3829 12.8869 22.3829Z" fill="#566575"/>
<path d="M14.506 22.3829C14.7295 22.3829 14.9105 22.2018 14.9105 21.9785V14.4279C14.9105 14.2045 14.7294 14.0234 14.506 14.0234C14.2827 14.0234 14.1016 14.2045 14.1016 14.4279V21.9785C14.1016 22.2019 14.2827 22.3829 14.506 22.3829Z" fill="#566575"/>
<path d="M15.0451 5.1217C15.2685 5.1217 15.4496 4.94067 15.4496 4.71722V4.17792C15.4496 3.95447 15.2685 3.77344 15.0451 3.77344C14.8217 3.77344 14.6406 3.95447 14.6406 4.17792V4.71727C14.6406 4.94067 14.8217 5.1217 15.0451 5.1217Z" fill="#566575"/>
<path d="M16.6623 5.1217C16.8857 5.1217 17.0668 4.94067 17.0668 4.71722V4.17792C17.0668 3.95447 16.8857 3.77344 16.6623 3.77344C16.4389 3.77344 16.2578 3.95447 16.2578 4.17792V4.71727C16.2578 4.94067 16.4389 5.1217 16.6623 5.1217Z" fill="#566575"/>
<path d="M18.2795 5.1217C18.5029 5.1217 18.684 4.94067 18.684 4.71722V4.17792C18.684 3.95447 18.5028 3.77344 18.2795 3.77344C18.0561 3.77344 17.875 3.95447 17.875 4.17792V4.71727C17.875 4.94067 18.0561 5.1217 18.2795 5.1217Z" fill="#566575"/>
<path d="M15.0451 7.82097C15.2685 7.82097 15.4496 7.63994 15.4496 7.41648V6.87714C15.4496 6.65369 15.2685 6.47266 15.0451 6.47266C14.8217 6.47266 14.6406 6.65369 14.6406 6.87714V7.41648C14.6406 7.63994 14.8217 7.82097 15.0451 7.82097Z" fill="#566575"/>
<path d="M16.6623 7.82097C16.8857 7.82097 17.0668 7.63994 17.0668 7.41648V6.87714C17.0668 6.65369 16.8857 6.47266 16.6623 6.47266C16.4389 6.47266 16.2578 6.65369 16.2578 6.87714V7.41648C16.2578 7.63994 16.4389 7.82097 16.6623 7.82097Z" fill="#566575"/>
<path d="M18.2795 7.82097C18.5029 7.82097 18.684 7.63994 18.684 7.41648V6.87714C18.684 6.65369 18.5028 6.47266 18.2795 6.47266C18.0561 6.47266 17.875 6.65369 17.875 6.87714V7.41648C17.875 7.63994 18.0561 7.82097 18.2795 7.82097Z" fill="#566575"/>
<path d="M15.0451 10.5163C15.2685 10.5163 15.4496 10.3353 15.4496 10.1118V9.57245C15.4496 9.349 15.2685 9.16797 15.0451 9.16797C14.8217 9.16797 14.6406 9.349 14.6406 9.57245V10.1118C14.6406 10.3352 14.8217 10.5163 15.0451 10.5163Z" fill="#566575"/>
<path d="M16.6623 10.5163C16.8857 10.5163 17.0668 10.3353 17.0668 10.1118V9.57245C17.0668 9.349 16.8857 9.16797 16.6623 9.16797C16.4389 9.16797 16.2578 9.349 16.2578 9.57245V10.1118C16.2578 10.3352 16.4389 10.5163 16.6623 10.5163Z" fill="#566575"/>
<path d="M18.2795 10.5163C18.5029 10.5163 18.684 10.3353 18.684 10.1118V9.57245C18.684 9.349 18.5028 9.16797 18.2795 9.16797C18.0561 9.16797 17.875 9.349 17.875 9.57245V10.1118C17.875 10.3352 18.0561 10.5163 18.2795 10.5163Z" fill="#566575"/>
<path d="M3.71894 11.5944C3.94234 11.5944 4.12342 11.4134 4.12342 11.1899V10.6506C4.12342 10.4271 3.9423 10.2461 3.71894 10.2461C3.49558 10.2461 3.31445 10.4271 3.31445 10.6506V11.1899C3.31445 11.4133 3.49558 11.5944 3.71894 11.5944Z" fill="#566575"/>
<path d="M5.33612 11.5944C5.55953 11.5944 5.74061 11.4134 5.74061 11.1899V10.6506C5.74061 10.4271 5.55948 10.2461 5.33612 10.2461C5.11277 10.2461 4.93164 10.4271 4.93164 10.6506V11.1899C4.93164 11.4133 5.11272 11.5944 5.33612 11.5944Z" fill="#566575"/>
<path d="M6.95527 11.5944C7.17867 11.5944 7.35975 11.4134 7.35975 11.1899V10.6506C7.35975 10.4271 7.17862 10.2461 6.95527 10.2461C6.73191 10.2461 6.55078 10.4271 6.55078 10.6506V11.1899C6.55078 11.4133 6.73186 11.5944 6.95527 11.5944Z" fill="#566575"/>
<path d="M3.71894 14.2936C3.94234 14.2936 4.12342 14.1126 4.12342 13.8891V13.3498C4.12342 13.1263 3.9423 12.9453 3.71894 12.9453C3.49558 12.9453 3.31445 13.1263 3.31445 13.3498V13.8891C3.31445 14.1125 3.49558 14.2936 3.71894 14.2936Z" fill="#566575"/>
<path d="M5.33612 14.2936C5.55953 14.2936 5.74061 14.1126 5.74061 13.8891V13.3498C5.74061 13.1263 5.55948 12.9453 5.33612 12.9453C5.11277 12.9453 4.93164 13.1263 4.93164 13.3498V13.8891C4.93164 14.1125 5.11272 14.2936 5.33612 14.2936Z" fill="#566575"/>
<path d="M6.95527 14.2936C7.17867 14.2936 7.35975 14.1126 7.35975 13.8891V13.3498C7.35975 13.1263 7.17862 12.9453 6.95527 12.9453C6.73191 12.9453 6.55078 13.1263 6.55078 13.3498V13.8891C6.55078 14.1125 6.73186 14.2936 6.95527 14.2936Z" fill="#566575"/>
<path d="M3.71894 16.9889C3.94234 16.9889 4.12342 16.8079 4.12342 16.5845V16.0451C4.12342 15.8217 3.9423 15.6406 3.71894 15.6406C3.49558 15.6406 3.31445 15.8217 3.31445 16.0451V16.5845C3.31445 16.8079 3.49558 16.9889 3.71894 16.9889Z" fill="#566575"/>
<path d="M5.33612 16.9889C5.55953 16.9889 5.74061 16.8079 5.74061 16.5845V16.0451C5.74061 15.8217 5.55948 15.6406 5.33612 15.6406C5.11277 15.6406 4.93164 15.8217 4.93164 16.0451V16.5845C4.93164 16.8079 5.11272 16.9889 5.33612 16.9889Z" fill="#566575"/>
<path d="M6.95527 16.9889C7.17867 16.9889 7.35975 16.8079 7.35975 16.5845V16.0451C7.35975 15.8217 7.17862 15.6406 6.95527 15.6406C6.73191 15.6406 6.55078 15.8217 6.55078 16.0451V16.5845C6.55078 16.8079 6.73186 16.9889 6.95527 16.9889Z" fill="#566575"/>
<path d="M3.71894 19.6842C3.94234 19.6842 4.12342 19.5032 4.12342 19.2798V18.7404C4.12342 18.517 3.9423 18.3359 3.71894 18.3359C3.49558 18.3359 3.31445 18.517 3.31445 18.7404V19.2798C3.31445 19.5032 3.49558 19.6842 3.71894 19.6842Z" fill="#566575"/>
<path d="M5.33612 19.6842C5.55953 19.6842 5.74061 19.5032 5.74061 19.2798V18.7404C5.74061 18.517 5.55948 18.3359 5.33612 18.3359C5.11277 18.3359 4.93164 18.517 4.93164 18.7404V19.2798C4.93164 19.5032 5.11272 19.6842 5.33612 19.6842Z" fill="#566575"/>
<path d="M6.95527 19.6842C7.17867 19.6842 7.35975 19.5032 7.35975 19.2798V18.7404C7.35975 18.517 7.17862 18.3359 6.95527 18.3359C6.73191 18.3359 6.55078 18.517 6.55078 18.7404V19.2798C6.55078 19.5032 6.73186 19.6842 6.95527 19.6842Z" fill="#566575"/>
<path d="M18.2795 13.2116C18.5029 13.2116 18.684 13.0306 18.684 12.8071V12.2678C18.684 12.0443 18.5028 11.8633 18.2795 11.8633C18.0561 11.8633 17.875 12.0443 17.875 12.2678V12.8071C17.875 13.0305 18.0561 13.2116 18.2795 13.2116Z" fill="#566575"/>
<path d="M18.2795 15.9108C18.5029 15.9108 18.684 15.7298 18.684 15.5063V14.967C18.684 14.7435 18.5028 14.5625 18.2795 14.5625C18.0561 14.5625 17.875 14.7435 17.875 14.967V15.5063C17.875 15.7297 18.0561 15.9108 18.2795 15.9108Z" fill="#566575"/>
<path d="M18.2795 18.6061C18.5029 18.6061 18.684 18.4251 18.684 18.2016V17.6623C18.684 17.4388 18.5028 17.2578 18.2795 17.2578C18.0561 17.2578 17.875 17.4388 17.875 17.6623V18.2016C17.875 18.425 18.0561 18.6061 18.2795 18.6061Z" fill="#566575"/>
<path d="M18.2795 21.3014C18.5029 21.3014 18.684 21.1204 18.684 20.897V20.3576C18.684 20.1342 18.5028 19.9531 18.2795 19.9531C18.0561 19.9531 17.875 20.1342 17.875 20.3576V20.897C17.875 21.1204 18.0561 21.3014 18.2795 21.3014Z" fill="#566575"/>
<path d="M11.1348 6.33808C11.1348 6.11462 10.9537 5.93359 10.7303 5.93359H7.49433C7.27092 5.93359 7.08984 6.11462 7.08984 6.33808C7.08984 6.56153 7.27097 6.74256 7.49433 6.74256H10.7303C10.9537 6.74256 11.1348 6.56153 11.1348 6.33808Z" fill="#566575"/>
</svg>
