<svg width="44" height="44" viewBox="0 0 44 44" fill="none" xmlns="http://www.w3.org/2000/svg">
<g clip-path="url(#clip0_1695_107374)">
<rect width="44" height="44" rx="6" fill="#E6EDF6"/>
<path d="M36.0689 28.8198V23.5648L35.1089 16.0889C34.8953 14.4255 33.4793 13.1797 31.8022 13.1797H7.66435C6.55962 13.1797 5.66406 14.0753 5.66406 15.18V28.153L8.84665 28.8198H36.0689V28.8198Z" fill="#FFDE00"/>
<path d="M18.5017 20.0077C18.5017 17.6247 18.8802 15.3303 19.5778 13.1797H7.66435C6.55962 13.1797 5.66406 14.0753 5.66406 15.18V28.153L8.84665 28.8198H20.329C19.1544 26.1196 18.5017 23.1401 18.5017 20.0077Z" fill="#E7CA05"/>
<path d="M35.1089 16.1133H5.66406V21.2333H31.0747L36.0689 23.5646L35.1089 16.1133Z" fill="#E6EDF6"/>
<path d="M11.0472 30.8209C12.1519 30.8209 13.0475 29.9253 13.0475 28.8206C13.0475 27.7159 12.1519 26.8203 11.0472 26.8203C9.94243 26.8203 9.04688 27.7159 9.04688 28.8206C9.04688 29.9253 9.94243 30.8209 11.0472 30.8209Z" fill="#9AB8DF"/>
<path d="M28.6858 30.8209C29.7906 30.8209 30.6861 29.9253 30.6861 28.8206C30.6861 27.7159 29.7906 26.8203 28.6858 26.8203C27.5811 26.8203 26.6855 27.7159 26.6855 28.8206C26.6855 29.9253 27.5811 30.8209 28.6858 30.8209Z" fill="#E6EDF6"/>
<path d="M18.5017 20.0075C18.5017 18.6788 18.6191 17.3775 18.8438 16.1133H5.66406V21.2333H18.5361C18.5139 20.8274 18.5017 20.4189 18.5017 20.0075Z" fill="#9AB8DF"/>
<path d="M38.3362 19.6636C37.9694 19.6636 37.6721 19.3663 37.6721 18.9996V16.7773H35.4023C35.0356 16.7773 34.7383 16.48 34.7383 16.1133C34.7383 15.7465 35.0356 15.4492 35.4023 15.4492H38.3362C38.7029 15.4492 39.0002 15.7465 39.0002 16.1133V18.9996C39.0002 19.3663 38.7029 19.6636 38.3362 19.6636Z" fill="#FFDE00"/>
<path d="M35.9352 26.5508H34.0918C33.725 26.5508 33.4277 26.2535 33.4277 25.8867C33.4277 25.52 33.725 25.2227 34.0918 25.2227H35.9352C36.302 25.2227 36.5993 25.52 36.5993 25.8867C36.5993 26.2535 36.302 26.5508 35.9352 26.5508Z" fill="white"/>
<path d="M36.7276 23.4802L35.7676 16.0043C35.5122 14.0155 33.8074 12.5156 31.8022 12.5156H7.66442C6.19525 12.5156 5 13.7109 5 15.18V28.153C5 28.4673 5.22027 28.7385 5.52793 28.803L8.45053 29.4153C8.72187 30.5986 9.78258 31.4842 11.047 31.4842C12.287 31.4842 13.3318 30.6328 13.6276 29.4838H26.1045C26.4003 30.6327 27.4451 31.4842 28.6851 31.4842C29.9251 31.4842 30.9698 30.6327 31.2657 29.4838H36.069C36.4357 29.4838 36.733 29.1865 36.733 28.8198V23.5648C36.733 23.5365 36.7312 23.5082 36.7276 23.4802ZM6.32812 20.5694V16.7775H10.0818V20.5694H6.32812ZM11.4099 16.7776H15.1639V20.5695H11.4099V16.7776ZM13.7114 21.8976H16.9831V28.1557H13.7114V21.8976ZM16.4921 20.5694V16.7775H20.246V20.5694H16.4921ZM21.5741 16.7776H25.3281V20.5695H21.5741V16.7776ZM26.6563 16.7776H30.4105V20.5695H26.6563V16.7776ZM31.7386 16.7776H34.5279L35.2566 22.4527L31.7386 20.8106V16.7776ZM7.66442 13.8437H31.8022C32.8842 13.8437 33.8349 14.4978 34.2501 15.4495H6.32812V15.18C6.32812 14.4432 6.92757 13.8437 7.66442 13.8437ZM8.49164 28.0669L6.32812 27.6137V21.8976H12.3832V26.5162C11.9901 26.2873 11.5338 26.1554 11.047 26.1554C9.83929 26.1554 8.8173 26.9634 8.49164 28.0669ZM11.047 30.156C10.3102 30.156 9.71073 29.5566 9.71073 28.8198C9.71073 28.0829 10.3102 27.4835 11.047 27.4835C11.7836 27.4835 12.3829 28.0826 12.3832 28.8191V28.8198C12.3832 29.5566 11.7838 30.156 11.047 30.156ZM26.1044 28.1557H18.3112V21.8976H30.4105V26.7919C29.9452 26.3955 29.3428 26.1553 28.685 26.1553C27.4451 26.1554 26.4003 27.0068 26.1044 28.1557ZM28.685 30.156C27.9482 30.156 27.3488 29.5566 27.3488 28.8198C27.3488 28.0829 27.9482 27.4835 28.685 27.4835C29.4219 27.4835 30.0213 28.0829 30.0213 28.8198C30.0213 29.5566 29.4219 30.156 28.685 30.156ZM31.7386 28.1557V22.2763L35.4048 23.9877V28.1558H31.7386V28.1557Z" fill="#014EA2"/>
</g>
<defs>
<clipPath id="clip0_1695_107374">
<rect width="44" height="44" rx="6" fill="white"/>
</clipPath>
</defs>
</svg>
