<svg width="45" height="37" viewBox="0 0 45 37" fill="none" xmlns="http://www.w3.org/2000/svg">
<circle cx="26.6016" cy="17.0508" r="16" fill="#DCDCDC"/>
<path d="M35.6378 25.271V19.7069L34.5367 11.7913C34.2917 10.0301 32.6674 8.71094 30.7437 8.71094H3.05617C1.78897 8.71094 0.761719 9.65924 0.761719 10.829V24.5651L4.41233 25.2711H35.6378V25.271Z" fill="#DCDCDC"/>
<path d="M15.4873 15.9406C15.4873 13.4174 15.9214 10.9881 16.7216 8.71094H3.05617C1.78897 8.71094 0.761719 9.65924 0.761719 10.829V24.5651L4.41233 25.2711H17.5833C16.236 22.412 15.4873 19.2572 15.4873 15.9406Z" fill="#88919A"/>
<path d="M34.5367 11.8164H0.761719V17.2376H29.9093L35.6378 19.706L34.5367 11.8164Z" fill="#E8E8E8"/>
<path d="M6.93703 27.3883C8.20422 27.3883 9.23148 26.44 9.23148 25.2703C9.23148 24.1006 8.20422 23.1523 6.93703 23.1523C5.66984 23.1523 4.64258 24.1006 4.64258 25.2703C4.64258 26.44 5.66984 27.3883 6.93703 27.3883Z" fill="#161C22"/>
<path d="M27.1675 27.3883C28.4347 27.3883 29.4619 26.44 29.4619 25.2703C29.4619 24.1006 28.4347 23.1523 27.1675 23.1523C25.9003 23.1523 24.873 24.1006 24.873 25.2703C24.873 26.44 25.9003 27.3883 27.1675 27.3883Z" fill="#161C22"/>
<path d="M15.4873 15.9397C15.4873 14.5328 15.6219 13.1549 15.8796 11.8164H0.761719V17.2376H15.5267C15.5013 16.8078 15.4873 16.3753 15.4873 15.9397Z" fill="#292D32"/>
<path d="M38.2383 15.5756C37.8176 15.5756 37.4766 15.2608 37.4766 14.8725V12.5195H34.873C34.4523 12.5195 34.1113 12.2047 34.1113 11.8164C34.1113 11.4281 34.4523 11.1133 34.873 11.1133H38.2383C38.659 11.1133 39 11.4281 39 11.8164V14.8725C39 15.2608 38.659 15.5756 38.2383 15.5756Z" fill="#566575"/>
<path d="M35.4856 22.8672H33.3711C32.9504 22.8672 32.6094 22.5524 32.6094 22.1641C32.6094 21.7757 32.9504 21.4609 33.3711 21.4609H35.4856C35.9063 21.4609 36.2473 21.7757 36.2473 22.1641C36.2473 22.5524 35.9063 22.8672 35.4856 22.8672Z" fill="white"/>
<path d="M36.3934 19.6174L35.2923 11.7018C34.9993 9.59589 33.0438 8.00781 30.7437 8.00781H3.05624C1.37102 8.00781 0 9.27337 0 10.829V24.5651C0 24.8978 0.252662 25.185 0.605566 25.2533L3.95797 25.9016C4.26921 27.1545 5.4859 28.0922 6.93629 28.0922C8.35857 28.0922 9.55706 27.1907 9.8964 25.9741H24.2081C24.5475 27.1906 25.7459 28.0922 27.1682 28.0922C28.5906 28.0922 29.7889 27.1906 30.1283 25.9741H35.6379C36.0586 25.9741 36.3996 25.6593 36.3996 25.271V19.7069C36.3996 19.677 36.3975 19.6471 36.3934 19.6174ZM1.52344 16.5354V12.5204H5.82913V16.5354H1.52344ZM7.35257 12.5205H11.6586V16.5355H7.35257V12.5205ZM9.99245 17.9416H13.7454V24.5679H9.99245V17.9416ZM13.1821 16.5354V12.5204H17.4881V16.5354H13.1821ZM19.0115 12.5205H23.3176V16.5355H19.0115V12.5205ZM24.841 12.5205H29.1473V16.5355H24.841V12.5205ZM30.6708 12.5205H33.8702L34.7061 18.5294L30.6708 16.7907V12.5205ZM3.05624 9.41406H30.7437C31.9848 9.41406 33.0753 10.1066 33.5516 11.1142H1.52344V10.829C1.52344 10.0488 2.21104 9.41406 3.05624 9.41406ZM4.00512 24.4739L1.52344 23.994V17.9417H8.46902V22.8319C8.01808 22.5896 7.49463 22.4499 6.93629 22.4499C5.55095 22.4499 4.37866 23.3054 4.00512 24.4739ZM6.93629 26.6859C6.09108 26.6859 5.40348 26.0512 5.40348 25.271C5.40348 24.4908 6.09108 23.8561 6.93629 23.8561C7.78119 23.8561 8.46864 24.4905 8.46902 25.2703V25.271C8.46902 26.0512 7.78141 26.6859 6.93629 26.6859ZM24.208 24.5679H15.2687V17.9416H29.1473V23.1239C28.6137 22.7041 27.9226 22.4499 27.1681 22.4499C25.7459 22.4499 24.5474 23.3514 24.208 24.5679ZM27.1681 26.6859C26.3229 26.6859 25.6353 26.0512 25.6353 25.271C25.6353 24.4908 26.3229 23.8561 27.1681 23.8561C28.0133 23.8561 28.701 24.4908 28.701 25.271C28.701 26.0512 28.0133 26.6859 27.1681 26.6859ZM30.6708 24.5679V18.3426L34.8761 20.1547V24.568H30.6708V24.5679Z" fill="#566575"/>
</svg>
