<svg width="43" height="43" viewBox="0 0 43 43" fill="none" xmlns="http://www.w3.org/2000/svg">
<circle cx="23.6016" cy="21" r="16" fill="#E6EDF6"/>
<path d="M39.293 30.1316V23.4856L38.0789 14.0309C37.8088 11.9272 36.018 10.3516 33.8969 10.3516H3.36962C1.97246 10.3516 0.839844 11.4843 0.839844 12.8814V29.2884L4.86488 30.1317H39.293V30.1316Z" fill="#FFDE00"/>
<path d="M17.0757 18.987C17.0757 15.9731 17.5544 13.0715 18.4366 10.3516H3.36962C1.97246 10.3516 0.839844 11.4843 0.839844 12.8814V29.2884L4.86488 30.1317H19.3867C17.9012 26.7168 17.0757 22.9485 17.0757 18.987Z" fill="#E7CA05"/>
<path d="M38.0789 14.0625H0.839844V20.5378H32.9769L39.293 23.4862L38.0789 14.0625Z" fill="#E6EDF6"/>
<path d="M7.64696 32.6611C9.04412 32.6611 10.1767 31.5285 10.1767 30.1313C10.1767 28.7342 9.04412 27.6016 7.64696 27.6016C6.24981 27.6016 5.11719 28.7342 5.11719 30.1313C5.11719 31.5285 6.24981 32.6611 7.64696 32.6611Z" fill="#9AB8DF"/>
<path d="M29.9556 32.6611C31.3527 32.6611 32.4853 31.5285 32.4853 30.1313C32.4853 28.7342 31.3527 27.6016 29.9556 27.6016C28.5584 27.6016 27.4258 28.7342 27.4258 30.1313C27.4258 31.5285 28.5584 32.6611 29.9556 32.6611Z" fill="#E6EDF6"/>
<path d="M17.0757 18.9875C17.0757 17.3071 17.2242 15.6613 17.5083 14.0625H0.839844V20.5378H17.1192C17.0912 20.0245 17.0757 19.5078 17.0757 18.9875Z" fill="#9AB8DF"/>
<path d="M42.1596 18.5487C41.6958 18.5487 41.3198 18.1727 41.3198 17.7089V14.8984H38.4492C37.9854 14.8984 37.6094 14.5224 37.6094 14.0586C37.6094 13.5947 37.9854 13.2188 38.4492 13.2188H42.1596C42.6235 13.2188 42.9995 13.5947 42.9995 14.0586V17.7089C42.9995 18.1727 42.6235 18.5487 42.1596 18.5487Z" fill="#FFDE00"/>
<path d="M39.1244 27.2578H36.793C36.3291 27.2578 35.9531 26.8818 35.9531 26.418C35.9531 25.9541 36.3291 25.5781 36.793 25.5781H39.1244C39.5882 25.5781 39.9642 25.9541 39.9642 26.418C39.9642 26.8818 39.5882 27.2578 39.1244 27.2578Z" fill="white"/>
<path d="M40.1261 23.3748L38.912 13.92C38.589 11.4047 36.4329 9.50781 33.8969 9.50781H3.3697C1.51163 9.50781 0 11.0194 0 12.8775V29.2845C0 29.6819 0.278576 30.025 0.667676 30.1066L4.36391 30.8809C4.70707 32.3774 6.04855 33.4974 7.6477 33.4974C9.21586 33.4974 10.5373 32.4207 10.9114 30.9676H26.691C27.0651 32.4206 28.3865 33.4974 29.9547 33.4974C31.5229 33.4974 32.8442 32.4206 33.2183 30.9676H39.2931C39.7569 30.9676 40.1329 30.5916 40.1329 30.1277V23.4817C40.1329 23.446 40.1306 23.4102 40.1261 23.3748ZM1.67969 19.6935V14.8978H6.42699V19.6935H1.67969ZM8.10668 14.8979H12.8544V19.6936H8.10668V14.8979ZM11.0173 21.3732H15.1551V29.2879H11.0173V21.3732ZM14.5341 19.6935V14.8978H19.2817V19.6935H14.5341ZM20.9614 14.8979H25.7091V19.6936H20.9614V14.8979ZM27.3888 14.8979H32.1368V19.6936H27.3888V14.8979ZM33.8165 14.8979H37.3441L38.2657 22.0753L33.8165 19.9985V14.8979ZM3.3697 11.1875H33.8969C35.2653 11.1875 36.4676 12.0147 36.9928 13.2182H1.67969V12.8775C1.67969 11.9456 2.43781 11.1875 3.3697 11.1875ZM4.4159 29.1756L1.67969 28.6024V21.3733H9.33763V27.2144C8.84045 26.9249 8.26331 26.7581 7.6477 26.7581C6.12028 26.7581 4.82776 27.78 4.4159 29.1756ZM7.6477 31.8178C6.71581 31.8178 5.95768 31.0596 5.95768 30.1277C5.95768 29.1958 6.71581 28.4377 7.6477 28.4377C8.57926 28.4377 9.33721 29.1954 9.33763 30.1269V30.1277C9.33763 31.0596 8.57951 31.8178 7.6477 31.8178ZM26.6909 29.2879H16.8348V21.3732H32.1368V27.5631C31.5484 27.0617 30.7865 26.758 29.9546 26.758C28.3865 26.7581 27.0651 27.8349 26.6909 29.2879ZM29.9546 31.8178C29.0227 31.8178 28.2646 31.0596 28.2646 30.1277C28.2646 29.1958 29.0227 28.4377 29.9546 28.4377C30.8865 28.4377 31.6446 29.1958 31.6446 30.1277C31.6446 31.0596 30.8865 31.8178 29.9546 31.8178ZM33.8165 29.2879V21.8522L38.4532 24.0166V29.288H33.8165V29.2879Z" fill="#014EA2"/>
</svg>
