<svg width="44" height="44" viewBox="0 0 44 44" fill="none" xmlns="http://www.w3.org/2000/svg">
<g clip-path="url(#clip0_3009_238740)">
<rect width="44" height="44" rx="6" fill="#E6EDF6"/>
<path d="M38.3359 28.5089V23.762C38.3359 22.7328 37.555 21.8716 36.5307 21.7712L30.6153 21.1916L26.3477 17.1767C25.6057 16.4786 24.6252 16.0898 23.6064 16.0898H14.3519L10.226 21.1916H7.66435C6.55962 21.1916 5.66406 22.0872 5.66406 23.1919V28.5089H38.3359Z" fill="white"/>
<path d="M17.5508 20.3072C17.5508 18.8648 17.6905 17.4552 17.9542 16.0898H14.3519L10.226 21.1916H7.66435C6.55962 21.1917 5.66406 22.0873 5.66406 23.192V28.509H19.1227C18.1092 25.9728 17.5508 23.2053 17.5508 20.3072Z" fill="#9AB8DF"/>
<path d="M17.9745 16.0898C17.8167 16.2837 13.8242 21.1916 13.8242 21.1916H30.6129L26.3454 17.1767C25.6034 16.4786 24.6229 16.0898 23.6041 16.0898H17.9745Z" fill="#E6EDF6"/>
<path d="M17.5485 20.307C17.5485 18.8774 17.6858 17.48 17.9449 16.126C17.5489 16.6129 13.8242 21.1914 13.8242 21.1914H17.5675C17.5561 20.8979 17.5485 20.6034 17.5485 20.307Z" fill="#9AB8DF"/>
<path d="M17.582 16.0901V14.6232C17.582 13.813 18.2388 13.1562 19.0489 13.1562H21.716C22.5262 13.1562 23.1829 13.813 23.1829 14.6232V16.0901H17.582Z" fill="white"/>
<path d="M11.7751 30.8432C13.064 30.8432 14.1088 29.7984 14.1088 28.5095C14.1088 27.2206 13.064 26.1758 11.7751 26.1758C10.4862 26.1758 9.44141 27.2206 9.44141 28.5095C9.44141 29.7984 10.4862 30.8432 11.7751 30.8432Z" fill="#014EA2"/>
<path d="M32.0642 30.8432C33.3531 30.8432 34.3979 29.7984 34.3979 28.5095C34.3979 27.2206 33.3531 26.1758 32.0642 26.1758C30.7753 26.1758 29.7305 27.2206 29.7305 28.5095C29.7305 29.7984 30.7753 30.8432 32.0642 30.8432Z" fill="#014EA2"/>
<path d="M37.9846 25.4453H36.4102C36.0435 25.4453 35.7461 25.148 35.7461 24.7812C35.7461 24.4145 36.0435 24.1172 36.4102 24.1172H37.9846C38.3513 24.1172 38.6486 24.4145 38.6486 24.7812C38.6486 25.148 38.3513 25.4453 37.9846 25.4453Z" fill="#014EA2"/>
<path d="M8.70447 24.79H5.86328C5.49659 24.79 5.19922 24.4927 5.19922 24.126C5.19922 23.7592 5.49659 23.4619 5.86328 23.4619H8.70447C9.07117 23.4619 9.36854 23.7592 9.36854 24.126C9.36854 24.4927 9.07117 24.79 8.70447 24.79Z" fill="#014EA2"/>
<path d="M36.5955 21.1106L30.9053 20.553L26.8028 16.6932C25.9919 15.9303 24.9486 15.4877 23.8432 15.4322V14.6232C23.8432 13.4482 22.8873 12.4922 21.7123 12.4922H19.0452C17.8702 12.4922 16.9142 13.4482 16.9142 14.6232V15.426H14.3519C14.1513 15.426 13.9616 15.5166 13.8356 15.6725L9.90902 20.5278H7.66435C6.19525 20.5278 5 21.723 5 23.1922V28.5092C5 28.8759 5.29737 29.1732 5.66406 29.1732H8.85422C9.1573 30.5075 10.3522 31.507 11.7769 31.507C13.2016 31.507 14.3965 30.5076 14.6996 29.1732H29.1402C29.4433 30.5075 30.6382 31.507 32.0629 31.507C33.4876 31.507 34.6825 30.5076 34.9856 29.1732H38.3359C38.7026 29.1732 39 28.8759 39 28.5092V23.7623C39 22.3849 37.9663 21.2449 36.5955 21.1106ZM28.9403 20.5278H21.0428V16.7541H23.6064C24.4595 16.7541 25.2714 17.0761 25.8927 17.6606L28.9403 20.5278ZM19.7147 16.7541V20.5278H15.2177L18.2694 16.7541H19.7147ZM18.2423 14.6232C18.2423 14.1804 18.6025 13.8203 19.0452 13.8203H21.7123C22.155 13.8203 22.5151 14.1804 22.5151 14.6232V15.426H18.2423V14.6232ZM14.6689 16.7541H16.5613L13.5096 20.5278H11.6171L14.6689 16.7541ZM11.777 30.1788C10.8564 30.1788 10.1073 29.4298 10.1073 28.5092C10.1073 27.5885 10.8563 26.8395 11.777 26.8395C12.6976 26.8395 13.4466 27.5885 13.4466 28.5092C13.4466 29.4298 12.6975 30.1788 11.777 30.1788ZM32.0631 30.1788C31.1424 30.1788 30.3934 29.4298 30.3934 28.5092C30.3934 27.5885 31.1423 26.8395 32.0631 26.8395C32.9837 26.8395 33.7327 27.5885 33.7327 28.5092C33.7327 29.4298 32.9837 30.1788 32.0631 30.1788ZM37.6719 27.8451H34.9858C34.6827 26.5107 33.4878 25.5114 32.0631 25.5114C30.6384 25.5114 29.4434 26.5107 29.1404 27.8451H14.6996C14.3966 26.5107 13.2016 25.5114 11.777 25.5114C10.3523 25.5114 9.1573 26.5107 8.85429 27.8451H6.32812V23.1922C6.32812 22.4554 6.92751 21.8559 7.66435 21.8559H30.5829L36.4659 22.4323C37.1535 22.4997 37.6719 23.0714 37.6719 23.7623V27.8451Z" fill="#014EA2"/>
</g>
<defs>
<clipPath id="clip0_3009_238740">
<rect width="44" height="44" rx="6" fill="white"/>
</clipPath>
</defs>
</svg>
