<svg width="40" height="39" viewBox="0 0 40 39" fill="none" xmlns="http://www.w3.org/2000/svg">
<circle cx="22.1016" cy="18.0508" r="16" fill="#DCDCDC"/>
<path d="M37.2578 26.3255V21.0201C37.2578 19.8698 36.385 18.9072 35.2402 18.7951L28.6288 18.1473L23.8592 13.6601C23.0299 12.8798 21.9341 12.4453 20.7954 12.4453H10.4521L5.84079 18.1473H2.9778C1.7431 18.1473 0.742188 19.1482 0.742188 20.3829V26.3255H37.2578Z" fill="#DCDCDC"/>
<path d="M14.0273 17.1589C14.0273 15.5468 14.1835 13.9713 14.4782 12.4453H10.4521L5.84087 18.1473H2.9778C1.7431 18.1474 0.742188 19.1483 0.742188 20.383V26.3256H15.7842C14.6514 23.4909 14.0273 20.3979 14.0273 17.1589Z" fill="#88919A"/>
<path d="M14.5038 12.4453C14.3274 12.662 9.86523 18.1473 9.86523 18.1473H28.6291L23.8595 13.6601C23.0302 12.8798 21.9343 12.4453 20.7957 12.4453H14.5038Z" fill="#E6EDF6"/>
<path d="M14.0276 17.1612C14.0276 15.5634 14.1811 14.0016 14.4707 12.4883C14.0281 13.0325 9.86523 18.1497 9.86523 18.1497H14.0489C14.0361 17.8216 14.0276 17.4924 14.0276 17.1612Z" fill="#292D32"/>
<path d="M14.0586 12.447V10.8075C14.0586 9.90199 14.7926 9.16797 15.6981 9.16797H18.6789C19.5844 9.16797 20.3184 9.90199 20.3184 10.8075V12.447H14.0586Z" fill="#292D32"/>
<path d="M7.57507 28.9353C9.01557 28.9353 10.1833 27.7675 10.1833 26.327C10.1833 24.8865 9.01557 23.7188 7.57507 23.7188C6.13456 23.7188 4.9668 24.8865 4.9668 26.327C4.9668 27.7675 6.13456 28.9353 7.57507 28.9353Z" fill="#292D32"/>
<path d="M30.2469 28.9353C31.6875 28.9353 32.8552 27.7675 32.8552 26.327C32.8552 24.8865 31.6875 23.7188 30.2469 23.7188C28.8064 23.7188 27.6387 24.8865 27.6387 26.327C27.6387 27.7675 28.8064 28.9353 30.2469 28.9353Z" fill="#292D32"/>
<path d="M36.8671 22.9023H35.1074C34.6976 22.9023 34.3652 22.5701 34.3652 22.1602C34.3652 21.7502 34.6976 21.418 35.1074 21.418H36.8671C37.2769 21.418 37.6093 21.7502 37.6093 22.1602C37.6093 22.5701 37.2769 22.9023 36.8671 22.9023Z" fill="white"/>
<path d="M4.14029 22.1719H0.964844C0.555008 22.1719 0.222656 21.8396 0.222656 21.4297C0.222656 21.0198 0.555008 20.6875 0.964844 20.6875H4.14029C4.55013 20.6875 4.88248 21.0198 4.88248 21.4297C4.88248 21.8396 4.55013 22.1719 4.14029 22.1719Z" fill="#292D32"/>
<path d="M35.3126 18.0581L28.953 17.435L24.3679 13.1211C23.4615 12.2684 22.2955 11.7737 21.0601 11.7117V10.8075C21.0601 9.49423 19.9916 8.42578 18.6784 8.42578H15.6976C14.3843 8.42578 13.3159 9.49423 13.3159 10.8075V11.7048H10.4521C10.2279 11.7048 10.0159 11.806 9.87503 11.9803L5.48655 17.4068H2.9778C1.33586 17.4068 0 18.7426 0 20.3846V26.3271C0 26.737 0.332352 27.0693 0.742188 27.0693H4.30766C4.64639 28.5606 5.98188 29.6776 7.57417 29.6776C9.16646 29.6776 10.502 28.5607 10.8407 27.0693H26.9802C27.319 28.5606 28.6544 29.6776 30.2468 29.6776C31.8391 29.6776 33.1746 28.5607 33.5133 27.0693H37.2578C37.6676 27.0693 38 26.737 38 26.3271V21.0217C38 19.4823 36.8447 18.2082 35.3126 18.0581ZM26.7568 17.4068H17.9302V13.1891H20.7954C21.7488 13.1891 22.6563 13.549 23.3507 14.2022L26.7568 17.4068ZM16.4458 13.1891V17.4068H11.4197L14.8305 13.1891H16.4458ZM14.8003 10.8075C14.8003 10.3126 15.2028 9.91016 15.6976 9.91016H18.6785C19.1732 9.91016 19.5757 10.3126 19.5757 10.8075V11.7048H14.8003V10.8075ZM10.8064 13.1891H12.9215L9.51069 17.4068H7.39553L10.8064 13.1891ZM7.57425 28.1932C6.54535 28.1932 5.70816 27.3561 5.70816 26.3271C5.70816 25.2982 6.54528 24.461 7.57425 24.461C8.60322 24.461 9.44033 25.2982 9.44033 26.3271C9.44033 27.3561 8.60314 28.1932 7.57425 28.1932ZM30.247 28.1932C29.218 28.1932 28.3808 27.3561 28.3808 26.3271C28.3808 25.2982 29.2179 24.461 30.247 24.461C31.2759 24.461 32.113 25.2982 32.113 26.3271C32.113 27.3561 31.2759 28.1932 30.247 28.1932ZM36.5156 25.5849H33.5135C33.1748 24.0936 31.8393 22.9767 30.247 22.9767C28.6547 22.9767 27.3191 24.0936 26.9804 25.5849H10.8408C10.502 24.0936 9.16654 22.9767 7.57425 22.9767C5.98196 22.9767 4.64639 24.0936 4.30773 25.5849H1.48438V20.3846C1.48438 19.5611 2.15427 18.8911 2.9778 18.8911H28.5926L35.1678 19.5354C35.9363 19.6107 36.5156 20.2496 36.5156 21.0217V25.5849Z" fill="#566575"/>
</svg>
