<svg width="36" height="36" viewBox="0 0 36 36" fill="none" xmlns="http://www.w3.org/2000/svg">
<path fill-rule="evenodd" clip-rule="evenodd" d="M18.0069 0.509766C22.5935 0.592648 26.9641 2.47283 30.1784 5.74569C33.3926 9.01856 35.1936 13.4225 35.1936 18.0098C35.1936 22.597 33.3926 27.001 30.1784 30.2738C26.9641 33.5467 22.5935 35.4269 18.0069 35.5098C13.4204 35.4269 9.04973 33.5467 5.83547 30.2738C2.62122 27.001 0.820312 22.597 0.820312 18.0098C0.820312 13.4225 2.62122 9.01856 5.83547 5.74569C9.04973 2.47283 13.4204 0.592648 18.0069 0.509766ZM14.3726 23.6945L10.0869 19.405C9.73612 19.053 9.53914 18.5763 9.53914 18.0793C9.53914 17.5823 9.73612 17.1056 10.0869 16.7536C10.4395 16.4031 10.9165 16.2064 11.4136 16.2064C11.9107 16.2064 12.3877 16.4031 12.7403 16.7536L15.7593 19.7764L23.2736 12.2621C23.6256 11.9113 24.1023 11.7144 24.5993 11.7144C25.0963 11.7144 25.573 11.9113 25.925 12.2621C26.2754 12.6144 26.472 13.091 26.472 13.5879C26.472 14.0847 26.2754 14.5613 25.925 14.9136L17.0831 23.7555C16.9036 23.9341 16.6899 24.0745 16.4548 24.1685C16.2197 24.2624 15.968 24.3079 15.7149 24.3022C15.4618 24.2966 15.2124 24.2398 14.9818 24.1354C14.7511 24.0309 14.5439 23.881 14.3726 23.6945Z" fill="#00A651"/>
</svg>
