<svg width="20" height="20" viewBox="0 0 20 20" fill="none" xmlns="http://www.w3.org/2000/svg">
<path d="M16.8922 15.5664C16.0672 16.3247 14.9839 16.7414 13.8589 16.733H4.61719C0.725521 16.4497 0.717188 10.783 4.61719 10.4997H4.65886C2.40886 4.21638 10.1005 1.11638 13.3339 5.02471V5.03305C13.9172 5.74971 14.3589 6.69971 14.5589 7.90805C15.6672 8.04971 16.5672 8.59138 17.2089 9.35805C18.6672 11.083 18.7922 13.8997 16.8922 15.5664Z" stroke="#566575" stroke-width="1.5" stroke-miterlimit="10" stroke-linecap="round" stroke-linejoin="round"/>
<path d="M6.04987 10.8414C5.61654 10.6247 5.14154 10.508 4.6582 10.4997" stroke="#566575" stroke-width="1.5" stroke-miterlimit="10" stroke-linecap="round" stroke-linejoin="round"/>
<path d="M13.207 8.26647C13.6404 8.0498 14.1154 7.93314 14.5987 7.9248" stroke="#566575" stroke-width="1.5" stroke-miterlimit="10" stroke-linecap="round" stroke-linejoin="round"/>
<path d="M18.309 7.08335C18.309 8.00002 17.884 8.82502 17.209 9.35835C16.5673 8.59169 15.6673 8.05002 14.559 7.90835C14.359 6.70002 13.9173 5.75002 13.334 5.03335V5.02502C13.859 4.49169 14.5923 4.16669 15.3923 4.16669C17.0007 4.16669 18.309 5.47502 18.309 7.08335Z" stroke="#566575" stroke-width="1.5" stroke-miterlimit="10" stroke-linecap="round" stroke-linejoin="round"/>
</svg>
