<svg width="16" height="16" viewBox="0 0 16 16" fill="none" xmlns="http://www.w3.org/2000/svg">
<path d="M7.88878 7.07371C5.26999 7.07371 2.90786 6.69688 0.800781 5.94488V4.56453C0.800781 3.87165 1.36079 3.30996 2.05159 3.30996H4.55324V4.98273C4.55324 5.2137 4.73991 5.40093 4.97019 5.40093C5.20046 5.40093 5.38713 5.2137 5.38713 4.98273V3.30996H10.3904V4.98273C10.3904 5.2137 10.5771 5.40093 10.8074 5.40093C11.0377 5.40093 11.2243 5.2137 11.2243 4.98273V3.30996H13.726C14.4168 3.30996 14.9768 3.87165 14.9768 4.56453V5.94488C12.8697 6.69688 10.5076 7.07371 7.88878 7.07371ZM14.9768 13.1995C14.9768 13.8924 14.4168 14.4541 13.726 14.4541H2.05159C1.36079 14.4541 0.800781 13.8924 0.800781 13.1995V6.47164C2.92923 7.19213 5.29236 7.55168 7.88878 7.55168C10.4852 7.55168 12.8483 7.19215 14.9768 6.47164V13.1995ZM6.84643 11.5267H8.93113C9.16141 11.5267 9.34808 11.3395 9.34808 11.1085C9.34808 10.8776 9.16141 10.6903 8.93113 10.6903H6.84643C6.61615 10.6903 6.42948 10.8776 6.42948 11.1085C6.42948 11.3395 6.61615 11.5267 6.84643 11.5267ZM5.38713 3.30996H4.55324V2.47356C4.55324 1.5497 5.29992 0.800781 6.221 0.800781H9.55654C10.4776 0.800781 11.2243 1.5497 11.2243 2.47356L11.2243 3.30996H10.3904L10.3904 2.47356C10.3904 2.01162 10.0171 1.63715 9.55651 1.63715H6.22102C5.7605 1.63715 5.38713 2.01162 5.38713 2.47356V3.30996Z" fill="#566575"/>
</svg>
