<svg width="16" height="16" viewBox="0 0 16 16" fill="none" xmlns="http://www.w3.org/2000/svg">
<path d="M7.88878 7.07273C5.26999 7.07273 2.90786 6.69591 0.800781 5.9439V4.56355C0.800781 3.87067 1.36079 3.30898 2.05159 3.30898H4.55324V4.98175C4.55324 5.21272 4.73991 5.39996 4.97019 5.39996C5.20046 5.39996 5.38713 5.21272 5.38713 4.98175V3.30898H10.3904V4.98175C10.3904 5.21272 10.5771 5.39996 10.8074 5.39996C11.0377 5.39996 11.2243 5.21272 11.2243 4.98175V3.30898H13.726C14.4168 3.30898 14.9768 3.87067 14.9768 4.56355V5.9439C12.8697 6.69591 10.5076 7.07273 7.88878 7.07273ZM14.9768 13.1986C14.9768 13.8914 14.4168 14.4531 13.726 14.4531H2.05159C1.36079 14.4531 0.800781 13.8914 0.800781 13.1986V6.47066C2.92923 7.19115 5.29236 7.5507 7.88878 7.5507C10.4852 7.5507 12.8483 7.19118 14.9768 6.47066V13.1986ZM6.84643 11.5258H8.93113C9.16141 11.5258 9.34808 11.3385 9.34808 11.1076C9.34808 10.8766 9.16141 10.6894 8.93113 10.6894H6.84643C6.61615 10.6894 6.42948 10.8766 6.42948 11.1076C6.42948 11.3385 6.61615 11.5258 6.84643 11.5258ZM5.38713 3.30898H4.55324V2.47258C4.55324 1.54873 5.29992 0.799805 6.221 0.799805H9.55654C10.4776 0.799805 11.2243 1.54873 11.2243 2.47258L11.2243 3.30898H10.3904L10.3904 2.47258C10.3904 2.01064 10.0171 1.63618 9.55651 1.63618H6.22102C5.7605 1.63618 5.38713 2.01064 5.38713 2.47258V3.30898Z" fill="#161C22"/>
</svg>
