<svg width="40" height="34" viewBox="0 0 40 34" fill="none" xmlns="http://www.w3.org/2000/svg">
<circle cx="22.1016" cy="16.0508" r="16" fill="#DCDCDC"/>
<path d="M22.0372 7.99963H4.22648C2.84151 7.99963 1.71875 6.87693 1.71875 5.49197V5.14054C1.71875 3.75557 2.84151 2.63281 4.22648 2.63281H22.0372C23.4222 2.63281 24.545 3.75557 24.545 5.14054V5.49197C24.545 6.87693 23.4222 7.99963 22.0372 7.99963Z" fill="#DCDCDC"/>
<path d="M24.3272 6.51002C23.9373 7.38771 23.0578 8.00023 22.035 8.00023H12.9043C15.0082 6.64989 17.5113 5.86719 20.1969 5.86719C21.6375 5.86719 23.0252 6.09215 24.3272 6.51002Z" fill="#88919A"/>
<path d="M9.64438 13.3669C8.16238 13.3669 6.96094 12.1654 6.96094 10.6834C6.96094 9.20144 8.16232 8 9.64438 8H27.1037C28.5857 8 29.7871 9.20138 29.7871 10.6834C29.7871 10.6834 29.7245 12.9785 27.9728 12.9785L9.64438 13.3669Z" fill="#88919A"/>
<path d="M29.7877 10.6832C29.7877 10.6832 29.772 11.2573 29.5377 11.8307C29.3028 12.4042 28.8494 12.9783 27.9735 12.9783L9.645 13.367C9.14729 13.367 8.68105 13.2312 8.28125 12.9952C9.374 10.9624 10.972 9.24136 12.9075 8H27.1045C27.256 8 27.4052 8.01282 27.5498 8.03672C28.2783 8.50937 28.9584 9.0502 29.5814 9.65049C29.7143 9.96811 29.7877 10.3172 29.7877 10.6832Z" fill="#88919A"/>
<path d="M20.4152 29.4684H5.40414C3.92214 29.4684 2.7207 28.267 2.7207 26.785C2.7207 25.303 3.92214 24.1016 5.40414 24.1016H20.4152V29.4684Z" fill="#DCDCDC"/>
<path d="M20.4134 24.1016V29.4686H11.1818C9.56049 28.0168 8.29174 26.1798 7.51953 24.1016H20.4134Z" fill="#88919A"/>
<path d="M17.6796 24.1013H5.40414C3.92214 24.1013 2.7207 22.8998 2.7207 21.4178C2.7207 19.9358 3.92214 18.7344 5.40414 18.7344H17.6796V24.1013Z" fill="#88919A"/>
<path d="M17.6806 18.7344V24.1014H7.52241C6.9775 22.635 6.67969 21.0481 6.67969 19.3918C6.67969 19.1715 6.68493 18.9523 6.69542 18.7344H17.6806Z" fill="#88919A"/>
<path d="M18.6083 18.7341H5.40414C3.92214 18.7341 2.7207 17.5326 2.7207 16.0506C2.7207 14.5686 3.92214 13.3672 5.40414 13.3672H18.6083V18.7341Z" fill="#DCDCDC"/>
<path d="M18.6056 13.3672V18.7336H6.69141C6.78349 16.8121 7.27595 14.9961 8.08838 13.3672H18.6056Z" fill="#88919A"/>
<path d="M20.1978 29.4659C25.763 29.4659 30.2745 24.9544 30.2745 19.3892C30.2745 13.824 25.763 9.3125 20.1978 9.3125C14.6326 9.3125 10.1211 13.824 10.1211 19.3892C10.1211 24.9544 14.6326 29.4659 20.1978 29.4659Z" fill="#DCDCDC"/>
<path d="M28.8322 13.3367C29.8742 12.8104 30.2128 11.4805 30.2338 10.6995V10.6838C30.2338 8.88294 28.7686 7.41778 26.9678 7.41778H24.3172C24.7392 6.88976 24.9915 6.22013 24.9915 5.49279V5.14136C24.9915 3.43726 23.6056 2.05078 21.9015 2.05078H4.09058C2.38648 2.05078 1 3.43726 1 5.14136V5.49279C1 7.1969 2.38648 8.58338 4.09058 8.58338H7.00924C6.53076 9.15161 6.24228 9.88477 6.24228 10.6838C6.24228 11.4834 6.53135 12.2165 7.00924 12.7848H5.26492C3.46407 12.7848 1.99892 14.2499 1.99892 16.0508C1.99892 17.161 2.55607 18.1436 3.40521 18.7346C2.55607 19.3244 1.99892 20.3075 1.99892 21.4178C1.99892 22.528 2.55607 23.5106 3.40521 24.101C2.55607 24.6914 1.99892 25.674 1.99892 26.7848C1.99892 28.5856 3.46407 30.0508 5.26492 30.0508H20.0634C20.1554 30.0508 20.2469 30.0496 20.3379 30.0473H20.3402C26.0907 29.8998 30.7228 25.1763 30.7228 19.3914C30.7228 17.1441 30.024 15.0571 28.8322 13.3367ZM26.9678 8.58338C28.1229 8.58338 29.0629 9.51993 29.0682 10.6739C29.0629 10.8044 28.9825 12.1641 28.0774 12.3698C26.1216 10.1412 23.2542 8.73199 20.0634 8.73199C16.679 8.73199 13.6572 10.3178 11.7037 12.7848H9.50828C8.35026 12.7848 7.40788 11.8424 7.40788 10.6838C7.40788 9.52576 8.35026 8.58338 9.50828 8.58338H26.9678ZM4.09058 7.41778C3.02931 7.41778 2.1656 6.55407 2.1656 5.49279V5.14136C2.1656 4.08009 3.02931 3.21638 4.09058 3.21638H21.9015C22.9628 3.21638 23.8259 4.08009 23.8259 5.14136V5.49279C23.8259 6.55407 22.9628 7.41778 21.9015 7.41778H4.09058ZM3.16452 16.0508C3.16452 14.8922 4.1069 13.9504 5.26492 13.9504H10.9C10.1505 15.2075 9.65282 16.6307 9.47565 18.1512H5.26492C4.1069 18.1512 3.16452 17.2094 3.16452 16.0508ZM3.16452 21.4178C3.16452 20.2592 4.1069 19.3168 5.26492 19.3168H9.40455C9.40396 19.3418 9.40396 19.3663 9.40396 19.3914C9.40396 20.8536 9.70003 22.2483 10.2356 23.5182H5.26492C4.1069 23.5182 3.16452 22.5758 3.16452 21.4178ZM5.26492 28.8852C4.1069 28.8852 3.16452 27.9428 3.16452 26.7848C3.16452 25.6262 4.1069 24.6838 5.26492 24.6838H10.8132C11.8424 26.4753 13.3763 27.941 15.2203 28.8852H5.26492ZM20.0634 28.8852C14.8281 28.8852 10.5696 24.6261 10.5696 19.3914C10.5696 16.0869 12.3465 12.9614 15.1737 11.2561C16.6441 10.3691 18.3464 9.89759 20.0634 9.89759C25.2981 9.89759 29.5572 14.1561 29.5572 19.3914C29.5572 24.6261 25.2981 28.8852 20.0634 28.8852Z" fill="#566575"/>
<path d="M22.5266 19.5822C22.0021 19.1888 21.347 18.9341 20.6401 18.8444V15.5277C21.6786 15.7124 22.4724 16.3768 22.4724 17.1414C22.4724 17.4637 22.7329 17.7242 23.0552 17.7242C23.3769 17.7242 23.638 17.4637 23.638 17.1414C23.638 16.3529 23.2434 15.6227 22.5266 15.0853C22.0021 14.6919 21.347 14.4378 20.6401 14.3475V13.7781C20.6401 13.4564 20.379 13.1953 20.0573 13.1953C19.735 13.1953 19.4745 13.4564 19.4745 13.7781V14.3475C18.7675 14.4378 18.1125 14.6919 17.588 15.0853C16.8711 15.6227 16.4766 16.3529 16.4766 17.1414C16.4766 17.93 16.8711 18.6602 17.588 19.1976C18.1125 19.591 18.7675 19.8456 19.4745 19.9354V23.2527C18.4359 23.0673 17.6422 22.403 17.6422 21.6383C17.6422 21.3166 17.3811 21.0555 17.0594 21.0555C16.7377 21.0555 16.4766 21.3166 16.4766 21.6383C16.4766 22.4269 16.8711 23.1571 17.588 23.6944C18.1125 24.0878 18.7675 24.3419 19.4745 24.4323V25.0104C19.4745 25.3321 19.735 25.5932 20.0573 25.5932C20.379 25.5932 20.6401 25.3321 20.6401 25.0104V24.4323C21.347 24.3425 22.0021 24.0878 22.5266 23.6944C23.2434 23.1571 23.638 22.4269 23.638 21.6383C23.638 20.8498 23.2434 20.1195 22.5266 19.5822ZM17.6422 17.1414C17.6422 16.3768 18.4359 15.7124 19.4745 15.5277V18.7558C18.4359 18.5705 17.6422 17.9061 17.6422 17.1414ZM20.6401 23.2527V20.0246C21.6786 20.2093 22.4724 20.8737 22.4724 21.6383C22.4724 22.403 21.6786 23.0673 20.6401 23.2527Z" fill="#566575"/>
</svg>
