<svg width="31" height="31" viewBox="0 0 31 31" fill="none" xmlns="http://www.w3.org/2000/svg">
<path d="M15.214 30.0938C19.0578 30.0938 22.8343 29.4931 26.1352 28.3568C26.987 28.0634 27.4314 27.1592 27.1275 26.3365C26.8887 25.6899 26.2578 25.2861 25.5851 25.2861L4.84281 25.2865C4.16963 25.2866 3.53902 25.6896 3.30046 26.3365C2.99666 27.1592 3.44093 28.0634 4.29278 28.3568C7.59368 29.4931 11.3701 30.0938 15.214 30.0938Z" fill="#56C5B3"/>
<path d="M3.75347 3.75194V20.341C3.75347 22.4613 5.34136 24.2529 7.48364 24.5707C9.86527 24.9239 12.4767 25.1192 15.2167 25.1192C17.9567 25.1192 20.5681 24.9239 22.9498 24.5707C25.0921 24.2529 26.68 22.4613 26.68 20.341V3.75194C26.68 1.98181 25.2136 0.546875 23.4048 0.546875H7.02866C5.2198 0.54681 3.75347 1.98181 3.75347 3.75194Z" fill="#75EFDB"/>
<path d="M1.36466 23.1932C0.610975 23.1932 0 22.5953 0 21.8578V9.57155C0 8.834 0.610975 8.23611 1.36466 8.23611C2.11835 8.23611 2.72933 8.834 2.72933 9.57155V21.8578C2.72933 22.5953 2.11835 23.1932 1.36466 23.1932Z" fill="#5D5360"/>
<path d="M29.0591 23.1932C28.3054 23.1932 27.6944 22.5953 27.6944 21.8578V9.57155C27.6944 8.834 28.3054 8.23611 29.0591 8.23611C29.8128 8.23611 30.4238 8.834 30.4238 9.57155V21.8578C30.4238 22.5953 29.8128 23.1932 29.0591 23.1932Z" fill="#5D5360"/>
</svg>
