<svg width="24" height="24" viewBox="0 0 24 24" fill="none" xmlns="http://www.w3.org/2000/svg">
<rect width="24" height="24" rx="12" fill="#E8E8E8" fill-opacity="0.5"/>
<path d="M13.7594 4.62109H11.8907V5.789H13.1754V7.98856C13.1754 9.92049 11.6036 11.4923 9.67163 11.4923C7.7397 11.4923 6.16791 9.92052 6.16791 7.98859V5.789H7.41369V4.62109H5.58395C5.26141 4.62109 5 4.88251 5 5.20505V7.98859C5 10.5646 7.09562 12.6603 9.67166 12.6603C12.2477 12.6603 14.3433 10.5646 14.3433 7.98859V5.20505C14.3433 4.88251 14.0819 4.62109 13.7594 4.62109Z" fill="#2E363D"/>
<path d="M16.0368 13.1488V15.9129C16.0368 17.5228 14.727 18.8327 13.117 18.8327C11.507 18.8327 10.1972 17.5228 10.1972 15.9129V12.0977H9.0293V15.9129C9.0293 18.1667 10.8629 20.0006 13.117 20.0006C15.3709 20.0006 17.2047 18.1667 17.2047 15.9129V13.1488H16.0368Z" fill="#2E363D"/>
<path d="M16.6212 9.3724C15.4296 9.3724 14.4604 10.3416 14.4604 11.533C14.4604 12.7243 15.4296 13.6937 16.621 13.6937C17.8125 13.6937 18.7817 12.7243 18.7819 11.533C18.7818 10.3416 17.8125 9.3724 16.6212 9.3724ZM16.621 12.5258C16.0735 12.5258 15.6281 12.0804 15.6281 11.5331C15.6281 10.9857 16.0735 10.5404 16.621 10.5404C17.1684 10.5404 17.6137 10.9857 17.6137 11.5331C17.6137 12.0804 17.1684 12.5258 16.621 12.5258ZM7.3945 4C7.07196 4 6.81055 4.26141 6.81055 4.58395V5.82974C6.81055 6.15228 7.07196 6.41369 7.3945 6.41369C7.71704 6.41369 7.97845 6.15228 7.97845 5.82974V4.58395C7.97845 4.26141 7.71704 4 7.3945 4ZM11.9104 4C11.5879 4 11.3265 4.26141 11.3265 4.58395V5.82974C11.3265 6.15228 11.5879 6.41369 11.9104 6.41369C12.233 6.41369 12.4944 6.15228 12.4944 5.82974V4.58395C12.4944 4.26141 12.233 4 11.9104 4Z" fill="#2E363D"/>
</svg>
