<svg width="150" height="150" viewBox="0 0 150 150" fill="none" xmlns="http://www.w3.org/2000/svg">
<g clip-path="url(#clip0_3009_240144)">
<path d="M119.767 131.507H115.835L91.5557 107.228C94.3678 102.624 95.99 97.2171 95.99 91.4388C95.99 74.6863 82.3608 61.0572 65.6083 61.0572C48.8559 61.0572 35.2267 74.6863 35.2267 91.4388C35.2267 108.191 48.8559 121.82 65.6083 121.82C71.3867 121.82 76.7935 120.198 81.3974 117.386L105.677 141.666V145.597H49.0232V122.114H25.5399V37.2803H105.677V117.27H110.08V32.8771H39.6299V23.1902H112.575V18.7871H35.2267V32.8771H21.1367V125.227L45.9099 150H110.08V141.666L115.835 135.91H124.17V37.427H119.767V131.507ZM44.6201 142.484L28.6532 126.517H44.6201V142.484ZM39.6299 91.4388C39.6299 77.1142 51.2838 65.4603 65.6083 65.4603C79.9329 65.4603 91.5868 77.1142 91.5868 91.4388C91.5868 105.763 79.9329 117.417 65.6083 117.417C51.2838 117.417 39.6299 105.763 39.6299 91.4388ZM88.957 110.856L93.0234 114.922L89.0917 118.854L85.0253 114.787C86.4522 113.599 87.7681 112.283 88.957 110.856ZM107.878 137.641L92.205 121.967L96.1367 118.035L111.81 133.709L107.878 137.641Z" fill="#014EA2"/>
<path d="M65.6054 70.4502C54.0325 70.4502 44.6172 79.8656 44.6172 91.4385C44.6172 103.011 54.0325 112.427 65.6054 112.427C77.1783 112.427 86.5937 103.011 86.5937 91.4385C86.5937 79.8656 77.1783 70.4502 65.6054 70.4502ZM65.6054 108.024C56.4604 108.024 49.0203 100.583 49.0203 91.4385C49.0203 82.2934 56.4604 74.8533 65.6054 74.8533C74.7505 74.8533 82.1906 82.2934 82.1906 91.4385C82.1906 100.583 74.7505 108.024 65.6054 108.024Z" fill="#014EA2"/>
<path d="M65.93 79.8508C64.0285 79.7654 62.2191 80.4385 60.843 81.7526C60.1699 82.3979 59.6339 83.1723 59.2672 84.0296C58.9005 84.8868 58.7105 85.8093 58.7086 86.7417H63.1117C63.1106 86.4041 63.1785 86.0698 63.3113 85.7595C63.4441 85.4491 63.639 85.1692 63.8841 84.937C64.1284 84.7029 64.418 84.5212 64.735 84.403C65.052 84.2848 65.3899 84.2326 65.7278 84.2495C66.978 84.3071 68.0418 85.3708 68.0993 86.621C68.1193 87.0364 68.0353 87.4501 67.8549 87.8247C67.6744 88.1994 67.4033 88.523 67.0661 88.7663C64.7738 90.4233 63.4053 93.1782 63.4053 96.135H67.8084C67.8084 94.5872 68.4953 93.1662 69.646 92.3343C70.5762 91.6636 71.3242 90.7713 71.8222 89.7383C72.3201 88.7052 72.5522 87.5642 72.4975 86.4188C72.3357 82.8978 69.4508 80.0128 65.93 79.8508ZM63.4053 98.4834H67.8084V103.18H63.4053V98.4834ZM53.8652 49.3151H58.5618V53.7182H53.8652V49.3151ZM63.2585 49.3151H67.9552V53.7182H63.2585V49.3151ZM72.6519 49.3151H77.3485V53.7182H72.6519V49.3151ZM35.0785 13.7965C38.8822 13.7965 41.9767 10.702 41.9767 6.89824C41.9767 3.09452 38.8822 0 35.0785 0C31.2748 0 28.1802 3.09452 28.1802 6.89824C28.1802 10.702 31.2748 13.7965 35.0785 13.7965ZM35.0785 4.40313C36.4543 4.40313 37.5736 5.52241 37.5736 6.89824C37.5736 8.27407 36.4543 9.39335 35.0785 9.39335C33.7026 9.39335 32.5834 8.27407 32.5834 6.89824C32.5834 5.52241 33.7026 4.40313 35.0785 4.40313ZM121.967 18.7867C118.163 18.7867 115.069 21.8812 115.069 25.6849C115.069 29.4887 118.163 32.5832 121.967 32.5832C125.771 32.5832 128.865 29.4887 128.865 25.6849C128.865 21.8812 125.771 18.7867 121.967 18.7867ZM121.967 28.18C120.591 28.18 119.472 27.0608 119.472 25.6849C119.472 24.3091 120.591 23.1898 121.967 23.1898C123.343 23.1898 124.462 24.3091 124.462 25.6849C124.462 27.0608 123.343 28.18 121.967 28.18ZM16.145 16.2916H11.7419V21.135H6.89844V25.5382H11.7419V30.3816H16.145V25.5382H20.9885V21.135H16.145V16.2916ZM143.102 44.6184H138.259V39.775H133.855V44.6184H129.012V49.0215H133.855V53.865H138.259V49.0215H143.102V44.6184Z" fill="#014EA2"/>
</g>
<defs>
<clipPath id="clip0_3009_240144">
<rect width="150" height="150" fill="white"/>
</clipPath>
</defs>
</svg>
