<svg width="20" height="20" viewBox="0 0 20 20" fill="none" xmlns="http://www.w3.org/2000/svg">
<path d="M15.4012 10.2083C15.6346 10.2083 15.8346 10.0083 15.8179 9.775C15.5929 6.75 13.0762 4.375 10.0012 4.375C6.92623 4.375 4.40957 6.75 4.18457 9.775C4.1679 10.0083 4.3679 10.2083 4.60123 10.2083H15.4012Z" fill="#014EA2"/>
<path d="M18.334 10.8333H18.2673C17.809 10.8333 17.434 10.4583 17.434 9.99998C17.434 9.54165 17.809 9.16665 18.2673 9.16665C18.7257 9.16665 19.134 9.54165 19.134 9.99998C19.134 10.4583 18.7923 10.8333 18.334 10.8333ZM1.73398 10.8333H1.66732C1.20898 10.8333 0.833984 10.4583 0.833984 9.99998C0.833984 9.54165 1.20898 9.16665 1.66732 9.16665C2.12565 9.16665 2.53398 9.54165 2.53398 9.99998C2.53398 10.4583 2.19232 10.8333 1.73398 10.8333ZM15.8423 4.99165C15.6257 4.99165 15.4173 4.90831 15.2507 4.74998C14.9256 4.42498 14.9256 3.89998 15.2507 3.57498L15.359 3.46665C15.684 3.14165 16.209 3.14165 16.534 3.46665C16.859 3.79165 16.859 4.31665 16.534 4.64165L16.4256 4.74998C16.2673 4.90831 16.059 4.99165 15.8423 4.99165ZM4.15898 4.99165C3.94232 4.99165 3.73398 4.90831 3.56732 4.74998L3.45898 4.63331C3.13398 4.30831 3.13398 3.78331 3.45898 3.45831C3.78398 3.13331 4.30898 3.13331 4.63398 3.45831L4.74232 3.56665C5.06732 3.89165 5.06732 4.41665 4.74232 4.74165C4.58398 4.90831 4.36732 4.99165 4.15898 4.99165ZM10.0007 2.53331C9.54232 2.53331 9.16732 2.19165 9.16732 1.73331V1.66665C9.16732 1.20831 9.54232 0.833313 10.0007 0.833313C10.459 0.833313 10.834 1.20831 10.834 1.66665C10.834 2.12498 10.459 2.53331 10.0007 2.53331Z" fill="#014EA2"/>
<path d="M16.6673 13.125H3.33398C2.99232 13.125 2.70898 12.8417 2.70898 12.5C2.70898 12.1583 2.99232 11.875 3.33398 11.875H16.6673C17.009 11.875 17.2923 12.1583 17.2923 12.5C17.2923 12.8417 17.009 13.125 16.6673 13.125Z" fill="#014EA2"/>
<path d="M15 15.625H5C4.65833 15.625 4.375 15.3417 4.375 15C4.375 14.6583 4.65833 14.375 5 14.375H15C15.3417 14.375 15.625 14.6583 15.625 15C15.625 15.3417 15.3417 15.625 15 15.625Z" fill="#014EA2"/>
<path d="M12.5 18.125H7.5C7.15833 18.125 6.875 17.8417 6.875 17.5C6.875 17.1583 7.15833 16.875 7.5 16.875H12.5C12.8417 16.875 13.125 17.1583 13.125 17.5C13.125 17.8417 12.8417 18.125 12.5 18.125Z" fill="#014EA2"/>
</svg>
