<svg width="20" height="20" viewBox="0 0 20 20" fill="none" xmlns="http://www.w3.org/2000/svg">
<path d="M7.4974 19.0596H12.4974C14.7714 19.0596 16.418 18.5742 17.4941 17.4981C18.5703 16.4219 19.0557 14.7753 19.0557 12.5013V10.8346C19.0557 10.4377 18.7276 10.1096 18.3307 10.1096C17.9338 10.1096 17.6057 10.4377 17.6057 10.8346V12.5013C17.6057 14.4151 17.2643 15.6826 16.4715 16.4754C15.6787 17.2682 14.4112 17.6096 12.4974 17.6096H7.4974C5.58362 17.6096 4.31611 17.2682 3.52331 16.4754C2.73052 15.6826 2.38906 14.4151 2.38906 12.5013V7.5013C2.38906 5.58752 2.73052 4.32002 3.52331 3.52722C4.31611 2.73442 5.58362 2.39297 7.4974 2.39297H9.16406C9.56096 2.39297 9.88906 2.06486 9.88906 1.66797C9.88906 1.27107 9.56096 0.942969 9.16406 0.942969H7.4974C5.22342 0.942969 3.57683 1.42837 2.50064 2.50455C1.42446 3.58073 0.939062 5.22732 0.939062 7.5013V12.5013C0.939062 14.7753 1.42446 16.4219 2.50064 17.4981C3.57683 18.5742 5.22342 19.0596 7.4974 19.0596Z" fill="#014EA2" stroke="#014EA2" stroke-width="0.2"/>
<path d="M5.69476 14.2965L5.69564 14.2974C6.05725 14.6502 6.54954 14.8424 7.08214 14.8424H7.08617C7.1827 14.8425 7.29899 14.8425 7.41701 14.8159L9.9208 14.4582C9.92091 14.4582 9.92102 14.4581 9.92113 14.4581C10.4266 14.3883 11.0712 14.0614 11.4278 13.7048L17.9941 7.13855C17.9942 7.13848 17.9943 7.1384 17.9943 7.13833C18.7628 6.37828 19.1786 5.62466 19.2566 4.84407L19.2567 4.84309C19.3436 3.87888 18.9158 2.92637 17.9945 2.00507C17.1542 1.16474 16.2948 0.732031 15.4238 0.732031C14.5528 0.732031 13.6934 1.16474 12.8531 2.00507L6.28643 8.57174C5.92981 8.92836 5.60291 9.57308 5.53311 10.0785C5.5331 10.0786 5.53309 10.0787 5.53308 10.0788L5.17486 12.5863C5.17485 12.5863 5.17484 12.5864 5.17484 12.5865C5.07926 13.2385 5.26128 13.863 5.69476 14.2965ZM10.3948 12.6801L10.3947 12.68L10.3929 12.682C10.3297 12.7487 10.2106 12.8279 10.0749 12.8957C9.94007 12.9631 9.80297 13.0123 9.70915 13.0269C9.70896 13.0269 9.70878 13.0269 9.7086 13.0269L7.20181 13.3851C7.2017 13.3851 7.2016 13.3851 7.20149 13.3851C6.9784 13.4158 6.81467 13.3669 6.71952 13.2717C6.62435 13.1766 6.57544 13.0128 6.60617 12.7897C6.60618 12.7896 6.60619 12.7895 6.6062 12.7894L6.96431 10.2827C6.96433 10.2825 6.96436 10.2823 6.96439 10.2821C6.97888 10.1886 7.02791 10.0537 7.0954 9.91973C7.16303 9.78549 7.24278 9.66489 7.31118 9.59649L13.8775 3.03013C13.8776 3.03007 13.8777 3.03002 13.8777 3.02996C14.3621 2.54971 14.8136 2.23653 15.2945 2.19202C15.7698 2.14803 16.3045 2.36464 16.9612 3.02127C17.5869 3.65527 17.8452 4.20236 17.7992 4.69992C17.7608 5.11535 17.497 5.57785 16.9614 6.1134L10.3948 12.6801Z" fill="#014EA2" stroke="#014EA2" stroke-width="0.2"/>
<path d="M11.7311 3.64471L11.7311 3.64471L11.7313 3.64528C12.3572 5.86976 14.1241 7.63721 16.3483 8.26385C16.4096 8.28393 16.478 8.29319 16.5442 8.29319C16.8618 8.29319 17.1534 8.09036 17.2408 7.76091C17.3463 7.37637 17.1257 6.97038 16.7377 6.86351C14.9964 6.3729 13.6145 4.99095 13.1239 3.24971C13.0173 2.86266 12.6202 2.64067 12.2344 2.74677L12.2344 2.74675L12.2322 2.74741C11.8477 2.86277 11.6248 3.25814 11.7311 3.64471Z" fill="#014EA2" stroke="#014EA2" stroke-width="0.2"/>
</svg>
