<svg width="20" height="21" viewBox="0 0 20 21" fill="none" xmlns="http://www.w3.org/2000/svg">
<g clip-path="url(#clip0_4275_43647)">
<path d="M19.3923 8.3476C18.0998 6.2426 15.1598 2.71094 9.9998 2.71094C4.8398 2.71094 1.8998 6.2426 0.607298 8.3476C0.207739 8.99386 -0.00390625 9.73864 -0.00390625 10.4984C-0.00390625 11.2582 0.207739 12.003 0.607298 12.6493C1.8998 14.7543 4.8398 18.2859 9.9998 18.2859C15.1598 18.2859 18.0998 14.7543 19.3923 12.6493C19.7919 12.003 20.0035 11.2582 20.0035 10.4984C20.0035 9.73864 19.7919 8.99386 19.3923 8.3476ZM17.9715 11.7768C16.8615 13.5818 14.349 16.6193 9.9998 16.6193C5.65063 16.6193 3.13813 13.5818 2.02813 11.7768C1.79074 11.3926 1.66501 10.95 1.66501 10.4984C1.66501 10.0469 1.79074 9.60423 2.02813 9.2201C3.13813 7.4151 5.65063 4.3776 9.9998 4.3776C14.349 4.3776 16.8615 7.41177 17.9715 9.2201C18.2089 9.60423 18.3346 10.0469 18.3346 10.4984C18.3346 10.95 18.2089 11.3926 17.9715 11.7768Z" fill="#88919A"/>
<path d="M10.0007 6.33203C9.17656 6.33203 8.37098 6.5764 7.68578 7.03424C7.00057 7.49208 6.46652 8.14283 6.15115 8.90418C5.83579 9.66554 5.75328 10.5033 5.91405 11.3116C6.07482 12.1198 6.47166 12.8623 7.05437 13.445C7.63709 14.0277 8.37952 14.4245 9.18778 14.5853C9.99603 14.7461 10.8338 14.6636 11.5952 14.3482C12.3565 14.0328 13.0073 13.4988 13.4651 12.8136C13.9229 12.1284 14.1673 11.3228 14.1673 10.4987C14.166 9.39404 13.7266 8.335 12.9455 7.55388C12.1644 6.77277 11.1053 6.33335 10.0007 6.33203ZM10.0007 12.9987C9.5062 12.9987 9.02285 12.8521 8.61173 12.5774C8.2006 12.3027 7.88017 11.9122 7.69095 11.4554C7.50173 10.9986 7.45223 10.4959 7.54869 10.011C7.64515 9.52602 7.88325 9.08056 8.23289 8.73093C8.58252 8.3813 9.02797 8.1432 9.51293 8.04673C9.99788 7.95027 10.5005 7.99978 10.9574 8.189C11.4142 8.37822 11.8046 8.69865 12.0793 9.10977C12.354 9.5209 12.5007 10.0042 12.5007 10.4987C12.5007 11.1617 12.2373 11.7976 11.7684 12.2665C11.2996 12.7353 10.6637 12.9987 10.0007 12.9987Z" fill="#88919A"/>
</g>
<defs>
<clipPath id="clip0_4275_43647">
<rect width="20" height="20" fill="white" transform="translate(0 0.5)"/>
</clipPath>
</defs>
</svg>
