<svg width="25" height="25" viewBox="0 0 25 25" fill="none" xmlns="http://www.w3.org/2000/svg">
<mask id="mask0_3083_258474" style="mask-type:alpha" maskUnits="userSpaceOnUse" x="0" y="0" width="25" height="25">
<rect x="0.5" y="0.5" width="24" height="24" fill="#D9D9D9"/>
</mask>
<g mask="url(#mask0_3083_258474)">
<path d="M11.1 17.102L18.15 10.052L16.75 8.65195L11.1 14.302L8.25 11.452L6.85 12.852L11.1 17.102ZM12.5 22.502C11.1167 22.502 9.81667 22.2395 8.6 21.7145C7.38333 21.1895 6.325 20.477 5.425 19.577C4.525 18.677 3.8125 17.6186 3.2875 16.402C2.7625 15.1853 2.5 13.8853 2.5 12.502C2.5 11.1186 2.7625 9.81862 3.2875 8.60195C3.8125 7.38529 4.525 6.32695 5.425 5.42695C6.325 4.52695 7.38333 3.81445 8.6 3.28945C9.81667 2.76445 11.1167 2.50195 12.5 2.50195C13.8833 2.50195 15.1833 2.76445 16.4 3.28945C17.6167 3.81445 18.675 4.52695 19.575 5.42695C20.475 6.32695 21.1875 7.38529 21.7125 8.60195C22.2375 9.81862 22.5 11.1186 22.5 12.502C22.5 13.8853 22.2375 15.1853 21.7125 16.402C21.1875 17.6186 20.475 18.677 19.575 19.577C18.675 20.477 17.6167 21.1895 16.4 21.7145C15.1833 22.2395 13.8833 22.502 12.5 22.502Z" fill="white"/>
</g>
</svg>
