<svg width="16" height="16" viewBox="0 0 16 16" fill="none" xmlns="http://www.w3.org/2000/svg">
<g clip-path="url(#clip0_2544_16714)">
<path fill-rule="evenodd" clip-rule="evenodd" d="M4.49914 6.49978H5.33248C6.52595 6.49978 7.67054 6.97389 8.51446 7.8178C9.35837 8.66172 9.83248 9.80631 9.83248 10.9998V14.6665C9.83248 14.7991 9.7798 14.9262 9.68603 15.02C9.59226 15.1138 9.46509 15.1665 9.33248 15.1665H6.66581C6.5332 15.1665 6.40602 15.1138 6.31226 15.02C6.21849 14.9262 6.16581 14.7991 6.16581 14.6665V10.9998C6.16546 10.7789 6.07755 10.5671 5.92134 10.4109C5.76514 10.2547 5.55338 10.1668 5.33248 10.1665H4.49914V10.6665C4.4991 10.7625 4.4714 10.8565 4.41934 10.9372C4.36728 11.0179 4.29308 11.082 4.2056 11.1216C4.11812 11.1613 4.02108 11.1749 3.92606 11.1609C3.83104 11.1468 3.74208 11.1057 3.66981 11.0424L1.00314 8.70912C0.949412 8.66231 0.906337 8.60453 0.876821 8.53967C0.847304 8.47481 0.832031 8.40438 0.832031 8.33312C0.832031 8.26186 0.847304 8.19142 0.876821 8.12656C0.906337 8.06171 0.949412 8.00392 1.00314 7.95712L3.66981 5.62378C3.74208 5.56052 3.83104 5.51941 3.92606 5.50537C4.02108 5.49133 4.11812 5.50496 4.2056 5.54462C4.29308 5.58428 4.36728 5.64829 4.41934 5.72901C4.4714 5.80973 4.4991 5.90373 4.49914 5.99978V6.49978ZM10.4991 6.50312C10.5545 6.50112 10.6098 6.49978 10.6658 6.49978H11.4991V5.99978C11.4992 5.90373 11.5269 5.80973 11.5789 5.72901C11.631 5.64829 11.7052 5.58428 11.7927 5.54462C11.8802 5.50496 11.9772 5.49133 12.0722 5.50537C12.1672 5.51941 12.2562 5.56052 12.3285 5.62378L14.9951 7.95712C15.0489 8.00392 15.0919 8.06171 15.1215 8.12656C15.151 8.19142 15.1663 8.26186 15.1663 8.33312C15.1663 8.40438 15.151 8.47481 15.1215 8.53967C15.0919 8.60453 15.0489 8.66231 14.9951 8.70912L12.3285 11.0424C12.2562 11.1057 12.1672 11.1468 12.0722 11.1609C11.9772 11.1749 11.8802 11.1613 11.7927 11.1216C11.7052 11.082 11.631 11.0179 11.5789 10.9372C11.5269 10.8565 11.4992 10.7625 11.4991 10.6665V10.1665H10.6658C10.6098 10.1666 10.554 10.1722 10.4991 10.1831V6.50312Z" fill="#161C22"/>
<path fill-rule="evenodd" clip-rule="evenodd" d="M6.1658 5.90079V4.50012H5.6658C5.56975 4.50008 5.47575 4.47237 5.39503 4.42032C5.31431 4.36826 5.25029 4.29406 5.21063 4.20658C5.17097 4.1191 5.15735 4.02205 5.17139 3.92704C5.18543 3.83202 5.22653 3.74306 5.2898 3.67079L7.62313 1.00412C7.66994 0.950388 7.72772 0.907314 7.79258 0.877797C7.85744 0.848281 7.92787 0.833008 7.99913 0.833008C8.07039 0.833008 8.14082 0.848281 8.20568 0.877797C8.27054 0.907314 8.32832 0.950388 8.37513 1.00412L10.7085 3.67079C10.7717 3.74306 10.8128 3.83202 10.8269 3.92704C10.8409 4.02205 10.8273 4.1191 10.7876 4.20658C10.748 4.29406 10.684 4.36826 10.6032 4.42032C10.5225 4.47237 10.4285 4.50008 10.3325 4.50012H9.83247V8.46145C9.45186 7.78746 8.92482 7.20749 8.29022 6.76431C7.65562 6.32112 6.92963 6.02603 6.1658 5.90079Z" fill="#161C22"/>
</g>
<defs>
<clipPath id="clip0_2544_16714">
<rect width="16" height="16" fill="white"/>
</clipPath>
</defs>
</svg>
