<svg width="40" height="34" viewBox="0 0 40 34" fill="none" xmlns="http://www.w3.org/2000/svg">
<circle cx="22.1016" cy="16.0508" r="16" fill="#DCDCDC"/>
<path fill-rule="evenodd" clip-rule="evenodd" d="M17.8335 23.0891L19.0201 27.5458L15.6876 30.878L12.4667 24.6639L6.25195 21.4433L9.58441 18.1111L14.0444 19.2983L27.6953 4.7907C29.5721 2.79993 32.1902 2.73975 33.2916 3.84106C34.3929 4.94248 34.3328 7.56059 32.342 9.43742L17.8335 23.0891Z" fill="#DCDCDC"/>
<path fill-rule="evenodd" clip-rule="evenodd" d="M23.5278 17.7344C20.684 18.6614 17.648 19.1628 14.4948 19.1628C14.3887 19.1628 14.2828 19.1619 14.1769 19.1608L14.0444 19.3016L13.4525 19.1441L9.58447 18.1144L6.25195 21.4465L12.4667 24.6671L15.6876 30.8812L19.0201 27.5491L17.8335 23.0924L23.5278 17.7344Z" fill="#88919A"/>
<path fill-rule="evenodd" clip-rule="evenodd" d="M30.9653 20.1016C33.0879 20.2432 34.7657 22.0097 34.7657 24.1681H35.3707V28.2438H23.8672C22.8134 28.2438 21.9512 27.3816 21.9512 26.3278C21.9512 25.2738 22.8134 24.4116 23.8673 24.4116C23.962 23.1411 24.9589 22.1218 26.2194 21.9921L30.9653 20.1016Z" fill="white"/>
<path fill-rule="evenodd" clip-rule="evenodd" d="M30.8898 3.14453C30.7138 3.97245 30.9272 5.00969 31.5257 5.60816C32.1242 6.20668 33.1583 6.4507 33.9862 6.2747L33.2932 3.84069L30.8898 3.14453Z" fill="#88919A"/>
<path fill-rule="evenodd" clip-rule="evenodd" d="M28.6569 12.9141L31.5104 22.0342L28.2513 25.293L23.6445 17.6872L28.6569 12.9141Z" fill="white"/>
<path fill-rule="evenodd" clip-rule="evenodd" d="M24.0978 8.47468L14.9777 5.62109L11.7188 8.88026L19.3246 13.4871L24.0978 8.47468Z" fill="white"/>
<path fill-rule="evenodd" clip-rule="evenodd" d="M4.62695 6.93421C5.03919 6.66635 5.53098 6.51062 6.05924 6.51062C6.30212 6.51062 6.53729 6.54368 6.7606 6.6053C7.47313 5.41885 8.7724 4.625 10.2571 4.625C12.5081 4.625 14.3328 6.44975 14.3328 8.70073H14.7723C15.8932 8.70073 16.8102 9.61775 16.8102 10.7386C16.8102 11.8463 15.8974 12.7765 14.7857 12.7765H4.62695V6.93421Z" fill="white"/>
<path d="M35.3726 27.6148H23.8689C23.1586 27.6148 22.5807 27.0362 22.5807 26.326C22.5807 25.6151 23.1586 25.0372 23.8689 25.0372C24.1976 25.0372 24.4706 24.7837 24.4951 24.4562C24.5584 23.6085 25.1438 22.9089 25.9376 22.6817L27.7139 25.6138C27.8136 25.7788 27.9843 25.8886 28.1751 25.9119C28.2008 25.9144 28.2259 25.9163 28.251 25.9163C28.416 25.9163 28.576 25.851 28.6946 25.7324L31.9536 22.4734C32.1186 22.3084 32.1782 22.0656 32.1086 21.8422L31.8155 20.9061C33.1721 21.3748 34.1402 22.6686 34.1402 24.1663C34.1402 24.5126 34.4207 24.7937 34.7677 24.7937H35.3726C35.7189 24.7937 36 24.5126 36 24.1663C36 23.8199 35.7189 23.5388 35.3726 23.5388H35.3531C35.0758 21.4789 33.4526 19.8181 31.3801 19.5131L29.371 13.093L32.7724 9.89241C33.9351 8.79688 34.614 7.34559 34.6347 5.91061C34.6504 4.8841 34.331 3.99123 33.7355 3.39578C33.1407 2.80096 32.246 2.48096 31.2207 2.49664C29.7864 2.51798 28.3344 3.19688 27.2383 4.35955L24.0383 7.76033L15.2872 5.02276C15.0645 4.95311 14.8216 5.01272 14.6566 5.17774L13.9909 5.84284C13.1307 4.72096 11.7766 3.99688 10.2576 3.99688C8.76549 3.99688 7.3531 4.7197 6.47278 5.90872C6.336 5.89115 6.19796 5.88237 6.05992 5.88237C5.42745 5.88237 4.8138 6.0637 4.28549 6.40755C3.99498 6.59641 3.91278 6.9848 4.10165 7.27531C4.28988 7.56582 4.6789 7.64864 4.96941 7.45978C5.2938 7.24896 5.6709 7.13727 6.05992 7.13727C6.24126 7.13727 6.42071 7.16174 6.59451 7.20943C6.8662 7.28409 7.1542 7.16927 7.29914 6.9277C7.9291 5.87798 9.03529 5.25178 10.2576 5.25178C12.1587 5.25178 13.706 6.79845 13.706 8.70025C13.706 9.0466 13.9871 9.3277 14.3335 9.3277H14.7727C15.5507 9.3277 16.1832 9.96017 16.1832 10.7376C16.1832 11.5024 15.5432 12.1481 14.7865 12.1481H4.62745C4.2811 12.1481 4 12.4292 4 12.7755C4 13.1225 4.2811 13.403 4.62745 13.403H14.7865C15.5457 13.403 16.2309 13.0811 16.7147 12.5653L18.4998 13.6464L13.8441 18.5945L9.7462 17.5034C9.52973 17.4457 9.29945 17.5078 9.14133 17.6659L5.80831 20.9983C5.66714 21.1395 5.60126 21.3403 5.632 21.5379C5.66275 21.7355 5.78573 21.9068 5.96329 21.9991L12.0013 25.1282L15.131 31.1655C15.2232 31.3431 15.3939 31.4661 15.5922 31.4968C15.6242 31.5018 15.6562 31.5043 15.6882 31.5043C15.8532 31.5043 16.0132 31.4391 16.1318 31.3205L19.4642 27.9881C19.6223 27.83 19.6844 27.5991 19.6267 27.3832L18.5362 23.2879L23.4849 18.6315L25.2731 21.5843C24.3049 21.974 23.5721 22.8116 23.3249 23.8406C22.1829 24.091 21.3258 25.11 21.3258 26.326C21.3258 27.7283 22.4665 28.8697 23.8689 28.8697H35.3726C35.7189 28.8697 36 28.5886 36 28.2422C36 27.8953 35.7189 27.6148 35.3726 27.6148ZM17.3352 11.4736C17.4024 11.2395 17.4381 10.993 17.4381 10.7376C17.4381 9.31766 16.3213 8.15311 14.9195 8.07657C14.8687 7.69319 14.7715 7.32425 14.6334 6.97539L15.2753 6.33351L23.0827 8.77617L19.3795 12.7122L17.3352 11.4736ZM17.4036 22.6309C17.2361 22.789 17.1683 23.0262 17.2273 23.249L18.3209 27.3563L15.8507 29.8265L13.024 24.374C12.9644 24.2585 12.8709 24.165 12.7555 24.1054L7.30227 21.2794L9.77255 18.8091L13.883 19.9034C14.1064 19.963 14.3435 19.8952 14.5016 19.7271L28.1518 5.21978C29.0165 4.30308 30.1421 3.76786 31.2395 3.75155C31.9134 3.74151 32.5001 3.93539 32.8483 4.28362C33.1959 4.63123 33.3904 5.2179 33.3804 5.89241C33.3641 6.98982 32.8289 8.11484 31.9122 8.97884L17.4036 22.6309ZM24.4198 17.7519L28.3558 14.0486L30.7978 21.8548L28.3727 24.2792L24.4198 17.7519Z" fill="#566575"/>
<path d="M10.9692 26.7864C10.8086 26.7864 10.6481 26.7251 10.5256 26.6026C10.2805 26.3576 10.2805 25.9603 10.5256 25.7152L13.8578 22.3829C14.1029 22.138 14.5001 22.138 14.7452 22.3829C14.9903 22.628 14.9903 23.0253 14.7452 23.2703L11.413 26.6026C11.2904 26.7251 11.1299 26.7864 10.9692 26.7864Z" fill="#566575"/>
<path d="M30.6155 8.91333C30.3384 8.91333 30.0849 8.72848 30.0098 8.44814C29.9248 8.13109 29.7573 7.84083 29.5252 7.60886C29.2931 7.37677 29.003 7.20924 28.6859 7.12428C28.3512 7.03462 28.1525 6.69059 28.2423 6.35584C28.3319 6.02116 28.6756 5.82245 29.0107 5.91217C29.5402 6.05404 30.025 6.33394 30.4125 6.72152C30.8001 7.10897 31.08 7.59368 31.2219 8.12325C31.3116 8.45793 31.113 8.80202 30.7783 8.89175C30.7239 8.90637 30.6692 8.91333 30.6155 8.91333Z" fill="#566575"/>
</svg>
