<svg width="20" height="20" viewBox="0 0 20 20" fill="none" xmlns="http://www.w3.org/2000/svg">
<path fill-rule="evenodd" clip-rule="evenodd" d="M12.2932 3.29279C12.1057 3.48031 12.0004 3.73462 12.0004 3.99979C12.0004 4.26495 12.1057 4.51926 12.2932 4.70679L14.5862 6.99979H9.00021C7.1437 6.99979 5.36322 7.73728 4.05047 9.05004C2.73771 10.3628 2.00021 12.1433 2.00021 13.9998V15.9998C2.00021 16.265 2.10557 16.5194 2.29311 16.7069C2.48064 16.8944 2.735 16.9998 3.00021 16.9998C3.26543 16.9998 3.51978 16.8944 3.70732 16.7069C3.89486 16.5194 4.00021 16.265 4.00021 15.9998V13.9998C4.00021 12.6737 4.527 11.4019 5.46468 10.4643C6.40236 9.52657 7.67413 8.99979 9.00021 8.99979H14.5862L12.2932 11.2928C12.1977 11.385 12.1215 11.4954 12.0691 11.6174C12.0167 11.7394 11.9891 11.8706 11.988 12.0034C11.9868 12.1362 12.0121 12.2678 12.0624 12.3907C12.1127 12.5136 12.1869 12.6253 12.2808 12.7192C12.3747 12.8131 12.4864 12.8873 12.6093 12.9376C12.7322 12.9879 12.8638 13.0132 12.9966 13.012C13.1294 13.0109 13.2606 12.9833 13.3826 12.9309C13.5046 12.8785 13.615 12.8023 13.7072 12.7068L17.7072 8.70679C17.8947 8.51926 18 8.26495 18 7.99979C18 7.73462 17.8947 7.48031 17.7072 7.29279L13.7072 3.29279C13.5197 3.10532 13.2654 3 13.0002 3C12.735 3 12.4807 3.10532 12.2932 3.29279Z" fill="#566575"/>
</svg>
