<svg width="16" height="16" viewBox="0 0 16 16" fill="none" xmlns="http://www.w3.org/2000/svg">
<path d="M8 16C3.57447 16 0 12.4255 0 8C0 3.57447 3.57447 0 8 0C12.4255 0 16 3.57447 16 8C16 12.4255 12.4255 16 8 16ZM8 1.32766C4.3234 1.32766 1.32766 4.3234 1.32766 8C1.32766 11.6766 4.3234 14.6723 8 14.6723C11.6766 14.6723 14.6723 11.6766 14.6723 8C14.6723 4.3234 11.6766 1.32766 8 1.32766Z" fill="#2E363D"/>
<path d="M10.4852 5.24083C10.9278 5.6153 11.132 6.19402 11.132 6.977C11.132 7.75998 10.8938 8.30466 10.4512 8.67913C10.0086 9.0536 9.29375 9.22381 8.3746 9.22381H7.52354V11.3344C7.52354 11.7089 7.21715 12.0493 6.80864 12.0493C6.43418 12.0493 6.09375 11.743 6.09375 11.3344V5.30892C6.09375 4.93445 6.40013 4.66211 6.74056 4.66211H8.30652C9.36184 4.66211 10.0767 4.86636 10.4852 5.24083ZM9.46396 7.6919C9.63418 7.48764 9.70226 7.2153 9.70226 6.87488C9.70226 6.53445 9.60013 6.26211 9.36184 6.0919C9.15758 5.95573 8.81715 5.8536 8.34056 5.8536H7.52354V7.99828H8.47673C8.98737 7.99828 9.29375 7.89615 9.46396 7.6919Z" fill="#2E363D"/>
</svg>
