<svg width="20" height="18" viewBox="0 0 20 18" fill="none" xmlns="http://www.w3.org/2000/svg">
<path fill-rule="evenodd" clip-rule="evenodd" d="M4.18744 17.7096C3.52744 17.7096 2.92244 17.3613 2.60161 16.793L0.438277 13.0346C0.108277 12.4663 0.117444 11.7696 0.447444 11.2013L6.25911 1.20047C6.58911 0.641302 7.19411 0.292969 7.84494 0.292969H9.49902H9.98994H12.1443C12.7951 0.292969 13.4001 0.641302 13.7301 1.20047L19.5418 11.2013C19.8718 11.7696 19.881 12.4663 19.551 13.0346L17.3876 16.793C17.0668 17.3613 16.4618 17.7096 15.8018 17.7096H9.99931L9.98994 17.6753V17.7096H4.18744ZM9.49902 15.8763H9.98994H15.8018L17.956 12.1271L12.1443 2.1263H9.99931L9.98994 2.09196V2.1263H7.84494L2.03328 12.1271L4.18744 15.8763H9.49902ZM5.64494 13.5846L4.97578 12.4205L9.17411 5.10547H9.49902H9.98994H10.8151L15.0135 12.4205L14.3443 13.5846H9.98994H9.49902H5.64494ZM9.49902 11.7513H9.98994H12.511L9.99931 7.34213L9.98994 7.30024V7.34213L7.47828 11.7513H9.49902Z" fill="#566575"/>
</svg>
