<svg width="31" height="30" viewBox="0 0 31 30" fill="none" xmlns="http://www.w3.org/2000/svg">
<path d="M15.7921 29.5469C19.636 29.5469 23.4124 28.9463 26.7133 27.8099C27.5651 27.5166 28.0095 26.6123 27.7056 25.7896C27.4668 25.143 26.8359 24.7392 26.1632 24.7392L5.42093 24.7396C4.74776 24.7397 4.11715 25.1427 3.87859 25.7896C3.57479 26.6123 4.01905 27.5166 4.8709 27.8099C8.17181 28.9463 11.9482 29.5469 15.7921 29.5469Z" fill="#9D9B99"/>
<path d="M4.3316 3.20507V19.7941C4.3316 21.9144 5.91948 23.706 8.06176 24.0238C10.4434 24.377 13.0549 24.5723 15.7948 24.5723C18.5348 24.5723 21.1463 24.377 23.528 24.0238C25.6702 23.706 27.2581 21.9144 27.2581 19.7941V3.20507C27.2581 1.43493 25.7917 2.18683e-09 23.9829 2.18683e-09H7.60679C5.79792 -6.46839e-05 4.3316 1.43493 4.3316 3.20507Z" fill="#C0C0C0"/>
<path d="M1.94279 22.6463C1.1891 22.6463 0.578125 22.0485 0.578125 21.3109V9.02468C0.578125 8.28713 1.1891 7.68924 1.94279 7.68924C2.69648 7.68924 3.30745 8.28713 3.30745 9.02468V21.3109C3.30745 22.0485 2.69648 22.6463 1.94279 22.6463Z" fill="#5D5360"/>
<path d="M29.6338 22.6463C28.8801 22.6463 28.2691 22.0485 28.2691 21.3109V9.02468C28.2691 8.28713 28.8801 7.68924 29.6338 7.68924C30.3874 7.68924 30.9984 8.28713 30.9984 9.02468V21.3109C30.9984 22.0485 30.3874 22.6463 29.6338 22.6463Z" fill="#5D5360"/>
</svg>
