<svg width="31" height="30" viewBox="0 0 31 30" fill="none" xmlns="http://www.w3.org/2000/svg">
<path d="M15.2122 29.5469C19.0561 29.5469 22.8325 28.9463 26.1334 27.8099C26.9853 27.5166 27.4296 26.6123 27.1258 25.7896C26.8869 25.143 26.2561 24.7392 25.5833 24.7392L4.84107 24.7396C4.16789 24.7397 3.53729 25.1427 3.29873 25.7896C2.99493 26.6123 3.43919 27.5166 4.29104 27.8099C7.59194 28.9463 11.3684 29.5469 15.2122 29.5469Z" fill="#12BD0C"/>
<path d="M3.75391 3.20507V19.7941C3.75391 21.9144 5.34179 23.706 7.48407 24.0238C9.8657 24.377 12.4772 24.5723 15.2171 24.5723C17.9571 24.5723 20.5686 24.377 22.9503 24.0238C25.0925 23.706 26.6804 21.9144 26.6804 19.7941V3.20507C26.6804 1.43493 25.214 2.18683e-09 23.4052 2.18683e-09H7.0291C5.22023 -6.46839e-05 3.75391 1.43493 3.75391 3.20507Z" fill="#0EF105"/>
<path d="M1.36466 22.6466C0.610975 22.6466 0 22.0487 0 21.3111V9.0249C0 8.28735 0.610975 7.68945 1.36466 7.68945C2.11835 7.68945 2.72933 8.28735 2.72933 9.0249V21.3111C2.72933 22.0487 2.11835 22.6466 1.36466 22.6466Z" fill="#5D5360"/>
<path d="M29.06 22.6466C28.3063 22.6466 27.6953 22.0487 27.6953 21.3111V9.0249C27.6953 8.28735 28.3063 7.68945 29.06 7.68945C29.8137 7.68945 30.4246 8.28735 30.4246 9.0249V21.3111C30.4246 22.0487 29.8137 22.6466 29.06 22.6466Z" fill="#5D5360"/>
</svg>
