<svg width="24" height="24" viewBox="0 0 24 24" fill="none" xmlns="http://www.w3.org/2000/svg">
<path d="M4.05272 9.83408C4.19372 9.77235 4.33906 9.71891 4.47499 9.64756C5.32825 9.19964 6.17421 8.73745 7.03391 8.30236C7.36269 8.13597 7.71438 8.00516 8.06812 7.90024C8.50129 7.77177 8.94379 7.66469 9.38931 7.59104C9.77116 7.52792 10.1627 7.50483 10.5504 7.50072C10.9865 7.4961 11.4248 7.51374 11.8589 7.55504C12.8374 7.64812 13.7657 7.90996 14.6145 8.4245C15.3965 8.89856 16.1844 9.36287 16.9697 9.83162C17.0044 9.85235 17.0392 9.87326 17.0724 9.89636C17.2343 10.0091 17.4153 10.0265 17.6086 10.038C18.148 10.0702 18.6893 10.1014 19.2236 10.1773C19.81 10.2605 20.3896 10.3925 20.9719 10.5045C21.1179 10.5326 21.2669 10.5531 21.4075 10.5988C21.6039 10.6627 21.794 10.709 22.0101 10.8366C22.0919 10.885 22.3942 11.0717 22.6477 11.4392C22.6757 11.4797 22.7205 11.5451 22.7695 11.639C22.9285 11.9436 22.9568 12.213 22.9821 12.4788C22.9978 12.6438 23.0135 12.82 22.981 13.0483C22.9516 13.2548 22.8961 13.4096 22.8738 13.4685C22.8471 13.5386 22.8204 13.5965 22.7992 13.6394C22.6629 13.8325 22.4886 13.9814 22.2776 14.0873C22.2579 14.0971 22.2348 14.1002 22.2133 14.1065C22.1824 14.1191 22.1514 14.1315 22.1205 14.144C22.0936 14.1477 22.0667 14.1514 22.0397 14.1551C22.0199 14.1607 22.0002 14.1662 21.9804 14.1718C21.6769 14.1718 21.3733 14.1718 21.0713 14.1718C21.1135 13.9758 21.1327 13.8553 21.1421 13.7788C21.1424 13.7759 21.1439 13.7634 21.147 13.7384C21.1576 13.6525 21.1683 13.5666 21.1789 13.4807C21.4119 13.4837 21.6456 13.4993 21.8776 13.486C22.1157 13.4724 22.2692 13.3258 22.3068 13.0861C22.3296 12.9405 22.3236 12.7899 22.3229 12.6416C22.3228 12.622 22.2782 12.5873 22.2529 12.586C22.138 12.5802 22.0209 12.5712 21.908 12.5869C21.6815 12.6186 21.5137 12.5647 21.4437 12.3259C21.4401 12.3136 21.4262 12.3046 21.4213 12.2924C21.3705 12.1669 21.2432 12.083 21.2286 11.938C21.5478 11.938 21.867 11.938 22.2024 11.938C22.0745 11.6575 21.916 11.4214 21.6281 11.3334C21.3377 11.2445 21.0356 11.1937 20.7386 11.1262C20.727 11.1211 20.7157 11.1136 20.7035 11.1112C20.1904 11.0115 19.6787 10.903 19.1635 10.8162C18.8213 10.7585 18.4745 10.7055 18.1286 10.6963C17.29 10.674 16.4507 10.6729 15.6117 10.6733C13.9303 10.674 12.2488 10.6815 10.5674 10.6859C10.2326 10.6867 9.89779 10.6895 9.56308 10.6851C8.83733 10.6756 8.11082 10.7098 7.39107 10.5545C6.99742 10.4695 6.62096 10.3641 6.3134 10.0973C6.15982 9.96409 6.03147 9.80178 5.8864 9.64696C5.56277 9.82077 5.22017 9.99704 4.88515 10.1867C4.49535 10.4074 4.09111 10.5641 3.63327 10.5296C3.56766 10.5246 3.54167 10.5488 3.52162 10.6138C3.37436 11.0908 3.14833 11.5185 2.74396 11.8337C2.70563 11.8636 2.67541 11.9283 2.67438 11.9775C2.66822 12.272 2.66963 12.5667 2.67285 12.8613C2.6745 13.0117 2.70249 13.1574 2.7914 13.2842C2.85887 13.3805 2.93831 13.4735 3.06299 13.4756C3.38719 13.4811 3.71159 13.4746 4.03591 13.4728C4.04181 13.5578 4.05028 13.6465 4.06194 13.7386C4.0819 13.896 4.1086 14.0425 4.13883 14.177C3.7778 14.1755 3.41677 14.1741 3.05574 14.1726C3.02914 14.1666 3.00253 14.1606 2.97593 14.1547C2.79605 14.1254 2.63658 14.0488 2.48889 13.9449C2.2354 13.7286 2.06488 13.4642 2.01531 13.1296C2.01115 13.109 2.00699 13.0884 2.00284 13.0678C2.00174 12.72 1.99845 12.3722 2.00087 12.0245C2.00162 11.9173 2.00866 11.8083 2.02943 11.7034C2.05874 11.5552 2.14502 11.432 2.26652 11.3482C2.50474 11.1837 2.67832 10.9687 2.80951 10.7151C2.82003 10.6948 2.8244 10.6713 2.83163 10.6493C2.82576 10.6354 2.81989 10.6215 2.81402 10.6076C2.60826 10.6076 2.4025 10.6076 2.18759 10.6076C2.16751 10.3376 2.24757 10.1294 2.46824 9.9836C2.52908 9.96562 2.58993 9.94765 2.65077 9.92967C2.67107 9.92521 2.69137 9.92075 2.71167 9.91629C3.00299 9.91395 3.2943 9.9116 3.58562 9.90925C3.6328 9.9042 3.67999 9.89915 3.72717 9.8941C3.77477 9.89068 3.82238 9.88726 3.86998 9.88384C3.89703 9.87914 3.92408 9.87443 3.95113 9.86972C3.95809 9.87079 3.96505 9.87186 3.97201 9.87294C3.99892 9.85999 4.02582 9.84703 4.05272 9.83408ZM15.9766 10.0161C15.9335 9.9843 15.9154 9.96799 15.8947 9.9561C15.3251 9.62863 14.7554 9.30137 14.1854 8.97461C13.8186 8.76432 13.4361 8.58292 13.0292 8.47235C12.6898 8.38014 12.339 8.32741 11.991 8.27052C11.7941 8.23834 11.5929 8.23301 11.3864 8.21496C11.3833 8.26629 11.3801 8.29611 11.3801 8.32595C11.3787 8.85432 11.38 9.38271 11.3747 9.91103C11.3738 10.0038 11.4054 10.0232 11.4917 10.0231C12.9447 10.0212 14.3977 10.0224 15.8508 10.0227C15.8826 10.0227 15.9144 10.0194 15.9766 10.0161ZM10.6873 10.0165C10.6873 9.40941 10.6873 8.81224 10.6873 8.20964C10.6634 8.20821 10.6439 8.20567 10.6244 8.20608C10.0981 8.21706 9.57122 8.2324 9.05705 8.35782C8.70363 8.44403 8.35533 8.55112 8.00432 8.64734C7.93412 8.66659 7.91044 8.70538 7.91149 8.77936C7.91692 9.16169 7.91884 9.5441 7.91691 9.92646C7.91652 10.0046 7.9428 10.0224 8.01668 10.0222C8.86605 10.0204 9.71542 10.0219 10.5648 10.0221C10.6043 10.0221 10.6438 10.0185 10.6873 10.0165ZM7.22411 8.95214C6.99996 9.07353 6.7957 9.18229 6.5946 9.29661C6.5787 9.30564 6.57013 9.36459 6.58294 9.38104C6.65923 9.47897 6.7332 9.58241 6.82643 9.66246C6.93676 9.75718 7.06732 9.82641 7.22411 9.84081C7.22411 9.54473 7.22411 9.26231 7.22411 8.95214Z" fill="#B4B6B8"/>
<path d="M8.82405 13.4829C8.7928 13.2661 8.78405 13.043 8.72584 12.8337C8.58394 12.3234 8.28918 11.9066 7.86707 11.5881C7.1024 11.011 6.27125 10.9439 5.41059 11.3292C5.27292 11.3909 4.78212 11.6509 4.43406 12.2038C4.36676 12.3107 4.31945 12.4055 4.28817 12.4741C4.26069 12.5352 4.22705 12.6154 4.19326 12.7113C4.1677 12.7838 4.13659 12.8721 4.1098 12.9907C4.09382 13.0615 4.08189 13.1435 4.058 13.3074C4.04839 13.3734 4.04087 13.4283 4.03574 13.4665C3.71142 13.4682 3.38702 13.4748 3.06282 13.4693C2.93814 13.4672 2.8587 13.3741 2.79123 13.2779C2.70232 13.1511 2.67433 13.0054 2.67268 12.855C2.66945 12.5604 2.66804 12.2657 2.67421 11.9712C2.67523 11.922 2.70546 11.8572 2.74379 11.8274C3.14816 11.5121 3.37419 11.0845 3.52145 10.6074C3.54149 10.5425 3.56748 10.5183 3.6331 10.5232C4.09094 10.5577 4.49517 10.401 4.88497 10.1804C5.22 9.9907 5.5626 9.81443 5.88622 9.64062C6.03129 9.79544 6.15964 9.95776 6.31323 10.091C6.62079 10.3578 6.99725 10.4632 7.3909 10.5482C8.11064 10.7035 8.83715 10.6693 9.56291 10.6788C9.89761 10.6832 10.2324 10.6804 10.5672 10.6795C12.2486 10.6752 13.9301 10.6677 15.6116 10.667C16.4506 10.6666 17.2899 10.6676 18.1285 10.6899C18.4744 10.6991 18.8211 10.7521 19.1633 10.8098C19.6786 10.8967 20.1902 11.0052 20.7034 11.1049C20.7156 11.1073 20.7268 11.1148 20.7385 11.1199C20.7404 11.1363 20.7371 11.1561 20.7451 11.1688C20.9054 11.4236 21.067 11.6775 21.2284 11.9317C21.243 12.0767 21.3703 12.1606 21.4211 12.2861C21.426 12.2983 21.44 12.3073 21.4436 12.3196C21.5135 12.5583 21.6813 12.6122 21.9078 12.5806C22.0208 12.5648 22.1379 12.5739 22.2527 12.5797C22.278 12.5809 22.3226 12.6157 22.3227 12.6352C22.3234 12.7836 22.3295 12.9342 22.3066 13.0798C22.269 13.3195 22.1155 13.4661 21.8774 13.4797C21.6454 13.4929 21.4117 13.4773 21.1787 13.4744C21.1623 13.317 21.1581 13.157 21.1269 13.0026C21.0447 12.5962 20.8586 12.2359 20.5721 11.9389C20.2093 11.5628 19.7928 11.2672 19.2653 11.1576C18.5877 11.0169 17.9709 11.1575 17.4054 11.5449C16.9098 11.8844 16.6002 12.3577 16.4467 12.9313C16.3992 13.1088 16.3973 13.2985 16.3745 13.4826C16.3204 13.4842 16.2664 13.4872 16.2123 13.4872C14.2129 13.4873 12.2136 13.4873 10.2142 13.4868C9.75083 13.4866 9.28744 13.4842 8.82405 13.4829ZM12.1272 11.3797C12.2387 11.3797 12.3501 11.3801 12.4615 11.3795C12.6158 11.3788 12.7072 11.3009 12.707 11.1713C12.7069 11.0377 12.6106 10.9494 12.4604 10.9488C12.2508 10.9479 12.0413 10.9481 11.8317 10.9503C11.7919 10.9507 11.7509 10.9585 11.7126 10.9701C11.6272 10.996 11.5654 11.1083 11.578 11.2075C11.5889 11.2943 11.6661 11.3751 11.7532 11.3783C11.8777 11.383 12.0025 11.3795 12.1272 11.3797Z" fill="#B4B6B8"/>
<path d="M7.46565 13.501C7.48294 14.1217 6.97192 14.5191 6.4517 14.5164C5.87984 14.5133 5.41424 14.0709 5.41799 13.5243C5.42233 12.8915 5.86324 12.4642 6.43958 12.4688C7.01408 12.4733 7.46458 12.9033 7.46565 13.501Z" fill="#B4B6B8"/>
<path d="M19.8027 13.518C19.8223 14.009 19.3679 14.5184 18.7727 14.5102C18.2038 14.5024 17.744 14.0732 17.7664 13.4604C17.7866 12.9081 18.2153 12.478 18.758 12.4689C19.3883 12.4584 19.8176 12.9673 19.8027 13.518Z" fill="#B4B6B8"/>
<path d="M8.82534 13.4846C9.28873 13.486 9.75212 13.4884 10.2155 13.4885C12.2149 13.4891 14.2142 13.489 16.2136 13.4889C16.2676 13.4889 16.3217 13.486 16.3758 13.4844C16.4103 13.7101 16.4448 13.9358 16.4798 14.1654C13.9027 14.1654 11.3134 14.1654 8.73633 14.1654C8.76606 13.938 8.7957 13.7113 8.82534 13.4846Z" fill="#B4B6B8"/>
<path d="M12.129 11.3845C12.0043 11.3844 11.8795 11.3878 11.755 11.3832C11.6678 11.38 11.5907 11.2991 11.5797 11.2124C11.5672 11.1132 11.629 11.0009 11.7144 10.975C11.7527 10.9634 11.7937 10.9556 11.8335 10.9551C12.043 10.9529 12.2526 10.9527 12.4622 10.9536C12.6123 10.9543 12.7087 11.0426 12.7088 11.1762C12.709 11.3057 12.6176 11.3836 12.4633 11.3844C12.3519 11.385 12.2405 11.3845 12.129 11.3845Z" fill="#B4B6B8"/>
<path d="M22.3115 15.0853H19.5654C19.5646 15.0814 19.5637 15.0775 19.5629 15.0736C19.5821 15.0664 19.6014 15.0592 19.6207 15.0519C20.1058 14.793 20.3946 14.382 20.5306 13.8591C20.647 13.4115 20.5442 12.9942 20.3248 12.6002C20.1679 12.3182 19.945 12.0977 19.6554 11.9557C19.2782 11.7707 18.8798 11.6788 18.4586 11.7547C17.6938 11.8924 17.1706 12.4112 17.0255 13.198C16.8825 13.9729 17.3134 14.6644 17.9013 15.0349C17.9269 15.051 17.9565 15.0607 17.9817 15.0853H7.24964C7.37155 15.0002 7.51384 14.9284 7.61956 14.8206C8.08943 14.3418 8.3207 13.7737 8.17484 13.099C8.02581 12.4097 7.42324 11.8471 6.75241 11.7516C6.24732 11.6797 5.77418 11.7553 5.36209 12.0757C4.52994 12.7226 4.42076 13.8379 5.10574 14.6387C5.24759 14.8045 5.40433 14.9504 5.59959 15.0513C5.6223 15.0579 5.64502 15.0645 5.66774 15.0712C5.66713 15.0759 5.66653 15.0806 5.66593 15.0853H2.75851C2.55102 15.0853 2.38281 15.2535 2.38281 15.461V15.4654C2.38281 15.6729 2.55102 15.8411 2.75851 15.8411H22.3115C22.519 15.8411 22.6872 15.6729 22.6872 15.4654V15.461C22.6872 15.2535 22.519 15.0853 22.3115 15.0853ZM17.7678 13.4535C17.7879 12.9012 18.2166 12.471 18.7593 12.462C19.3896 12.4515 19.819 12.9604 19.8041 13.5111C19.8237 14.0021 19.3693 14.5115 18.7741 14.5033C18.2051 14.4955 17.7454 14.0663 17.7678 13.4535ZM5.41875 13.5147C5.42309 12.8819 5.864 12.4546 6.44034 12.4592C7.01484 12.4637 7.46535 12.8936 7.46641 13.4914C7.48371 14.112 6.97269 14.5095 6.45246 14.5067C5.8806 14.5037 5.41501 14.0613 5.41875 13.5147Z" fill="#B4B6B8"/>
</svg>
