<svg width="22" height="21" viewBox="0 0 22 21" fill="none" xmlns="http://www.w3.org/2000/svg">
<path fill-rule="evenodd" clip-rule="evenodd" d="M2.20205 6.49798C2.20205 6.25599 2.39999 6.05809 2.64194 6.05809H5.72119V9.57723H2.20205V6.49798ZM6.60098 6.05809H10.1201V9.57723H6.60098V6.05809ZM10.9999 6.05809H14.519V9.57723H10.9999V6.05809ZM15.3988 6.05809H18.3241C18.742 6.05809 19.1159 6.36596 19.1819 6.7838L19.6878 9.90715C19.7318 10.2371 19.7758 10.567 19.7758 10.8969H16.7185L15.3988 9.57723V6.05809ZM1.32227 6.05809V13.9762C1.32227 14.46 1.71817 14.8559 2.20205 14.8559H2.24604C2.22406 14.7239 2.20205 14.57 2.20205 14.416C2.20205 13.2063 3.19182 12.2166 4.40151 12.2166C5.61123 12.2166 6.60098 13.2063 6.60098 14.416C6.60098 14.57 6.579 14.7239 6.55699 14.8559H14.563C14.5411 14.7239 14.519 14.57 14.519 14.416C14.519 13.2063 15.5088 12.2166 16.7185 12.2166C17.9282 12.2166 18.918 13.2063 18.918 14.416C18.918 14.57 18.896 14.7239 18.874 14.8559H19.7978C20.2816 14.8559 20.6775 14.46 20.6775 13.9762V11.1608C20.6775 10.6989 20.6335 10.215 20.5676 9.75307L20.0617 6.60795C19.9077 5.77213 19.1819 5.15625 18.3241 5.15625H2.20205C1.71817 5.1783 1.32227 5.57409 1.32227 6.05809Z" fill="#B4B6B8"/>
<path fill-rule="evenodd" clip-rule="evenodd" d="M18.2589 14.4146C18.2589 15.2649 17.5696 15.9542 16.7193 15.9542C15.869 15.9542 15.1797 15.2649 15.1797 14.4146C15.1797 13.5643 15.869 12.875 16.7193 12.875C17.5696 12.875 18.2589 13.5643 18.2589 14.4146Z" fill="#B4B6B8"/>
<path fill-rule="evenodd" clip-rule="evenodd" d="M5.94058 14.4146C5.94058 15.2649 5.25128 15.9542 4.40095 15.9542C3.55063 15.9542 2.86133 15.2649 2.86133 14.4146C2.86133 13.5643 3.55063 12.875 4.40095 12.875C5.25128 12.875 5.94058 13.5643 5.94058 14.4146Z" fill="#B4B6B8"/>
</svg>
