<svg width="113" height="20" viewBox="0 0 113 20" fill="none" xmlns="http://www.w3.org/2000/svg">
<path d="M20.8895 7.48386C20.7195 6.96254 20.2687 6.58354 19.7255 6.50442L14.223 5.70487L11.7643 0.736734C11.2774 -0.245578 9.66836 -0.245578 9.18151 0.736734L6.72275 5.70487L1.23329 6.50442C0.691637 6.58354 0.240812 6.96386 0.0708685 7.48541C-0.0990748 8.0054 0.0421395 8.57733 0.435285 8.96031L4.41669 12.8409L3.47747 18.316C3.38532 18.8561 3.60719 19.4035 4.05072 19.7262C4.4958 20.0473 5.08497 20.0893 5.56894 19.8343L10.4723 17.2486L15.3901 19.8343C15.6005 19.9452 15.831 20 16.0599 20C16.358 20 16.6561 19.9063 16.9083 19.7264C17.352 19.4022 17.5737 18.8564 17.4816 18.3163L16.5439 12.8412L20.5253 8.96053C20.9184 8.57866 21.0594 8.0054 20.8895 7.48386Z" fill="#FFDE00"/>
<path d="M43.8504 7.48386C43.6805 6.96254 43.2296 6.58354 42.6864 6.50442L37.184 5.70487L34.7252 0.736734C34.2383 -0.245578 32.6293 -0.245578 32.1424 0.736734L29.6837 5.70487L24.1942 6.50442C23.6526 6.58354 23.2017 6.96386 23.0318 7.48541C22.8619 8.0054 23.0031 8.57733 23.3962 8.96031L27.3776 12.8409L26.4384 18.316C26.3463 18.8561 26.5681 19.4051 27.0117 19.7262C27.4554 20.0473 28.0459 20.0893 28.5299 19.8343L33.4333 17.2486L38.351 19.8343C38.5614 19.9452 38.7919 20 39.0208 20C39.319 20 39.6171 19.9063 39.8692 19.7264C40.313 19.4022 40.5346 18.8564 40.4425 18.3163L39.5048 12.8412L43.4862 8.96053C43.8794 8.57866 44.0204 8.0054 43.8504 7.48386Z" fill="#FFDE00"/>
<path d="M66.8094 7.48386C66.6395 6.96254 66.1886 6.58354 65.6454 6.50442L60.1429 5.70487L57.6842 0.736734C57.1973 -0.245578 55.5883 -0.245578 55.1014 0.736734L52.6427 5.70487L47.1532 6.50442C46.6116 6.58354 46.1607 6.96386 45.9908 7.48541C45.8208 8.0054 45.9621 8.57733 46.3552 8.96031L50.3366 12.8409L49.3974 18.316C49.3052 18.8561 49.5271 19.4035 49.9706 19.7262C50.4157 20.0473 51.0049 20.0893 51.4889 19.8343L56.392 17.2486L61.3098 19.8343C61.5202 19.9452 61.7507 20 61.9796 20C62.2777 20 62.5758 19.9063 62.828 19.7264C63.2718 19.4022 63.4934 18.8564 63.4013 18.3163L62.4636 12.8412L66.445 8.96053C66.8383 8.57866 66.9793 8.0054 66.8094 7.48386Z" fill="#FFDE00"/>
<path d="M89.7703 7.48386C89.6004 6.96254 89.1496 6.58354 88.6064 6.50442L83.1039 5.70487L80.6451 0.736734C80.1583 -0.245578 78.5492 -0.245578 78.0624 0.736734L75.6036 5.70487L70.1142 6.50442C69.5725 6.58354 69.1217 6.96386 68.9517 7.48541C68.7818 8.0054 68.923 8.57733 69.3161 8.96031L73.2975 12.8409L72.3583 18.316C72.2662 18.8561 72.4881 19.4035 72.9316 19.7262C73.3767 20.0473 73.9658 20.0893 74.4498 19.8343L79.353 17.2486L84.2707 19.8343C84.4811 19.9452 84.7116 20 84.9405 20C85.2387 20 85.5368 19.9063 85.7889 19.7264C86.2327 19.4022 86.4543 18.8564 86.3622 18.3163L85.4245 12.8412L89.4059 8.96053C89.7991 8.57866 89.9403 8.0054 89.7703 7.48386Z" fill="#FFDE00"/>
<path d="M112.73 7.48338C112.558 6.96209 112.109 6.58311 111.566 6.504L106.064 5.7045L103.605 0.736687C103.118 -0.245562 101.51 -0.245562 101.023 0.736687L98.5641 5.7045L93.075 6.504C92.5334 6.58311 92.0826 6.96341 91.9127 7.48492C91.7427 8.00488 91.8839 8.57678 92.2771 8.95973L96.2582 12.8401L95.319 18.3149C95.2269 18.8549 95.4488 19.4023 95.8923 19.7249C96.1428 19.9063 96.4396 19.9985 96.7377 19.9985C96.9682 19.9985 97.1987 19.9437 97.4117 19.8328L102.315 17.2473L107.234 19.8328C107.717 20.0906 108.305 20.0473 108.75 19.7234C109.193 19.4007 109.414 18.8549 109.322 18.3146L108.385 12.8399L112.366 8.95951C112.759 8.5781 112.899 8.00488 112.73 7.48338Z" fill="#E8E8E8"/>
</svg>
