<svg width="41" height="34" viewBox="0 0 41 34" fill="none" xmlns="http://www.w3.org/2000/svg">
<circle cx="22.6016" cy="16.0508" r="16" fill="#DCDCDC"/>
<g clip-path="url(#clip0_1138_107423)">
<path d="M26.6614 5.4375H7.33594V31.4271H26.6614V5.4375Z" fill="#DCDCDC"/>
<path d="M14.1772 18.7017C14.1772 13.2131 16.9102 8.36355 21.0888 5.4375H7.33594V31.4271H20.3618C16.5957 28.4641 14.1772 23.8654 14.1772 18.7017Z" fill="#88919A"/>
<path d="M15.0645 23.9961H19.6096V30.7962L17.8542 30.0935L15.3103 27.3021L15.0645 23.9961Z" fill="#B5B6B7"/>
<path d="M15.0647 23.9961H14.3867V31.4262H19.6099V30.7962C17.5619 28.9747 15.9804 26.6411 15.0647 23.9961Z" fill="#292D32"/>
<path d="M21.763 0.679688H12.252V10.1908H21.763V0.679688Z" fill="white"/>
<path d="M12.8584 12.9531H10.0977V15.7139H12.8584V12.9531Z" fill="#292D32"/>
<path d="M12.8584 18.4766H10.0977V21.2373H12.8584V18.4766Z" fill="#292D32"/>
<path d="M18.3799 12.9531H15.6191V15.7139H18.3799V12.9531Z" fill="#88919A"/>
<path d="M18.3799 18.4766H15.6191V21.2373H18.3799V18.4766Z" fill="#88919A"/>
<path d="M23.9014 12.9531H21.1406V15.7139H23.9014V12.9531Z" fill="#88919A"/>
<path d="M23.9014 18.4766H21.1406V21.2373H23.9014V18.4766Z" fill="#88919A"/>
<path d="M30.456 24.4156C30.7547 23.7763 30.7764 23.0134 30.4503 22.326C30.1691 21.7331 29.6803 21.3058 29.1124 21.0883C29.0935 19.7506 28.0039 18.6719 26.6618 18.6719C25.3197 18.6719 24.23 19.7506 24.2112 21.0883C23.6433 21.3058 23.1545 21.7331 22.8732 22.326C22.5471 23.0134 22.5689 23.7762 22.8676 24.4156C22.5557 24.8387 22.3711 25.3614 22.3711 25.9273C22.3711 27.3359 23.513 28.4778 24.9216 28.4778C25.5945 28.4778 26.2061 28.2168 26.6619 27.7911C27.1176 28.2168 27.7292 28.4778 28.4021 28.4778C29.8107 28.4778 30.9526 27.3359 30.9526 25.9273C30.9525 25.3614 30.7679 24.8387 30.456 24.4156Z" fill="#292D32"/>
<path d="M3.54155 24.4156C3.24288 23.7763 3.22111 23.0134 3.5472 22.326C3.82848 21.7331 4.3172 21.3058 4.88517 21.0883C4.90406 19.7506 5.99363 18.6719 7.33575 18.6719C8.67786 18.6719 9.7675 19.7506 9.78632 21.0883C10.3543 21.3058 10.843 21.7331 11.1243 22.326C11.4504 23.0134 11.4287 23.7762 11.1299 24.4156C11.4418 24.8387 11.6264 25.3614 11.6264 25.9273C11.6264 27.3359 10.4845 28.4778 9.07592 28.4778C8.40304 28.4778 7.79146 28.2168 7.33568 27.7911C6.8799 28.2168 6.26833 28.4778 5.59545 28.4778C4.18682 28.4778 3.04492 27.3359 3.04492 25.9273C3.04505 25.3614 3.22964 24.8387 3.54155 24.4156Z" fill="#292D32"/>
<path d="M18.3804 2.8125C18.0339 2.8125 17.753 3.09341 17.753 3.43995V4.73884H16.2471V3.43995C16.2471 3.09341 15.9662 2.8125 15.6196 2.8125C15.2731 2.8125 14.9922 3.09341 14.9922 3.43995V7.42947C14.9922 7.77601 15.2731 8.05692 15.6196 8.05692C15.9662 8.05692 16.2471 7.77601 16.2471 7.42947V5.99374H17.753V7.42947C17.753 7.77601 18.0339 8.05692 18.3804 8.05692C18.7269 8.05692 19.0079 7.77601 19.0079 7.42947V3.43995C19.0079 3.09341 18.7269 2.8125 18.3804 2.8125Z" fill="#566575"/>
<path d="M28.4023 29.1055C30.1546 29.1055 31.5802 27.6798 31.5802 25.9276C31.5802 25.3655 31.4353 24.8249 31.1586 24.3451C31.4075 23.5959 31.3603 22.7798 31.0174 22.0572C30.7355 21.4628 30.2778 20.982 29.7071 20.6727C29.5175 19.3982 28.5371 18.3727 27.2894 18.1105V6.06126H27.7863C28.1328 6.06126 28.4138 5.78035 28.4138 5.43381C28.4138 5.08727 28.1328 4.80636 27.7863 4.80636H22.3902V0.678232C22.3902 0.331691 22.1093 0.0507812 21.7628 0.0507812H12.2518C11.9052 0.0507812 11.6243 0.331691 11.6243 0.678232V4.80636H6.22823C5.88169 4.80636 5.60078 5.08727 5.60078 5.43381C5.60078 5.78035 5.88169 6.06126 6.22823 6.06126H6.70917V18.1105C5.46136 18.3725 4.48071 19.3982 4.2911 20.6728C3.72037 20.9821 3.26277 21.4629 2.98073 22.0573C2.63795 22.7799 2.59071 23.5959 2.83955 24.3452C2.56278 24.8249 2.41797 25.3655 2.41797 25.9276C2.41797 27.68 3.8436 29.1055 5.59588 29.1055C5.98057 29.1055 6.3566 29.0364 6.70892 28.9046V30.7959H4.39551C4.04896 30.7959 3.76805 31.0768 3.76805 31.4233C3.76805 31.7699 4.04896 32.0508 4.39551 32.0508H29.619C29.9655 32.0508 30.2465 31.7699 30.2465 31.4233C30.2465 31.0768 29.9655 30.7959 29.619 30.7959H27.2892V28.9045C27.6416 29.0363 28.0177 29.1055 28.4023 29.1055ZM12.8792 1.30568H21.1354V9.56187H12.8792V1.30568ZM7.33643 24.5519C6.98989 24.5519 6.70898 24.8328 6.70898 25.1793V27.4949C6.38522 27.7255 5.99833 27.8506 5.59595 27.8506C4.53562 27.8506 3.67293 26.9879 3.67293 25.9276C3.67293 25.5141 3.80231 25.1201 4.04702 24.7882C4.18343 24.6033 4.20777 24.3585 4.11046 24.1503C3.87911 23.655 3.88056 23.0883 4.11453 22.5952C4.3162 22.1701 4.66976 21.8431 5.11005 21.6744C5.3498 21.5826 5.50942 21.3541 5.513 21.0974C5.52699 20.1061 6.34487 19.2996 7.33618 19.2996C8.32749 19.2996 9.14537 20.1061 9.15943 21.0974C9.16307 21.3541 9.32269 21.5826 9.56238 21.6744C10.0027 21.8431 10.3562 22.17 10.5579 22.5952C10.7919 23.0882 10.7933 23.655 10.562 24.1503C10.4647 24.3585 10.489 24.6033 10.6254 24.7882C10.8701 25.1202 10.9995 25.5141 10.9995 25.9276C10.9995 26.9879 10.1368 27.8506 9.07648 27.8506C8.67428 27.8506 8.28758 27.7257 7.96394 27.4953V25.1793C7.96388 24.8328 7.68297 24.5519 7.33643 24.5519ZM26.0343 30.7959H7.96388V28.9047C8.31607 29.0364 8.69191 29.1055 9.07642 29.1055C10.8288 29.1055 12.2543 27.6798 12.2543 25.9276C12.2543 25.3655 12.1095 24.8249 11.8327 24.3451C12.0816 23.5959 12.0343 22.7798 11.6916 22.0573C11.4095 21.4629 10.9519 20.9821 10.3812 20.6728C10.1916 19.3985 9.21138 18.373 7.96401 18.1106V6.06126H11.6242V10.1893C11.6242 10.5359 11.9052 10.8168 12.2517 10.8168H21.7628C22.1093 10.8168 22.3902 10.5359 22.3902 10.1893V6.06126H26.0345V18.1105C24.7868 18.3727 23.8065 19.3983 23.617 20.6728C23.0462 20.9821 22.5886 21.4629 22.3066 22.0573C21.9638 22.7798 21.9166 23.5959 22.1654 24.3452C21.8886 24.8249 21.7438 25.3655 21.7438 25.9276C21.7438 27.68 23.1694 29.1055 24.9217 29.1055C25.3062 29.1055 25.6821 29.0364 26.0342 28.9047V30.7959H26.0343ZM26.6618 24.5519C26.3153 24.5519 26.0343 24.8328 26.0343 25.1793V27.4953C25.7107 27.7256 25.324 27.8506 24.9218 27.8506C23.8615 27.8506 22.9988 26.9879 22.9988 25.9276C22.9988 25.5142 23.1282 25.1202 23.3729 24.7882C23.5093 24.6032 23.5336 24.3585 23.4364 24.1503C23.205 23.655 23.2065 23.0882 23.4404 22.5952C23.6422 22.17 23.9957 21.843 24.4359 21.6744C24.6757 21.5826 24.8353 21.3541 24.8389 21.0973C24.8529 20.106 25.6707 19.2995 26.6621 19.2995C27.6535 19.2995 28.4714 20.1061 28.4854 21.0973C28.489 21.354 28.6486 21.5826 28.8884 21.6744C29.3286 21.843 29.6822 22.17 29.8838 22.5951C30.1178 23.0882 30.1192 23.655 29.8878 24.1502C29.7906 24.3584 29.8149 24.6031 29.9513 24.7881C30.196 25.1201 30.3254 25.5141 30.3254 25.9275C30.3254 26.9878 29.4627 27.8505 28.4024 27.8505C28 27.8505 27.6131 27.7255 27.2894 27.4949V25.1793C27.2892 24.8328 27.0083 24.5519 26.6618 24.5519Z" fill="#566575"/>
</g>
<defs>
<clipPath id="clip0_1138_107423">
<rect width="32" height="32" fill="white" transform="translate(1 0.0507812)"/>
</clipPath>
</defs>
</svg>
