<svg width="44" height="44" viewBox="0 0 44 44" fill="none" xmlns="http://www.w3.org/2000/svg">
<g clip-path="url(#clip0_1687_177045)">
<rect width="44" height="44" rx="6" fill="#E6EDF6"/>
<path d="M29.2461 14.0391H14.752V33.5312H29.2461V14.0391Z" fill="white"/>
<path d="M19.8829 23.9872C19.8829 19.8708 21.9326 16.2336 25.0666 14.0391H14.752V33.5312H24.5213C21.6968 31.309 19.8829 27.86 19.8829 23.9872Z" fill="#E6EDF6"/>
<path d="M20.5488 27.957H23.9577V33.0571L22.6412 32.5301L20.7332 30.4366L20.5488 27.957Z" fill="#E6EDF6"/>
<path d="M20.5476 27.957H20.0391V33.5296H23.9565V33.0571C22.4204 31.691 21.2343 29.9407 20.5476 27.957Z" fill="#014EA2"/>
<path d="M25.5708 10.4688H18.4375V17.6021H25.5708V10.4688Z" fill="white"/>
<path d="M18.8929 19.6719H16.8223V21.7425H18.8929V19.6719Z" fill="#014EA2"/>
<path d="M18.8929 23.8125H16.8223V25.8831H18.8929V23.8125Z" fill="#014EA2"/>
<path d="M23.0335 19.6719H20.9629V21.7425H23.0335V19.6719Z" fill="#9AB8DF"/>
<path d="M23.0335 23.8125H20.9629V25.8831H23.0335V23.8125Z" fill="#9AB8DF"/>
<path d="M27.1761 19.6719H25.1055V21.7425H27.1761V19.6719Z" fill="#9AB8DF"/>
<path d="M27.1761 23.8125H25.1055V25.8831H27.1761V23.8125Z" fill="#9AB8DF"/>
<path d="M32.091 28.2687C32.315 27.7892 32.3313 27.2171 32.0868 26.7015C31.8758 26.2568 31.5093 25.9364 31.0833 25.7732C31.0691 24.77 30.252 23.9609 29.2454 23.9609C28.2388 23.9609 27.4216 24.77 27.4074 25.7732C26.9815 25.9364 26.6149 26.2568 26.404 26.7015C26.1593 27.2171 26.1757 27.7892 26.3997 28.2687C26.1658 28.5861 26.0273 28.9781 26.0273 29.4025C26.0273 30.459 26.8838 31.3154 27.9402 31.3154C28.4449 31.3154 28.9036 31.1196 29.2454 30.8003C29.5872 31.1196 30.0459 31.3154 30.5506 31.3154C31.6071 31.3154 32.4635 30.459 32.4635 29.4025C32.4634 28.9781 32.3249 28.5861 32.091 28.2687Z" fill="white"/>
<path d="M11.9057 28.2687C11.6817 27.7892 11.6653 27.2171 11.9099 26.7015C12.1209 26.2568 12.4874 25.9364 12.9134 25.7732C12.9276 24.77 13.7447 23.9609 14.7513 23.9609C15.7579 23.9609 16.5751 24.77 16.5893 25.7732C17.0152 25.9364 17.3818 26.2568 17.5927 26.7015C17.8373 27.2171 17.821 27.7892 17.597 28.2687C17.8309 28.5861 17.9693 28.9781 17.9693 29.4025C17.9693 30.459 17.1129 31.3154 16.0564 31.3154C15.5518 31.3154 15.0931 31.1196 14.7513 30.8003C14.4094 31.1196 13.9508 31.3154 13.4461 31.3154C12.3896 31.3154 11.5332 30.459 11.5332 29.4025C11.5333 28.9781 11.6717 28.5861 11.9057 28.2687Z" fill="white"/>
<path d="M23.0334 12.0703C22.7735 12.0703 22.5628 12.281 22.5628 12.5409V13.5151H21.4334V12.5409C21.4334 12.281 21.2227 12.0703 20.9628 12.0703C20.7029 12.0703 20.4922 12.281 20.4922 12.5409V15.533C20.4922 15.7929 20.7029 16.0036 20.9628 16.0036C21.2227 16.0036 21.4334 15.7929 21.4334 15.533V14.4562H22.5628V15.533C22.5628 15.7929 22.7735 16.0036 23.0334 16.0036C23.2932 16.0036 23.504 15.7929 23.504 15.533V12.5409C23.504 12.281 23.2932 12.0703 23.0334 12.0703Z" fill="#014EA2"/>
<path d="M30.5507 31.791C31.865 31.791 32.9342 30.7218 32.9342 29.4076C32.9342 28.986 32.8255 28.5806 32.618 28.2208C32.8046 27.6589 32.7692 27.0468 32.5121 26.5048C32.3006 26.059 31.9574 25.6984 31.5293 25.4664C31.3872 24.5106 30.6518 23.7414 29.7161 23.5448V14.5079H30.0888C30.3486 14.5079 30.5593 14.2972 30.5593 14.0373C30.5593 13.7774 30.3486 13.5667 30.0888 13.5667H26.0417V10.4706C26.0417 10.2107 25.831 10 25.5711 10H18.4378C18.1779 10 17.9673 10.2107 17.9673 10.4706V13.5667H13.9202C13.6603 13.5667 13.4496 13.7774 13.4496 14.0373C13.4496 14.2972 13.6603 14.5079 13.9202 14.5079H14.2809V23.5448C13.345 23.7413 12.6096 24.5105 12.4673 25.4665C12.0393 25.6985 11.6961 26.0591 11.4846 26.5049C11.2275 27.0468 11.1921 27.6589 11.3787 28.2208C11.1711 28.5806 11.0625 28.986 11.0625 29.4076C11.0625 30.7219 12.1317 31.7911 13.4459 31.7911C13.7345 31.7911 14.0165 31.7392 14.2807 31.6403V33.0588H12.5457C12.2857 33.0588 12.0751 33.2695 12.0751 33.5294C12.0751 33.7893 12.2857 34 12.5457 34H31.4633C31.7232 34 31.9339 33.7893 31.9339 33.5294C31.9339 33.2695 31.7232 33.0588 31.4633 33.0588H29.716V31.6403C29.9802 31.7392 30.2623 31.791 30.5507 31.791ZM18.9084 10.9412H25.1006V17.1333H18.9084V10.9412ZM14.7513 28.3758C14.4914 28.3758 14.2808 28.5865 14.2808 28.8464V30.5831C14.0379 30.756 13.7478 30.8498 13.446 30.8498C12.6507 30.8498 12.0037 30.2028 12.0037 29.4076C12.0037 29.0975 12.1008 28.802 12.2843 28.5531C12.3866 28.4144 12.4049 28.2308 12.3319 28.0746C12.1584 27.7032 12.1594 27.2781 12.3349 26.9083C12.4862 26.5895 12.7513 26.3442 13.0816 26.2177C13.2614 26.1489 13.3811 25.9775 13.3838 25.7849C13.3943 25.0415 14.0077 24.4366 14.7512 24.4366C15.4946 24.4366 16.1081 25.0415 16.1186 25.7849C16.1213 25.9775 16.241 26.1489 16.4208 26.2177C16.751 26.3442 17.0161 26.5894 17.1674 26.9083C17.3429 27.2781 17.344 27.7032 17.1705 28.0746C17.0976 28.2308 17.1158 28.4144 17.2181 28.5531C17.4016 28.8021 17.4986 29.0975 17.4986 29.4076C17.4986 30.2028 16.8516 30.8498 16.0564 30.8498C15.7547 30.8498 15.4647 30.7562 15.222 30.5834V28.8464C15.2219 28.5865 15.0113 28.3758 14.7513 28.3758ZM28.7748 33.0588H15.2219V31.6404C15.4861 31.7392 15.768 31.791 16.0563 31.791C17.3706 31.791 18.4398 30.7218 18.4398 29.4076C18.4398 28.986 18.3312 28.5806 18.1236 28.2208C18.3102 27.6588 18.2748 27.0468 18.0177 26.5049C17.8062 26.0591 17.463 25.6985 17.0349 25.4665C16.8928 24.5108 16.1576 23.7416 15.222 23.5449V14.5079H17.9672V17.6039C17.9672 17.8638 18.1779 18.0745 18.4378 18.0745H25.5711C25.831 18.0745 26.0417 17.8638 26.0417 17.6039V14.5079H28.7749V23.5448C27.8392 23.7415 27.1039 24.5106 26.9617 25.4665C26.5337 25.6985 26.1905 26.0591 25.979 26.5049C25.7218 27.0467 25.6865 27.6588 25.873 28.2208C25.6655 28.5806 25.5569 28.9861 25.5569 29.4076C25.5569 30.7219 26.6261 31.7911 27.9403 31.7911C28.2287 31.7911 28.5106 31.7392 28.7747 31.6405V33.0588H28.7748ZM29.2454 28.3758C28.9855 28.3758 28.7748 28.5865 28.7748 28.8464V30.5834C28.5321 30.7561 28.242 30.8498 27.9404 30.8498C27.1451 30.8498 26.4981 30.2028 26.4981 29.4076C26.4981 29.0976 26.5952 28.8021 26.7787 28.553C26.881 28.4143 26.8993 28.2308 26.8263 28.0746C26.6528 27.7032 26.6539 27.2781 26.8293 26.9083C26.9807 26.5894 27.2458 26.3442 27.576 26.2177C27.7558 26.1489 27.8755 25.9775 27.8782 25.7849C27.8887 25.0414 28.5021 24.4366 29.2456 24.4366C29.9891 24.4366 30.6025 25.0415 30.613 25.7849C30.6158 25.9774 30.7355 26.1488 30.9153 26.2177C31.2455 26.3442 31.5106 26.5894 31.6619 26.9082C31.8374 27.2781 31.8385 27.7032 31.6649 28.0746C31.592 28.2307 31.6102 28.4143 31.7125 28.553C31.8961 28.802 31.9931 29.0975 31.9931 29.4075C31.9931 30.2028 31.3461 30.8498 30.5508 30.8498C30.249 30.8498 29.9589 30.756 29.7161 30.5831V28.8464C29.716 28.5865 29.5052 28.3758 29.2454 28.3758Z" fill="#014EA2"/>
</g>
<defs>
<clipPath id="clip0_1687_177045">
<rect width="44" height="44" rx="6" fill="white"/>
</clipPath>
</defs>
</svg>
