<svg width="24" height="24" viewBox="0 0 24 24" fill="none" xmlns="http://www.w3.org/2000/svg">
<rect width="24" height="24" rx="12" fill="#E8E8E8" fill-opacity="0.5"/>
<path d="M6.75551 16.9028C6.69299 16.9071 6.63471 16.9359 6.59348 16.9831C6.55226 17.0303 6.53147 17.092 6.53569 17.1545L6.59294 18.0059C6.59698 18.0657 6.62353 18.1216 6.66724 18.1625C6.71095 18.2034 6.76855 18.2262 6.82842 18.2263H6.84461C6.90713 18.2221 6.96541 18.1932 7.00664 18.146C7.04786 18.0988 7.06865 18.0371 7.06443 17.9746L7.00718 17.124C7.00316 17.0613 6.9744 17.0028 6.92723 16.9613C6.88006 16.9199 6.81835 16.8988 6.75567 16.9028H6.75551Z" fill="#2E363D"/>
<path d="M18.6041 19.7157L17.772 15.7149C17.7537 14.6024 16.8474 13.7098 15.7348 13.7084H15.6943V13.0776C15.6942 13.0209 15.6737 12.9661 15.6365 12.9234C15.5993 12.8806 15.5479 12.8526 15.4918 12.8447V4.64153C15.492 4.55729 15.4754 4.47385 15.4431 4.39605C15.4109 4.31825 15.3635 4.24762 15.3037 4.18826C15.0536 3.93763 14.6477 3.93719 14.3971 4.18728C14.3374 4.24688 14.29 4.31768 14.2577 4.39564C14.2254 4.47359 14.2088 4.55715 14.2088 4.64153V12.8446C14.1527 12.8526 14.1013 12.8805 14.0641 12.9233C14.0269 12.9661 14.0064 13.0209 14.0063 13.0776V13.7084H13.9645C13.5108 13.7083 13.0703 13.8605 12.7134 14.1404L12.7898 13.0127C13.1262 12.9052 13.3117 12.5453 13.2041 12.2089C13.1627 12.0795 13.0812 11.9666 12.9713 11.8866C12.8614 11.8067 12.7289 11.7638 12.5929 11.7642H5.6394C5.28624 11.7643 4.99997 12.0506 5 12.4037C5.00002 12.5393 5.0431 12.6713 5.12303 12.7808C5.20296 12.8902 5.3156 12.9715 5.4447 13.0127L5.84976 19.0233C5.88743 19.5721 6.34282 19.9985 6.89294 20H18.3737C18.4088 20 18.4434 19.9922 18.4752 19.9771C18.5069 19.9621 18.5348 19.9401 18.557 19.9129C18.5791 19.8856 18.5949 19.8538 18.6032 19.8197C18.6115 19.7855 18.6121 19.75 18.605 19.7156L18.6041 19.7157ZM14.8502 4.47276C14.8948 4.47298 14.9376 4.49078 14.9693 4.52232C14.985 4.53792 14.9975 4.55648 15.006 4.57694C15.0146 4.59741 15.019 4.61936 15.0189 4.64153V12.8413H14.6814V4.64153C14.6814 4.59678 14.6992 4.55387 14.7309 4.52222C14.7625 4.49058 14.8054 4.47279 14.8502 4.47276ZM14.4789 13.3139H15.2215V13.7084H14.4789V13.3139ZM13.9644 14.1809H15.7348C16.5081 14.182 17.1652 14.7464 17.2829 15.5106H12.4163C12.534 14.7464 13.1912 14.182 13.9644 14.1809ZM14.0319 15.9832L13.8757 19.5274H13.0073L13.4493 15.9832H14.0319ZM14.5045 15.9832H15.1931L15.3491 19.5274H14.349L14.5045 15.9832ZM15.6657 15.9832H16.2484L16.6904 19.5274H15.8228L15.6657 15.9832ZM5.63981 12.2364H12.5933C12.6381 12.2364 12.681 12.2542 12.7127 12.2858C12.7443 12.3175 12.7621 12.3604 12.7621 12.4052C12.7621 12.4499 12.7443 12.4929 12.7127 12.5245C12.681 12.5562 12.6381 12.5739 12.5933 12.5739H5.63981C5.59505 12.5739 5.55213 12.5562 5.52048 12.5245C5.48883 12.4929 5.47104 12.4499 5.47104 12.4052C5.47104 12.3604 5.48883 12.3175 5.52048 12.2858C5.55213 12.2542 5.59505 12.2364 5.63981 12.2364ZM12.2558 13.0465C11.9571 14.2332 10.8919 15.0664 9.66812 15.0704H8.54205C7.31676 15.072 6.24898 14.2362 5.956 13.0465H12.2558ZM6.32043 18.9917L6.00111 14.2479C6.09821 14.3817 6.20562 14.5077 6.32233 14.6248C6.61332 14.9167 6.95924 15.1481 7.34012 15.3057C7.721 15.4633 8.12932 15.5439 8.54151 15.5429H9.66758C10.1715 15.5412 10.6676 15.4187 11.1144 15.1856C11.5611 14.9524 11.9454 14.6155 12.235 14.2031L12.1992 14.7309C12.0264 15.0298 11.9329 15.3679 11.9277 15.7132L11.134 19.5275H6.89211C6.5905 19.5265 6.34092 19.2926 6.32043 18.9917ZM12.354 15.9832H12.9731L12.5312 19.5274H11.6167L12.354 15.9832ZM17.1678 19.5274L16.7257 15.9832H17.3449L18.0824 19.5274H17.1678Z" fill="#2E363D"/>
</svg>
