<svg width="40" height="34" viewBox="0 0 40 34" fill="none" xmlns="http://www.w3.org/2000/svg">
<circle cx="22.1016" cy="16.0508" r="16" fill="#DCDCDC"/>
<path d="M19.9858 2.60156H6.44955C5.95208 2.60156 5.54883 3.00482 5.54883 3.50228V28.6028C5.54883 29.1003 5.95208 29.5035 6.44955 29.5035H26.0619C26.5594 29.5035 26.9626 29.1003 26.9626 28.6028V9.57839C26.9626 9.33084 26.8643 9.09344 26.6893 8.91842L20.6458 2.87492C20.4707 2.69989 20.2333 2.60156 19.9858 2.60156Z" fill="#DCDCDC"/>
<path d="M9.40904 16.0115C9.40904 11.0946 10.7954 6.50169 13.198 2.60156H6.44955C5.95208 2.60156 5.54883 3.00482 5.54883 3.50228V28.6028C5.54883 29.1003 5.95208 29.5035 6.44955 29.5035H13.2485C10.8148 25.5859 9.40904 20.9629 9.40904 16.0115Z" fill="#88919A"/>
<path d="M16.2551 19.2134L13.8885 17.6578C11.9917 16.4109 10.8496 14.2933 10.8496 12.0234V6.94959C14.2304 5.15743 18.2798 5.15743 21.6606 6.94959V12.0235C21.6606 14.2934 20.5184 16.411 18.6216 17.6578L16.2551 19.2134Z" fill="white"/>
<path d="M26.69 8.91948L20.6464 2.87592C20.5667 2.79621 20.4737 2.73334 20.373 2.6875V8.37304C20.373 8.82581 20.7401 9.19283 21.1928 9.19283H26.8784C26.8325 9.0922 26.7696 8.99914 26.69 8.91948Z" fill="#566575"/>
<path d="M18.7511 9.95319C18.504 9.77751 18.1612 9.83532 17.9855 10.0824L15.9293 12.9735L14.8113 11.7524C14.6066 11.5288 14.2593 11.5134 14.0357 11.7182C13.8121 11.923 13.7968 12.2703 14.0015 12.4939L15.5781 14.2159C15.6824 14.3298 15.8296 14.3942 15.983 14.3942C15.9943 14.3942 16.0056 14.3938 16.0168 14.3931C16.1824 14.3828 16.3343 14.2984 16.4305 14.1633L18.8803 10.7188C19.056 10.4717 18.9982 10.129 18.7511 9.95319Z" fill="#566575"/>
<path d="M27.0777 8.52844L21.0342 2.485C20.7542 2.205 20.382 2.05078 19.986 2.05078H6.4498C5.65037 2.05078 5 2.70115 5 3.50052V28.601C5 29.4005 5.65037 30.0508 6.44974 30.0508H26.0621C26.8615 30.0508 27.5118 29.4004 27.5118 28.601V9.57663C27.5119 9.18073 27.3577 8.8085 27.0777 8.52844ZM25.6374 8.64105H21.1924C21.0431 8.64105 20.9216 8.51961 20.9216 8.37027V3.9253L25.6374 8.64105ZM21.1124 9.73656V12.023C21.1124 14.1147 20.0689 16.0495 18.3209 17.1986L16.2559 18.556L14.191 17.1985C12.443 16.0495 11.3995 14.1147 11.3995 12.0229V7.28497C14.0236 5.99247 17.0576 5.79998 19.8236 6.7494V8.37033C19.8236 9.09816 20.3947 9.695 21.1124 9.73656ZM26.0621 28.9527H6.4498C6.25588 28.9527 6.09809 28.795 6.09809 28.601V3.50052C6.09809 3.30661 6.25588 3.14882 6.4498 3.14882H19.8236V5.59498C16.7646 4.65 13.4404 4.95471 10.5933 6.46397C10.4137 6.55911 10.3014 6.74578 10.3014 6.94902V12.0229C10.3014 14.4855 11.53 16.7634 13.5878 18.116L15.9544 19.6717C16.0459 19.7318 16.1509 19.7619 16.2559 19.7619C16.361 19.7619 16.466 19.7318 16.5575 19.6717L18.9241 18.116C20.9819 16.7633 22.2104 14.4855 22.2104 12.0229V9.73903H26.4139V28.601C26.4139 28.795 26.2561 28.9527 26.0621 28.9527Z" fill="#566575"/>
<path d="M9.89574 25.0547H8.74824C8.44501 25.0547 8.19922 25.3005 8.19922 25.6037C8.19922 25.9069 8.44501 26.1527 8.74824 26.1527H9.89574C10.199 26.1527 10.4448 25.9069 10.4448 25.6037C10.4448 25.3005 10.199 25.0547 9.89574 25.0547Z" fill="#566575"/>
<path d="M9.89574 21.4297H8.74824C8.44501 21.4297 8.19922 21.6755 8.19922 21.9787C8.19922 22.2819 8.44501 22.5277 8.74824 22.5277H9.89574C10.199 22.5277 10.4448 22.2819 10.4448 21.9787C10.4448 21.6755 10.199 21.4297 9.89574 21.4297Z" fill="#566575"/>
<path d="M23.7585 21.4297H12.758C12.4548 21.4297 12.209 21.6755 12.209 21.9787C12.209 22.2819 12.4548 22.5277 12.758 22.5277H23.7585C24.0618 22.5277 24.3076 22.2819 24.3076 21.9787C24.3076 21.6755 24.0618 21.4297 23.7585 21.4297Z" fill="#566575"/>
<path d="M23.7585 25.0547H12.758C12.4548 25.0547 12.209 25.3005 12.209 25.6037C12.209 25.9069 12.4548 26.1527 12.758 26.1527H23.7585C24.0618 26.1527 24.3076 25.9069 24.3076 25.6037C24.3076 25.3005 24.0618 25.0547 23.7585 25.0547Z" fill="#566575"/>
</svg>
