<svg width="20" height="10" viewBox="0 0 20 10" fill="none" xmlns="http://www.w3.org/2000/svg">
<path d="M2.57565 5.0013C2.57565 3.4338 3.84982 2.15964 5.41732 2.15964H9.08398V0.417969H5.41732C2.88732 0.417969 0.833984 2.4713 0.833984 5.0013C0.833984 7.5313 2.88732 9.58464 5.41732 9.58464H9.08398V7.84297H5.41732C3.84982 7.84297 2.57565 6.5688 2.57565 5.0013ZM6.33398 5.91797H13.6673V4.08464H6.33398V5.91797ZM14.584 0.417969H10.9173V2.15964H14.584C16.1515 2.15964 17.4257 3.4338 17.4257 5.0013C17.4257 6.5688 16.1515 7.84297 14.584 7.84297H10.9173V9.58464H14.584C17.114 9.58464 19.1673 7.5313 19.1673 5.0013C19.1673 2.4713 17.114 0.417969 14.584 0.417969Z" fill="#566575"/>
</svg>
