<svg width="11" height="22" viewBox="0 0 11 22" fill="none" xmlns="http://www.w3.org/2000/svg">
<path d="M9.12435 5.5013V16.043C9.12435 18.0688 7.48352 19.7096 5.45768 19.7096C3.43185 19.7096 1.79102 18.0688 1.79102 16.043V4.58464C1.79102 3.31964 2.81768 2.29297 4.08268 2.29297C5.34768 2.29297 6.37435 3.31964 6.37435 4.58464V14.2096C6.37435 14.7138 5.96185 15.1263 5.45768 15.1263C4.95352 15.1263 4.54102 14.7138 4.54102 14.2096V5.5013H3.16602V14.2096C3.16602 15.4746 4.19268 16.5013 5.45768 16.5013C6.72268 16.5013 7.74935 15.4746 7.74935 14.2096V4.58464C7.74935 2.5588 6.10852 0.917969 4.08268 0.917969C2.05685 0.917969 0.416016 2.5588 0.416016 4.58464V16.043C0.416016 18.8296 2.67102 21.0846 5.45768 21.0846C8.24435 21.0846 10.4993 18.8296 10.4993 16.043V5.5013H9.12435Z" fill="#566575"/>
</svg>
