<svg width="23" height="24" viewBox="0 0 23 24" fill="none" xmlns="http://www.w3.org/2000/svg">
<path d="M15.8101 15.8419C15.3148 15.7223 15.1347 16.4637 15.6246 16.5863C17.3112 17.0065 18.4007 17.6704 18.4007 18.2776C18.4007 19.2942 15.4498 20.4304 11.5007 20.4304C7.55155 20.4304 4.60065 19.2942 4.60065 18.2776C4.60065 17.6704 5.69008 17.0057 7.37675 16.5856C7.86742 16.4629 7.68572 15.7215 7.19122 15.8411C5.02615 16.3816 3.83398 17.2472 3.83398 18.2776C3.83398 20.1743 7.78385 21.1971 11.5007 21.1971C15.2175 21.1971 19.1673 20.1743 19.1673 18.2776C19.1673 17.2472 17.9752 16.3816 15.8101 15.8419Z" fill="#88919A"/>
<path d="M11.5012 10.4672C12.7692 10.4672 13.8012 9.43525 13.8012 8.16719C13.8012 6.89912 12.7692 5.86719 11.5012 5.86719C10.2331 5.86719 9.20117 6.89912 9.20117 8.16719C9.20117 9.43525 10.2331 10.4672 11.5012 10.4672ZM11.5012 6.63385C12.3468 6.63385 13.0345 7.32155 13.0345 8.16719C13.0345 9.01282 12.3468 9.70052 11.5012 9.70052C10.6555 9.70052 9.96784 9.01282 9.96784 8.16719C9.96784 7.32155 10.6555 6.63385 11.5012 6.63385Z" fill="#88919A"/>
<path d="M18.4533 9.90214C19.4024 8.94534 19.4024 7.38824 18.4533 6.43144C18.0968 6.0711 17.5517 6.61084 17.9089 6.97117C18.5629 7.6305 18.5629 8.70307 17.9089 9.3624C17.5471 9.72734 18.1014 10.2571 18.4533 9.90214Z" fill="#88919A"/>
<path d="M5.09017 9.36286C4.43697 8.70352 4.43697 7.63019 5.09017 6.97085C5.44667 6.61052 4.90387 6.07156 4.54583 6.43112C3.5967 7.38792 3.5967 8.94502 4.54583 9.90182C4.90233 10.2622 5.44743 9.72319 5.09017 9.36286Z" fill="#88919A"/>
<path d="M20.0314 4.66572C19.6741 4.30538 19.1305 4.84588 19.487 5.20545C21.1009 6.83462 21.1009 9.48575 19.487 11.1149C19.1252 11.4798 19.6795 12.0096 20.0314 11.6546C21.9411 9.72802 21.9411 6.59235 20.0314 4.66572Z" fill="#88919A"/>
<path d="M2.96886 4.6655C1.05986 6.59213 1.05986 9.7278 2.96886 11.6544C3.32076 12.0094 3.87506 11.4796 3.51319 11.1147C1.89936 9.48553 1.89936 6.8344 3.51319 5.20523C3.86969 4.8449 3.32536 4.30593 2.96886 4.6655Z" fill="#88919A"/>
<path d="M11.1637 18.6983C11.3086 18.9628 11.6896 18.9636 11.8353 18.6983C15.7345 11.2325 16.8661 10.4727 16.8661 8.16354C16.8661 5.20421 14.4588 2.79688 11.4995 2.79688C8.54015 2.79688 6.13281 5.20421 6.13281 8.16354C6.13281 10.4743 7.20998 11.1275 11.1637 18.6983ZM11.4995 3.56354C14.0364 3.56354 16.0995 5.62664 16.0995 8.16354C16.0995 10.1622 15.1856 10.6736 11.4995 17.7177C7.81718 10.682 6.89948 10.163 6.89948 8.16354C6.89948 5.62664 8.96258 3.56354 11.4995 3.56354Z" fill="#88919A"/>
</svg>
