<svg width="24" height="24" viewBox="0 0 24 24" fill="none" xmlns="http://www.w3.org/2000/svg">
<path d="M12.0009 14.1714C9.87086 14.1714 8.13086 12.4414 8.13086 10.3014C8.13086 8.16141 9.87086 6.44141 12.0009 6.44141C14.1309 6.44141 15.8709 8.17141 15.8709 10.3114C15.8709 12.4514 14.1309 14.1714 12.0009 14.1714ZM12.0009 7.94141C10.7009 7.94141 9.63086 9.00141 9.63086 10.3114C9.63086 11.6214 10.6909 12.6814 12.0009 12.6814C13.3109 12.6814 14.3709 11.6214 14.3709 10.3114C14.3709 9.00141 13.3009 7.94141 12.0009 7.94141Z" fill="#014EA2"/>
<path d="M11.9997 22.76C10.5197 22.76 9.02969 22.2 7.86969 21.09C4.91969 18.25 1.65969 13.72 2.88969 8.33C3.99969 3.44 8.26969 1.25 11.9997 1.25C11.9997 1.25 11.9997 1.25 12.0097 1.25C15.7397 1.25 20.0097 3.44 21.1197 8.34C22.3397 13.73 19.0797 18.25 16.1297 21.09C14.9697 22.2 13.4797 22.76 11.9997 22.76ZM11.9997 2.75C9.08969 2.75 5.34969 4.3 4.35969 8.66C3.27969 13.37 6.23969 17.43 8.91969 20C10.6497 21.67 13.3597 21.67 15.0897 20C17.7597 17.43 20.7197 13.37 19.6597 8.66C18.6597 4.3 14.9097 2.75 11.9997 2.75Z" fill="#014EA2"/>
</svg>
