<svg width="16" height="16" viewBox="0 0 16 16" fill="none" xmlns="http://www.w3.org/2000/svg">
<path d="M7.99992 9.4463C6.57992 9.4463 5.41992 8.29297 5.41992 6.8663C5.41992 5.43964 6.57992 4.29297 7.99992 4.29297C9.41992 4.29297 10.5799 5.4463 10.5799 6.87297C10.5799 8.29964 9.41992 9.4463 7.99992 9.4463ZM7.99992 5.29297C7.13326 5.29297 6.41992 5.99964 6.41992 6.87297C6.41992 7.7463 7.12659 8.45297 7.99992 8.45297C8.87326 8.45297 9.57992 7.7463 9.57992 6.87297C9.57992 5.99964 8.86659 5.29297 7.99992 5.29297Z" fill="#161C22"/>
<path d="M7.99914 15.172C7.01247 15.172 6.01914 14.7987 5.24581 14.0587C3.27914 12.1654 1.10581 9.14536 1.92581 5.55203C2.66581 2.29203 5.51247 0.832031 7.99914 0.832031C7.99914 0.832031 7.99914 0.832031 8.00581 0.832031C10.4925 0.832031 13.3391 2.29203 14.0791 5.5587C14.8925 9.15203 12.7191 12.1654 10.7525 14.0587C9.97914 14.7987 8.98581 15.172 7.99914 15.172ZM7.99914 1.83203C6.05914 1.83203 3.56581 2.86536 2.90581 5.77203C2.18581 8.91203 4.15914 11.6187 5.94581 13.332C7.09914 14.4454 8.90581 14.4454 10.0591 13.332C11.8391 11.6187 13.8125 8.91203 13.1058 5.77203C12.4391 2.86536 9.93914 1.83203 7.99914 1.83203Z" fill="#161C22"/>
</svg>
