<svg width="17" height="16" viewBox="0 0 17 16" fill="none" xmlns="http://www.w3.org/2000/svg">
<path d="M8.00002 14.6667H1.99999C1.63198 14.6667 1.33334 14.368 1.33334 14V2.00002C1.33334 1.63202 1.63202 1.33337 1.99999 1.33337H8.00002C8.36868 1.33337 8.66667 1.03538 8.66667 0.666715C8.66667 0.298053 8.36868 0 8.00002 0H1.99999C0.897325 0 0 0.897356 0 2.00002V14C0 15.1027 0.897325 16 1.99999 16H8.00002C8.36868 16 8.66667 15.702 8.66667 15.3333C8.66667 14.9647 8.36868 14.6667 8.00002 14.6667Z" fill="#566575"/>
<path d="M15.8553 7.52787L11.802 3.52787C11.5406 3.26919 11.118 3.27255 10.8593 3.53455C10.6006 3.79654 10.6033 4.21854 10.866 4.47721L13.7626 7.33586H6.00064C5.63197 7.33586 5.33398 7.63385 5.33398 8.00251C5.33398 8.37118 5.63197 8.6692 6.00064 8.6692H13.7626L10.866 11.5279C10.6033 11.7865 10.6013 12.2085 10.8593 12.4705C10.9213 12.5334 10.9952 12.5834 11.0767 12.6175C11.1582 12.6516 11.2456 12.6692 11.334 12.6692C11.5033 12.6692 11.6726 12.6052 11.802 12.4772L15.8553 8.47715C15.9182 8.4151 15.9681 8.34119 16.0022 8.25972C16.0363 8.17824 16.0539 8.09081 16.054 8.00248C16.054 7.82389 15.9826 7.65389 15.8553 7.52787Z" fill="#566575"/>
</svg>
