<svg width="250" height="581" viewBox="0 0 250 581" fill="none" xmlns="http://www.w3.org/2000/svg">
<path d="M28 42.6515C28 34.1664 33.0746 26.5276 40.8965 23.485C74.3105 10.4877 101.185 3.85644 127.319 3.70764C153.428 3.55899 179.043 9.87931 209.933 23.1686C217.315 26.3447 222 33.7473 222 41.9046V556.705C222 568.303 212.598 577.705 201 577.705H49C37.402 577.705 28 568.303 28 556.705V42.6515Z" fill="white" stroke="#EDEDED" stroke-width="6"/>
<path d="M250 56.5211C250 55.7405 249.254 55.1017 248.343 55.1017H242.067V49.1657C242.067 41.6828 234.842 39.7051 231.023 39.7051H219.275V42.1103H231.019C231.862 42.1151 239.259 42.3523 239.259 49.1657V55.1017H233.281C232.37 55.1017 231.625 55.7405 231.625 56.5211C231.625 57.3017 232.37 57.9412 233.281 57.9412H248.343C249.254 57.9412 250 57.3024 250 56.5211Z" fill="#B4B6B8"/>
<path d="M0.00164795 56.5211C0.00164795 55.7405 0.747353 55.1017 1.65856 55.1017H7.93514V49.1657C7.93514 41.6828 15.1596 39.7051 18.9787 39.7051H30.7266V42.1103H18.9827C18.14 42.1151 10.7428 42.3523 10.7428 49.1657V55.1017H16.7202C17.6314 55.1017 18.3771 55.7405 18.3771 56.5211C18.3771 57.3017 17.6314 57.9412 16.7202 57.9412H1.65856C0.747353 57.9412 0.00164795 57.3024 0.00164795 56.5211Z" fill="#B4B6B8"/>
<line x1="47.75" y1="106.955" x2="202.25" y2="106.955" stroke="#B4B6B8" stroke-width="1.5" stroke-linecap="round" stroke-linejoin="round" stroke-dasharray="5 5"/>
<path d="M150.908 157.252C154.751 157.252 158.528 156.651 161.829 155.515C162.681 155.222 163.125 154.317 162.821 153.495C162.582 152.848 161.951 152.444 161.279 152.444L140.536 152.445C139.863 152.445 139.233 152.848 138.994 153.495C138.69 154.317 139.135 155.222 139.986 155.515C143.287 156.651 147.064 157.252 150.908 157.252Z" fill="#D17F99"/>
<path d="M139.449 130.91V147.499C139.449 149.62 141.037 151.411 143.179 151.729C145.561 152.082 148.172 152.277 150.912 152.277C153.652 152.277 156.264 152.082 158.646 151.729C160.788 151.411 162.376 149.62 162.376 147.499V130.91C162.376 129.14 160.909 127.705 159.101 127.705H142.724C140.916 127.705 139.449 129.14 139.449 130.91Z" fill="#F9AAC3"/>
<path d="M137.06 150.352C136.306 150.352 135.695 149.754 135.695 149.016V136.73C135.695 135.992 136.306 135.395 137.06 135.395C137.814 135.395 138.425 135.992 138.425 136.73V149.016C138.425 149.754 137.814 150.352 137.06 150.352Z" fill="#5D5360"/>
<path d="M164.755 150.352C164.002 150.352 163.391 149.754 163.391 149.016V136.73C163.391 135.992 164.002 135.395 164.755 135.395C165.509 135.395 166.12 135.992 166.12 136.73V149.016C166.12 149.754 165.509 150.352 164.755 150.352Z" fill="#5D5360"/>
<path d="M186.972 157.705C190.763 157.705 194.487 157.095 197.742 155.941C198.582 155.644 199.021 154.726 198.721 153.89C198.485 153.234 197.863 152.824 197.2 152.824L176.744 152.824C176.08 152.824 175.458 153.233 175.223 153.89C174.924 154.726 175.362 155.644 176.202 155.941C179.457 157.095 183.181 157.705 186.972 157.705Z" fill="#D17F99"/>
<path d="M175.672 130.959V147.803C175.672 149.956 177.238 151.775 179.351 152.097C181.699 152.456 184.275 152.654 186.977 152.654C189.679 152.654 192.254 152.456 194.603 152.097C196.716 151.775 198.282 149.956 198.282 147.803V130.959C198.282 129.162 196.836 127.705 195.052 127.705H178.902C177.118 127.705 175.672 129.162 175.672 130.959Z" fill="#F9AAC3"/>
<path d="M173.315 150.698C172.571 150.698 171.969 150.091 171.969 149.342V136.868C171.969 136.119 172.571 135.512 173.315 135.512C174.058 135.512 174.66 136.119 174.66 136.868V149.342C174.66 150.091 174.058 150.698 173.315 150.698Z" fill="#5D5360"/>
<path d="M200.623 150.698C199.88 150.698 199.277 150.091 199.277 149.342V136.868C199.277 136.119 199.88 135.512 200.623 135.512C201.366 135.512 201.969 136.119 201.969 136.868V149.342C201.969 150.091 201.366 150.698 200.623 150.698Z" fill="#5D5360"/>
<path d="M62.2122 157.252C66.0561 157.252 69.8325 156.651 73.1334 155.515C73.9853 155.222 74.4296 154.317 74.1258 153.495C73.8869 152.848 73.2561 152.444 72.5833 152.444L51.8411 152.445C51.1679 152.445 50.5373 152.848 50.2987 153.495C49.9949 154.317 50.4392 155.222 51.291 155.515C54.5919 156.651 58.3684 157.252 62.2122 157.252Z" fill="#D17F99"/>
<path d="M50.7539 130.91V147.499C50.7539 149.62 52.3418 151.411 54.4841 151.729C56.8657 152.082 59.4772 152.277 62.2171 152.277C64.9571 152.277 67.5686 152.082 69.9503 151.729C72.0925 151.411 73.6804 149.62 73.6804 147.499V130.91C73.6804 129.14 72.214 127.705 70.4052 127.705H54.0291C52.2202 127.705 50.7539 129.14 50.7539 130.91Z" fill="#F9AAC3"/>
<path d="M48.3647 150.352C47.611 150.352 47 149.754 47 149.016V136.73C47 135.992 47.611 135.395 48.3647 135.395C49.1184 135.395 49.7293 135.992 49.7293 136.73V149.016C49.7293 149.754 49.1184 150.352 48.3647 150.352Z" fill="#5D5360"/>
<path d="M76.0561 150.352C75.3024 150.352 74.6914 149.754 74.6914 149.016V136.73C74.6914 135.992 75.3024 135.395 76.0561 135.395C76.8098 135.395 77.4207 135.992 77.4207 136.73V149.016C77.4207 149.754 76.8098 150.352 76.0561 150.352Z" fill="#5D5360"/>
<path d="M98.4818 157.252C102.326 157.252 106.102 156.651 109.403 155.515C110.255 155.222 110.699 154.317 110.395 153.495C110.156 152.848 109.526 152.444 108.853 152.444L88.1106 152.445C87.4374 152.445 86.8068 152.848 86.5683 153.495C86.2645 154.317 86.7087 155.222 87.5606 155.515C90.8615 156.651 94.6379 157.252 98.4818 157.252Z" fill="#D17F99"/>
<path d="M87.0234 130.91V147.499C87.0234 149.62 88.6113 151.411 90.7536 151.729C93.1352 152.082 95.7467 152.277 98.4867 152.277C101.227 152.277 103.838 152.082 106.22 151.729C108.362 151.411 109.95 149.62 109.95 147.499V130.91C109.95 129.14 108.484 127.705 106.675 127.705H90.2986C88.4898 127.705 87.0234 129.14 87.0234 130.91Z" fill="#F9AAC3"/>
<path d="M84.6342 150.352C83.8805 150.352 83.2695 149.754 83.2695 149.016V136.73C83.2695 135.992 83.8805 135.395 84.6342 135.395C85.3879 135.395 85.9989 135.992 85.9989 136.73V149.016C85.9989 149.754 85.3879 150.352 84.6342 150.352Z" fill="#5D5360"/>
<path d="M112.33 150.352C111.576 150.352 110.965 149.754 110.965 149.016V136.73C110.965 135.992 111.576 135.395 112.33 135.395C113.083 135.395 113.694 135.992 113.694 136.73V149.016C113.694 149.754 113.083 150.352 112.33 150.352Z" fill="#5D5360"/>
<path d="M73.6567 195.369L73.6567 195.369C73.4956 194.933 73.0622 194.645 72.5833 194.645L51.8412 194.646C51.8411 194.646 51.8411 194.646 51.8411 194.646C51.3613 194.646 50.9286 194.933 50.7678 195.369L50.7678 195.369C50.5657 195.916 50.8545 196.537 51.4538 196.743C54.6973 197.86 58.4182 198.453 62.2122 198.453C66.0063 198.453 69.7272 197.86 72.9707 196.743C73.57 196.537 73.8588 195.916 73.6567 195.369Z" fill="white" stroke="#2E363D"/>
<path d="M54.0291 169.906H54.0291H70.4052C71.9482 169.906 73.1804 171.127 73.1804 172.611V189.2C73.1804 191.063 71.7843 192.653 69.8769 192.935C67.5207 193.285 64.9338 193.479 62.2171 193.479C59.5005 193.479 56.9136 193.285 54.5574 192.935C52.65 192.653 51.2539 191.063 51.2539 189.2V172.611C51.2539 171.127 52.4861 169.906 54.0291 169.906Z" fill="white" stroke="#2E363D"/>
<path d="M48.3647 192.053C47.611 192.053 47 191.455 47 190.717V178.431C47 177.694 47.611 177.096 48.3647 177.096C49.1184 177.096 49.7293 177.694 49.7293 178.431V190.717C49.7293 191.455 49.1184 192.053 48.3647 192.053Z" fill="#566575"/>
<path d="M76.06 192.053C75.3063 192.053 74.6953 191.455 74.6953 190.717V178.431C74.6953 177.694 75.3063 177.096 76.06 177.096C76.8137 177.096 77.4246 177.694 77.4246 178.431V190.717C77.4246 191.455 76.8137 192.053 76.06 192.053Z" fill="#566575"/>
<path d="M109.93 195.369L109.93 195.369C109.769 194.933 109.336 194.645 108.857 194.645L88.1146 194.646C88.1146 194.646 88.1145 194.646 88.1145 194.646C87.6347 194.646 87.202 194.933 87.0413 195.369L87.0412 195.369C86.8391 195.916 87.128 196.537 87.7272 196.743C90.9707 197.86 94.6916 198.453 98.4857 198.453C102.28 198.453 106.001 197.86 109.244 196.743C109.843 196.537 110.132 195.916 109.93 195.369Z" fill="white" stroke="#2E363D"/>
<path d="M90.3025 169.906H90.3025H106.679C108.222 169.906 109.454 171.127 109.454 172.611V189.2C109.454 191.063 108.058 192.653 106.15 192.935C103.794 193.285 101.207 193.479 98.4906 193.479C95.7739 193.479 93.187 193.285 90.8309 192.935C88.9235 192.653 87.5273 191.063 87.5273 189.2V172.611C87.5273 171.127 88.7596 169.906 90.3025 169.906Z" fill="white" stroke="#2E363D"/>
<path d="M84.6381 192.053C83.8844 192.053 83.2734 191.455 83.2734 190.717V178.431C83.2734 177.694 83.8844 177.096 84.6381 177.096C85.3918 177.096 86.0028 177.694 86.0028 178.431V190.717C86.0028 191.455 85.3918 192.053 84.6381 192.053Z" fill="#566575"/>
<path d="M112.333 192.053C111.58 192.053 110.969 191.455 110.969 190.717V178.431C110.969 177.694 111.58 177.096 112.333 177.096C113.087 177.096 113.698 177.694 113.698 178.431V190.717C113.698 191.455 113.087 192.053 112.333 192.053Z" fill="#566575"/>
<path d="M140.475 194.525C139.811 194.525 139.189 194.935 138.954 195.591C138.654 196.427 139.092 197.345 139.932 197.643C143.188 198.796 146.912 199.406 150.703 199.406C154.493 199.406 158.218 198.796 161.473 197.643C162.313 197.345 162.751 196.427 162.451 195.591C162.216 194.935 161.594 194.525 160.93 194.525L140.475 194.525ZM140.475 194.525L140.475 195.025C140.013 195.025 139.586 195.31 139.424 195.76L139.424 195.76C139.219 196.333 139.518 196.965 140.099 197.171C143.296 198.304 146.963 198.906 150.703 198.906C154.442 198.906 158.109 198.304 161.306 197.171M140.475 194.525L140.475 195.025L160.93 195.025C161.391 195.025 161.819 195.31 161.981 195.76L161.981 195.76C162.186 196.333 161.887 196.965 161.306 197.171M161.306 197.171C161.306 197.171 161.306 197.171 161.306 197.171L161.473 197.642L161.306 197.171Z" fill="white" stroke="#2E363D"/>
<path d="M142.632 169.906H142.632H158.782C160.286 169.906 161.512 171.136 161.512 172.66V189.504C161.512 191.41 160.126 193.019 158.258 193.304C155.935 193.659 153.385 193.855 150.707 193.855C148.029 193.855 145.479 193.659 143.156 193.304C141.288 193.019 139.902 191.41 139.902 189.504V172.66C139.902 171.136 141.128 169.906 142.632 169.906Z" fill="white" stroke="#2E363D"/>
<path d="M137.045 192.399C136.302 192.399 135.699 191.792 135.699 191.043V178.569C135.699 177.82 136.302 177.213 137.045 177.213C137.788 177.213 138.391 177.82 138.391 178.569V191.043C138.391 191.792 137.788 192.399 137.045 192.399Z" fill="#566575"/>
<path d="M164.354 192.399C163.61 192.399 163.008 191.792 163.008 191.043V178.569C163.008 177.82 163.61 177.213 164.354 177.213C165.097 177.213 165.699 177.82 165.699 178.569V191.043C165.699 191.792 165.097 192.399 164.354 192.399Z" fill="#566575"/>
<path d="M186.763 198.953C190.607 198.953 194.383 198.353 197.684 197.216C198.536 196.923 198.98 196.019 198.677 195.196C198.438 194.549 197.807 194.145 197.134 194.145L176.392 194.146C175.719 194.146 175.088 194.549 174.85 195.196C174.546 196.019 174.99 196.923 175.842 197.216C179.143 198.353 182.919 198.953 186.763 198.953Z" fill="#9D9B99"/>
<path d="M175.305 172.611V189.2C175.305 191.321 176.893 193.112 179.035 193.43C181.416 193.783 184.028 193.979 186.768 193.979C189.508 193.979 192.119 193.783 194.501 193.43C196.643 193.112 198.231 191.321 198.231 189.2V172.611C198.231 170.841 196.765 169.406 194.956 169.406H178.58C176.771 169.406 175.305 170.841 175.305 172.611Z" fill="#C0C0C0"/>
<path d="M172.915 192.053C172.162 192.053 171.551 191.455 171.551 190.717V178.431C171.551 177.694 172.162 177.096 172.915 177.096C173.669 177.096 174.28 177.694 174.28 178.431V190.717C174.28 191.455 173.669 192.053 172.915 192.053Z" fill="#5D5360"/>
<path d="M200.607 192.053C199.853 192.053 199.242 191.455 199.242 190.717V178.431C199.242 177.694 199.853 177.096 200.607 177.096C201.361 177.096 201.972 177.694 201.972 178.431V190.717C201.972 191.455 201.361 192.053 200.607 192.053Z" fill="#5D5360"/>
<path d="M73.6567 236.369L73.6567 236.369C73.4956 235.933 73.0622 235.645 72.5833 235.645L51.8412 235.646C51.8411 235.646 51.8411 235.646 51.8411 235.646C51.3613 235.646 50.9286 235.933 50.7678 236.369L50.7678 236.369C50.5657 236.916 50.8545 237.537 51.4538 237.743C54.6973 238.86 58.4182 239.453 62.2122 239.453C66.0063 239.453 69.7272 238.86 72.9707 237.743C73.57 237.537 73.8588 236.916 73.6567 236.369Z" fill="white" stroke="#2E363D"/>
<path d="M54.0291 210.906H54.0291H70.4052C71.9482 210.906 73.1804 212.127 73.1804 213.611V230.2C73.1804 232.063 71.7843 233.653 69.8769 233.935C67.5207 234.285 64.9338 234.479 62.2171 234.479C59.5005 234.479 56.9136 234.285 54.5574 233.935C52.65 233.653 51.2539 232.063 51.2539 230.2V213.611C51.2539 212.127 52.4861 210.906 54.0291 210.906Z" fill="white" stroke="#2E363D"/>
<path d="M48.3647 233.053C47.611 233.053 47 232.455 47 231.717V219.431C47 218.694 47.611 218.096 48.3647 218.096C49.1184 218.096 49.7293 218.694 49.7293 219.431V231.717C49.7293 232.455 49.1184 233.053 48.3647 233.053Z" fill="#566575"/>
<path d="M76.06 233.053C75.3063 233.053 74.6953 232.455 74.6953 231.717V219.431C74.6953 218.694 75.3063 218.096 76.06 218.096C76.8137 218.096 77.4246 218.694 77.4246 219.431V231.717C77.4246 232.455 76.8137 233.053 76.06 233.053Z" fill="#566575"/>
<path d="M98.4857 239.953C102.33 239.953 106.106 239.353 109.407 238.216C110.259 237.923 110.703 237.019 110.399 236.196C110.16 235.549 109.529 235.145 108.857 235.145L88.1145 235.146C87.4413 235.146 86.8107 235.549 86.5722 236.196C86.2684 237.019 86.7126 237.923 87.5645 238.216C90.8654 239.353 94.6418 239.953 98.4857 239.953Z" fill="#9D9B99"/>
<path d="M87.0273 213.611V230.2C87.0273 232.321 88.6152 234.112 90.7575 234.43C93.1391 234.783 95.7506 234.979 98.4906 234.979C101.231 234.979 103.842 234.783 106.224 234.43C108.366 234.112 109.954 232.321 109.954 230.2V213.611C109.954 211.841 108.487 210.406 106.679 210.406H90.3025C88.4937 210.406 87.0273 211.841 87.0273 213.611Z" fill="#C0C0C0"/>
<path d="M84.6381 233.053C83.8844 233.053 83.2734 232.455 83.2734 231.717V219.431C83.2734 218.694 83.8844 218.096 84.6381 218.096C85.3918 218.096 86.0028 218.694 86.0028 219.431V231.717C86.0028 232.455 85.3918 233.053 84.6381 233.053Z" fill="#5D5360"/>
<path d="M112.33 233.053C111.576 233.053 110.965 232.455 110.965 231.717V219.431C110.965 218.694 111.576 218.096 112.33 218.096C113.083 218.096 113.694 218.694 113.694 219.431V231.717C113.694 232.455 113.083 233.053 112.33 233.053Z" fill="#5D5360"/>
<path d="M162.352 236.369L162.352 236.369C162.191 235.933 161.758 235.645 161.279 235.645L140.536 235.646C140.536 235.646 140.536 235.646 140.536 235.646C140.057 235.646 139.624 235.933 139.463 236.369L139.463 236.369C139.261 236.916 139.55 237.537 140.149 237.743C143.393 238.86 147.114 239.453 150.908 239.453C154.702 239.453 158.422 238.86 161.666 237.743C162.265 237.537 162.554 236.916 162.352 236.369Z" fill="white" stroke="#2E363D"/>
<path d="M142.724 210.906H142.724H159.101C160.643 210.906 161.876 212.127 161.876 213.611V230.2C161.876 232.063 160.48 233.653 158.572 233.935C156.216 234.285 153.629 234.479 150.912 234.479C148.196 234.479 145.609 234.285 143.253 233.935C141.345 233.653 139.949 232.063 139.949 230.2V213.611C139.949 212.127 141.181 210.906 142.724 210.906Z" fill="white" stroke="#2E363D"/>
<path d="M137.06 233.053C136.306 233.053 135.695 232.455 135.695 231.717V219.431C135.695 218.694 136.306 218.096 137.06 218.096C137.814 218.096 138.425 218.694 138.425 219.431V231.717C138.425 232.455 137.814 233.053 137.06 233.053Z" fill="#566575"/>
<path d="M164.755 233.053C164.002 233.053 163.391 232.455 163.391 231.717V219.431C163.391 218.694 164.002 218.096 164.755 218.096C165.509 218.096 166.12 218.694 166.12 219.431V231.717C166.12 232.455 165.509 233.053 164.755 233.053Z" fill="#566575"/>
<path d="M198.625 236.369L198.625 236.369C198.464 235.933 198.031 235.645 197.552 235.645L176.81 235.646C176.81 235.646 176.81 235.646 176.81 235.646C176.33 235.646 175.897 235.933 175.737 236.369L175.737 236.369C175.534 236.916 175.823 237.537 176.423 237.743C179.666 238.86 183.387 239.453 187.181 239.453C190.975 239.453 194.696 238.86 197.939 237.743C198.539 237.537 198.828 236.916 198.625 236.369Z" fill="white" stroke="#2E363D"/>
<path d="M178.998 210.906H178.998H195.374C196.917 210.906 198.149 212.127 198.149 213.611V230.2C198.149 232.063 196.753 233.653 194.846 233.935C192.489 234.285 189.903 234.479 187.186 234.479C184.469 234.479 181.882 234.285 179.526 233.935C177.619 233.653 176.223 232.063 176.223 230.2V213.611C176.223 212.127 177.455 210.906 178.998 210.906Z" fill="white" stroke="#2E363D"/>
<path d="M173.333 233.053C172.58 233.053 171.969 232.455 171.969 231.717V219.431C171.969 218.694 172.58 218.096 173.333 218.096C174.087 218.096 174.698 218.694 174.698 219.431V231.717C174.698 232.455 174.087 233.053 173.333 233.053Z" fill="#566575"/>
<path d="M201.029 233.053C200.275 233.053 199.664 232.455 199.664 231.717V219.431C199.664 218.694 200.275 218.096 201.029 218.096C201.782 218.096 202.393 218.694 202.393 219.431V231.717C202.393 232.455 201.782 233.053 201.029 233.053Z" fill="#566575"/>
<path d="M73.6567 277.369L73.6567 277.369C73.4956 276.933 73.0622 276.645 72.5833 276.645L51.8412 276.646C51.8411 276.646 51.8411 276.646 51.8411 276.646C51.3613 276.646 50.9286 276.933 50.7678 277.369L50.7678 277.369C50.5657 277.916 50.8545 278.537 51.4538 278.743C54.6973 279.86 58.4182 280.453 62.2122 280.453C66.0063 280.453 69.7272 279.86 72.9707 278.743C73.57 278.537 73.8588 277.916 73.6567 277.369Z" fill="white" stroke="#2E363D"/>
<path d="M54.0291 251.906H54.0291H70.4052C71.9482 251.906 73.1804 253.127 73.1804 254.611V271.2C73.1804 273.063 71.7843 274.653 69.8769 274.935C67.5207 275.285 64.9338 275.479 62.2171 275.479C59.5005 275.479 56.9136 275.285 54.5574 274.935C52.65 274.653 51.2539 273.063 51.2539 271.2V254.611C51.2539 253.127 52.4861 251.906 54.0291 251.906Z" fill="white" stroke="#2E363D"/>
<path d="M48.3647 274.053C47.611 274.053 47 273.455 47 272.717V260.431C47 259.694 47.611 259.096 48.3647 259.096C49.1184 259.096 49.7293 259.694 49.7293 260.431V272.717C49.7293 273.455 49.1184 274.053 48.3647 274.053Z" fill="#566575"/>
<path d="M76.06 274.053C75.3063 274.053 74.6953 273.455 74.6953 272.717V260.431C74.6953 259.694 75.3063 259.096 76.06 259.096C76.8137 259.096 77.4246 259.694 77.4246 260.431V272.717C77.4246 273.455 76.8137 274.053 76.06 274.053Z" fill="#566575"/>
<path d="M98.4857 280.953C102.33 280.953 106.106 280.353 109.407 279.216C110.259 278.923 110.703 278.019 110.399 277.196C110.16 276.549 109.529 276.145 108.857 276.145L88.1145 276.146C87.4413 276.146 86.8107 276.549 86.5722 277.196C86.2684 278.019 86.7126 278.923 87.5645 279.216C90.8654 280.353 94.6418 280.953 98.4857 280.953Z" fill="#9D9B99"/>
<path d="M87.0273 254.611V271.2C87.0273 273.321 88.6152 275.112 90.7575 275.43C93.1391 275.783 95.7506 275.979 98.4906 275.979C101.231 275.979 103.842 275.783 106.224 275.43C108.366 275.112 109.954 273.321 109.954 271.2V254.611C109.954 252.841 108.487 251.406 106.679 251.406H90.3025C88.4937 251.406 87.0273 252.841 87.0273 254.611Z" fill="#C0C0C0"/>
<path d="M84.6381 274.053C83.8844 274.053 83.2734 273.455 83.2734 272.717V260.431C83.2734 259.694 83.8844 259.096 84.6381 259.096C85.3918 259.096 86.0028 259.694 86.0028 260.431V272.717C86.0028 273.455 85.3918 274.053 84.6381 274.053Z" fill="#5D5360"/>
<path d="M112.33 274.053C111.576 274.053 110.965 273.455 110.965 272.717V260.431C110.965 259.694 111.576 259.096 112.33 259.096C113.083 259.096 113.694 259.694 113.694 260.431V272.717C113.694 273.455 113.083 274.053 112.33 274.053Z" fill="#5D5360"/>
<path d="M162.352 277.369L162.352 277.369C162.191 276.933 161.758 276.645 161.279 276.645L140.536 276.646C140.536 276.646 140.536 276.646 140.536 276.646C140.057 276.646 139.624 276.933 139.463 277.369L139.463 277.369C139.261 277.916 139.55 278.537 140.149 278.743C143.393 279.86 147.114 280.453 150.908 280.453C154.702 280.453 158.422 279.86 161.666 278.743C162.265 278.537 162.554 277.916 162.352 277.369Z" fill="white" stroke="#2E363D"/>
<path d="M142.724 251.906H142.724H159.101C160.643 251.906 161.876 253.127 161.876 254.611V271.2C161.876 273.063 160.48 274.653 158.572 274.935C156.216 275.285 153.629 275.479 150.912 275.479C148.196 275.479 145.609 275.285 143.253 274.935C141.345 274.653 139.949 273.063 139.949 271.2V254.611C139.949 253.127 141.181 251.906 142.724 251.906Z" fill="white" stroke="#2E363D"/>
<path d="M137.06 274.053C136.306 274.053 135.695 273.455 135.695 272.717V260.431C135.695 259.694 136.306 259.096 137.06 259.096C137.814 259.096 138.425 259.694 138.425 260.431V272.717C138.425 273.455 137.814 274.053 137.06 274.053Z" fill="#566575"/>
<path d="M164.755 274.053C164.002 274.053 163.391 273.455 163.391 272.717V260.431C163.391 259.694 164.002 259.096 164.755 259.096C165.509 259.096 166.12 259.694 166.12 260.431V272.717C166.12 273.455 165.509 274.053 164.755 274.053Z" fill="#566575"/>
<path d="M187.181 280.953C191.025 280.953 194.801 280.353 198.102 279.216C198.954 278.923 199.398 278.019 199.095 277.196C198.856 276.549 198.225 276.145 197.552 276.145L176.81 276.146C176.137 276.146 175.506 276.549 175.267 277.196C174.964 278.019 175.408 278.923 176.26 279.216C179.561 280.353 183.337 280.953 187.181 280.953Z" fill="#9D9B99"/>
<path d="M175.723 254.611V271.2C175.723 273.321 177.311 275.112 179.453 275.43C181.834 275.783 184.446 275.979 187.186 275.979C189.926 275.979 192.537 275.783 194.919 275.43C197.061 275.112 198.649 273.321 198.649 271.2V254.611C198.649 252.841 197.183 251.406 195.374 251.406H178.998C177.189 251.406 175.723 252.841 175.723 254.611Z" fill="#C0C0C0"/>
<path d="M173.333 274.053C172.58 274.053 171.969 273.455 171.969 272.717V260.431C171.969 259.694 172.58 259.096 173.333 259.096C174.087 259.096 174.698 259.694 174.698 260.431V272.717C174.698 273.455 174.087 274.053 173.333 274.053Z" fill="#5D5360"/>
<path d="M201.025 274.053C200.271 274.053 199.66 273.455 199.66 272.717V260.431C199.66 259.694 200.271 259.096 201.025 259.096C201.779 259.096 202.389 259.694 202.389 260.431V272.717C202.389 273.455 201.779 274.053 201.025 274.053Z" fill="#5D5360"/>
<path d="M62.2122 322.953C66.0561 322.953 69.8325 322.353 73.1334 321.216C73.9853 320.923 74.4296 320.019 74.1258 319.196C73.8869 318.549 73.2561 318.145 72.5833 318.145L51.8411 318.146C51.1679 318.146 50.5373 318.549 50.2987 319.196C49.9949 320.019 50.4392 320.923 51.291 321.216C54.5919 322.353 58.3684 322.953 62.2122 322.953Z" fill="#9D9B99"/>
<path d="M50.7539 296.611V313.2C50.7539 315.321 52.3418 317.112 54.4841 317.43C56.8657 317.783 59.4772 317.979 62.2171 317.979C64.9571 317.979 67.5686 317.783 69.9503 317.43C72.0925 317.112 73.6804 315.321 73.6804 313.2V296.611C73.6804 294.841 72.214 293.406 70.4052 293.406H54.0291C52.2202 293.406 50.7539 294.841 50.7539 296.611Z" fill="#C0C0C0"/>
<path d="M48.3647 316.053C47.611 316.053 47 315.455 47 314.717V302.431C47 301.694 47.611 301.096 48.3647 301.096C49.1184 301.096 49.7293 301.694 49.7293 302.431V314.717C49.7293 315.455 49.1184 316.053 48.3647 316.053Z" fill="#5D5360"/>
<path d="M76.0561 316.053C75.3024 316.053 74.6914 315.455 74.6914 314.717V302.431C74.6914 301.694 75.3024 301.096 76.0561 301.096C76.8098 301.096 77.4207 301.694 77.4207 302.431V314.717C77.4207 315.455 76.8098 316.053 76.0561 316.053Z" fill="#5D5360"/>
<path d="M109.926 319.369L109.926 319.369C109.765 318.933 109.332 318.645 108.853 318.645L88.1107 318.646C88.1107 318.646 88.1106 318.646 88.1106 318.646C87.6308 318.646 87.1981 318.933 87.0374 319.369L87.0373 319.369C86.8352 319.916 87.124 320.537 87.7233 320.743C90.9668 321.86 94.6877 322.453 98.4818 322.453C102.276 322.453 105.997 321.86 109.24 320.743C109.839 320.537 110.128 319.916 109.926 319.369Z" fill="white" stroke="#2E363D"/>
<path d="M90.2986 293.906H90.2986H106.675C108.218 293.906 109.45 295.127 109.45 296.611V313.2C109.45 315.063 108.054 316.653 106.146 316.935C103.79 317.285 101.203 317.479 98.4867 317.479C95.77 317.479 93.1831 317.285 90.827 316.935C88.9196 316.653 87.5234 315.063 87.5234 313.2V296.611C87.5234 295.127 88.7557 293.906 90.2986 293.906Z" fill="white" stroke="#2E363D"/>
<path d="M84.6342 316.053C83.8805 316.053 83.2695 315.455 83.2695 314.717V302.431C83.2695 301.694 83.8805 301.096 84.6342 301.096C85.3879 301.096 85.9989 301.694 85.9989 302.431V314.717C85.9989 315.455 85.3879 316.053 84.6342 316.053Z" fill="#566575"/>
<path d="M112.33 316.053C111.576 316.053 110.965 315.455 110.965 314.717V302.431C110.965 301.694 111.576 301.096 112.33 301.096C113.083 301.096 113.694 301.694 113.694 302.431V314.717C113.694 315.455 113.083 316.053 112.33 316.053Z" fill="#566575"/>
<path d="M150.908 322.953C154.751 322.953 158.528 322.353 161.829 321.216C162.681 320.923 163.125 320.019 162.821 319.196C162.582 318.549 161.951 318.145 161.279 318.145L140.536 318.146C139.863 318.146 139.233 318.549 138.994 319.196C138.69 320.019 139.135 320.923 139.986 321.216C143.287 322.353 147.064 322.953 150.908 322.953Z" fill="#9D9B99"/>
<path d="M139.449 296.611V313.2C139.449 315.321 141.037 317.112 143.179 317.43C145.561 317.783 148.172 317.979 150.912 317.979C153.652 317.979 156.264 317.783 158.646 317.43C160.788 317.112 162.376 315.321 162.376 313.2V296.611C162.376 294.841 160.909 293.406 159.101 293.406H142.724C140.916 293.406 139.449 294.841 139.449 296.611Z" fill="#C0C0C0"/>
<path d="M137.06 316.053C136.306 316.053 135.695 315.455 135.695 314.717V302.431C135.695 301.694 136.306 301.096 137.06 301.096C137.814 301.096 138.425 301.694 138.425 302.431V314.717C138.425 315.455 137.814 316.053 137.06 316.053Z" fill="#5D5360"/>
<path d="M164.751 316.053C163.998 316.053 163.387 315.455 163.387 314.717V302.431C163.387 301.694 163.998 301.096 164.751 301.096C165.505 301.096 166.116 301.694 166.116 302.431V314.717C166.116 315.455 165.505 316.053 164.751 316.053Z" fill="#5D5360"/>
<path d="M187.177 322.953C191.021 322.953 194.797 322.353 198.098 321.216C198.95 320.923 199.394 320.019 199.091 319.196C198.852 318.549 198.221 318.145 197.548 318.145L176.806 318.146C176.133 318.146 175.502 318.549 175.264 319.196C174.96 320.019 175.404 320.923 176.256 321.216C179.557 322.353 183.333 322.953 187.177 322.953Z" fill="#9D9B99"/>
<path d="M175.719 296.611V313.2C175.719 315.321 177.307 317.112 179.449 317.43C181.831 317.783 184.442 317.979 187.182 317.979C189.922 317.979 192.533 317.783 194.915 317.43C197.057 317.112 198.645 315.321 198.645 313.2V296.611C198.645 294.841 197.179 293.406 195.37 293.406H178.994C177.185 293.406 175.719 294.841 175.719 296.611Z" fill="#C0C0C0"/>
<path d="M173.33 316.053C172.576 316.053 171.965 315.455 171.965 314.717V302.431C171.965 301.694 172.576 301.096 173.33 301.096C174.083 301.096 174.694 301.694 174.694 302.431V314.717C174.694 315.455 174.083 316.053 173.33 316.053Z" fill="#5D5360"/>
<path d="M201.021 316.053C200.267 316.053 199.656 315.455 199.656 314.717V302.431C199.656 301.694 200.267 301.096 201.021 301.096C201.775 301.096 202.386 301.694 202.386 302.431V314.717C202.386 315.455 201.775 316.053 201.021 316.053Z" fill="#5D5360"/>
<path d="M62.2122 363.953C66.0561 363.953 69.8325 363.353 73.1334 362.216C73.9853 361.923 74.4296 361.019 74.1258 360.196C73.8869 359.549 73.2561 359.145 72.5833 359.145L51.8411 359.146C51.1679 359.146 50.5373 359.549 50.2987 360.196C49.9949 361.019 50.4392 361.923 51.291 362.216C54.5919 363.353 58.3684 363.953 62.2122 363.953Z" fill="#9D9B99"/>
<path d="M50.7539 337.611V354.2C50.7539 356.321 52.3418 358.112 54.4841 358.43C56.8657 358.783 59.4772 358.979 62.2171 358.979C64.9571 358.979 67.5686 358.783 69.9503 358.43C72.0925 358.112 73.6804 356.321 73.6804 354.2V337.611C73.6804 335.841 72.214 334.406 70.4052 334.406H54.0291C52.2202 334.406 50.7539 335.841 50.7539 337.611Z" fill="#C0C0C0"/>
<path d="M48.3647 357.053C47.611 357.053 47 356.455 47 355.717V343.431C47 342.694 47.611 342.096 48.3647 342.096C49.1184 342.096 49.7293 342.694 49.7293 343.431V355.717C49.7293 356.455 49.1184 357.053 48.3647 357.053Z" fill="#5D5360"/>
<path d="M76.0561 357.053C75.3024 357.053 74.6914 356.455 74.6914 355.717V343.431C74.6914 342.694 75.3024 342.096 76.0561 342.096C76.8098 342.096 77.4207 342.694 77.4207 343.431V355.717C77.4207 356.455 76.8098 357.053 76.0561 357.053Z" fill="#5D5360"/>
<path d="M98.4818 363.953C102.326 363.953 106.102 363.353 109.403 362.216C110.255 361.923 110.699 361.019 110.395 360.196C110.156 359.549 109.526 359.145 108.853 359.145L88.1106 359.146C87.4374 359.146 86.8068 359.549 86.5683 360.196C86.2645 361.019 86.7087 361.923 87.5606 362.216C90.8615 363.353 94.6379 363.953 98.4818 363.953Z" fill="#9D9B99"/>
<path d="M87.0234 337.611V354.2C87.0234 356.321 88.6113 358.112 90.7536 358.43C93.1352 358.783 95.7467 358.979 98.4867 358.979C101.227 358.979 103.838 358.783 106.22 358.43C108.362 358.112 109.95 356.321 109.95 354.2V337.611C109.95 335.841 108.484 334.406 106.675 334.406H90.2986C88.4898 334.406 87.0234 335.841 87.0234 337.611Z" fill="#C0C0C0"/>
<path d="M84.6342 357.053C83.8805 357.053 83.2695 356.455 83.2695 355.717V343.431C83.2695 342.694 83.8805 342.096 84.6342 342.096C85.3879 342.096 85.9989 342.694 85.9989 343.431V355.717C85.9989 356.455 85.3879 357.053 84.6342 357.053Z" fill="#5D5360"/>
<path d="M112.326 357.053C111.572 357.053 110.961 356.455 110.961 355.717V343.431C110.961 342.694 111.572 342.096 112.326 342.096C113.079 342.096 113.69 342.694 113.69 343.431V355.717C113.69 356.455 113.079 357.053 112.326 357.053Z" fill="#5D5360"/>
<path d="M150.904 363.953C154.748 363.953 158.524 363.353 161.825 362.216C162.677 361.923 163.121 361.019 162.817 360.196C162.578 359.549 161.947 359.145 161.275 359.145L140.532 359.146C139.859 359.146 139.229 359.549 138.99 360.196C138.686 361.019 139.131 361.923 139.982 362.216C143.283 363.353 147.06 363.953 150.904 363.953Z" fill="#9D9B99"/>
<path d="M139.445 337.611V354.2C139.445 356.321 141.033 358.112 143.175 358.43C145.557 358.783 148.169 358.979 150.909 358.979C153.649 358.979 156.26 358.783 158.642 358.43C160.784 358.112 162.372 356.321 162.372 354.2V337.611C162.372 335.841 160.905 334.406 159.097 334.406H142.721C140.912 334.406 139.445 335.841 139.445 337.611Z" fill="#C0C0C0"/>
<path d="M137.056 357.053C136.302 357.053 135.691 356.455 135.691 355.717V343.431C135.691 342.694 136.302 342.096 137.056 342.096C137.81 342.096 138.421 342.694 138.421 343.431V355.717C138.421 356.455 137.81 357.053 137.056 357.053Z" fill="#5D5360"/>
<path d="M164.747 357.053C163.994 357.053 163.383 356.455 163.383 355.717V343.431C163.383 342.694 163.994 342.096 164.747 342.096C165.501 342.096 166.112 342.694 166.112 343.431V355.717C166.112 356.455 165.501 357.053 164.747 357.053Z" fill="#5D5360"/>
<path d="M198.618 360.369L198.618 360.369C198.457 359.933 198.023 359.645 197.544 359.645L176.802 359.646C176.802 359.646 176.802 359.646 176.802 359.646C176.322 359.646 175.889 359.933 175.729 360.369L175.729 360.369C175.527 360.916 175.815 361.537 176.415 361.743C179.658 362.86 183.379 363.453 187.173 363.453C190.967 363.453 194.688 362.86 197.932 361.743C198.531 361.537 198.82 360.916 198.618 360.369Z" fill="white" stroke="#2E363D"/>
<path d="M178.99 334.906H178.99H195.366C196.909 334.906 198.141 336.127 198.141 337.611V354.2C198.141 356.063 196.745 357.653 194.838 357.935C192.482 358.285 189.895 358.479 187.178 358.479C184.461 358.479 181.875 358.285 179.518 357.935C177.611 357.653 176.215 356.063 176.215 354.2V337.611C176.215 336.127 177.447 334.906 178.99 334.906Z" fill="white" stroke="#2E363D"/>
<path d="M173.326 357.053C172.572 357.053 171.961 356.455 171.961 355.717V343.431C171.961 342.694 172.572 342.096 173.326 342.096C174.079 342.096 174.69 342.694 174.69 343.431V355.717C174.69 356.455 174.079 357.053 173.326 357.053Z" fill="#566575"/>
<path d="M201.021 357.053C200.267 357.053 199.656 356.455 199.656 355.717V343.431C199.656 342.694 200.267 342.096 201.021 342.096C201.775 342.096 202.386 342.694 202.386 343.431V355.717C202.386 356.455 201.775 357.053 201.021 357.053Z" fill="#566575"/>
<path d="M73.6567 401.369L73.6567 401.369C73.4956 400.933 73.0622 400.645 72.5833 400.645L51.8412 400.646C51.8411 400.646 51.8411 400.646 51.8411 400.646C51.3613 400.646 50.9286 400.933 50.7678 401.369L50.7678 401.369C50.5657 401.916 50.8545 402.537 51.4538 402.743C54.6973 403.86 58.4182 404.453 62.2122 404.453C66.0063 404.453 69.7272 403.86 72.9707 402.743C73.57 402.537 73.8588 401.916 73.6567 401.369Z" fill="white" stroke="#2E363D"/>
<path d="M54.0291 375.906H54.0291H70.4052C71.9482 375.906 73.1804 377.127 73.1804 378.611V395.2C73.1804 397.063 71.7843 398.653 69.8769 398.935C67.5207 399.285 64.9338 399.479 62.2171 399.479C59.5005 399.479 56.9136 399.285 54.5574 398.935C52.65 398.653 51.2539 397.063 51.2539 395.2V378.611C51.2539 377.127 52.4861 375.906 54.0291 375.906Z" fill="white" stroke="#2E363D"/>
<path d="M48.3647 398.053C47.611 398.053 47 397.455 47 396.717V384.431C47 383.694 47.611 383.096 48.3647 383.096C49.1184 383.096 49.7293 383.694 49.7293 384.431V396.717C49.7293 397.455 49.1184 398.053 48.3647 398.053Z" fill="#566575"/>
<path d="M76.06 398.053C75.3063 398.053 74.6953 397.455 74.6953 396.717V384.431C74.6953 383.694 75.3063 383.096 76.06 383.096C76.8137 383.096 77.4246 383.694 77.4246 384.431V396.717C77.4246 397.455 76.8137 398.053 76.06 398.053Z" fill="#566575"/>
<path d="M109.93 401.369L109.93 401.369C109.769 400.933 109.336 400.645 108.857 400.645L88.1146 400.646C88.1146 400.646 88.1145 400.646 88.1145 400.646C87.6347 400.646 87.202 400.933 87.0413 401.369L87.0412 401.369C86.8391 401.916 87.128 402.537 87.7272 402.743C90.9707 403.86 94.6916 404.453 98.4857 404.453C102.28 404.453 106.001 403.86 109.244 402.743C109.843 402.537 110.132 401.916 109.93 401.369Z" fill="white" stroke="#2E363D"/>
<path d="M90.3025 375.906H90.3025H106.679C108.222 375.906 109.454 377.127 109.454 378.611V395.2C109.454 397.063 108.058 398.653 106.15 398.935C103.794 399.285 101.207 399.479 98.4906 399.479C95.7739 399.479 93.187 399.285 90.8309 398.935C88.9235 398.653 87.5273 397.063 87.5273 395.2V378.611C87.5273 377.127 88.7596 375.906 90.3025 375.906Z" fill="white" stroke="#2E363D"/>
<path d="M84.6381 398.053C83.8844 398.053 83.2734 397.455 83.2734 396.717V384.431C83.2734 383.694 83.8844 383.096 84.6381 383.096C85.3918 383.096 86.0028 383.694 86.0028 384.431V396.717C86.0028 397.455 85.3918 398.053 84.6381 398.053Z" fill="#566575"/>
<path d="M112.333 398.053C111.58 398.053 110.969 397.455 110.969 396.717V384.431C110.969 383.694 111.58 383.096 112.333 383.096C113.087 383.096 113.698 383.694 113.698 384.431V396.717C113.698 397.455 113.087 398.053 112.333 398.053Z" fill="#566575"/>
<path d="M162.356 401.369L162.356 401.369C162.195 400.933 161.761 400.645 161.283 400.645L140.54 400.646C140.54 400.646 140.54 400.646 140.54 400.646C140.061 400.646 139.628 400.933 139.467 401.369L139.467 401.369C139.265 401.916 139.554 402.537 140.153 402.743C143.397 403.86 147.117 404.453 150.911 404.453C154.706 404.453 158.426 403.86 161.67 402.743C162.269 402.537 162.558 401.916 162.356 401.369Z" fill="white" stroke="#2E363D"/>
<path d="M142.728 375.906H142.728H159.104C160.647 375.906 161.88 377.127 161.88 378.611V395.2C161.88 397.063 160.484 398.653 158.576 398.935C156.22 399.285 153.633 399.479 150.916 399.479C148.2 399.479 145.613 399.285 143.257 398.935C141.349 398.653 139.953 397.063 139.953 395.2V378.611C139.953 377.127 141.185 375.906 142.728 375.906Z" fill="white" stroke="#2E363D"/>
<path d="M137.064 398.053C136.31 398.053 135.699 397.455 135.699 396.717V384.431C135.699 383.694 136.31 383.096 137.064 383.096C137.818 383.096 138.429 383.694 138.429 384.431V396.717C138.429 397.455 137.818 398.053 137.064 398.053Z" fill="#566575"/>
<path d="M164.759 398.053C164.006 398.053 163.395 397.455 163.395 396.717V384.431C163.395 383.694 164.006 383.096 164.759 383.096C165.513 383.096 166.124 383.694 166.124 384.431V396.717C166.124 397.455 165.513 398.053 164.759 398.053Z" fill="#566575"/>
<path d="M198.629 401.369L198.629 401.369C198.468 400.933 198.035 400.645 197.556 400.645L176.814 400.646C176.814 400.646 176.814 400.646 176.814 400.646C176.334 400.646 175.901 400.933 175.741 401.369L175.74 401.369C175.538 401.916 175.827 402.537 176.426 402.743C179.67 403.86 183.391 404.453 187.185 404.453C190.979 404.453 194.7 403.86 197.943 402.743C198.543 402.537 198.831 401.916 198.629 401.369Z" fill="white" stroke="#2E363D"/>
<path d="M179.002 375.906H179.002H195.378C196.921 375.906 198.153 377.127 198.153 378.611V395.2C198.153 397.063 196.757 398.653 194.85 398.935C192.493 399.285 189.906 399.479 187.19 399.479C184.473 399.479 181.886 399.285 179.53 398.935C177.623 398.653 176.227 397.063 176.227 395.2V378.611C176.227 377.127 177.459 375.906 179.002 375.906Z" fill="white" stroke="#2E363D"/>
<path d="M173.337 398.053C172.584 398.053 171.973 397.455 171.973 396.717V384.431C171.973 383.694 172.584 383.096 173.337 383.096C174.091 383.096 174.702 383.694 174.702 384.431V396.717C174.702 397.455 174.091 398.053 173.337 398.053Z" fill="#566575"/>
<path d="M201.033 398.053C200.279 398.053 199.668 397.455 199.668 396.717V384.431C199.668 383.694 200.279 383.096 201.033 383.096C201.786 383.096 202.397 383.694 202.397 384.431V396.717C202.397 397.455 201.786 398.053 201.033 398.053Z" fill="#566575"/>
<path d="M62.2122 445.953C66.0561 445.953 69.8325 445.353 73.1334 444.216C73.9853 443.923 74.4296 443.019 74.1258 442.196C73.8869 441.549 73.2561 441.145 72.5833 441.145L51.8411 441.146C51.1679 441.146 50.5373 441.549 50.2987 442.196C49.9949 443.019 50.4392 443.923 51.291 444.216C54.5919 445.353 58.3684 445.953 62.2122 445.953Z" fill="#9D9B99"/>
<path d="M50.7539 419.611V436.2C50.7539 438.321 52.3418 440.112 54.4841 440.43C56.8657 440.783 59.4772 440.979 62.2171 440.979C64.9571 440.979 67.5686 440.783 69.9503 440.43C72.0925 440.112 73.6804 438.321 73.6804 436.2V419.611C73.6804 417.841 72.214 416.406 70.4052 416.406H54.0291C52.2202 416.406 50.7539 417.841 50.7539 419.611Z" fill="#C0C0C0"/>
<path d="M48.3647 439.053C47.611 439.053 47 438.455 47 437.717V425.431C47 424.694 47.611 424.096 48.3647 424.096C49.1184 424.096 49.7293 424.694 49.7293 425.431V437.717C49.7293 438.455 49.1184 439.053 48.3647 439.053Z" fill="#5D5360"/>
<path d="M76.0561 439.053C75.3024 439.053 74.6914 438.455 74.6914 437.717V425.431C74.6914 424.694 75.3024 424.096 76.0561 424.096C76.8098 424.096 77.4207 424.694 77.4207 425.431V437.717C77.4207 438.455 76.8098 439.053 76.0561 439.053Z" fill="#5D5360"/>
<path d="M98.4818 445.953C102.326 445.953 106.102 445.353 109.403 444.216C110.255 443.923 110.699 443.019 110.395 442.196C110.156 441.549 109.526 441.145 108.853 441.145L88.1106 441.146C87.4374 441.146 86.8068 441.549 86.5683 442.196C86.2645 443.019 86.7087 443.923 87.5606 444.216C90.8615 445.353 94.6379 445.953 98.4818 445.953Z" fill="#9D9B99"/>
<path d="M87.0234 419.611V436.2C87.0234 438.321 88.6113 440.112 90.7536 440.43C93.1352 440.783 95.7467 440.979 98.4867 440.979C101.227 440.979 103.838 440.783 106.22 440.43C108.362 440.112 109.95 438.321 109.95 436.2V419.611C109.95 417.841 108.484 416.406 106.675 416.406H90.2986C88.4898 416.406 87.0234 417.841 87.0234 419.611Z" fill="#C0C0C0"/>
<path d="M84.6342 439.053C83.8805 439.053 83.2695 438.455 83.2695 437.717V425.431C83.2695 424.694 83.8805 424.096 84.6342 424.096C85.3879 424.096 85.9989 424.694 85.9989 425.431V437.717C85.9989 438.455 85.3879 439.053 84.6342 439.053Z" fill="#5D5360"/>
<path d="M112.326 439.053C111.572 439.053 110.961 438.455 110.961 437.717V425.431C110.961 424.694 111.572 424.096 112.326 424.096C113.079 424.096 113.69 424.694 113.69 425.431V437.717C113.69 438.455 113.079 439.053 112.326 439.053Z" fill="#5D5360"/>
<path d="M150.904 445.953C154.748 445.953 158.524 445.353 161.825 444.216C162.677 443.923 163.121 443.019 162.817 442.196C162.578 441.549 161.947 441.145 161.275 441.145L140.532 441.146C139.859 441.146 139.229 441.549 138.99 442.196C138.686 443.019 139.131 443.923 139.982 444.216C143.283 445.353 147.06 445.953 150.904 445.953Z" fill="#9D9B99"/>
<path d="M139.445 419.611V436.2C139.445 438.321 141.033 440.112 143.175 440.43C145.557 440.783 148.169 440.979 150.909 440.979C153.649 440.979 156.26 440.783 158.642 440.43C160.784 440.112 162.372 438.321 162.372 436.2V419.611C162.372 417.841 160.905 416.406 159.097 416.406H142.721C140.912 416.406 139.445 417.841 139.445 419.611Z" fill="#C0C0C0"/>
<path d="M137.056 439.053C136.302 439.053 135.691 438.455 135.691 437.717V425.431C135.691 424.694 136.302 424.096 137.056 424.096C137.81 424.096 138.421 424.694 138.421 425.431V437.717C138.421 438.455 137.81 439.053 137.056 439.053Z" fill="#5D5360"/>
<path d="M164.747 439.053C163.994 439.053 163.383 438.455 163.383 437.717V425.431C163.383 424.694 163.994 424.096 164.747 424.096C165.501 424.096 166.112 424.694 166.112 425.431V437.717C166.112 438.455 165.501 439.053 164.747 439.053Z" fill="#5D5360"/>
<path d="M187.173 445.953C191.017 445.953 194.793 445.353 198.094 444.216C198.946 443.923 199.391 443.019 199.087 442.196C198.848 441.549 198.217 441.145 197.544 441.145L176.802 441.146C176.129 441.146 175.498 441.549 175.26 442.196C174.956 443.019 175.4 443.923 176.252 444.216C179.553 445.353 183.329 445.953 187.173 445.953Z" fill="#9D9B99"/>
<path d="M175.715 419.611V436.2C175.715 438.321 177.303 440.112 179.445 440.43C181.827 440.783 184.438 440.979 187.178 440.979C189.918 440.979 192.53 440.783 194.911 440.43C197.053 440.112 198.641 438.321 198.641 436.2V419.611C198.641 417.841 197.175 416.406 195.366 416.406H178.99C177.181 416.406 175.715 417.841 175.715 419.611Z" fill="#C0C0C0"/>
<path d="M173.326 439.053C172.572 439.053 171.961 438.455 171.961 437.717V425.431C171.961 424.694 172.572 424.096 173.326 424.096C174.079 424.096 174.69 424.694 174.69 425.431V437.717C174.69 438.455 174.079 439.053 173.326 439.053Z" fill="#5D5360"/>
<path d="M201.017 439.053C200.263 439.053 199.652 438.455 199.652 437.717V425.431C199.652 424.694 200.263 424.096 201.017 424.096C201.771 424.096 202.382 424.694 202.382 425.431V437.717C202.382 438.455 201.771 439.053 201.017 439.053Z" fill="#5D5360"/>
<path d="M73.6567 484.369L73.6567 484.369C73.4956 483.933 73.0622 483.645 72.5833 483.645L51.8412 483.646C51.8411 483.646 51.8411 483.646 51.8411 483.646C51.3613 483.646 50.9286 483.933 50.7678 484.369L50.7678 484.369C50.5657 484.916 50.8545 485.537 51.4538 485.743C54.6973 486.86 58.4182 487.453 62.2122 487.453C66.0063 487.453 69.7272 486.86 72.9707 485.743C73.57 485.537 73.8588 484.916 73.6567 484.369Z" fill="white" stroke="#2E363D"/>
<path d="M54.0291 458.906H54.0291H70.4052C71.9482 458.906 73.1804 460.127 73.1804 461.611V478.2C73.1804 480.063 71.7843 481.653 69.8769 481.935C67.5207 482.285 64.9338 482.479 62.2171 482.479C59.5005 482.479 56.9136 482.285 54.5574 481.935C52.65 481.653 51.2539 480.063 51.2539 478.2V461.611C51.2539 460.127 52.4861 458.906 54.0291 458.906Z" fill="white" stroke="#2E363D"/>
<path d="M48.3647 481.053C47.611 481.053 47 480.455 47 479.717V467.431C47 466.694 47.611 466.096 48.3647 466.096C49.1184 466.096 49.7293 466.694 49.7293 467.431V479.717C49.7293 480.455 49.1184 481.053 48.3647 481.053Z" fill="#566575"/>
<path d="M76.06 481.053C75.3063 481.053 74.6953 480.455 74.6953 479.717V467.431C74.6953 466.694 75.3063 466.096 76.06 466.096C76.8137 466.096 77.4246 466.694 77.4246 467.431V479.717C77.4246 480.455 76.8137 481.053 76.06 481.053Z" fill="#566575"/>
<path d="M109.93 484.369L109.93 484.369C109.769 483.933 109.336 483.645 108.857 483.645L88.1146 483.646C88.1146 483.646 88.1145 483.646 88.1145 483.646C87.6347 483.646 87.202 483.933 87.0413 484.369L87.0412 484.369C86.8391 484.916 87.128 485.537 87.7272 485.743C90.9707 486.86 94.6916 487.453 98.4857 487.453C102.28 487.453 106.001 486.86 109.244 485.743C109.843 485.537 110.132 484.916 109.93 484.369Z" fill="white" stroke="#2E363D"/>
<path d="M90.3025 458.906H90.3025H106.679C108.222 458.906 109.454 460.127 109.454 461.611V478.2C109.454 480.063 108.058 481.653 106.15 481.935C103.794 482.285 101.207 482.479 98.4906 482.479C95.7739 482.479 93.187 482.285 90.8309 481.935C88.9235 481.653 87.5273 480.063 87.5273 478.2V461.611C87.5273 460.127 88.7596 458.906 90.3025 458.906Z" fill="white" stroke="#2E363D"/>
<path d="M84.6381 481.053C83.8844 481.053 83.2734 480.455 83.2734 479.717V467.431C83.2734 466.694 83.8844 466.096 84.6381 466.096C85.3918 466.096 86.0028 466.694 86.0028 467.431V479.717C86.0028 480.455 85.3918 481.053 84.6381 481.053Z" fill="#566575"/>
<path d="M112.333 481.053C111.58 481.053 110.969 480.455 110.969 479.717V467.431C110.969 466.694 111.58 466.096 112.333 466.096C113.087 466.096 113.698 466.694 113.698 467.431V479.717C113.698 480.455 113.087 481.053 112.333 481.053Z" fill="#566575"/>
<path d="M162.356 484.369L162.356 484.369C162.195 483.933 161.761 483.645 161.283 483.645L140.54 483.646C140.54 483.646 140.54 483.646 140.54 483.646C140.061 483.646 139.628 483.933 139.467 484.369L139.467 484.369C139.265 484.916 139.554 485.537 140.153 485.743C143.397 486.86 147.117 487.453 150.911 487.453C154.706 487.453 158.426 486.86 161.67 485.743C162.269 485.537 162.558 484.916 162.356 484.369Z" fill="white" stroke="#2E363D"/>
<path d="M142.728 458.906H142.728H159.104C160.647 458.906 161.88 460.127 161.88 461.611V478.2C161.88 480.063 160.484 481.653 158.576 481.935C156.22 482.285 153.633 482.479 150.916 482.479C148.2 482.479 145.613 482.285 143.257 481.935C141.349 481.653 139.953 480.063 139.953 478.2V461.611C139.953 460.127 141.185 458.906 142.728 458.906Z" fill="white" stroke="#2E363D"/>
<path d="M137.064 481.053C136.31 481.053 135.699 480.455 135.699 479.717V467.431C135.699 466.694 136.31 466.096 137.064 466.096C137.818 466.096 138.429 466.694 138.429 467.431V479.717C138.429 480.455 137.818 481.053 137.064 481.053Z" fill="#566575"/>
<path d="M164.759 481.053C164.006 481.053 163.395 480.455 163.395 479.717V467.431C163.395 466.694 164.006 466.096 164.759 466.096C165.513 466.096 166.124 466.694 166.124 467.431V479.717C166.124 480.455 165.513 481.053 164.759 481.053Z" fill="#566575"/>
<path d="M198.629 484.369L198.629 484.369C198.468 483.933 198.035 483.645 197.556 483.645L176.814 483.646C176.814 483.646 176.814 483.646 176.814 483.646C176.334 483.646 175.901 483.933 175.741 484.369L175.74 484.369C175.538 484.916 175.827 485.537 176.426 485.743C179.67 486.86 183.391 487.453 187.185 487.453C190.979 487.453 194.7 486.86 197.943 485.743C198.543 485.537 198.831 484.916 198.629 484.369Z" fill="white" stroke="#2E363D"/>
<path d="M179.002 458.906H179.002H195.378C196.921 458.906 198.153 460.127 198.153 461.611V478.2C198.153 480.063 196.757 481.653 194.85 481.935C192.493 482.285 189.906 482.479 187.19 482.479C184.473 482.479 181.886 482.285 179.53 481.935C177.623 481.653 176.227 480.063 176.227 478.2V461.611C176.227 460.127 177.459 458.906 179.002 458.906Z" fill="white" stroke="#2E363D"/>
<path d="M173.337 481.053C172.584 481.053 171.973 480.455 171.973 479.717V467.431C171.973 466.694 172.584 466.096 173.337 466.096C174.091 466.096 174.702 466.694 174.702 467.431V479.717C174.702 480.455 174.091 481.053 173.337 481.053Z" fill="#566575"/>
<path d="M201.033 481.053C200.279 481.053 199.668 480.455 199.668 479.717V467.431C199.668 466.694 200.279 466.096 201.033 466.096C201.786 466.096 202.397 466.694 202.397 467.431V479.717C202.397 480.455 201.786 481.053 201.033 481.053Z" fill="#566575"/>
<path d="M62.2122 528.953C66.0561 528.953 69.8325 528.353 73.1334 527.216C73.9853 526.923 74.4296 526.019 74.1258 525.196C73.8869 524.549 73.2561 524.145 72.5833 524.145L51.8411 524.146C51.1679 524.146 50.5373 524.549 50.2987 525.196C49.9949 526.019 50.4392 526.923 51.291 527.216C54.5919 528.353 58.3684 528.953 62.2122 528.953Z" fill="#9A050C"/>
<path d="M50.7539 502.611V519.2C50.7539 521.321 52.3418 523.112 54.4841 523.43C56.8657 523.783 59.4772 523.979 62.2171 523.979C64.9571 523.979 67.5686 523.783 69.9503 523.43C72.0925 523.112 73.6804 521.321 73.6804 519.2V502.611C73.6804 500.841 72.214 499.406 70.4052 499.406H54.0291C52.2202 499.406 50.7539 500.841 50.7539 502.611Z" fill="#F1020E"/>
<path d="M48.3647 522.053C47.611 522.053 47 521.455 47 520.717V508.431C47 507.694 47.611 507.096 48.3647 507.096C49.1184 507.096 49.7293 507.694 49.7293 508.431V520.717C49.7293 521.455 49.1184 522.053 48.3647 522.053Z" fill="#5D5360"/>
<path d="M76.06 522.053C75.3063 522.053 74.6953 521.455 74.6953 520.717V508.431C74.6953 507.694 75.3063 507.096 76.06 507.096C76.8137 507.096 77.4246 507.694 77.4246 508.431V520.717C77.4246 521.455 76.8137 522.053 76.06 522.053Z" fill="#5D5360"/>
<path d="M109.934 525.369L109.934 525.369C109.773 524.933 109.34 524.645 108.861 524.645L88.1185 524.646C88.1185 524.646 88.1185 524.646 88.1184 524.646C87.6387 524.646 87.2059 524.933 87.0452 525.369L87.0451 525.369C86.843 525.916 87.1319 526.537 87.7311 526.743C90.9747 527.86 94.6955 528.453 98.4896 528.453C102.284 528.453 106.005 527.86 109.248 526.743C109.847 526.537 110.136 525.916 109.934 525.369Z" fill="white" stroke="#2E363D"/>
<path d="M90.3064 499.906H90.3064H106.683C108.226 499.906 109.458 501.127 109.458 502.611V519.2C109.458 521.063 108.062 522.653 106.154 522.935C103.798 523.285 101.211 523.479 98.4945 523.479C95.7778 523.479 93.1909 523.285 90.8348 522.935C88.9274 522.653 87.5312 521.063 87.5312 519.2V502.611C87.5312 501.127 88.7635 499.906 90.3064 499.906Z" fill="white" stroke="#2E363D"/>
<path d="M84.642 522.053C83.8883 522.053 83.2773 521.455 83.2773 520.717V508.431C83.2773 507.694 83.8883 507.096 84.642 507.096C85.3957 507.096 86.0067 507.694 86.0067 508.431V520.717C86.0067 521.455 85.3957 522.053 84.642 522.053Z" fill="#566575"/>
<path d="M112.337 522.053C111.584 522.053 110.973 521.455 110.973 520.717V508.431C110.973 507.694 111.584 507.096 112.337 507.096C113.091 507.096 113.702 507.694 113.702 508.431V520.717C113.702 521.455 113.091 522.053 112.337 522.053Z" fill="#566575"/>
<path d="M162.356 525.369L162.356 525.369C162.195 524.933 161.761 524.645 161.283 524.645L140.54 524.646C140.54 524.646 140.54 524.646 140.54 524.646C140.061 524.646 139.628 524.933 139.467 525.369L139.467 525.369C139.265 525.916 139.554 526.537 140.153 526.743C143.397 527.86 147.117 528.453 150.911 528.453C154.706 528.453 158.426 527.86 161.67 526.743C162.269 526.537 162.558 525.916 162.356 525.369Z" fill="white" stroke="#2E363D"/>
<path d="M142.728 499.906H142.728H159.104C160.647 499.906 161.88 501.127 161.88 502.611V519.2C161.88 521.063 160.484 522.653 158.576 522.935C156.22 523.285 153.633 523.479 150.916 523.479C148.2 523.479 145.613 523.285 143.257 522.935C141.349 522.653 139.953 521.063 139.953 519.2V502.611C139.953 501.127 141.185 499.906 142.728 499.906Z" fill="white" stroke="#2E363D"/>
<path d="M137.064 522.053C136.31 522.053 135.699 521.455 135.699 520.717V508.431C135.699 507.694 136.31 507.096 137.064 507.096C137.818 507.096 138.429 507.694 138.429 508.431V520.717C138.429 521.455 137.818 522.053 137.064 522.053Z" fill="#566575"/>
<path d="M164.759 522.053C164.006 522.053 163.395 521.455 163.395 520.717V508.431C163.395 507.694 164.006 507.096 164.759 507.096C165.513 507.096 166.124 507.694 166.124 508.431V520.717C166.124 521.455 165.513 522.053 164.759 522.053Z" fill="#566575"/>
<path d="M187.185 528.953C191.029 528.953 194.805 528.353 198.106 527.216C198.958 526.923 199.402 526.019 199.098 525.196C198.86 524.549 198.229 524.145 197.556 524.145L176.814 524.146C176.141 524.146 175.51 524.549 175.271 525.196C174.968 526.019 175.412 526.923 176.264 527.216C179.565 528.353 183.341 528.953 187.185 528.953Z" fill="#9A050C"/>
<path d="M175.727 502.611V519.2C175.727 521.321 177.314 523.112 179.457 523.43C181.838 523.783 184.45 523.979 187.19 523.979C189.93 523.979 192.541 523.783 194.923 523.43C197.065 523.112 198.653 521.321 198.653 519.2V502.611C198.653 500.841 197.187 499.406 195.378 499.406H179.002C177.193 499.406 175.727 500.841 175.727 502.611Z" fill="#F1020E"/>
<path d="M173.337 522.053C172.584 522.053 171.973 521.455 171.973 520.717V508.431C171.973 507.694 172.584 507.096 173.337 507.096C174.091 507.096 174.702 507.694 174.702 508.431V520.717C174.702 521.455 174.091 522.053 173.337 522.053Z" fill="#5D5360"/>
<path d="M201.033 522.053C200.279 522.053 199.668 521.455 199.668 520.717V508.431C199.668 507.694 200.279 507.096 201.033 507.096C201.786 507.096 202.397 507.694 202.397 508.431V520.717C202.397 521.455 201.786 522.053 201.033 522.053Z" fill="#5D5360"/>
<path d="M47 46.9024C47 44.3711 48.6073 42.1018 50.9958 41.2638C109.79 20.6365 143.568 20.4182 199.13 41.2142C201.455 42.0845 203 44.3213 203 46.8039V81.7051C203 85.0188 200.314 87.7051 197 87.7051H53C49.6863 87.7051 47 85.0188 47 81.7051V46.9024Z" fill="#88909A"/>
<g clip-path="url(#clip0_2932_122795)">
<path fill-rule="evenodd" clip-rule="evenodd" d="M182 68.7051C187.523 68.7051 192 64.2279 192 58.7051C192 53.1822 187.523 48.7051 182 48.7051C176.477 48.7051 172 53.1822 172 58.7051C172 64.2279 176.477 68.7051 182 68.7051ZM184.104 66.0589C183.795 66.147 183.473 65.9716 183.38 65.6645C183.245 65.2235 183.176 64.7627 183.176 64.2933C183.176 61.6943 185.283 59.5874 187.882 59.5874C188.269 59.5874 188.651 59.6343 189.02 59.7261C189.332 59.8035 189.524 60.1163 189.452 60.4291C188.828 63.1337 186.769 65.2979 184.104 66.0589ZM189.211 56.1551C189.363 56.5826 188.994 57.013 188.548 56.9294C188.526 56.9253 188.482 56.9171 188.415 56.9056C188.284 56.8829 188.153 56.8612 188.021 56.8405C187.593 56.7728 187.109 56.705 186.582 56.6416C185.075 56.4607 183.518 56.3522 182 56.3522C180.482 56.3522 178.925 56.4607 177.418 56.6417C176.891 56.7051 176.407 56.7729 175.979 56.8407C175.829 56.8643 175.698 56.8862 175.585 56.9058C175.518 56.9173 175.474 56.9255 175.452 56.9296C175.006 57.0133 174.637 56.5828 174.789 56.1554C175.86 53.125 178.733 51.058 182 51.058C185.266 51.058 188.14 53.1249 189.211 56.1551ZM179.825 66.0383C177.188 65.2572 175.157 63.0987 174.544 60.4116C174.472 60.0954 174.67 59.7805 174.986 59.7077C175.334 59.6276 175.69 59.5872 176.047 59.5874C178.646 59.5874 180.752 61.6943 180.752 64.2933C180.752 64.755 180.686 65.2083 180.556 65.6428C180.463 65.9535 180.136 66.1304 179.825 66.0383Z" fill="white"/>
</g>
<defs>
<clipPath id="clip0_2932_122795">
<rect width="20" height="20" fill="white" transform="translate(172 48.7051)"/>
</clipPath>
</defs>
</svg>
