<svg width="33" height="32" viewBox="0 0 33 32" fill="none" xmlns="http://www.w3.org/2000/svg">
<g clip-path="url(#clip0_1_12)">
<path d="M18.0525 13.5002C18.2482 13.1917 18.3575 12.8363 18.369 12.4712C18.3805 12.106 18.2936 11.7445 18.1176 11.4244C17.9416 11.1042 17.6829 10.8372 17.3684 10.6513C17.054 10.4653 16.6953 10.3672 16.33 10.3672C15.9647 10.3672 15.606 10.4653 15.2916 10.6513C14.9771 10.8372 14.7184 11.1042 14.5424 11.4244C14.3664 11.7445 14.2795 12.106 14.291 12.4712C14.3025 12.8363 14.4118 13.1917 14.6075 13.5002C11.3371 13.9028 8.31077 15.4375 6.05358 17.8381C3.79638 20.2387 2.45071 23.3537 2.25 26.6427H30.41C30.2093 23.3537 28.8636 20.2387 26.6064 17.8381C24.3492 15.4375 21.3229 13.9028 18.0525 13.5002Z" fill="#FFDE00"/>
<path d="M30.4119 26.6432H28.7169C28.4291 23.4286 27.0483 20.4097 24.8047 18.0896C22.5611 15.7695 19.5901 14.2885 16.3869 13.8932C16.5664 13.6145 16.6752 13.2962 16.7039 12.966C16.7327 12.6358 16.6806 12.3035 16.552 11.998C16.4235 11.6925 16.2225 11.4229 15.9663 11.2125C15.7102 11.0021 15.4066 10.8573 15.0819 10.7907C15.4378 10.5092 15.8782 10.356 16.3319 10.3557C16.6001 10.3557 16.8655 10.4085 17.1132 10.5112C17.3609 10.6139 17.5859 10.7644 17.7753 10.9541C17.9648 11.1437 18.115 11.3689 18.2174 11.6167C18.3198 11.8645 18.3723 12.1301 18.3719 12.3982C18.3743 12.7889 18.2631 13.1719 18.0519 13.5007C21.3228 13.9028 24.3497 15.4372 26.6074 17.8379C28.8651 20.2385 30.2111 23.3538 30.4119 26.6432Z" fill="#E7CA04"/>
<path d="M30.4104 26.8924H2.25038C2.2161 26.8923 2.18221 26.8851 2.15081 26.8713C2.11942 26.8576 2.09119 26.8375 2.06788 26.8124C2.04469 26.7877 2.02675 26.7586 2.01514 26.7268C2.00354 26.695 1.99852 26.6612 2.00038 26.6274C2.19341 23.3379 3.51397 20.2155 5.73971 17.7857C7.96546 15.356 10.9604 13.7674 14.2204 13.2874C14.0886 12.9749 14.0278 12.6371 14.0425 12.2983C14.0572 11.9595 14.147 11.6281 14.3053 11.3282C14.4636 11.0284 14.6866 10.7674 14.9581 10.5642C15.2296 10.3609 15.5428 10.2205 15.8751 10.1531C16.2075 10.0857 16.5507 10.093 16.8799 10.1743C17.2091 10.2557 17.5161 10.4092 17.7788 10.6237C18.0415 10.8382 18.2532 11.1083 18.3988 11.4146C18.5443 11.7209 18.62 12.0557 18.6204 12.3949C18.6201 12.7014 18.5589 13.0047 18.4404 13.2874C21.7003 13.7674 24.6953 15.356 26.921 17.7857C29.1468 20.2155 30.4674 23.3379 30.6604 26.6274C30.6622 26.6612 30.6572 26.695 30.6456 26.7268C30.634 26.7586 30.6161 26.7877 30.5929 26.8124C30.5696 26.8375 30.5413 26.8576 30.5099 26.8713C30.4786 26.8851 30.4447 26.8923 30.4104 26.8924ZM2.51788 26.3924H30.1429C29.8945 23.2077 28.5517 20.2072 26.3425 17.9C24.1333 15.5928 21.1938 14.1212 18.0229 13.7349C17.9808 13.7302 17.9406 13.7149 17.9061 13.6904C17.8715 13.6659 17.8437 13.633 17.8254 13.5949C17.8057 13.5556 17.7967 13.5117 17.7993 13.4678C17.8019 13.424 17.8161 13.3815 17.8404 13.3449C18.0126 13.0743 18.109 12.7623 18.1194 12.4417C18.1298 12.1211 18.0539 11.8036 17.8996 11.5224C17.7452 11.2412 17.5182 11.0066 17.2421 10.8432C16.966 10.6798 16.6512 10.5936 16.3304 10.5936C16.0096 10.5936 15.6947 10.6798 15.4187 10.8432C15.1426 11.0066 14.9155 11.2412 14.7612 11.5224C14.6068 11.8036 14.5309 12.1211 14.5413 12.4417C14.5517 12.7623 14.6481 13.0743 14.8204 13.3449C14.8446 13.3815 14.8588 13.424 14.8614 13.4678C14.8641 13.5117 14.8551 13.5556 14.8354 13.5949C14.817 13.633 14.7893 13.6659 14.7547 13.6904C14.7202 13.7149 14.68 13.7302 14.6379 13.7349C11.467 14.1212 8.52749 15.5928 6.31828 17.9C4.10908 20.2072 2.7663 23.2077 2.51788 26.3924Z" fill="#014EA2"/>
<path d="M0.582031 26.6426L0.799531 27.3101C1.01335 27.9678 1.42989 28.5409 1.98947 28.9474C2.54905 29.3538 3.22293 29.5727 3.91453 29.5726H28.7495C29.4411 29.5727 30.115 29.3538 30.6746 28.9474C31.2342 28.5409 31.6507 27.9678 31.8645 27.3101L32.082 26.6426H0.582031Z" fill="#FFDE00"/>
<path d="M32.0822 26.6437L31.8672 27.3087C31.6525 27.966 31.2358 28.5389 30.6764 28.9456C30.1171 29.3523 29.4437 29.5721 28.7522 29.5737H3.91469C3.22567 29.5728 2.55442 29.355 1.99618 28.9511C1.43794 28.5473 1.02106 27.9778 0.804688 27.3237C1.11182 27.6814 1.4927 27.9685 1.92119 28.1653C2.34969 28.3621 2.81567 28.4639 3.28719 28.4637H28.1222C28.7331 28.4643 29.3319 28.2936 29.8507 27.971C30.3695 27.6484 30.7875 27.1868 31.0572 26.6387L32.0822 26.6437Z" fill="#E7CA04"/>
<path d="M28.7494 29.8232H3.91445C3.16944 29.8246 2.44325 29.5893 1.84068 29.1512C1.23811 28.713 0.790323 28.0948 0.561948 27.3857L0.344448 26.7207C0.331827 26.6821 0.32877 26.6411 0.335541 26.6011C0.342311 26.5611 0.358707 26.5234 0.383313 26.4912C0.407919 26.4589 0.439996 26.4332 0.476779 26.4161C0.513562 26.399 0.553946 26.3912 0.594448 26.3932H32.0819C32.1224 26.3912 32.1628 26.399 32.1996 26.4161C32.2364 26.4332 32.2685 26.4589 32.2931 26.4912C32.3177 26.5234 32.3341 26.5611 32.3409 26.6011C32.3476 26.6411 32.3446 26.6821 32.3319 26.7207L32.1144 27.3882C31.8846 28.0987 31.4347 28.7176 30.8297 29.1554C30.2248 29.5931 29.4962 29.827 28.7494 29.8232ZM0.926948 26.8932L1.03695 27.2332C1.23341 27.8414 1.61793 28.3715 2.13508 28.7471C2.65222 29.1228 3.27529 29.3245 3.91445 29.3232H28.7494C29.3885 29.3241 30.0114 29.1222 30.5285 28.7467C31.0455 28.3711 31.4301 27.8412 31.6269 27.2332L31.7369 26.8932H0.926948ZM22.4669 10.6057C22.4288 10.6056 22.3911 10.5967 22.3569 10.5798C22.3226 10.5629 22.2927 10.5384 22.2694 10.5082C22.0541 10.2246 21.8969 9.90125 21.8068 9.55676C21.7167 9.21226 21.6955 8.85337 21.7444 8.50067C21.8215 8.08307 21.9499 7.67664 22.1269 7.29067L22.1994 7.10817C22.3871 6.71786 22.4869 6.29119 22.4919 5.85817C22.4908 5.66897 22.4396 5.48344 22.3434 5.32051C22.2472 5.15757 22.1096 5.02305 21.9444 4.93067C21.8838 4.90381 21.8363 4.85396 21.8124 4.79207C21.7884 4.73019 21.7901 4.66133 21.8169 4.60067C21.8438 4.54 21.8937 4.49248 21.9555 4.46857C22.0174 4.44466 22.0863 4.44631 22.1469 4.47317C22.3983 4.60116 22.6098 4.79562 22.7583 5.0354C22.9068 5.27519 22.9868 5.55111 22.9894 5.83317C22.9898 6.34022 22.8789 6.84117 22.6644 7.30067L22.5894 7.48567C22.4286 7.8333 22.311 8.19937 22.2394 8.57567C22.1614 9.15765 22.3139 9.7471 22.6644 10.2182C22.7048 10.2706 22.7227 10.3369 22.7142 10.4025C22.7058 10.4681 22.6717 10.5276 22.6194 10.5682C22.574 10.5967 22.5205 10.6099 22.4669 10.6057ZM10.3069 10.6057C10.2683 10.606 10.2302 10.5973 10.1955 10.5804C10.1608 10.5635 10.1305 10.5388 10.1069 10.5082C9.6728 9.93503 9.48397 9.21297 9.58195 8.50067C9.65926 8.08426 9.78686 7.6788 9.96195 7.29317L10.0369 7.10817C10.2246 6.71786 10.3244 6.29119 10.3294 5.85817C10.3283 5.66897 10.2771 5.48344 10.1809 5.32051C10.0847 5.15757 9.94706 5.02305 9.78195 4.93067C9.72128 4.90381 9.67376 4.85396 9.64985 4.79207C9.62594 4.73019 9.6276 4.66133 9.65445 4.60067C9.6813 4.54 9.73116 4.49248 9.79304 4.46857C9.85493 4.44466 9.92378 4.44631 9.98445 4.47317C10.2345 4.59929 10.4455 4.79112 10.5948 5.02808C10.7441 5.26503 10.8261 5.53816 10.8319 5.81817C10.8317 6.32516 10.7208 6.82599 10.5069 7.28567L10.4294 7.47317C10.2702 7.82031 10.1535 8.18547 10.0819 8.56067C10.0039 9.14265 10.1564 9.7321 10.5069 10.2032C10.5473 10.2556 10.5652 10.3219 10.5567 10.3875C10.5483 10.4531 10.5142 10.5126 10.4619 10.5532C10.4176 10.5876 10.363 10.6061 10.3069 10.6057ZM16.4444 8.34567C16.4058 8.34596 16.3677 8.33731 16.333 8.32039C16.2983 8.30348 16.268 8.27876 16.2444 8.24817C16.0286 7.96292 15.8711 7.6379 15.781 7.29171C15.6909 6.94552 15.67 6.58495 15.7194 6.23067C15.7965 5.81388 15.9249 5.40827 16.1019 5.02317L16.1769 4.84067C16.3633 4.45003 16.4623 4.02346 16.4669 3.59067C16.4662 3.40203 16.4153 3.21699 16.3195 3.05447C16.2238 2.89194 16.0866 2.75777 15.9219 2.66567C15.8902 2.65373 15.8612 2.63545 15.8367 2.61194C15.8122 2.58842 15.7928 2.56017 15.7796 2.52891C15.7664 2.49764 15.7597 2.46402 15.7599 2.43008C15.7601 2.39614 15.7672 2.3626 15.7808 2.3315C15.7944 2.3004 15.8142 2.2724 15.839 2.2492C15.8637 2.22599 15.893 2.20807 15.9249 2.19653C15.9568 2.185 15.9907 2.18008 16.0246 2.18207C16.0585 2.18407 16.0916 2.19295 16.1219 2.20817C16.3739 2.33495 16.5861 2.52872 16.7352 2.7682C16.8842 3.00768 16.9644 3.2836 16.9669 3.56567C16.9662 4.0726 16.8553 4.57331 16.6419 5.03317L16.5644 5.22067C16.404 5.56846 16.2865 5.93448 16.2144 6.31067C16.1371 6.89298 16.2905 7.48246 16.6419 7.95317C16.682 8.0059 16.6995 8.07237 16.6906 8.13799C16.6817 8.20361 16.6471 8.26301 16.5944 8.30317C16.5503 8.33296 16.4977 8.34785 16.4444 8.34567Z" fill="#014EA2"/>
</g>
<defs>
<clipPath id="clip0_1_12">
<rect width="32" height="32" fill="white" transform="translate(0.332031)"/>
</clipPath>
</defs>
</svg>
