<svg width="60" height="50" viewBox="0 0 60 50" fill="none" xmlns="http://www.w3.org/2000/svg">
<circle cx="34.1426" cy="25" r="25" fill="#E6EDF6"/>
<path d="M33.7943 13.4751H8.28674C6.30327 13.4751 4.69531 11.8672 4.69531 9.88378V9.38049C4.69531 7.39702 6.30327 5.78906 8.28674 5.78906H33.7943C35.7777 5.78906 37.3857 7.39702 37.3857 9.38049V9.88378C37.3857 11.8672 35.7777 13.4751 33.7943 13.4751Z" fill="#FFDE00"/>
<path d="M37.0779 11.3425C36.5195 12.5995 35.2601 13.4767 33.7952 13.4767H20.7188C23.7318 11.5428 27.3167 10.4219 31.1627 10.4219C33.226 10.4219 35.2133 10.7441 37.0779 11.3425Z" fill="#E7CA05"/>
<path d="M16.0481 21.1627C13.9257 21.1627 12.2051 19.4421 12.2051 17.3196C12.2051 15.1972 13.9256 13.4766 16.0481 13.4766H41.0524C43.1748 13.4766 44.8955 15.1971 44.8955 17.3196C44.8955 17.3196 44.8057 20.6065 42.297 20.6065L16.0481 21.1627Z" fill="#E7CA05"/>
<path d="M44.8921 17.3193C44.8921 17.3193 44.8696 18.1414 44.534 18.9627C44.1977 19.784 43.5483 20.6062 42.2938 20.6062L16.0449 21.1629C15.3321 21.1629 14.6644 20.9684 14.0918 20.6304C15.6568 17.7191 17.9454 15.2544 20.7173 13.4766H41.0494C41.2664 13.4766 41.4801 13.4949 41.687 13.5291C42.7304 14.206 43.7044 14.9806 44.5966 15.8403C44.7869 16.2952 44.8921 16.7951 44.8921 17.3193Z" fill="#E7CA05"/>
<path d="M31.4642 44.2174H9.96612C7.84368 44.2174 6.12305 42.4968 6.12305 40.3743C6.12305 38.2519 7.84368 36.5312 9.96612 36.5312H31.4642V44.2174Z" fill="#FFDE00"/>
<path d="M31.4658 36.5312V44.2176H18.245C15.923 42.1384 14.1059 39.5076 13 36.5312H31.4658Z" fill="#E7CA05"/>
<path d="M27.5464 36.5299H9.96612C7.84368 36.5299 6.12305 34.8093 6.12305 32.6868C6.12305 30.5644 7.84368 28.8438 9.96612 28.8438H27.5464V36.5299Z" fill="#E7CA05"/>
<path d="M27.5479 28.8438V36.5301H12.9999C12.2195 34.4301 11.793 32.1573 11.793 29.7852C11.793 29.4697 11.8005 29.1559 11.8155 28.8438H27.5479Z" fill="#E7CA05"/>
<path d="M28.8764 28.8502H9.96612C7.84368 28.8502 6.12305 27.1296 6.12305 25.0071C6.12305 22.8847 7.84368 21.1641 9.96612 21.1641H28.8764V28.8502Z" fill="#FFDE00"/>
<path d="M28.8792 21.1641V28.8495H11.8164C11.9483 26.0977 12.6536 23.4969 13.8171 21.1641H28.8792Z" fill="#E7CA05"/>
<path d="M31.1618 44.222C39.1319 44.222 45.5931 37.7609 45.5931 29.7907C45.5931 21.8205 39.1319 15.3594 31.1618 15.3594C23.1916 15.3594 16.7305 21.8205 16.7305 29.7907C16.7305 37.7609 23.1916 44.222 31.1618 44.222Z" fill="#FFDE00"/>
<path d="M43.717 21.1162C45.2094 20.3625 45.6943 18.4578 45.7244 17.3394V17.3168C45.7244 14.7377 43.6261 12.6394 41.047 12.6394H37.251C37.8553 11.8832 38.2167 10.9242 38.2167 9.88258V9.37928C38.2167 6.93876 36.2319 4.95312 33.7914 4.95312H8.28358C5.84306 4.95312 3.85742 6.93876 3.85742 9.37928V9.88258C3.85742 12.3231 5.84306 14.3087 8.28358 14.3087H12.4635C11.7783 15.1225 11.3651 16.1725 11.3651 17.3168C11.3651 18.462 11.7791 19.512 12.4635 20.3257H9.9654C7.38633 20.3257 5.28801 22.4241 5.28801 25.0031C5.28801 26.5931 6.08594 28.0004 7.30203 28.8467C6.08594 29.6914 5.28801 31.0994 5.28801 32.6894C5.28801 34.2794 6.08594 35.6867 7.30203 36.5322C6.08594 37.3777 5.28801 38.7849 5.28801 40.3757C5.28801 42.9548 7.38633 45.0531 9.9654 45.0531H31.1589C31.2908 45.0531 31.4218 45.0515 31.552 45.0481H31.5553C39.7908 44.8369 46.4247 38.0721 46.4247 29.7873C46.4247 26.5689 45.4239 23.58 43.717 21.1162ZM41.047 14.3087C42.7013 14.3087 44.0476 15.65 44.0551 17.3026C44.0476 17.4896 43.9324 19.4368 42.6362 19.7315C39.8351 16.5398 35.7286 14.5216 31.1589 14.5216C26.3121 14.5216 21.9844 16.7927 19.1866 20.3257H16.0425C14.384 20.3257 13.0344 18.9761 13.0344 17.3168C13.0344 15.6584 14.384 14.3087 16.0425 14.3087H41.047ZM8.28358 12.6394C6.76368 12.6394 5.52673 11.4025 5.52673 9.88258V9.37928C5.52673 7.85938 6.76368 6.62243 8.28358 6.62243H33.7914C35.3113 6.62243 36.5474 7.85938 36.5474 9.37928V9.88258C36.5474 11.4025 35.3113 12.6394 33.7914 12.6394H8.28358ZM6.95732 25.0031C6.95732 23.3438 8.30695 21.995 9.9654 21.995H18.0356C16.9623 23.7954 16.2495 25.8336 15.9958 28.0112H9.9654C8.30695 28.0112 6.95732 26.6624 6.95732 25.0031ZM6.95732 32.6894C6.95732 31.0301 8.30695 29.6805 9.9654 29.6805H15.8939C15.8931 29.7164 15.8931 29.7515 15.8931 29.7873C15.8931 31.8815 16.3171 33.8788 17.0841 35.6975H9.9654C8.30695 35.6975 6.95732 34.3479 6.95732 32.6894ZM9.9654 43.3838C8.30695 43.3838 6.95732 42.0342 6.95732 40.3757C6.95732 38.7164 8.30695 37.3668 9.9654 37.3668H17.9113C19.3853 39.9325 21.5821 42.0317 24.2229 43.3838H9.9654ZM31.1589 43.3838C23.6612 43.3838 17.5624 37.2842 17.5624 29.7873C17.5624 25.0549 20.1073 20.5786 24.1561 18.1364C26.262 16.8661 28.7 16.1909 31.1589 16.1909C38.6557 16.1909 44.7553 22.2897 44.7553 29.7873C44.7553 37.2842 38.6557 43.3838 31.1589 43.3838Z" fill="#014EA2"/>
<path d="M34.6938 30.0532C33.9426 29.4898 33.0045 29.1251 31.992 28.9965V24.2465C33.4794 24.5111 34.6162 25.4626 34.6162 26.5577C34.6162 27.0192 34.9893 27.3923 35.4508 27.3923C35.9116 27.3923 36.2855 27.0192 36.2855 26.5577C36.2855 25.4284 35.7204 24.3826 34.6938 23.613C33.9426 23.0496 33.0045 22.6857 31.992 22.5564V21.7409C31.992 21.2802 31.6181 20.9062 31.1574 20.9062C30.6958 20.9062 30.3227 21.2802 30.3227 21.7409V22.5564C29.3103 22.6857 28.3722 23.0496 27.621 23.613C26.5944 24.3826 26.0293 25.4284 26.0293 26.5577C26.0293 27.687 26.5944 28.7328 27.621 29.5023C28.3722 30.0657 29.3103 30.4305 30.3227 30.559V35.3098C28.8354 35.0444 27.6986 34.0929 27.6986 32.9978C27.6986 32.5371 27.3247 32.1632 26.8639 32.1632C26.4032 32.1632 26.0293 32.5371 26.0293 32.9978C26.0293 34.1271 26.5944 35.1729 27.621 35.9425C28.3722 36.5059 29.3103 36.8698 30.3227 36.9992V37.8271C30.3227 38.2879 30.6958 38.6618 31.1574 38.6618C31.6181 38.6618 31.992 38.2879 31.992 37.8271V36.9992C33.0045 36.8706 33.9426 36.5059 34.6938 35.9425C35.7204 35.1729 36.2855 34.1271 36.2855 32.9978C36.2855 31.8686 35.7204 30.8227 34.6938 30.0532ZM27.6986 26.5577C27.6986 25.4626 28.8354 24.5111 30.3227 24.2465V28.8697C28.8354 28.6042 27.6986 27.6527 27.6986 26.5577ZM31.992 35.3098V30.6867C33.4794 30.9513 34.6162 31.9028 34.6162 32.9978C34.6162 34.0929 33.4794 35.0444 31.992 35.3098Z" fill="#014EA2"/>
</svg>
