<svg width="64" height="60" viewBox="0 0 64 60" fill="none" xmlns="http://www.w3.org/2000/svg">
<circle cx="38.5723" cy="26" r="25" fill="#E6EDF6"/>
<g clip-path="url(#clip0_2755_3564)">
<path d="M55.3997 42.0376V32.7641L53.7057 19.5715C53.3287 16.6361 50.8299 14.4375 47.8703 14.4375H5.27406C3.32453 14.4375 1.74414 16.018 1.74414 17.9675V40.8611L7.36047 42.0377H55.3997V42.0376Z" fill="#FFDE00"/>
<path d="M24.3988 26.487C24.3988 22.2816 25.0668 18.2327 26.2977 14.4375H5.27406C3.32453 14.4375 1.74414 16.018 1.74414 17.9675V40.8611L7.36047 42.0377H27.6235C25.5507 37.2727 24.3988 32.0147 24.3988 26.487Z" fill="#E7CA05"/>
<path d="M53.7057 19.6172H1.74414V28.6525H46.5865L55.3997 32.7666L53.7057 19.6172Z" fill="#E6EDF6"/>
<path d="M11.2428 45.5677C13.1923 45.5677 14.7727 43.9873 14.7727 42.0377C14.7727 40.0882 13.1923 38.5078 11.2428 38.5078C9.29329 38.5078 7.71289 40.0882 7.71289 42.0377C7.71289 43.9873 9.29329 45.5677 11.2428 45.5677Z" fill="#9AB8DF"/>
<path d="M42.3698 45.5677C44.3193 45.5677 45.8997 43.9873 45.8997 42.0377C45.8997 40.0882 44.3193 38.5078 42.3698 38.5078C40.4202 38.5078 38.8398 40.0882 38.8398 42.0377C38.8398 43.9873 40.4202 45.5677 42.3698 45.5677Z" fill="#E6EDF6"/>
<path d="M24.3988 26.4893C24.3988 24.1445 24.606 21.8481 25.0025 19.6172H1.74414V28.6525H24.4595C24.4204 27.9362 24.3988 27.2153 24.3988 26.4893Z" fill="#9AB8DF"/>
<path d="M59.4 25.8825C58.7528 25.8825 58.2281 25.3579 58.2281 24.7106V20.7891H54.2227C53.5754 20.7891 53.0508 20.2644 53.0508 19.6172C53.0508 18.97 53.5754 18.4453 54.2227 18.4453H59.4C60.0472 18.4453 60.5719 18.97 60.5719 19.6172V24.7106C60.5719 25.3579 60.0472 25.8825 59.4 25.8825Z" fill="#FFDE00"/>
<path d="M55.1652 38.0312H51.9121C51.2649 38.0312 50.7402 37.5066 50.7402 36.8594C50.7402 36.2121 51.2649 35.6875 51.9121 35.6875H55.1652C55.8125 35.6875 56.3371 36.2121 56.3371 36.8594C56.3371 37.5066 55.8125 38.0312 55.1652 38.0312Z" fill="white"/>
<path d="M56.5621 32.6149L54.868 19.4222C54.4173 15.9124 51.4089 13.2656 47.8703 13.2656H5.27418C2.68152 13.2656 0.572266 15.3749 0.572266 17.9675V40.8611C0.572266 41.4156 0.960977 41.8943 1.50391 42.0081L6.66144 43.0886C7.14027 45.1767 9.01211 46.7395 11.2435 46.7395C13.4316 46.7395 15.2754 45.2371 15.7975 43.2095H37.8155C38.3376 45.237 40.1813 46.7395 42.3695 46.7395C44.5578 46.7395 46.4014 45.237 46.9234 43.2095H55.3998C56.0471 43.2095 56.5717 42.6848 56.5717 42.0376V32.7641C56.5716 32.7143 56.5684 32.6644 56.5621 32.6149ZM2.91602 27.4782V20.7866H9.54016V27.4782H2.91602ZM11.8839 20.7867H18.5086V27.4784H11.8839V20.7867ZM15.9453 29.822H21.719V40.8657H15.9453V29.822ZM20.8524 27.4782V20.7866H27.477V27.4782H20.8524ZM29.8207 20.7867H36.4455V27.4784H29.8207V20.7867ZM38.7892 20.7867H45.4143V27.4784H38.7892V20.7867ZM47.758 20.7867H52.6803L53.9663 30.8017L47.758 27.9037V20.7867ZM5.27418 15.6094H47.8703C49.7796 15.6094 51.4573 16.7636 52.1901 18.443H2.91602V17.9675C2.91602 16.6672 3.97387 15.6094 5.27418 15.6094ZM6.73398 40.7091L2.91602 39.9093V29.8221H13.6015V37.9725C12.9078 37.5686 12.1025 37.3358 11.2435 37.3358C9.11219 37.3358 7.30867 38.7616 6.73398 40.7091ZM11.2435 44.3958C9.94316 44.3958 8.88531 43.3379 8.88531 42.0376C8.88531 40.7373 9.94316 39.6795 11.2435 39.6795C12.5433 39.6795 13.6009 40.7367 13.6015 42.0364V42.0376C13.6015 43.3379 12.5437 44.3958 11.2435 44.3958ZM37.8154 40.8657H24.0626V29.822H45.4143V38.4591C44.5933 37.7595 43.5302 37.3357 42.3694 37.3357C40.1813 37.3358 38.3375 38.8383 37.8154 40.8657ZM42.3694 44.3958C41.0691 44.3958 40.0112 43.3379 40.0112 42.0376C40.0112 40.7373 41.0691 39.6795 42.3694 39.6795C43.6697 39.6795 44.7276 40.7373 44.7276 42.0376C44.7276 43.3379 43.6697 44.3958 42.3694 44.3958ZM47.758 40.8657V30.4903L54.2278 33.5105V40.8659H47.758V40.8657Z" fill="#014EA2"/>
</g>
<defs>
<clipPath id="clip0_2755_3564">
<rect width="60" height="60" fill="white" transform="translate(0.572266)"/>
</clipPath>
</defs>
</svg>
