<svg width="60" height="50" viewBox="0 0 60 50" fill="none" xmlns="http://www.w3.org/2000/svg">
<circle cx="34.5723" cy="25" r="25" fill="#E6EDF6"/>
<path d="M43.536 15.4V5.6901C43.536 4.74537 42.7701 3.97949 41.8254 3.97949H19.7633C18.8186 3.97949 18.0527 4.74537 18.0527 5.6901V15.4C18.0527 16.3448 18.8186 17.1106 19.7633 17.1106H41.8254C42.7701 17.1106 43.536 16.3448 43.536 15.4Z" fill="#E7CA05"/>
<path d="M18.0527 18.7799V44.3093C18.0527 45.254 18.8186 46.0199 19.7633 46.0199H41.8254C42.7701 46.0199 43.536 45.254 43.536 44.3093V18.7799C43.536 17.8352 42.7701 17.0693 41.8254 17.0693H19.7633C18.8186 17.0693 18.0527 17.8352 18.0527 18.7799Z" fill="#E7CA05"/>
<path d="M19.7633 17.0693C18.8186 17.0693 18.0527 17.8352 18.0527 18.7799V44.3093C18.0527 44.9803 18.4401 45.5595 19.0024 45.8397H35.2182C37.2837 45.8397 38.9581 44.1653 38.9581 42.0998V17.0693H19.7633Z" fill="#FFDE00"/>
<path d="M37.252 23.4023H29.998V39.6889H37.252C38.1967 39.6889 38.9626 38.923 38.9626 37.9783V25.113C38.9627 24.1682 38.1968 23.4023 37.252 23.4023Z" fill="#9AB8DF"/>
<path d="M28.1066 46.0215H7.67969C6.73582 46.0215 5.9707 45.2564 5.9707 44.3125V14.3721C5.9707 13.4282 6.73582 12.6631 7.67969 12.6631H28.1066C30.1701 12.6631 31.8428 14.3358 31.8428 16.3994V42.2853C31.8428 44.3488 30.1701 46.0215 28.1066 46.0215Z" fill="#FFDE00"/>
<path d="M18.9059 34.1389C23.0316 34.1389 26.3762 30.7943 26.3762 26.6686C26.3762 22.5428 23.0316 19.1982 18.9059 19.1982C14.7801 19.1982 11.4355 22.5428 11.4355 26.6686C11.4355 30.7943 14.7801 34.1389 18.9059 34.1389Z" fill="#9AB8DF"/>
<path d="M18.9097 34.1369C20.6213 34.1369 22.0089 30.7923 22.0089 26.6666C22.0089 22.5409 20.6213 19.1963 18.9097 19.1963C17.1981 19.1963 15.8105 22.5409 15.8105 26.6666C15.8105 30.7923 17.1981 34.1369 18.9097 34.1369Z" fill="#E6EDF6"/>
<path d="M38.6164 9.30859H22.9775C22.5056 9.30859 22.123 8.92604 22.123 8.4541C22.123 7.98217 22.5056 7.59961 22.9775 7.59961H38.6164C39.0883 7.59961 39.4709 7.98217 39.4709 8.4541C39.4709 8.92604 39.0883 9.30859 38.6164 9.30859Z" fill="white"/>
<path d="M38.6124 13.6826H36.1572C35.6853 13.6826 35.3027 13.3001 35.3027 12.8281C35.3027 12.3562 35.6853 11.9736 36.1572 11.9736H38.6124C39.0843 11.9736 39.4668 12.3562 39.4668 12.8281C39.4668 13.3001 39.0843 13.6826 38.6124 13.6826Z" fill="white"/>
<path d="M44.3937 5.6901C44.3937 4.27574 43.2429 3.125 41.8286 3.125H19.7665C18.3521 3.125 17.2013 4.27574 17.2013 5.6901V11.8076H7.67871C6.26521 11.8076 5.11523 12.9576 5.11523 14.3711V44.3115C5.11523 45.725 6.26521 46.875 7.67871 46.875H41.8286C43.243 46.875 44.3938 45.7243 44.3938 44.3099V18.7806C44.3938 18.1335 44.1525 17.5421 43.7556 17.0903C44.1524 16.6385 44.3938 16.0471 44.3938 15.4V5.6901H44.3937ZM18.9104 5.6901C18.9104 5.21799 19.2945 4.83398 19.7666 4.83398H41.8286C42.3007 4.83398 42.6848 5.21808 42.6848 5.6901V15.4C42.6848 15.7949 42.4157 16.1273 42.0514 16.2257C41.9779 16.2194 41.9038 16.2155 41.8286 16.2155H32.6917C32.5952 13.7686 30.5756 11.8076 28.1056 11.8076H18.9104V5.6901ZM7.67871 45.166C7.20754 45.166 6.82422 44.7827 6.82422 44.3115V14.3711C6.82422 13.8999 7.20754 13.5166 7.67871 13.5166H28.1056C29.6946 13.5166 30.9874 14.8093 30.9874 16.3983V42.2843C30.9874 43.8733 29.6946 45.1661 28.1056 45.1661H7.67871V45.166ZM42.6847 44.3099C42.6847 44.782 42.3006 45.166 41.8285 45.166H31.6756C32.3133 44.3775 32.6964 43.375 32.6964 42.2842V17.9651H41.8286C41.9037 17.9651 41.9779 17.9612 42.0514 17.9549C42.4157 18.0533 42.6848 18.3857 42.6848 18.7806V44.3099H42.6847Z" fill="#014EA2"/>
<path d="M18.9049 18.3438C14.3146 18.3438 10.5801 22.0782 10.5801 26.6686C10.5801 31.2589 14.3146 34.9934 18.9049 34.9934C23.4951 34.9934 27.2297 31.2589 27.2297 26.6686C27.2297 22.0782 23.4952 18.3438 18.9049 18.3438ZM18.9049 33.2845C15.2569 33.2845 12.2891 30.3166 12.2891 26.6686C12.2891 23.0206 15.2569 20.0528 18.9049 20.0528C22.5529 20.0528 25.5207 23.0206 25.5207 26.6686C25.5207 30.3166 22.5529 33.2845 18.9049 33.2845Z" fill="#014EA2"/>
<path d="M26.1201 39.8145H11.6963C11.2244 39.8145 10.8418 39.4319 10.8418 38.96C10.8418 38.488 11.2244 38.1055 11.6963 38.1055H26.1201C26.5921 38.1055 26.9746 38.488 26.9746 38.96C26.9746 39.4319 26.5921 39.8145 26.1201 39.8145Z" fill="white"/>
</svg>
