<svg width="62" height="56" viewBox="0 0 62 56" fill="none" xmlns="http://www.w3.org/2000/svg">
<circle cx="36.5723" cy="27" r="25" fill="#E6EDF6"/>
<g clip-path="url(#clip0_2755_3583)">
<path d="M55.4785 38.7284V30.91C55.4785 29.2148 54.1923 27.7963 52.5052 27.631L42.7621 26.6764L35.7333 20.0636C34.5111 18.9137 32.8962 18.2734 31.2182 18.2734H15.9753L9.17975 26.6764H4.96061C3.14105 26.6764 1.66602 28.1514 1.66602 29.971V38.7284H55.4785Z" fill="#FFDE00"/>
<path d="M21.2441 25.2197C21.2441 22.844 21.4743 20.5223 21.9086 18.2734H15.9753L9.17986 26.6764H4.96061C3.14105 26.6765 1.66602 28.1515 1.66602 29.9711V38.7285H23.8333C22.1639 34.5512 21.2441 29.9931 21.2441 25.2197Z" fill="#E7CA05"/>
<path d="M21.9451 18.2656C21.6852 18.585 15.1094 26.6686 15.1094 26.6686H42.7613L35.7325 20.0558C34.5103 18.9059 32.8954 18.2656 31.2174 18.2656H21.9451Z" fill="#E6EDF6"/>
<path d="M21.2435 25.2145C21.2435 22.8599 21.4696 20.5583 21.8964 18.3281C21.2441 19.1301 15.1094 26.6713 15.1094 26.6713H21.2748C21.2559 26.1878 21.2435 25.7026 21.2435 25.2145Z" fill="#9AB8DF"/>
<path d="M21.2891 18.2697V15.8536C21.2891 14.5192 22.3708 13.4375 23.7052 13.4375H28.098C29.4324 13.4375 30.5141 14.5192 30.5141 15.8536V18.2697H21.2891Z" fill="#FFDE00"/>
<path d="M11.7344 42.5703C13.8572 42.5703 15.5782 40.8494 15.5782 38.7266C15.5782 36.6037 13.8572 34.8828 11.7344 34.8828C9.61154 34.8828 7.89062 36.6037 7.89062 38.7266C7.89062 40.8494 9.61154 42.5703 11.7344 42.5703Z" fill="#014EA2"/>
<path d="M45.1465 42.5703C47.2694 42.5703 48.9903 40.8494 48.9903 38.7266C48.9903 36.6037 47.2694 34.8828 45.1465 34.8828C43.0236 34.8828 41.3027 36.6037 41.3027 38.7266C41.3027 40.8494 43.0236 42.5703 45.1465 42.5703Z" fill="#014EA2"/>
<path d="M54.9018 33.6797H52.3086C51.7046 33.6797 51.2148 33.19 51.2148 32.5859C51.2148 31.9819 51.7046 31.4922 52.3086 31.4922H54.9018C55.5057 31.4922 55.9955 31.9819 55.9955 32.5859C55.9955 33.19 55.5057 33.6797 54.9018 33.6797Z" fill="white"/>
<path d="M6.6757 32.6016H1.99609C1.39213 32.6016 0.902344 32.1119 0.902344 31.5078C0.902344 30.9037 1.39213 30.4141 1.99609 30.4141H6.6757C7.27967 30.4141 7.76945 30.9037 7.76945 31.5078C7.76945 32.1119 7.27967 32.6016 6.6757 32.6016Z" fill="#FD6050"/>
<path d="M52.6119 26.5388L43.2399 25.6205L36.4828 19.2631C35.1471 18.0065 33.4287 17.2775 31.6082 17.1861V15.8536C31.6082 13.9183 30.0336 12.3438 28.0983 12.3438H23.7055C21.7702 12.3438 20.1957 13.9183 20.1957 15.8536V17.1759H15.9753C15.645 17.1759 15.3325 17.3251 15.1249 17.5819L8.6577 25.5789H4.96061C2.54091 25.5789 0.572266 27.5474 0.572266 29.9672V38.7247C0.572266 39.3288 1.06205 39.8184 1.66602 39.8184H6.92039C7.41958 42.0161 9.38767 43.6622 11.7342 43.6622C14.0807 43.6622 16.0488 42.0162 16.548 39.8184H40.3326C40.8318 42.0161 42.7999 43.6622 45.1465 43.6622C47.493 43.6622 49.4611 42.0162 49.9603 39.8184H55.4785C56.0825 39.8184 56.5723 39.3288 56.5723 38.7247V30.9062C56.5723 28.6376 54.8697 26.7599 52.6119 26.5388ZM40.0034 25.5789H26.9957V19.3634H31.218C32.6232 19.3634 33.9605 19.8937 34.9838 20.8564L40.0034 25.5789ZM24.8082 19.3634V25.5789H17.4014L22.4278 19.3634H24.8082ZM22.3832 15.8536C22.3832 15.1244 22.9764 14.5312 23.7055 14.5312H28.0985C28.8275 14.5312 29.4207 15.1244 29.4207 15.8536V17.1759H22.3832V15.8536ZM16.4975 19.3634H19.6145L14.588 25.5789H11.4709L16.4975 19.3634ZM11.7343 41.4747C10.218 41.4747 8.9843 40.241 8.9843 38.7247C8.9843 37.2083 10.2179 35.9747 11.7343 35.9747C13.2507 35.9747 14.4843 37.2083 14.4843 38.7247C14.4843 40.241 13.2506 41.4747 11.7343 41.4747ZM45.1467 41.4747C43.6304 41.4747 42.3966 40.241 42.3966 38.7247C42.3966 37.2083 43.6302 35.9747 45.1467 35.9747C46.663 35.9747 47.8968 37.2083 47.8968 38.7247C47.8968 40.241 46.663 41.4747 45.1467 41.4747ZM54.3848 37.6309H49.9607C49.4615 35.4331 47.4934 33.7872 45.1468 33.7872C42.8002 33.7872 40.832 35.4331 40.3329 37.6309H16.5481C16.0489 35.4331 14.0808 33.7872 11.7343 33.7872C9.38778 33.7872 7.41958 35.4331 6.9205 37.6309H2.75977V29.9672C2.75977 28.7537 3.74698 27.7664 4.96061 27.7664H42.7088L52.3985 28.7158C53.531 28.8268 54.3848 29.7684 54.3848 30.9062V37.6309Z" fill="#014EA2"/>
</g>
<defs>
<clipPath id="clip0_2755_3583">
<rect width="56" height="56" fill="white" transform="translate(0.572266)"/>
</clipPath>
</defs>
</svg>
