<svg width="60" height="50" viewBox="0 0 60 50" fill="none" xmlns="http://www.w3.org/2000/svg">
<circle cx="34.5723" cy="25" r="25" fill="#E6EDF6"/>
<path d="M31.0246 5.78125H11.6871C10.9765 5.78125 10.4004 6.35733 10.4004 7.068V42.9259C10.4004 43.6365 10.9765 44.2126 11.6871 44.2126H39.7048C40.4155 44.2126 40.9915 43.6365 40.9915 42.9259V15.7482C40.9915 15.3945 40.8511 15.0554 40.601 14.8053L31.9675 6.17176C31.7174 5.92172 31.3783 5.78125 31.0246 5.78125Z" fill="#FFDE00"/>
<path d="M15.915 24.9383C15.915 17.9142 17.8955 11.3529 21.3278 5.78125H11.6871C10.9765 5.78125 10.4004 6.35733 10.4004 7.068V42.9259C10.4004 43.6365 10.9765 44.2126 11.6871 44.2126H21.3999C17.9231 38.616 15.915 32.0118 15.915 24.9383Z" fill="#E7CA05"/>
<path d="M25.6967 29.5181L22.3159 27.2957C19.6062 25.5145 17.9746 22.4894 17.9746 19.2466V11.9983C22.8043 9.43807 28.5891 9.43807 33.4188 11.9983V19.2467C33.4188 22.4894 31.7872 25.5145 29.0775 27.2958L25.6967 29.5181Z" fill="#E6EDF6"/>
<path d="M40.6023 14.8091L31.9686 6.17543C31.8548 6.06154 31.7219 5.97174 31.5781 5.90625V14.0284C31.5781 14.6753 32.1024 15.1996 32.7493 15.1996H40.8715C40.8059 15.0558 40.7161 14.9229 40.6023 14.8091Z" fill="#9AB8DF"/>
<path d="M29.2644 16.2858C28.9114 16.0348 28.4218 16.1174 28.1707 16.4704L25.2333 20.6005L23.6362 18.8562C23.3436 18.5366 22.8475 18.5147 22.5281 18.8073C22.2087 19.0998 22.1868 19.596 22.4792 19.9155L24.7316 22.3754C24.8806 22.5381 25.0908 22.63 25.31 22.63C25.3261 22.63 25.3422 22.6296 25.3583 22.6286C25.5948 22.6139 25.8119 22.4933 25.9492 22.3002L29.449 17.3795C29.7 17.0266 29.6174 16.5369 29.2644 16.2858Z" fill="#014EA2"/>
<path d="M41.1587 14.2538L32.5252 5.62031C32.1252 5.22031 31.5934 5 31.0277 5H11.6903C10.5482 5 9.61914 5.9291 9.61914 7.07106V42.9289C9.61914 44.071 10.5482 45 11.6902 45H39.7078C40.8499 45 41.7789 44.0709 41.7789 42.9289V15.7512C41.779 15.1856 41.5587 14.6539 41.1587 14.2538ZM39.1012 14.4147H32.7511C32.5379 14.4147 32.3643 14.2412 32.3643 14.0278V7.67788L39.1012 14.4147ZM32.6369 15.9797V19.246C32.6369 22.2342 31.1461 24.9982 28.649 26.6397L25.6991 28.5788L22.7491 26.6396C20.252 24.9981 18.7613 22.2341 18.7613 19.2459V12.4774C22.51 10.631 26.8443 10.356 30.7957 11.7123V14.0279C30.7957 15.0677 31.6116 15.9203 32.6369 15.9797ZM39.7078 43.4314H11.6903C11.4133 43.4314 11.1878 43.206 11.1878 42.9289V7.07106C11.1878 6.79404 11.4133 6.56863 11.6903 6.56863H30.7957V10.0631C26.4257 8.71318 21.6768 9.14847 17.6096 11.3045C17.353 11.4405 17.1926 11.7071 17.1926 11.9975V19.2459C17.1926 22.7638 18.9477 26.018 21.8875 27.9504L25.2682 30.1727C25.399 30.2587 25.549 30.3016 25.6991 30.3016C25.8491 30.3016 25.9991 30.2587 26.1299 30.1727L29.5107 27.9504C32.4504 26.0179 34.2055 22.7638 34.2055 19.2459V15.9832H40.2104V42.9289C40.2104 43.206 39.9849 43.4314 39.7078 43.4314Z" fill="#014EA2"/>
<path d="M16.6189 37.8594H14.9796C14.5464 37.8594 14.1953 38.2106 14.1953 38.6437C14.1953 39.0768 14.5464 39.428 14.9796 39.428H16.6189C17.0521 39.428 17.4032 39.0768 17.4032 38.6437C17.4032 38.2106 17.0521 37.8594 16.6189 37.8594Z" fill="#014EA2"/>
<path d="M16.6189 32.6875H14.9796C14.5464 32.6875 14.1953 33.0387 14.1953 33.4718C14.1953 33.9049 14.5464 34.2561 14.9796 34.2561H16.6189C17.0521 34.2561 17.4032 33.9049 17.4032 33.4718C17.4032 33.0387 17.0521 32.6875 16.6189 32.6875Z" fill="#014EA2"/>
<path d="M36.4193 32.6875H20.7042C20.2711 32.6875 19.9199 33.0387 19.9199 33.4718C19.9199 33.9049 20.2711 34.2561 20.7042 34.2561H36.4193C36.8525 34.2561 37.2036 33.9049 37.2036 33.4718C37.2036 33.0387 36.8525 32.6875 36.4193 32.6875Z" fill="#014EA2"/>
<path d="M36.4193 37.8594H20.7042C20.2711 37.8594 19.9199 38.2106 19.9199 38.6437C19.9199 39.0768 20.2711 39.428 20.7042 39.428H36.4193C36.8525 39.428 37.2036 39.0768 37.2036 38.6437C37.2036 38.2106 36.8525 37.8594 36.4193 37.8594Z" fill="#014EA2"/>
</svg>
