<svg width="60" height="50" viewBox="0 0 60 50" fill="none" xmlns="http://www.w3.org/2000/svg">
<circle cx="34.5723" cy="25" r="25" fill="#E6EDF6"/>
<path d="M40.6707 8.41406H10.4746V49.0228H40.6707V8.41406Z" fill="#FFDE00"/>
<path d="M21.164 29.1394C21.164 20.5635 25.4343 12.986 31.9635 8.41406H10.4746V49.0228H30.8275C24.943 44.3932 21.164 37.2077 21.164 29.1394Z" fill="#E7CA05"/>
<path d="M22.5508 37.4141H29.6526V48.0392L26.9098 46.9412L22.9349 42.5797L22.5508 37.4141Z" fill="white"/>
<path d="M22.5516 37.4141H21.4922V49.0236H29.6535V48.0392C26.4534 45.1932 23.9823 41.5468 22.5516 37.4141Z" fill="#9AB8DF"/>
<path d="M33.0154 0.984375H18.1543V15.8455H33.0154V0.984375Z" fill="white"/>
<path d="M19.1028 20.1562H14.7891V24.47H19.1028V20.1562Z" fill="#9AB8DF"/>
<path d="M19.1028 28.7812H14.7891V33.095H19.1028V28.7812Z" fill="#9AB8DF"/>
<path d="M27.7297 20.1562H23.416V24.47H27.7297V20.1562Z" fill="white"/>
<path d="M27.7297 28.7812H23.416V33.095H27.7297V28.7812Z" fill="white"/>
<path d="M36.3586 20.1562H32.0449V24.47H36.3586V20.1562Z" fill="white"/>
<path d="M36.3586 28.7812H32.0449V33.095H36.3586V28.7812Z" fill="white"/>
<path d="M46.5994 38.0762C47.0661 37.0771 47.1001 35.8852 46.5906 34.8111C46.1511 33.8847 45.3875 33.2171 44.5 32.8771C44.4705 30.7871 42.7681 29.1016 40.671 29.1016C38.574 29.1016 36.8714 30.7871 36.842 32.8771C35.9545 33.2171 35.1909 33.8847 34.7514 34.8111C34.2418 35.8852 34.2758 37.0771 34.7426 38.0762C34.2552 38.7372 33.9668 39.5539 33.9668 40.4381C33.9668 42.6391 35.751 44.4233 37.952 44.4233C39.0034 44.4233 39.959 44.0155 40.6711 43.3503C41.3833 44.0155 42.3389 44.4233 43.3902 44.4233C45.5912 44.4233 47.3754 42.6391 47.3754 40.4381C47.3752 39.5539 47.0868 38.7372 46.5994 38.0762Z" fill="#B1D952"/>
<path d="M4.54551 38.0762C4.07885 37.0771 4.04483 35.8852 4.55434 34.8111C4.99384 33.8847 5.75747 33.2171 6.64492 32.8771C6.67443 30.7871 8.37688 29.1016 10.4739 29.1016C12.571 29.1016 14.2736 30.7871 14.303 32.8771C15.1904 33.2171 15.954 33.8847 16.3936 34.8111C16.9032 35.8852 16.8691 37.0771 16.4024 38.0762C16.8897 38.7372 17.1782 39.5539 17.1782 40.4381C17.1782 42.6391 15.3939 44.4233 13.193 44.4233C12.1416 44.4233 11.186 44.0155 10.4738 43.3503C9.76169 44.0155 8.8061 44.4233 7.75473 44.4233C5.55375 44.4233 3.76953 42.6391 3.76953 40.4381C3.76973 39.5539 4.05816 38.7372 4.54551 38.0762Z" fill="#B1D952"/>
<path d="M27.7297 4.3125C27.1883 4.3125 26.7493 4.75142 26.7493 5.29289V7.3224H24.3963V5.29289C24.3963 4.75142 23.9574 4.3125 23.4159 4.3125C22.8745 4.3125 22.4355 4.75142 22.4355 5.29289V11.5265C22.4355 12.068 22.8745 12.5069 23.4159 12.5069C23.9574 12.5069 24.3963 12.068 24.3963 11.5265V9.28319H26.7493V11.5265C26.7493 12.068 27.1883 12.5069 27.7297 12.5069C28.271 12.5069 28.7101 12.068 28.7101 11.5265V5.29289C28.7101 4.75142 28.271 4.3125 27.7297 4.3125Z" fill="#014EA2"/>
<path d="M43.3896 45.3979C46.1276 45.3979 48.355 43.1704 48.355 40.4325C48.355 39.5542 48.1287 38.7096 47.6963 37.9599C48.0851 36.7893 48.0114 35.5141 47.4757 34.3851C47.0351 33.4563 46.32 32.7051 45.4283 32.2218C45.1321 30.2304 43.6001 28.6279 41.6507 28.2182V9.39137H42.4271C42.9685 9.39137 43.4075 8.95245 43.4075 8.41098C43.4075 7.86951 42.9685 7.43059 42.4271 7.43059H33.9957V0.980392C33.9957 0.438922 33.5567 0 33.0153 0H18.1544C17.6129 0 17.174 0.438922 17.174 0.980392V7.43059H8.74259C8.20112 7.43059 7.7622 7.86951 7.7622 8.41098C7.7622 8.95245 8.20112 9.39137 8.74259 9.39137H9.49406V28.2182C7.54436 28.6277 6.0121 30.2303 5.71583 32.2219C4.82406 32.7052 4.10906 33.4564 3.66838 34.3852C3.13279 35.5142 3.05896 36.7893 3.44779 37.96C3.01534 38.7096 2.78906 39.5542 2.78906 40.4325C2.78906 43.1706 5.01661 45.398 7.75455 45.398C8.35563 45.398 8.94318 45.29 9.49367 45.084V48.0392H5.87896C5.33749 48.0392 4.89857 48.4781 4.89857 49.0196C4.89857 49.5611 5.33749 50 5.87896 50H45.2907C45.8321 50 46.2711 49.5611 46.2711 49.0196C46.2711 48.4781 45.8321 48.0392 45.2907 48.0392H41.6504V45.0839C42.2009 45.2899 42.7886 45.3979 43.3896 45.3979ZM19.1347 1.96078H32.035V14.8611H19.1347V1.96078ZM10.4742 38.2829C9.93269 38.2829 9.49377 38.7219 9.49377 39.2633V42.8815C8.98789 43.2418 8.38338 43.4372 7.75465 43.4372C6.09789 43.4372 4.74994 42.0892 4.74994 40.4325C4.74994 39.7865 4.9521 39.1709 5.33445 38.6523C5.54759 38.3632 5.58563 37.9809 5.43357 37.6555C5.0721 36.8817 5.07436 35.9961 5.43994 35.2256C5.75504 34.5614 6.30749 34.0505 6.99543 33.787C7.37004 33.6435 7.61945 33.2864 7.62504 32.8853C7.64691 31.3364 8.92485 30.0763 10.4738 30.0763C12.0227 30.0763 13.3006 31.3365 13.3226 32.8853C13.3283 33.2864 13.5777 33.6435 13.9522 33.787C14.6401 34.0505 15.1925 34.5613 15.5077 35.2256C15.8733 35.996 15.8755 36.8817 15.5141 37.6555C15.3621 37.9808 15.4 38.3632 15.6132 38.6523C15.9955 39.171 16.1977 39.7865 16.1977 40.4325C16.1977 42.0892 14.8497 43.4372 13.193 43.4372C12.5646 43.4372 11.9603 43.2421 11.4547 42.8821V39.2633C11.4546 38.7219 11.0156 38.2829 10.4742 38.2829ZM39.6897 48.0392H11.4546V45.0842C12.0048 45.29 12.5921 45.3979 13.1929 45.3979C15.9309 45.3979 18.1584 43.1704 18.1584 40.4325C18.1584 39.5542 17.9321 38.7096 17.4997 37.9599C17.8885 36.7892 17.8146 35.5141 17.2791 34.3852C16.8384 33.4564 16.1234 32.7052 15.2316 32.2219C14.9354 30.2308 13.4038 28.6284 11.4547 28.2185V9.39137H17.1739V15.8415C17.1739 16.3829 17.6128 16.8219 18.1543 16.8219H33.0153C33.5567 16.8219 33.9957 16.3829 33.9957 15.8415V9.39137H39.6899V28.2183C37.7404 28.628 36.2086 30.2305 35.9125 32.2219C35.0206 32.7052 34.3057 33.4564 33.865 34.3852C33.3294 35.514 33.2556 36.7892 33.6444 37.96C33.212 38.7096 32.9856 39.5543 32.9856 40.4325C32.9856 43.1706 35.2132 45.398 37.9511 45.398C38.5519 45.398 39.1393 45.2901 39.6895 45.0843V48.0392H39.6897ZM40.67 38.2829C40.1287 38.2829 39.6897 38.7219 39.6897 39.2633V42.8821C39.184 43.242 38.5798 43.4372 37.9513 43.4372C36.2946 43.4372 34.9466 42.0892 34.9466 40.4325C34.9466 39.7866 35.1488 39.171 35.5311 38.6522C35.7443 38.3631 35.7823 37.9809 35.6303 37.6555C35.2688 36.8816 35.2712 35.996 35.6366 35.2256C35.9519 34.5613 36.5043 34.0504 37.1921 33.787C37.5667 33.6435 37.8161 33.2864 37.8218 32.8852C37.8436 31.3363 39.1215 30.0762 40.6705 30.0762C42.2196 30.0762 43.4975 31.3364 43.5194 32.8852C43.525 33.2863 43.7745 33.6434 44.1491 33.7869C44.837 34.0504 45.3894 34.5613 45.7045 35.2255C46.07 35.996 46.0723 36.8817 45.7107 37.6554C45.5588 37.9807 45.5968 38.363 45.8099 38.6521C46.1923 39.1709 46.3945 39.7864 46.3945 40.4324C46.3945 42.0891 45.0465 43.4371 43.3897 43.4371C42.761 43.4371 42.1565 43.2417 41.6506 42.8814V39.2632C41.6504 38.7219 41.2114 38.2829 40.67 38.2829Z" fill="#014EA2"/>
</svg>
