<svg width="59" height="50" viewBox="0 0 59 50" fill="none" xmlns="http://www.w3.org/2000/svg">
<circle cx="34" cy="25" r="25" fill="#E6EDF6"/>
<path fill-rule="evenodd" clip-rule="evenodd" d="M21.6157 34.5142L23.4698 41.4779L18.2628 46.6843L13.2301 36.9748L3.51953 31.9426L8.72649 26.7361L15.6952 28.5911L37.0247 5.92297C39.9573 2.81238 44.0481 2.71837 45.769 4.43915C47.4898 6.16013 47.3958 10.2509 44.2852 13.1835L21.6157 34.5142Z" fill="#FFDE00"/>
<path fill-rule="evenodd" clip-rule="evenodd" d="M30.513 26.1406C26.0696 27.5892 21.3258 28.3725 16.3989 28.3725C16.2332 28.3725 16.0677 28.3711 15.9023 28.3694L15.6952 28.5894L14.7704 28.3433L8.72659 26.7344L3.51953 31.9408L13.2301 36.9731L18.2628 46.6826L23.4698 41.4761L21.6157 34.5125L30.513 26.1406Z" fill="#E7CA05"/>
<path fill-rule="evenodd" clip-rule="evenodd" d="M42.1354 29.8438C45.4519 30.065 48.0734 32.8252 48.0734 36.1977H49.0188V42.566H31.0446C29.3979 42.566 28.0508 41.2187 28.0508 39.5722C28.0508 37.9254 29.3979 36.5783 31.0447 36.5783C31.1927 34.593 32.7503 33.0004 34.7199 32.7977L42.1354 29.8438Z" fill="#9AB8DF"/>
<path fill-rule="evenodd" clip-rule="evenodd" d="M42.0132 3.35156C41.7382 4.64519 42.0716 6.26588 43.0068 7.20097C43.942 8.13617 45.5578 8.51744 46.8514 8.24244L45.7685 4.43931L42.0132 3.35156Z" fill="#FFDE00"/>
<path fill-rule="evenodd" clip-rule="evenodd" d="M38.5252 18.6094L42.9839 32.8596L37.8914 37.9515L30.6934 26.0674L38.5252 18.6094Z" fill="white"/>
<path fill-rule="evenodd" clip-rule="evenodd" d="M31.4028 11.6853L17.1526 7.22656L12.0605 12.319L23.9448 19.5172L31.4028 11.6853Z" fill="white"/>
<path fill-rule="evenodd" clip-rule="evenodd" d="M0.980469 9.2722C1.62459 8.85367 2.39302 8.61034 3.21841 8.61034C3.59792 8.61034 3.96537 8.662 4.31429 8.75828C5.42763 6.90445 7.45772 5.66406 9.77753 5.66406C13.2947 5.66406 16.1459 8.51524 16.1459 12.0324H16.8326C18.584 12.0324 20.0168 13.4652 20.0168 15.2166C20.0168 16.9473 18.5905 18.4008 16.8535 18.4008H0.980469V9.2722Z" fill="#E6EDF6"/>
<path d="M49.0196 41.5839H31.0451C29.9353 41.5839 29.0324 40.6799 29.0324 39.5701C29.0324 38.4593 29.9353 37.5564 31.0451 37.5564C31.5588 37.5564 31.9853 37.1603 32.0235 36.6486C32.1226 35.3241 33.0373 34.2309 34.2775 33.876L37.0529 38.4574C37.2088 38.7152 37.4755 38.8868 37.7735 38.9231C37.8137 38.927 37.8529 38.9299 37.8922 38.9299C38.15 38.9299 38.4 38.828 38.5853 38.6427L43.6775 33.5505C43.9353 33.2927 44.0284 32.9133 43.9196 32.5642L43.4618 31.1015C45.5814 31.8339 47.0941 33.8554 47.0941 36.1956C47.0941 36.7368 47.5324 37.176 48.0745 37.176H49.0196C49.5608 37.176 50 36.7368 50 36.1956C50 35.6544 49.5608 35.2152 49.0196 35.2152H48.9892C48.5559 31.9966 46.0196 29.4015 42.7814 28.925L39.6422 18.8937L44.9569 13.8927C46.7735 12.1809 47.8343 9.91327 47.8667 7.67111C47.8912 6.06719 47.3922 4.67209 46.4618 3.7417C45.5324 2.81229 44.1343 2.31229 42.5324 2.3368C40.2912 2.37013 38.0225 3.43092 36.3098 5.24758L31.3098 10.5613L17.6363 6.28386C17.2882 6.17503 16.9088 6.26817 16.651 6.52601L15.6108 7.56523C14.2667 5.81229 12.151 4.68091 9.77745 4.68091C7.44608 4.68091 5.23922 5.81033 3.86373 7.66817C3.65 7.64072 3.43431 7.62699 3.21863 7.62699C2.23039 7.62699 1.27157 7.91033 0.446078 8.44758C-0.00784313 8.74268 -0.136275 9.34954 0.158824 9.80346C0.452941 10.2574 1.06078 10.3868 1.51471 10.0917C2.02157 9.76229 2.61078 9.58778 3.21863 9.58778C3.50196 9.58778 3.78235 9.62601 4.05392 9.70052C4.47843 9.81719 4.92843 9.63778 5.1549 9.26033C6.13922 7.62013 7.86765 6.6417 9.77745 6.6417C12.748 6.6417 15.1657 9.05837 15.1657 12.0299C15.1657 12.5711 15.6049 13.0103 16.1461 13.0103H16.8324C18.048 13.0103 19.0363 13.9986 19.0363 15.2133C19.0363 16.4084 18.0363 17.4172 16.8539 17.4172H0.980392C0.439216 17.4172 0 17.8564 0 18.3976C0 18.9397 0.439216 19.378 0.980392 19.378H16.8539C18.0402 19.378 19.1108 18.875 19.8667 18.0691L22.6559 19.7584L15.3814 27.4897L8.97843 25.7848C8.6402 25.6946 8.28039 25.7917 8.03333 26.0388L2.82549 31.2456C2.6049 31.4662 2.50196 31.7799 2.55 32.0888C2.59804 32.3976 2.7902 32.6652 3.06765 32.8093L12.502 37.6986L17.3922 47.1319C17.5363 47.4093 17.8029 47.6015 18.1127 47.6495C18.1627 47.6574 18.2127 47.6613 18.2627 47.6613C18.5206 47.6613 18.7706 47.5593 18.9559 47.3741L24.1627 42.1672C24.4098 41.9201 24.5069 41.5593 24.4167 41.2221L22.7127 34.8231L30.4451 27.5476L33.2392 32.1613C31.7265 32.7701 30.5814 34.079 30.1951 35.6868C28.4108 36.078 27.0716 37.6701 27.0716 39.5701C27.0716 41.7613 28.8539 43.5446 31.0451 43.5446H49.0196C49.5608 43.5446 50 43.1054 50 42.5642C50 42.0222 49.5608 41.5839 49.0196 41.5839ZM20.8363 16.3633C20.9412 15.9976 20.9971 15.6123 20.9971 15.2133C20.9971 12.9946 19.252 11.175 17.0618 11.0554C16.9824 10.4564 16.8304 9.87993 16.6147 9.33484L17.6176 8.3319L29.8167 12.1486L24.0304 18.2986L20.8363 16.3633ZM20.9431 33.7966C20.6814 34.0437 20.5755 34.4142 20.6676 34.7623L22.3765 41.1799L18.5167 45.0397L14.1 36.5201C14.0069 36.3397 13.8608 36.1937 13.6804 36.1005L5.1598 31.6848L9.01961 27.825L15.4422 29.5348C15.7912 29.628 16.1618 29.5221 16.4088 29.2593L37.7373 6.5917C39.0882 5.15935 40.8471 4.32307 42.5618 4.29758C43.6147 4.2819 44.5314 4.58484 45.0755 5.12895C45.6186 5.67209 45.9226 6.58876 45.9069 7.64268C45.8814 9.35739 45.0451 11.1152 43.6127 12.4652L20.9431 33.7966ZM31.9059 26.1731L38.0559 20.3868L41.8716 32.5839L38.0824 36.3721L31.9059 26.1731Z" fill="#014EA2"/>
<path d="M10.8905 40.2925C10.6395 40.2925 10.3888 40.1967 10.1973 40.0053C9.81445 39.6225 9.81445 39.0017 10.1973 38.6187L15.404 33.4121C15.7869 33.0293 16.4075 33.0293 16.7905 33.4121C17.1734 33.7949 17.1734 34.4157 16.7905 34.7986L11.5839 40.0053C11.3923 40.1967 11.1415 40.2925 10.8905 40.2925Z" fill="#FD6050"/>
<path d="M41.5856 12.3636C41.1527 12.3636 40.7565 12.0748 40.6392 11.6367C40.5064 11.1413 40.2447 10.6878 39.882 10.3254C39.5194 9.96272 39.066 9.70096 38.5707 9.56821C38.0476 9.42811 37.7372 8.89056 37.8774 8.36753C38.0175 7.84458 38.5546 7.53409 39.0781 7.67429C39.9055 7.89596 40.6629 8.33331 41.2685 8.9389C41.8741 9.54429 42.3113 10.3016 42.5331 11.1291C42.6733 11.652 42.363 12.1897 41.84 12.3299C41.755 12.3527 41.6696 12.3636 41.5856 12.3636Z" fill="#014EA2"/>
</svg>
