<svg width="60" height="50" viewBox="0 0 60 50" fill="none" xmlns="http://www.w3.org/2000/svg">
<circle cx="34.5723" cy="25" r="25" fill="#E6EDF6"/>
<g clip-path="url(#clip0_2755_3603)">
<path d="M1.54883 34.7379H43.7802C45.5663 34.7379 47.2533 33.9166 48.355 32.5107C49.6925 30.8039 49.9687 28.4944 49.0713 26.5205C44.7875 17.097 35.3913 11.0469 25.0399 11.0469H1.54883V34.7379Z" fill="#FFDE00"/>
<path d="M17.7587 19.9629C17.7587 16.8711 18.1904 13.8802 18.9964 11.0469H1.54883V34.7379H21.3018C19.0366 30.3047 17.7587 25.283 17.7587 19.9629Z" fill="#E7CA05"/>
<path d="M1.54883 27.6953V34.7355H43.7802C44.8507 34.7355 45.8846 34.4385 46.7791 33.8995C42.7811 29.9267 37.3734 27.6954 31.7352 27.6954H1.54883V27.6953Z" fill="#FFDE00"/>
<path d="M18.6868 27.6953H1.54883V34.7355H21.3018C20.1716 32.5235 19.2893 30.1643 18.6868 27.6953Z" fill="#E7CA05"/>
<path d="M1.54893 21.9784H26.1493L24.1883 15.3594H1.54883L1.54893 21.9784Z" fill="#E6EDF6"/>
<path d="M17.7588 19.9612C17.7588 18.3988 17.8714 16.8629 18.0844 15.3594H1.54883L1.54893 21.9784H17.8228C17.7819 21.311 17.7588 20.6389 17.7588 19.9612Z" fill="#9AB8DF"/>
<path d="M3.70508 34.7344V35.7149C3.70508 37.5019 5.15371 38.9505 6.9407 38.9505C8.72769 38.9505 10.1763 37.5019 10.1763 35.7149C10.1763 37.5019 11.625 38.9505 13.412 38.9505C15.1989 38.9505 16.6476 37.5019 16.6476 35.7149V34.7344H3.70508Z" fill="#9AB8DF"/>
<path d="M27.4336 34.7344V35.7149C27.4336 37.5019 28.8822 38.9505 30.6692 38.9505C32.4562 38.9505 33.9048 37.5019 33.9048 35.7149C33.9048 37.5019 35.3535 38.9505 37.1405 38.9505C38.9275 38.9505 40.3761 37.5019 40.3761 35.7149V34.7344H27.4336Z" fill="#E6EDF6"/>
<path d="M39.4999 15.3594H28.502L30.463 21.9784H46.4344C44.5318 19.3457 42.1739 17.1103 39.4999 15.3594Z" fill="#E6EDF6"/>
<path d="M46.1373 34.6373C44.2363 32.7363 42.0133 31.2509 39.5296 30.2221C37.046 29.1934 34.4236 28.6717 31.7354 28.6717H1.54883V26.7188H31.7353C34.6813 26.7188 37.5551 27.2904 40.2769 28.4178C42.9987 29.5451 45.4351 31.173 47.5182 33.2562L46.1373 34.6373Z" fill="white"/>
<path d="M49.5924 37.9774H40.6926C41.1096 37.3241 41.3524 36.5493 41.3524 35.7183V35.7143H43.7801C45.8805 35.7143 47.8281 34.7661 49.1236 33.1129C50.6919 31.1118 51.0124 28.4308 49.9602 26.1162C47.7807 21.3215 44.2879 17.2801 39.8596 14.4287C35.4313 11.5774 30.3067 10.0703 25.0399 10.0703H1.54876C1.00944 10.0703 0.572266 10.5075 0.572266 11.0468V34.7378C0.572266 35.2771 1.00944 35.7143 1.54876 35.7143H2.72935V35.7183C2.72935 36.5492 2.9722 37.3241 3.38917 37.9774H1.54876C1.00944 37.9774 0.572266 38.4146 0.572266 38.9539C0.572266 39.4933 1.00944 39.9304 1.54876 39.9304H49.5924C50.1317 39.9304 50.5689 39.4933 50.5689 38.9539C50.5689 38.4146 50.1317 37.9774 49.5924 37.9774ZM39.3994 35.7183C39.3994 36.9639 38.386 37.9774 37.1402 37.9774C35.8945 37.9774 34.8811 36.964 34.8811 35.7183V35.7143H39.3994V35.7183ZM11.1535 35.7183V35.7143H15.6718V35.7183C15.6718 36.9639 14.6583 37.9774 13.4126 37.9774C12.1669 37.9774 11.1535 36.9639 11.1535 35.7183ZM17.6246 35.7183V35.7143H26.4569V35.7183C26.4569 36.5492 26.6997 37.3241 27.1167 37.9774H16.9648C17.3819 37.3241 17.6246 36.5492 17.6246 35.7183ZM28.41 35.7183V35.7143H32.9282V35.7183C32.9282 36.9639 31.9148 37.9774 30.6691 37.9774C29.4234 37.9774 28.41 36.9639 28.41 35.7183ZM44.4303 21.0035H31.1924L29.8102 16.3375H39.2075C41.1676 17.6527 42.9214 19.2237 44.4303 21.0035ZM23.459 16.3375L24.8414 21.0035H18.1508V16.3375H23.459ZM16.1979 21.0035H10.2549V16.3375H16.1979V21.0035ZM8.30193 21.0035H2.52526V16.3375H8.30193V21.0035ZM2.52526 22.9565H26.1492C26.4573 22.9565 26.7473 22.8111 26.9316 22.5642C27.116 22.3174 27.173 21.998 27.0854 21.7025L25.1244 15.0836C25.0016 14.6689 24.6207 14.3845 24.1882 14.3845H2.52526V12.0233H25.0399C28.7583 12.0233 32.4 12.833 35.7397 14.3845H28.5023C28.1943 14.3845 27.9042 14.5299 27.7199 14.7767C27.5355 15.0236 27.4785 15.3429 27.5661 15.6383L29.527 22.2573C29.6498 22.672 30.0308 22.9565 30.4633 22.9565H45.9304C46.7936 24.2022 47.548 25.529 48.1823 26.9246C48.9318 28.5733 48.7034 30.4829 47.5863 31.9084C46.6635 33.0861 45.2762 33.7614 43.78 33.7614H2.52526V22.9565ZM4.68234 35.7183V35.7143H9.2005V35.7183C9.2005 36.9639 8.18709 37.9774 6.94137 37.9774C5.69566 37.9774 4.68234 36.9639 4.68234 35.7183Z" fill="#014EA2"/>
</g>
<defs>
<clipPath id="clip0_2755_3603">
<rect width="50" height="50" fill="white" transform="translate(0.572266)"/>
</clipPath>
</defs>
</svg>
