<svg width="20" height="20" viewBox="0 0 20 20" fill="none" xmlns="http://www.w3.org/2000/svg">
<path d="M10.0007 15.4166C12.9922 15.4166 15.4173 12.9915 15.4173 9.99998C15.4173 7.00844 12.9922 4.58331 10.0007 4.58331C7.00911 4.58331 4.58398 7.00844 4.58398 9.99998C4.58398 12.9915 7.00911 15.4166 10.0007 15.4166Z" stroke="#566575" stroke-width="1.5" stroke-linecap="round" stroke-linejoin="round"/>
<path d="M15.9493 15.95L15.841 15.8417M15.841 4.15835L15.9493 4.05002L15.841 4.15835ZM4.04935 15.95L4.15768 15.8417L4.04935 15.95ZM9.99935 1.73335V1.66669V1.73335ZM9.99935 18.3334V18.2667V18.3334ZM1.73268 10H1.66602H1.73268ZM18.3327 10H18.266H18.3327ZM4.15768 4.15835L4.04935 4.05002L4.15768 4.15835Z" stroke="#566575" stroke-width="2" stroke-linecap="round" stroke-linejoin="round"/>
</svg>
