<svg width="16" height="17" viewBox="0 0 16 17" fill="none" xmlns="http://www.w3.org/2000/svg">
<path d="M3.49989 6.99989H12.4999C12.5988 6.99987 12.6954 6.97054 12.7776 6.91559C12.8598 6.86065 12.9239 6.78257 12.9617 6.69122C12.9996 6.59987 13.0095 6.49935 12.9902 6.40238C12.9709 6.3054 12.9233 6.21632 12.8534 6.14639L8.35339 1.64639C8.25963 1.55266 8.13248 1.5 7.99989 1.5C7.86731 1.5 7.74016 1.55266 7.64639 1.64639L3.14639 6.14639C3.07649 6.21632 3.02889 6.3054 3.0096 6.40238C2.99032 6.49935 3.00022 6.59987 3.03805 6.69122C3.07589 6.78257 3.13996 6.86065 3.22216 6.91559C3.30437 6.97054 3.40102 6.99987 3.49989 6.99989ZM12.4999 9.99989H3.49989C3.40102 9.99991 3.30437 10.0293 3.22216 10.0842C3.13996 10.1391 3.07589 10.2172 3.03805 10.3086C3.00022 10.3999 2.99032 10.5004 3.0096 10.5974C3.02889 10.6944 3.07649 10.7835 3.14639 10.8534L7.64639 15.3534C7.74016 15.4471 7.86731 15.4998 7.99989 15.4998C8.13248 15.4998 8.25963 15.4471 8.35339 15.3534L12.8534 10.8534C12.9233 10.7835 12.9709 10.6944 12.9902 10.5974C13.0095 10.5004 12.9996 10.3999 12.9617 10.3086C12.9239 10.2172 12.8598 10.1391 12.7776 10.0842C12.6954 10.0293 12.5988 9.99991 12.4999 9.99989Z" fill="#88919A"/>
</svg>
