<svg width="105" height="92" viewBox="0 0 105 92" fill="none" xmlns="http://www.w3.org/2000/svg">
<path fill-rule="evenodd" clip-rule="evenodd" d="M19.4745 46.1414V2.33203C19.4745 1.83475 19.672 1.35784 20.0236 1.00621C20.3753 0.654576 20.8522 0.457031 21.3495 0.457031H63.6382L85.0995 24.2545V54.1664C85.0995 54.1664 85.107 56.4445 84.9176 59.947L74.3595 56.1164C73.7391 55.8915 73.0704 55.8343 72.4209 55.9505C71.7714 56.0667 71.164 56.3522 70.6601 56.7783L64.9751 61.5839C64.5049 61.9816 63.944 62.2573 63.342 62.3868C62.74 62.5163 62.1153 62.4956 61.5232 62.3264L50.322 59.1258L61.1389 66.8527C61.8034 67.3272 62.6046 67.5719 63.4209 67.5496C64.2371 67.5273 65.0238 67.2391 65.6614 66.7289L71.157 62.332C71.6645 61.9266 72.2685 61.6598 72.91 61.5576C73.5515 61.4554 74.2086 61.5213 74.817 61.7489L84.522 65.3883C83.7776 73.477 82.0676 84.0839 78.1507 90.6689C77.9819 90.9354 77.7485 91.1549 77.4722 91.307C77.1958 91.4591 76.8855 91.5389 76.5701 91.5389C69.3945 91.5445 26.7926 91.5445 14.8845 91.5445C14.5612 91.5441 14.2434 91.4602 13.9622 91.3008C13.6809 91.1413 13.4456 90.9119 13.2792 90.6347C13.1128 90.3575 13.0209 90.042 13.0124 89.7188C13.0039 89.3956 13.0791 89.0757 13.2307 88.7902C19.0488 76.1564 19.4745 54.1664 19.4745 54.1664V51.7083L27.702 48.6239C28.31 48.3961 28.9668 48.33 29.6081 48.4323C30.2493 48.5345 30.853 48.8014 31.3601 49.207L36.8576 53.6039C37.4952 54.1141 38.2818 54.4023 39.0981 54.4246C39.9143 54.4469 40.7156 54.2022 41.3801 53.7277L52.197 46.0008L40.9957 49.2014C40.4036 49.3706 39.779 49.3913 39.1769 49.2618C38.5749 49.1323 38.014 48.8566 37.5438 48.4589L31.8588 43.6533C31.355 43.2272 30.7476 42.9417 30.0981 42.8255C29.4485 42.7093 28.7798 42.7665 28.1595 42.9914L19.4745 46.1414Z" fill="#E6EDF6"/>
<path fill-rule="evenodd" clip-rule="evenodd" d="M83.5855 65.0391L84.5248 65.4141C83.7805 73.5028 82.0705 84.1191 78.1517 90.7078C77.9829 90.9743 77.7495 91.1938 77.4732 91.3459C77.1968 91.498 76.8865 91.5778 76.5711 91.5778C69.3955 91.5834 26.7936 91.5834 14.8855 91.5834C14.5619 91.5832 14.2439 91.4993 13.9624 91.3398C13.6808 91.1802 13.4454 90.9506 13.2789 90.6731C13.1124 90.3957 13.0206 90.0798 13.0123 89.7564C13.0041 89.4329 13.0796 89.1128 13.2317 88.8272L13.3048 88.6659C36.3936 89.7516 69.9223 85.7072 74.338 83.9784C77.6192 82.6941 81.4967 73.7316 83.5855 65.0391Z" fill="#A4BBDB"/>
<path fill-rule="evenodd" clip-rule="evenodd" d="M85.1005 24.2545C79.4099 22.0064 73.3817 21.9427 67.1961 22.8989C66.9128 22.9434 66.623 22.9221 66.3492 22.8366C66.0754 22.7512 65.8249 22.6039 65.6172 22.4061C65.4094 22.2083 65.25 21.9654 65.1512 21.6961C65.0524 21.4269 65.0169 21.1385 65.0474 20.8533C65.7261 13.927 65.0417 7.15078 63.6392 0.457031C72.7105 7.19016 79.8749 15.1177 85.1005 24.2545ZM3.89611 30.5845L13.2711 41.5908C13.4307 41.7782 13.6256 41.9323 13.8447 42.0443C14.0638 42.1564 14.3028 42.2242 14.5482 42.2439C14.7935 42.2635 15.0403 42.2347 15.2745 42.159C15.5086 42.0833 15.7256 41.9622 15.913 41.8027C16.1004 41.6431 16.2545 41.4482 16.3665 41.2291C16.4786 41.01 16.5464 40.7709 16.5661 40.5256C16.5857 40.2803 16.5569 40.0335 16.4812 39.7993C16.4055 39.5651 16.2844 39.3482 16.1249 39.1608L6.74986 28.1545C6.59308 27.9583 6.39848 27.7956 6.17761 27.676C5.95673 27.5565 5.71409 27.4825 5.46408 27.4585C5.21408 27.4345 4.9618 27.461 4.72222 27.5364C4.48265 27.6118 4.26066 27.7346 4.06943 27.8974C3.87821 28.0602 3.72165 28.2598 3.60904 28.4843C3.49644 28.7088 3.43008 28.9536 3.41392 29.2043C3.39775 29.4549 3.4321 29.7062 3.51493 29.9433C3.59777 30.1804 3.72739 30.3985 3.89611 30.5845ZM3.99736 46.9458L10.6517 48.7289C11.1321 48.8577 11.644 48.7904 12.0747 48.5418C12.5055 48.2932 12.8198 47.8837 12.9486 47.4033C13.0774 46.9229 13.0101 46.411 12.7615 45.9803C12.5129 45.5495 12.1034 45.2352 11.623 45.1064L4.96861 43.3233C4.48824 43.1945 3.97637 43.2618 3.54563 43.5104C3.11488 43.759 2.80053 44.1685 2.67173 44.6489C2.54294 45.1293 2.61024 45.6411 2.85885 46.0719C3.10745 46.5026 3.51699 46.817 3.99736 46.9458ZM3.11423 62.3677L15.6355 55.1377C16.0626 54.8873 16.3734 54.4781 16.4999 53.9994C16.6265 53.5207 16.5586 53.0114 16.311 52.5826C16.0634 52.1538 15.6563 51.8404 15.1785 51.7106C14.7007 51.5809 14.1909 51.6454 13.7605 51.8902L1.23923 59.1202C0.812096 59.3706 0.501343 59.7798 0.374788 60.2584C0.248233 60.7371 0.316151 61.2464 0.563719 61.6752C0.811288 62.104 1.21841 62.4175 1.69624 62.5472C2.17407 62.6769 2.68381 62.6124 3.11423 62.3677ZM101.104 82.027L91.7286 71.0208C91.4032 70.6526 90.9462 70.4269 90.456 70.3922C89.9658 70.3575 89.4816 70.5167 89.1076 70.8354C88.7336 71.1541 88.4996 71.607 88.4561 72.0965C88.4126 72.5859 88.5629 73.0729 88.8749 73.4527L98.2499 84.4589C98.5753 84.8271 99.0323 85.0528 99.5225 85.0875C100.013 85.1222 100.497 84.963 100.871 84.6443C101.245 84.3256 101.479 83.8727 101.522 83.3832C101.566 82.8938 101.416 82.4068 101.104 82.027ZM101.002 65.6677L94.348 63.8845C94.1101 63.8208 93.862 63.8045 93.6179 63.8366C93.3737 63.8687 93.1383 63.9486 92.925 64.0716C92.7117 64.1947 92.5248 64.3586 92.3748 64.554C92.2249 64.7493 92.1149 64.9723 92.0511 65.2102C91.9873 65.448 91.971 65.6961 92.0031 65.9403C92.0352 66.1844 92.1151 66.4199 92.2382 66.6331C92.3613 66.8464 92.5252 67.0334 92.7206 67.1833C92.9159 67.3333 93.1389 67.4433 93.3767 67.507L100.031 69.2902C100.511 69.419 101.023 69.3516 101.454 69.103C101.885 68.8544 102.199 68.4449 102.328 67.9645C102.457 67.4842 102.389 66.9723 102.141 66.5415C101.892 66.1108 101.483 65.7964 101.002 65.6677ZM101.885 50.2458L89.3642 57.4739C88.9371 57.7243 88.6264 58.1335 88.4998 58.6122C88.3732 59.0909 88.4411 59.6002 88.6887 60.029C88.9363 60.4577 89.3434 60.7712 89.8212 60.9009C90.2991 61.0307 90.8088 60.9661 91.2392 60.7214L103.76 53.4933C104.188 53.2429 104.498 52.8337 104.625 52.355C104.751 51.8763 104.684 51.367 104.436 50.9382C104.188 50.5094 103.781 50.196 103.303 50.0663C102.826 49.9365 102.316 50.0011 101.885 50.2458ZM29.7449 17.6883L36.3749 24.3183C36.7267 24.6699 37.2038 24.8673 37.7011 24.8671C38.1985 24.8669 38.6755 24.6692 39.027 24.3173C39.3786 23.9655 39.576 23.4884 39.5759 22.9911C39.5757 22.4937 39.3779 22.0167 39.0261 21.6652L32.3961 15.037C32.0425 14.6955 31.5688 14.5065 31.0772 14.5108C30.5856 14.515 30.1153 14.7122 29.7677 15.0599C29.4201 15.4075 29.2229 15.8778 29.2186 16.3694C29.2143 16.861 29.4033 17.3347 29.7449 17.6883Z" fill="#014EA2"/>
<path fill-rule="evenodd" clip-rule="evenodd" d="M36.3751 15.0381L29.7451 21.6662C29.3932 22.0178 29.1955 22.4947 29.1953 22.9921C29.1951 23.4895 29.3926 23.9665 29.7441 24.3184C30.0957 24.6702 30.5726 24.8679 31.07 24.8681C31.5674 24.8683 32.0445 24.6709 32.3963 24.3193L39.0263 17.6893C39.3679 17.3357 39.5569 16.862 39.5526 16.3704C39.5483 15.8788 39.3511 15.4085 39.0035 15.0609C38.6558 14.7133 38.1856 14.5161 37.6939 14.5118C37.2023 14.5075 36.7287 14.6965 36.3751 15.0381ZM50.3701 17.6893L57.0001 24.3193C57.3519 24.6709 57.829 24.8683 58.3264 24.8681C58.8237 24.8679 59.3007 24.6702 59.6523 24.3184C60.0038 23.9665 60.2012 23.4895 60.2011 22.9921C60.2009 22.4947 60.0031 22.0178 59.6513 21.6662L53.0213 15.0381C52.6677 14.6965 52.1941 14.5075 51.7024 14.5118C51.2108 14.5161 50.7405 14.7133 50.3929 15.0609C50.0453 15.4085 49.8481 15.8788 49.8438 16.3704C49.8395 16.862 50.0285 17.3357 50.3701 17.6893Z" fill="#014EA2"/>
<path fill-rule="evenodd" clip-rule="evenodd" d="M57.0009 15.0381L50.3709 21.6662C50.0191 22.0178 49.8213 22.4947 49.8211 22.9921C49.8209 23.4895 50.0184 23.9665 50.3699 24.3184C50.7215 24.6702 51.1985 24.8679 51.6958 24.8681C52.1932 24.8683 52.6703 24.6709 53.0221 24.3193L59.6521 17.6893C59.9937 17.3357 60.1827 16.862 60.1784 16.3704C60.1741 15.8788 59.9769 15.4085 59.6293 15.0609C59.2816 14.7133 58.8114 14.5161 58.3198 14.5118C57.8281 14.5075 57.3545 14.6965 57.0009 15.0381ZM34.5721 35.5187L37.2028 33.5481L39.8221 35.5168C40.1469 35.7607 40.542 35.8925 40.9481 35.8925C41.3542 35.8925 41.7493 35.7607 42.074 35.5168L44.699 33.5481L47.324 35.5168C47.6484 35.7605 48.0432 35.8923 48.449 35.8923C48.8548 35.8923 49.2496 35.7605 49.574 35.5168L52.199 33.5481L54.824 35.5168C55.021 35.6645 55.2451 35.772 55.4837 35.8331C55.7222 35.8943 55.9704 35.9078 56.2142 35.873C56.4579 35.8381 56.6924 35.7556 56.9043 35.6302C57.1162 35.5047 57.3013 35.3388 57.449 35.1418C57.5967 34.9448 57.7042 34.7207 57.7653 34.4821C57.8264 34.2436 57.84 33.9954 57.8052 33.7516C57.7703 33.5079 57.6878 33.2734 57.5624 33.0615C57.4369 32.8496 57.271 32.6645 57.074 32.5168L53.3259 29.7043C53.0011 29.4615 52.6064 29.3302 52.2009 29.3302C51.7953 29.3302 51.4007 29.4615 51.0759 29.7043L48.449 31.6731L45.824 29.7043C45.4992 29.4615 45.1045 29.3302 44.699 29.3302C44.2935 29.3302 43.8988 29.4615 43.574 29.7043L40.949 31.6731L38.3315 29.7062C38.0073 29.4622 37.6126 29.3301 37.2068 29.3298C36.801 29.3294 36.4061 29.4609 36.0815 29.7043L32.3259 32.5168C31.9279 32.8149 31.6645 33.2588 31.5935 33.7509C31.5225 34.2431 31.6496 34.7433 31.9471 35.1418C32.5678 35.9687 33.7434 36.1393 34.5721 35.5187Z" fill="#014EA2"/>
</svg>
