<svg width="24" height="24" viewBox="0 0 24 24" fill="none" xmlns="http://www.w3.org/2000/svg">
<rect width="24" height="24" rx="12" fill="#E8E8E8" fill-opacity="0.5"/>
<path d="M12 20C7.57447 20 4 16.4255 4 12C4 7.57447 7.57447 4 12 4C16.4255 4 20 7.57447 20 12C20 16.4255 16.4255 20 12 20ZM12 5.32766C8.3234 5.32766 5.32766 8.3234 5.32766 12C5.32766 15.6766 8.3234 18.6723 12 18.6723C15.6766 18.6723 18.6723 15.6766 18.6723 12C18.6723 8.3234 15.6766 5.32766 12 5.32766Z" fill="#2E363D"/>
<path d="M14.4852 9.24279C14.9278 9.61725 15.132 10.196 15.132 10.979C15.132 11.7619 14.8938 12.3066 14.4512 12.6811C14.0086 13.0556 13.2938 13.2258 12.3746 13.2258H11.5235V15.3364C11.5235 15.7109 11.2172 16.0513 10.8086 16.0513C10.4342 16.0513 10.0938 15.7449 10.0938 15.3364V9.31087C10.0938 8.9364 10.4001 8.66406 10.7406 8.66406H12.3065C13.3618 8.66406 14.0767 8.86832 14.4852 9.24279ZM13.464 11.6938C13.6342 11.4896 13.7023 11.2173 13.7023 10.8768C13.7023 10.5364 13.6001 10.2641 13.3618 10.0938C13.1576 9.95768 12.8172 9.85555 12.3406 9.85555H11.5235V12.0002H12.4767C12.9874 12.0002 13.2937 11.8981 13.464 11.6938Z" fill="#2E363D"/>
</svg>
