<svg width="20" height="20" viewBox="0 0 20 20" fill="none" xmlns="http://www.w3.org/2000/svg">
<path d="M12.2923 12.0154L14.9507 13.5737L14.2173 14.7654L10.9173 12.7487V8.16536H12.2923V12.0154ZM19.1673 11.832C19.1673 15.8745 15.8765 19.1654 11.834 19.1654C9.98232 19.1654 8.29565 18.4687 7.00315 17.332H2.66732C1.61315 17.332 0.833984 16.5529 0.833984 15.4987V7.2487C0.833984 6.22203 1.64982 5.45203 2.66732 5.41536V4.95703C2.66732 2.67453 4.50982 0.832031 6.79232 0.832031C8.93732 0.832031 10.679 2.47286 10.8807 4.57203C11.1923 4.5262 11.5132 4.4987 11.834 4.4987C15.8765 4.4987 19.1673 7.78953 19.1673 11.832ZM4.50065 5.41536H9.08398V4.73703C8.97398 3.57286 7.98398 2.66536 6.79232 2.66536C5.52732 2.66536 4.50065 3.69203 4.50065 4.95703V5.41536ZM17.334 11.832C17.334 8.79786 14.8682 6.33203 11.834 6.33203C8.79982 6.33203 6.33398 8.79786 6.33398 11.832C6.33398 14.8662 8.79982 17.332 11.834 17.332C14.8682 17.332 17.334 14.8662 17.334 11.832Z" fill="#566575"/>
</svg>
