<svg width="31" height="30" viewBox="0 0 31 30" fill="none" xmlns="http://www.w3.org/2000/svg">
<path d="M15.2122 29.6406C19.0561 29.6406 22.8325 29.04 26.1334 27.9037C26.9853 27.6103 27.4296 26.7061 27.1258 25.8834C26.8869 25.2367 26.2561 24.833 25.5833 24.833L4.84107 24.8333C4.16789 24.8335 3.53729 25.2365 3.29873 25.8834C2.99493 26.7061 3.43919 27.6103 4.29104 27.9037C7.59194 29.04 11.3684 29.6406 15.2122 29.6406Z" fill="#D17F99"/>
<path d="M3.75391 3.29882V19.8878C3.75391 22.0082 5.34179 23.7998 7.48407 24.1175C9.8657 24.4708 12.4772 24.6661 15.2171 24.6661C17.9571 24.6661 20.5686 24.4708 22.9503 24.1175C25.0925 23.7998 26.6804 22.0082 26.6804 19.8878V3.29882C26.6804 1.52868 25.214 0.09375 23.4052 0.09375H7.0291C5.22023 0.0936853 3.75391 1.52868 3.75391 3.29882Z" fill="#F9AAC3"/>
<path d="M1.36466 22.7401C0.610975 22.7401 0 22.1422 0 21.4047V9.11843C0 8.38088 0.610975 7.78299 1.36466 7.78299C2.11835 7.78299 2.72933 8.38088 2.72933 9.11843V21.4047C2.72933 22.1422 2.11835 22.7401 1.36466 22.7401Z" fill="#5D5360"/>
<path d="M29.06 22.7403C28.3063 22.7403 27.6953 22.1424 27.6953 21.4049V9.11865C27.6953 8.3811 28.3063 7.7832 29.06 7.7832C29.8137 7.7832 30.4246 8.3811 30.4246 9.11865V21.4049C30.4246 22.1424 29.8137 22.7403 29.06 22.7403Z" fill="#5D5360"/>
</svg>
