<svg width="32" height="32" viewBox="0 0 32 32" fill="none" xmlns="http://www.w3.org/2000/svg">
<path d="M30.5292 6.98248H1.47075C0.917375 6.98248 0.46875 7.43111 0.46875 7.98448V12.3949C0.46875 12.6475 0.592937 12.8875 0.80775 13.0204C1.80625 13.638 2.47281 14.7402 2.47281 16.0006C2.47281 17.261 1.80625 18.3632 0.80775 18.9809C0.592937 19.1137 0.46875 19.3537 0.46875 19.6063V24.0167C0.46875 24.5701 0.917375 25.0187 1.47075 25.0187H30.5292C31.0826 25.0187 31.5312 24.5701 31.5312 24.0167V7.98448C31.5312 7.43105 31.0826 6.98248 30.5292 6.98248Z" fill="#FFDE00"/>
<path d="M29.5257 23.5165H9.48537C9.3525 23.5165 9.22507 23.4637 9.13111 23.3698C9.03716 23.2758 8.98438 23.1484 8.98438 23.0155V8.98733C8.98438 8.85445 9.03716 8.72702 9.13111 8.63307C9.22507 8.53911 9.3525 8.48633 9.48537 8.48633H29.5257C29.6586 8.48633 29.786 8.53911 29.8799 8.63307C29.9739 8.72702 30.0267 8.85445 30.0267 8.98733V23.0156C30.0267 23.0814 30.0137 23.1465 29.9886 23.2073C29.9634 23.2681 29.9265 23.3233 29.88 23.3698C29.8334 23.4164 29.7782 23.4533 29.7174 23.4784C29.6566 23.5036 29.5915 23.5165 29.5257 23.5165Z" fill="#E7CA04"/>
<path d="M19.0936 19.4636L16.4968 21.0939C15.9245 21.4532 15.2063 20.9314 15.3711 20.2761L16.1192 17.3025L13.7662 15.3366C13.2476 14.9033 13.522 14.059 14.1961 14.0133L17.2553 13.8059L18.398 10.9605C18.6498 10.3335 19.5375 10.3335 19.7893 10.9605L20.932 13.8059L23.9911 14.0133C24.6653 14.059 24.9397 14.9033 24.4211 15.3366L22.0681 17.3025L22.8161 20.2761C22.981 20.9314 22.2628 21.4532 21.6905 21.0939L19.0936 19.4636Z" fill="white"/>
<path d="M22.4903 18.9793C19.2439 18.7808 16.4914 16.7712 15.2337 13.9414L14.1962 14.0117C13.522 14.0574 13.2476 14.9017 13.7662 15.335L16.1192 17.3009L15.3712 20.2745C15.2063 20.9298 15.9245 21.4516 16.4968 21.0923L19.0937 19.462L21.6905 21.0923C22.2628 21.4516 22.981 20.9298 22.8161 20.2745L22.4903 18.9793Z" fill="white"/>
<path d="M30.5292 6.51367H1.47075C0.659812 6.51367 0 7.17348 0 7.98448V12.3949C0 12.8125 0.215 13.2049 0.561188 13.419C1.46469 13.9779 2.00406 14.9429 2.00406 16.0006C2.00406 17.0583 1.46469 18.0234 0.561125 18.5822C0.215 18.7963 0 19.1887 0 19.6063V24.0167C0 24.8277 0.659812 25.4875 1.47075 25.4875H30.5292C31.3402 25.4875 32 24.8277 32 24.0167V7.98448C32 7.17348 31.3402 6.51367 30.5292 6.51367ZM31.0625 24.0167C31.0625 24.3108 30.8233 24.55 30.5292 24.55H7.45062V24.5177C7.45062 24.2589 7.24081 24.049 6.98187 24.049C6.72294 24.049 6.51312 24.2589 6.51312 24.5177V24.55H1.47075C1.17669 24.55 0.9375 24.3107 0.9375 24.0167V19.6063C0.9375 19.511 0.982312 19.424 1.05431 19.3795C2.236 18.6486 2.9415 17.3855 2.9415 16.0006C2.9415 14.6157 2.236 13.3526 1.05431 12.6217C0.982312 12.5771 0.9375 12.4902 0.9375 12.3949V7.98442C0.9375 7.69036 1.17669 7.45117 1.47075 7.45117H6.51312V7.48342C6.51312 7.7423 6.72294 7.95217 6.98187 7.95217C7.24081 7.95217 7.45062 7.7423 7.45062 7.48342V7.45117H30.5292C30.8233 7.45117 31.0625 7.69042 31.0625 7.98442V24.0167Z" fill="#014EA2"/>
<path d="M6.98047 15.0315C6.85615 15.0315 6.73692 15.0809 6.64901 15.1688C6.5611 15.2567 6.51172 15.376 6.51172 15.5003V16.5023C6.51172 16.7612 6.72153 16.971 6.98047 16.971C7.23941 16.971 7.44922 16.7612 7.44922 16.5023V15.5003C7.44922 15.376 7.39983 15.2567 7.31192 15.1688C7.22402 15.0809 7.10479 15.0315 6.98047 15.0315ZM6.98047 9.01953C6.85615 9.01953 6.73692 9.06892 6.64901 9.15682C6.5611 9.24473 6.51172 9.36396 6.51172 9.48828V10.4903C6.51172 10.7492 6.72153 10.959 6.98047 10.959C7.23941 10.959 7.44922 10.7492 7.44922 10.4903V9.48828C7.44922 9.22928 7.23941 9.01953 6.98047 9.01953ZM6.98047 12.0255C6.85615 12.0255 6.73692 12.0749 6.64901 12.1628C6.5611 12.2507 6.51172 12.3699 6.51172 12.4942V13.4962C6.51172 13.7551 6.72153 13.965 6.98047 13.965C7.23941 13.965 7.44922 13.7551 7.44922 13.4962V12.4942C7.44922 12.3699 7.39983 12.2507 7.31192 12.1628C7.22402 12.0749 7.10479 12.0255 6.98047 12.0255ZM6.98047 18.0376C6.85615 18.0376 6.73692 18.087 6.64901 18.1749C6.5611 18.2628 6.51172 18.382 6.51172 18.5063V19.5083C6.51172 19.7672 6.72153 19.9771 6.98047 19.9771C7.23941 19.9771 7.44922 19.7672 7.44922 19.5083V18.5063C7.44922 18.2474 7.23941 18.0376 6.98047 18.0376ZM6.98047 21.0436C6.85615 21.0436 6.73692 21.093 6.64901 21.1809C6.5611 21.2688 6.51172 21.388 6.51172 21.5123V22.5143C6.51172 22.7732 6.72153 22.9831 6.98047 22.9831C7.23941 22.9831 7.44922 22.7732 7.44922 22.5143V21.5123C7.44922 21.388 7.39983 21.2688 7.31192 21.1809C7.22402 21.093 7.10479 21.0436 6.98047 21.0436ZM24.0203 13.5457L21.2547 13.3582L20.2218 10.7859C20.0353 10.3215 19.5915 10.0215 19.0911 10.0215C18.5907 10.0215 18.1469 10.3216 17.9605 10.7859L16.9275 13.3582L14.1619 13.5457C13.6627 13.5795 13.2402 13.9089 13.0856 14.3848C12.9309 14.8607 13.0791 15.3755 13.4632 15.6963L15.5903 17.4737L14.914 20.1618C14.792 20.6471 14.9747 21.1507 15.3795 21.4448C15.7843 21.7388 16.3197 21.757 16.7435 21.491L19.0912 20.0171L21.4388 21.4909C21.6328 21.6133 21.8576 21.6784 22.087 21.6786C22.3382 21.6786 22.5887 21.6003 22.8028 21.4448C23.2077 21.1507 23.3903 20.647 23.2682 20.1618L22.592 17.4736L24.7191 15.6963C25.1032 15.3755 25.2513 14.8607 25.0967 14.3848C24.9421 13.9088 24.5195 13.5794 24.0203 13.5457ZM24.118 14.9768L21.765 16.9428C21.6974 16.9994 21.647 17.0738 21.6198 17.1577C21.5925 17.2416 21.5895 17.3314 21.611 17.4169L22.359 20.3905C22.4008 20.5567 22.2979 20.6527 22.2517 20.6863C22.2055 20.7198 22.0823 20.788 21.9372 20.6969L19.3403 19.0666C19.2657 19.0197 19.1793 18.9949 19.0911 18.9949C19.003 18.9949 18.9166 19.0197 18.8419 19.0666L16.245 20.6969C16.0997 20.7881 15.9766 20.7198 15.9305 20.6863C15.8843 20.6527 15.7813 20.5567 15.8232 20.3905L16.5713 17.417C16.5928 17.3315 16.5898 17.2416 16.5625 17.1578C16.5353 17.0739 16.4849 16.9994 16.4172 16.9429L14.0642 14.9769C13.9327 14.867 13.9595 14.7288 13.9772 14.6745C13.9948 14.6202 14.0543 14.4926 14.2253 14.481L17.2845 14.2736C17.3725 14.2676 17.457 14.237 17.5283 14.1851C17.5997 14.1333 17.6549 14.0624 17.6878 13.9806L18.8304 11.1352C18.8942 10.9762 19.034 10.959 19.091 10.959C19.1482 10.959 19.2879 10.9762 19.3518 11.1353L20.4943 13.9806C20.5272 14.0624 20.5825 14.1333 20.6538 14.1851C20.7251 14.237 20.8096 14.2676 20.8976 14.2736L23.9568 14.481C24.1278 14.4927 24.1873 14.6202 24.205 14.6745C24.2227 14.7288 24.2495 14.8669 24.118 14.9768Z" fill="#014EA2"/>
</svg>
