<svg width="41" height="35" viewBox="0 0 41 35" fill="none" xmlns="http://www.w3.org/2000/svg">
<circle cx="22.6016" cy="16.0508" r="16" fill="#DCDCDC"/>
<g clip-path="url(#clip0_1138_107489)">
<path d="M1.66406 23.1997H30.3814C31.596 23.1997 32.7431 22.6413 33.4923 21.6852C34.4018 20.5246 34.5895 18.9542 33.9793 17.6119C31.0663 11.2039 24.6769 7.08984 17.638 7.08984H1.66406V23.1997Z" fill="#DCDCDC"/>
<path d="M12.6868 13.1527C12.6868 11.0503 12.9803 9.01649 13.5284 7.08984H1.66406V23.1997H15.0961C13.5558 20.1851 12.6868 16.7704 12.6868 13.1527Z" fill="#88919A"/>
<path d="M1.66406 18.4141V23.2014H30.3814C31.1094 23.2014 31.8124 22.9994 32.4207 22.6329C29.702 19.9314 26.0248 18.4141 22.1908 18.4141H1.66406V18.4141Z" fill="#DCDCDC"/>
<path d="M13.3179 18.4141H1.66406V23.2014H15.0961C14.3276 21.6972 13.7276 20.093 13.3179 18.4141Z" fill="#88919A"/>
<path d="M1.66413 14.5244H18.3924L17.0589 10.0234H1.66406L1.66413 14.5244Z" fill="white"/>
<path d="M12.6868 13.1527C12.6868 12.0903 12.7634 11.0458 12.9083 10.0234H1.66406L1.66413 14.5244H12.7304C12.7026 14.0706 12.6868 13.6135 12.6868 13.1527Z" fill="#292D32"/>
<path d="M3.13086 23.1992V23.866C3.13086 25.0811 4.11593 26.0662 5.33108 26.0662C6.54624 26.0662 7.53131 25.0811 7.53131 23.866C7.53131 25.0811 8.51638 26.0662 9.73153 26.0662C10.9467 26.0662 11.9318 25.0811 11.9318 23.866V23.1992H3.13086Z" fill="#292D32"/>
<path d="M19.2656 23.1992V23.866C19.2656 25.0811 20.2507 26.0662 21.4659 26.0662C22.681 26.0662 23.6661 25.0811 23.6661 23.866C23.6661 25.0811 24.6511 26.0662 25.8663 26.0662C27.0815 26.0662 28.0665 25.0811 28.0665 23.866V23.1992H19.2656Z" fill="#292D32"/>
<path d="M27.4708 10.0234H19.9922L21.3257 14.5244H32.1862C30.8925 12.7342 29.2891 11.2141 27.4708 10.0234Z" fill="white"/>
<path d="M31.9842 23.1346C30.6916 21.8419 29.1799 20.8318 27.491 20.1323C25.8021 19.4328 24.0189 19.078 22.1909 19.078H1.66406V17.75H22.1909C24.1941 17.75 26.1483 18.1387 27.9992 18.9053C29.85 19.6719 31.5067 20.7789 32.9233 22.1955L31.9842 23.1346Z" fill="white"/>
<path d="M34.3337 25.4026H28.2818C28.5654 24.9583 28.7305 24.4315 28.7305 23.8664V23.8637H30.3814C31.8096 23.8637 33.134 23.2189 34.0149 22.0948C35.0813 20.734 35.2993 18.9109 34.5838 17.337C33.1017 14.0766 30.7266 11.3284 27.7154 9.38949C24.7041 7.45063 21.2194 6.42578 17.638 6.42578H1.66402C1.29728 6.42578 1 6.72306 1 7.0898V23.1997C1 23.5664 1.29728 23.8637 1.66402 23.8637H2.46682V23.8664C2.46682 24.4314 2.63196 24.9583 2.91549 25.4026H1.66402C1.29728 25.4026 1 25.6999 1 26.0667C1 26.4334 1.29728 26.7307 1.66402 26.7307H34.3337C34.7004 26.7307 34.9977 26.4334 34.9977 26.0667C34.9977 25.6999 34.7004 25.4026 34.3337 25.4026ZM27.4024 23.8664C27.4024 24.7134 26.7133 25.4026 25.8662 25.4026C25.0191 25.4026 24.33 24.7135 24.33 23.8664V23.8637H27.4024V23.8664ZM8.19524 23.8664V23.8637H11.2677V23.8664C11.2677 24.7134 10.5785 25.4026 9.73144 25.4026C8.88436 25.4026 8.19524 24.7134 8.19524 23.8664ZM12.5956 23.8664V23.8637H18.6015V23.8664C18.6015 24.4314 18.7667 24.9583 19.0502 25.4026H12.1469C12.4305 24.9583 12.5956 24.4314 12.5956 23.8664ZM19.9296 23.8664V23.8637H23.0021V23.8664C23.0021 24.7134 22.3129 25.4026 21.4658 25.4026C20.6188 25.4026 19.9296 24.7134 19.9296 23.8664ZM30.8235 13.8603H21.8217L20.8818 10.6875H27.272C28.6048 11.5818 29.7974 12.6501 30.8235 13.8603ZM16.563 10.6875L17.503 13.8603H12.9534V10.6875H16.563ZM11.6254 13.8603H7.58421V10.6875H11.6254V13.8603ZM6.25617 13.8603H2.32804V10.6875H6.25617V13.8603ZM2.32804 15.1884H18.3923C18.6018 15.1884 18.799 15.0895 18.9244 14.9216C19.0497 14.7538 19.0885 14.5366 19.029 14.3357L17.6955 9.83479C17.6119 9.55284 17.3529 9.35941 17.0588 9.35941H2.32804V7.75382H17.638C20.1665 7.75382 22.6429 8.30442 24.9138 9.35941H19.9925C19.783 9.35941 19.5857 9.45829 19.4604 9.62615C19.335 9.79401 19.2962 10.0111 19.3558 10.212L20.6892 14.7129C20.7727 14.9949 21.0318 15.1884 21.3259 15.1884H31.8435C32.4305 16.0355 32.9435 16.9377 33.3748 17.8867C33.8845 19.0078 33.7292 20.3064 32.9696 21.2757C32.3421 22.0765 31.3987 22.5357 30.3813 22.5357H2.32804V15.1884ZM3.79485 23.8664V23.8637H6.8672V23.8664C6.8672 24.7134 6.17808 25.4026 5.33099 25.4026C4.48391 25.4026 3.79485 24.7134 3.79485 23.8664Z" fill="#566575"/>
</g>
<defs>
<clipPath id="clip0_1138_107489">
<rect width="34" height="34" fill="white" transform="translate(1 0.0507812)"/>
</clipPath>
</defs>
</svg>
