<svg width="25" height="25" viewBox="0 0 25 25" fill="none" xmlns="http://www.w3.org/2000/svg">
<mask id="mask0_3083_258712" style="mask-type:alpha" maskUnits="userSpaceOnUse" x="0" y="0" width="25" height="25">
<rect x="0.5" y="0.5" width="24" height="24" fill="#D9D9D9"/>
</mask>
<g mask="url(#mask0_3083_258712)">
<path d="M8.9 17.5L12.5 13.9L16.1 17.5L17.5 16.1L13.9 12.5L17.5 8.9L16.1 7.5L12.5 11.1L8.9 7.5L7.5 8.9L11.1 12.5L7.5 16.1L8.9 17.5ZM12.5 22.5C11.1167 22.5 9.81667 22.2375 8.6 21.7125C7.38333 21.1875 6.325 20.475 5.425 19.575C4.525 18.675 3.8125 17.6167 3.2875 16.4C2.7625 15.1833 2.5 13.8833 2.5 12.5C2.5 11.1167 2.7625 9.81667 3.2875 8.6C3.8125 7.38333 4.525 6.325 5.425 5.425C6.325 4.525 7.38333 3.8125 8.6 3.2875C9.81667 2.7625 11.1167 2.5 12.5 2.5C13.8833 2.5 15.1833 2.7625 16.4 3.2875C17.6167 3.8125 18.675 4.525 19.575 5.425C20.475 6.325 21.1875 7.38333 21.7125 8.6C22.2375 9.81667 22.5 11.1167 22.5 12.5C22.5 13.8833 22.2375 15.1833 21.7125 16.4C21.1875 17.6167 20.475 18.675 19.575 19.575C18.675 20.475 17.6167 21.1875 16.4 21.7125C15.1833 22.2375 13.8833 22.5 12.5 22.5Z" fill="white"/>
</g>
</svg>
