<svg width="21" height="20" viewBox="0 0 21 20" fill="none" xmlns="http://www.w3.org/2000/svg">
<path fill-rule="evenodd" clip-rule="evenodd" d="M8.20679 3.29279C8.39426 3.48031 8.49957 3.73462 8.49957 3.99979C8.49957 4.26495 8.39426 4.51926 8.20679 4.70679L5.91379 6.99979H11.4998C13.3563 6.99979 15.1368 7.73728 16.4495 9.05004C17.7623 10.3628 18.4998 12.1433 18.4998 13.9998V15.9998C18.4998 16.265 18.3944 16.5194 18.2069 16.7069C18.0194 16.8944 17.765 16.9998 17.4998 16.9998C17.2346 16.9998 16.9802 16.8944 16.7927 16.7069C16.6051 16.5194 16.4998 16.265 16.4998 15.9998V13.9998C16.4998 12.6737 15.973 11.4019 15.0353 10.4643C14.0976 9.52657 12.8259 8.99979 11.4998 8.99979H5.91379L8.20679 11.2928C8.3023 11.385 8.37848 11.4954 8.43089 11.6174C8.4833 11.7394 8.51088 11.8706 8.51204 12.0034C8.51319 12.1362 8.48789 12.2678 8.43761 12.3907C8.38733 12.5136 8.31307 12.6253 8.21918 12.7192C8.12529 12.8131 8.01364 12.8873 7.89074 12.9376C7.76784 12.9879 7.63616 13.0132 7.50339 13.012C7.37061 13.0109 7.23939 12.9833 7.11738 12.9309C6.99538 12.8785 6.88503 12.8023 6.79279 12.7068L2.79279 8.70679C2.60532 8.51926 2.5 8.26495 2.5 7.99979C2.5 7.73462 2.60532 7.48031 2.79279 7.29279L6.79279 3.29279C6.98031 3.10532 7.23462 3 7.49979 3C7.76495 3 8.01926 3.10532 8.20679 3.29279Z" fill="#566575"/>
</svg>
