<svg width="32" height="32" viewBox="0 0 32 32" fill="none" xmlns="http://www.w3.org/2000/svg">
<g clip-path="url(#clip0_0_17)">
<path d="M7.78131 28.373V31.5318H25.5389C26.6285 31.5318 27.5118 30.6485 27.5118 29.5589V28.373H7.78131Z" fill="white"/>
<path d="M24.5587 28.373V31.5318H25.5365C26.626 31.5318 27.5093 30.6485 27.5093 29.5589V28.373H24.5587Z" fill="white"/>
<path d="M2.05278 8.33181L3.43778 8.04956C5.50491 7.62844 6.74153 5.49756 6.08134 3.49394C5.36453 1.69994 3.64434 0.508564 1.71291 0.468939C0.923345 0.452751 0.327157 1.1805 0.498345 1.95125L2.05278 8.33181Z" fill="#DCDCDC"/>
<path d="M6.08322 3.49387C5.36653 1.69999 3.64634 0.508553 1.7149 0.46899C1.30059 0.460428 0.939777 0.65699 0.714902 0.956803C1.7664 1.47118 2.61803 2.3623 3.0699 3.49387L4.44803 7.67699C5.8829 6.88087 6.62697 5.14474 6.08334 3.49387H6.08322Z" fill="#88919A"/>
<path d="M11.4619 27.2738L6.51415 28.3727L1.98765 8.03622C1.78765 7.13585 2.48396 6.28597 3.40609 6.30497L4.75571 6.3326C6.19321 6.36216 7.47371 7.24885 8.00715 8.5841L8.5079 9.83772C9.60747 12.5904 10.296 15.4898 10.5513 18.443L11.4619 27.2738Z" fill="#DCDCDC"/>
<path d="M5.08746 8.5841L5.58821 9.83772C6.68779 12.5904 7.37631 15.4898 7.63165 18.443L8.62578 27.9037L11.4615 27.274L10.5508 18.443C10.2955 15.4898 9.60698 12.5904 8.5074 9.83772L8.00665 8.5841C7.47321 7.24885 6.19271 6.36216 4.75521 6.3326L3.40559 6.30503C3.16826 6.29957 2.93339 6.35406 2.72271 6.46347C3.78228 6.75841 4.66709 7.53185 5.08746 8.5841Z" fill="#88919A"/>
<path d="M25.8294 22.4336L8.01084 24.7724C7.00834 24.9041 6.25396 25.8343 6.25396 26.9387C6.25396 28.1438 7.14678 29.1206 8.24834 29.1206H29.0792C30.0242 29.1206 30.7904 28.2824 30.7904 27.2485C30.7904 24.3413 28.4681 22.0874 25.8294 22.4336Z" fill="#DCDCDC"/>
<path d="M25.8313 22.4336L24.6446 22.5894C26.4737 23.1709 27.8418 25.0171 27.8418 27.2485C27.8418 28.2824 27.0755 29.1206 26.1304 29.1206H29.0811C30.0262 29.1206 30.7923 28.2825 30.7923 27.2485C30.7923 24.3413 28.47 22.0874 25.8313 22.4336Z" fill="#88919A"/>
<path d="M7.43879 31.5317H11.2284L9.74935 25.1728C9.48735 23.9988 8.32354 23.2595 7.14948 23.5215C5.97617 23.7832 5.2366 24.9465 5.49785 26.1201L6.65098 30.9108C6.69348 31.0878 6.79431 31.2452 6.93723 31.3579C7.08015 31.4705 7.25682 31.5317 7.43879 31.5317Z" fill="white"/>
<path d="M9.74931 25.1728C9.48731 23.9988 8.3235 23.2595 7.14943 23.5215C6.7718 23.6052 6.42348 23.7886 6.14068 24.0525C6.4637 24.3519 6.68775 24.7428 6.783 25.1728L8.262 31.5317H11.2282L9.74931 25.1728Z" fill="white"/>
<path d="M29.4392 23.112C28.4004 22.2006 27.0969 21.7946 25.769 21.9692L11.5786 23.8317L11.0183 18.3986C10.7591 15.401 10.0601 12.4578 8.94364 9.66379L8.44289 8.41017C8.05862 7.44553 7.3179 6.66574 6.37427 6.23243C6.78513 5.32381 6.83942 4.29396 6.52639 3.34718C6.52346 3.33787 6.52002 3.32887 6.51664 3.31981C6.13293 2.35608 5.47334 1.52703 4.62052 0.936525C3.7677 0.34602 2.75958 0.0203256 1.72247 0.000250967C1.20122 -0.00906151 0.713155 0.214626 0.382843 0.617937C0.0525316 1.021 -0.0722182 1.54419 0.0407816 2.05293L0.0430316 2.06231L1.59722 8.44261C1.5979 8.44605 1.59965 8.44923 1.60059 8.45236L4.75171 22.6096C4.76503 22.6697 4.79008 22.7266 4.82542 22.777C4.86075 22.8274 4.90568 22.8704 4.95764 22.9034C5.00959 22.9365 5.06756 22.9589 5.1282 22.9695C5.18885 22.9802 5.251 22.9787 5.31108 22.9653C5.56377 22.9091 5.72296 22.6586 5.66677 22.4057L2.44553 7.93455C2.41381 7.79343 2.41478 7.64693 2.44835 7.50624C2.48192 7.36555 2.5472 7.2344 2.63921 7.1228C2.73083 7.01099 2.84665 6.92145 2.97792 6.86092C3.1092 6.8004 3.2525 6.77048 3.39703 6.77342L4.7464 6.80124C5.02565 6.80686 5.29765 6.84986 5.55715 6.92555C5.56933 6.92992 5.58183 6.9338 5.59427 6.93699C6.03933 7.07297 6.44814 7.30722 6.7905 7.62242C7.13287 7.93762 7.40004 8.32572 7.57227 8.75805L8.07302 10.0115C9.15586 12.7214 9.83369 15.5759 10.0847 18.4833L10.0855 18.4909L10.6489 23.9538L9.75126 24.0717C9.14702 23.2585 8.10014 22.8293 7.04908 23.0635C5.62552 23.3811 4.72515 24.7978 5.04202 26.2216C5.04277 26.2241 5.04327 26.2268 5.04371 26.2294L6.19683 31.0202C6.26339 31.2997 6.42242 31.5486 6.64814 31.7264C6.87386 31.9043 7.15303 32.0007 7.44039 31.9999H25.5375C26.8735 31.9999 27.9613 30.9216 27.9782 29.5898H29.0797C30.2816 29.5898 31.2597 28.5395 31.2597 27.2489C31.2597 25.6347 30.5962 24.1269 29.4392 23.112ZM3.41609 5.83618C3.40284 5.83593 3.38965 5.83568 3.37628 5.83568C2.87815 5.83568 2.4094 6.0278 2.05765 6.37155L0.955155 1.84568C0.93103 1.73537 0.932249 1.62102 0.958718 1.51125C0.985188 1.40147 1.03622 1.29913 1.10797 1.21194C1.25465 1.03269 1.47297 0.935312 1.70315 0.937499C2.55359 0.953968 3.38038 1.22033 4.0805 1.70339C4.78063 2.18644 5.32312 2.86485 5.6404 3.65406C5.88618 4.40879 5.8273 5.22968 5.47633 5.94161C5.24219 5.89485 5.00437 5.86887 4.76565 5.86399L3.41609 5.83618ZM7.44039 31.0624C7.36363 31.0626 7.28905 31.0369 7.22874 30.9894C7.16843 30.9419 7.12591 30.8754 7.10808 30.8008L5.95627 26.0141C5.75415 25.0959 6.33521 24.1831 7.25314 23.9785C8.17314 23.7729 9.08814 24.3545 9.29439 25.2785L10.6397 31.0624H7.44039ZM29.0797 28.6521H23.7695C23.6452 28.6521 23.5259 28.7015 23.438 28.7894C23.3501 28.8773 23.3007 28.9965 23.3007 29.1208C23.3007 29.2451 23.3501 29.3644 23.438 29.4523C23.5259 29.5402 23.6452 29.5896 23.7695 29.5896H27.0407C27.0241 30.4045 26.3564 31.0624 25.5375 31.0624H11.6019L11.2594 29.5896H23.5788C23.7031 29.5896 23.8224 29.5402 23.9103 29.4523C23.9982 29.3644 24.0476 29.2451 24.0476 29.1208C24.0476 28.9965 23.9982 28.8773 23.9103 28.7894C23.8224 28.7015 23.7031 28.6521 23.5788 28.6521H11.0415L10.2085 25.0703C10.2002 25.0335 10.1911 24.997 10.1811 24.9606L25.8911 22.8986C26.9472 22.7595 27.988 23.0859 28.8208 23.8166C29.7752 24.6538 30.3222 25.9047 30.3222 27.2487C30.3222 28.0226 29.7648 28.6521 29.0797 28.6521Z" fill="#566575"/>
</g>
<defs>
<clipPath id="clip0_0_17">
<rect width="32" height="32" fill="white"/>
</clipPath>
</defs>
</svg>
