<svg width="32" height="32" viewBox="0 0 32 32" fill="none" xmlns="http://www.w3.org/2000/svg">
<g clip-path="url(#clip0_1572_149619)">
<path d="M7.78125 28.373V31.5318H25.5389C26.6284 31.5318 27.5117 30.6485 27.5117 29.5589V28.373H7.78125Z" fill="white"/>
<path d="M24.5586 28.373V31.5318H25.5364C26.626 31.5318 27.5093 30.6485 27.5093 29.5589V28.373H24.5586Z" fill="#E2EBF9"/>
<path d="M2.05268 8.33189L3.43768 8.04964C5.5048 7.62851 6.74143 5.49764 6.08124 3.49401C5.36443 1.70001 3.64424 0.50864 1.7128 0.469015C0.923243 0.452828 0.327055 1.18058 0.498243 1.95133L2.05268 8.33189Z" fill="#FFDE00"/>
<path d="M6.08316 3.49389C5.36647 1.70002 3.64628 0.508582 1.71484 0.469019C1.30053 0.460456 0.939719 0.657019 0.714844 0.956832C1.76634 1.47121 2.61797 2.36233 3.06984 3.49389L4.44797 7.67702C5.88285 6.88089 6.62691 5.14477 6.08328 3.49389H6.08316Z" fill="#E7CA04"/>
<path d="M11.4618 27.2738L6.51409 28.3727L1.98759 8.03625C1.78759 7.13588 2.4839 6.286 3.40603 6.305L4.75565 6.33263C6.19315 6.36219 7.47365 7.24888 8.00709 8.58413L8.50784 9.83775C9.60741 12.5904 10.2959 15.4899 10.5513 18.443L11.4618 27.2738Z" fill="#FFDE00"/>
<path d="M5.08741 8.58412L5.58816 9.83775C6.68773 12.5904 7.37625 15.4899 7.63159 18.443L8.62572 27.9037L11.4614 27.2741L10.5508 18.443C10.2954 15.4899 9.60692 12.5904 8.50734 9.83775L8.00659 8.58412C7.47316 7.24887 6.19266 6.36219 4.75516 6.33262L3.40553 6.30506C3.1682 6.2996 2.93333 6.35409 2.72266 6.4635C3.78222 6.75844 4.66703 7.53187 5.08741 8.58412Z" fill="#E7CA04"/>
<path d="M25.8293 22.4336L8.01078 24.7725C7.00828 24.9041 6.25391 25.8343 6.25391 26.9387C6.25391 28.1439 7.14672 29.1206 8.24828 29.1206H29.0791C30.0242 29.1206 30.7903 28.2825 30.7903 27.2485C30.7903 24.3414 28.468 22.0874 25.8293 22.4336Z" fill="#FFDE00"/>
<path d="M25.8313 22.4336L24.6445 22.5894C26.4737 23.1709 27.8418 25.0171 27.8418 27.2485C27.8418 28.2825 27.0754 29.1207 26.1303 29.1207H29.081C30.0261 29.1207 30.7923 28.2825 30.7923 27.2485C30.7923 24.3414 28.47 22.0874 25.8313 22.4336Z" fill="#E7CA04"/>
<path d="M7.43873 31.5317H11.2283L9.7493 25.1729C9.4873 23.9988 8.32348 23.2596 7.14942 23.5215C5.97611 23.7832 5.23655 24.9465 5.4978 26.1201L6.65092 30.9109C6.69342 31.0878 6.79425 31.2453 6.93717 31.3579C7.08009 31.4705 7.25677 31.5318 7.43873 31.5317Z" fill="#E6ECF5"/>
<path d="M9.74925 25.1729C9.48725 23.9988 8.32344 23.2596 7.14937 23.5215C6.77174 23.6052 6.42342 23.7886 6.14062 24.0525C6.46364 24.352 6.6877 24.7428 6.78294 25.1729L8.26194 31.5317H11.2282L9.74925 25.1729Z" fill="#E6ECF5"/>
<path d="M29.4391 23.112C28.4004 22.2007 27.0969 21.7947 25.769 21.9692L11.5786 23.8317L11.0183 18.3986C10.7591 15.401 10.06 12.4578 8.94358 9.66382L8.44283 8.4102C8.05856 7.44556 7.31784 6.66577 6.37421 6.23245C6.78507 5.32384 6.83937 4.29399 6.52634 3.34721C6.5234 3.3379 6.51996 3.3289 6.51659 3.31984C6.13287 2.35611 5.47328 1.52706 4.62046 0.936553C3.76764 0.346048 2.75952 0.0203542 1.72241 0.000279577C1.20116 -0.0090329 0.713097 0.214654 0.382785 0.617966C0.0524734 1.02103 -0.0722764 1.54421 0.0407234 2.05296L0.0429734 2.06234L1.59716 8.44264C1.59785 8.44607 1.5996 8.44926 1.60053 8.45239L4.75165 22.6096C4.76498 22.6697 4.79002 22.7266 4.82536 22.777C4.86069 22.8275 4.90563 22.8704 4.95758 22.9035C5.00954 22.9365 5.0675 22.959 5.12815 22.9696C5.18879 22.9802 5.25094 22.9787 5.31103 22.9653C5.56371 22.9092 5.7229 22.6587 5.66671 22.4057L2.44547 7.93458C2.41375 7.79346 2.41472 7.64696 2.44829 7.50627C2.48186 7.36558 2.54714 7.23442 2.63916 7.12283C2.73078 7.01102 2.84659 6.92147 2.97787 6.86095C3.10914 6.80043 3.25244 6.77051 3.39697 6.77345L4.74634 6.80127C5.02559 6.80689 5.29759 6.84989 5.55709 6.92558C5.56928 6.92995 5.58178 6.93383 5.59421 6.93702C6.03927 7.073 6.44808 7.30725 6.79045 7.62245C7.13281 7.93765 7.39998 8.32575 7.57221 8.75807L8.07296 10.0115C9.1558 12.7214 9.83363 15.576 10.0846 18.4834L10.0854 18.4909L10.6489 23.9539L9.75121 24.0717C9.14696 23.2585 8.10008 22.8294 7.04902 23.0635C5.62546 23.3811 4.72509 24.7979 5.04196 26.2216C5.04271 26.2241 5.04321 26.2268 5.04365 26.2295L6.19677 31.0202C6.26333 31.2998 6.42236 31.5486 6.64808 31.7265C6.8738 31.9043 7.15298 32.0007 7.44033 32H25.5375C26.8734 32 27.9612 30.9216 27.9781 29.5898H29.0797C30.2815 29.5898 31.2597 28.5395 31.2597 27.249C31.2597 25.6347 30.5961 24.1269 29.4391 23.112ZM3.41603 5.83621C3.40278 5.83596 3.38959 5.83571 3.37622 5.83571C2.87809 5.83571 2.40934 6.02783 2.0576 6.37158L0.955097 1.84571C0.930972 1.7354 0.932191 1.62105 0.95866 1.51127C0.985129 1.4015 1.03616 1.29916 1.10791 1.21196C1.2546 1.03271 1.47291 0.93534 1.7031 0.937528C2.55353 0.953996 3.38032 1.22036 4.08045 1.70341C4.78057 2.18647 5.32306 2.86487 5.64034 3.65408C5.88612 4.40881 5.82725 5.22971 5.47628 5.94164C5.24213 5.89488 5.00431 5.8689 4.76559 5.86402L3.41603 5.83621ZM7.44033 31.0625C7.36357 31.0626 7.28899 31.0369 7.22868 30.9894C7.16837 30.9419 7.12586 30.8754 7.10802 30.8008L5.95621 26.0142C5.75409 25.0959 6.33515 24.1831 7.25309 23.9785C8.17308 23.7729 9.08808 24.3545 9.29433 25.2785L10.6396 31.0625H7.44033ZM29.0797 28.6521H23.7694C23.6451 28.6521 23.5259 28.7015 23.438 28.7894C23.3501 28.8773 23.3007 28.9965 23.3007 29.1208C23.3007 29.2452 23.3501 29.3644 23.438 29.4523C23.5259 29.5402 23.6451 29.5896 23.7694 29.5896H27.0407C27.0241 30.4045 26.3563 31.0625 25.5375 31.0625H11.6019L11.2594 29.5896H23.5787C23.7031 29.5896 23.8223 29.5402 23.9102 29.4523C23.9981 29.3644 24.0475 29.2452 24.0475 29.1208C24.0475 28.9965 23.9981 28.8773 23.9102 28.7894C23.8223 28.7015 23.7031 28.6521 23.5787 28.6521H11.0415L10.2085 25.0703C10.2001 25.0336 10.191 24.997 10.1811 24.9607L25.8911 22.8987C26.9472 22.7595 27.9879 23.0859 28.8207 23.8166C29.7751 24.6538 30.3222 25.9047 30.3222 27.2487C30.3222 28.0227 29.7647 28.6521 29.0797 28.6521Z" fill="#014EA2"/>
</g>
<defs>
<clipPath id="clip0_1572_149619">
<rect width="32" height="32" fill="white"/>
</clipPath>
</defs>
</svg>
