<svg width="151" height="102" viewBox="0 0 151 102" fill="none" xmlns="http://www.w3.org/2000/svg">
<path opacity="0.5" d="M143.727 51.4794C154.456 67.3769 158.285 81.5524 152.312 88.4942C142.715 99.6474 111.448 87.904 82.4753 62.2645C53.5029 36.625 37.7961 6.79861 47.3933 -4.35459C54.3672 -12.4591 72.783 -8.47365 93.4462 4.14828" stroke="#C7C7C7" stroke-width="0.985701"/>
<path d="M122.315 64.8876C133.044 80.7851 136.873 94.9606 130.9 101.902C121.303 113.056 90.0357 101.312 61.0632 75.6727C32.0908 50.0332 16.384 20.2068 25.9812 9.05361C32.955 0.949129 51.3709 4.93456 72.0341 17.5565" stroke="#C7C7C7" stroke-width="0.985701"/>
<path opacity="0.7" d="M162.298 39.8573C173.027 55.7548 176.856 69.9303 170.882 76.8721C161.285 88.0254 130.018 76.2819 101.046 50.6424C72.0732 25.0029 56.3664 -4.82346 65.9636 -15.9767C72.9375 -24.0811 91.3533 -20.0957 112.017 -7.47379" stroke="#C7C7C7" stroke-width="0.985701"/>
</svg>
