<svg width="151" height="110" viewBox="0 0 151 110" fill="none" xmlns="http://www.w3.org/2000/svg">
<path opacity="0.5" d="M143.725 51.4794C154.454 67.3769 158.283 81.5524 152.31 88.4942C142.713 99.6474 111.446 87.904 82.4734 62.2645C53.5009 36.625 37.7942 6.79861 47.3914 -4.35459C54.3652 -12.4591 72.7811 -8.47365 93.4443 4.14828" stroke="#D9B791" stroke-width="0.985701"/>
<path d="M122.313 64.8876C133.042 80.7851 136.871 94.9606 130.898 101.902C121.301 113.056 90.0338 101.312 61.0613 75.6727C32.0888 50.0332 16.3821 20.2068 25.9793 9.05361C32.9531 0.949129 51.369 4.93456 72.0322 17.5565" stroke="#D9B791" stroke-width="0.985701"/>
<path opacity="0.7" d="M162.296 39.8573C173.025 55.7548 176.854 69.9303 170.88 76.8721C161.283 88.0254 130.016 76.2819 101.044 50.6424C72.0712 25.0029 56.3645 -4.82346 65.9617 -15.9767C72.9355 -24.0811 91.3514 -20.0957 112.015 -7.47379" stroke="#D9B791" stroke-width="0.985701"/>
</svg>
