<svg width="16" height="16" viewBox="0 0 16 16" fill="none" xmlns="http://www.w3.org/2000/svg">
<path d="M8.5 1H2.5C2.10218 1 1.72064 1.15804 1.43934 1.43934C1.15804 1.72064 1 2.10218 1 2.5V14.5C1 14.6326 1.05268 14.7598 1.14645 14.8536C1.24021 14.9473 1.36739 15 1.5 15H4V11.5C4 11.3674 4.05268 11.2402 4.14645 11.1464C4.24021 11.0527 4.36739 11 4.5 11H6.5C6.63261 11 6.75978 11.0527 6.85355 11.1464C6.94732 11.2402 7 11.3674 7 11.5V15H10V2.5C10 2.10218 9.84196 1.72064 9.56066 1.43934C9.27936 1.15804 8.89782 1 8.5 1ZM4.5 9.5H3.5C3.36739 9.5 3.24021 9.44732 3.14645 9.35355C3.05268 9.25979 3 9.13261 3 9C3 8.86739 3.05268 8.74021 3.14645 8.64645C3.24021 8.55268 3.36739 8.5 3.5 8.5H4.5C4.63261 8.5 4.75978 8.55268 4.85355 8.64645C4.94732 8.74021 5 8.86739 5 9C5 9.13261 4.94732 9.25979 4.85355 9.35355C4.75978 9.44732 4.63261 9.5 4.5 9.5ZM4.5 7H3.5C3.36739 7 3.24021 6.94732 3.14645 6.85355C3.05268 6.75979 3 6.63261 3 6.5C3 6.36739 3.05268 6.24021 3.14645 6.14645C3.24021 6.05268 3.36739 6 3.5 6H4.5C4.63261 6 4.75978 6.05268 4.85355 6.14645C4.94732 6.24021 5 6.36739 5 6.5C5 6.63261 4.94732 6.75979 4.85355 6.85355C4.75978 6.94732 4.63261 7 4.5 7ZM4.5 4.5H3.5C3.36739 4.5 3.24021 4.44732 3.14645 4.35355C3.05268 4.25979 3 4.13261 3 4C3 3.86739 3.05268 3.74022 3.14645 3.64645C3.24021 3.55268 3.36739 3.5 3.5 3.5H4.5C4.63261 3.5 4.75978 3.55268 4.85355 3.64645C4.94732 3.74022 5 3.86739 5 4C5 4.13261 4.94732 4.25979 4.85355 4.35355C4.75978 4.44732 4.63261 4.5 4.5 4.5ZM7.5 9.5H6.5C6.36739 9.5 6.24021 9.44732 6.14645 9.35355C6.05268 9.25979 6 9.13261 6 9C6 8.86739 6.05268 8.74021 6.14645 8.64645C6.24021 8.55268 6.36739 8.5 6.5 8.5H7.5C7.63261 8.5 7.75978 8.55268 7.85355 8.64645C7.94732 8.74021 8 8.86739 8 9C8 9.13261 7.94732 9.25979 7.85355 9.35355C7.75978 9.44732 7.63261 9.5 7.5 9.5ZM7.5 7H6.5C6.36739 7 6.24021 6.94732 6.14645 6.85355C6.05268 6.75979 6 6.63261 6 6.5C6 6.36739 6.05268 6.24021 6.14645 6.14645C6.24021 6.05268 6.36739 6 6.5 6H7.5C7.63261 6 7.75978 6.05268 7.85355 6.14645C7.94732 6.24021 8 6.36739 8 6.5C8 6.63261 7.94732 6.75979 7.85355 6.85355C7.75978 6.94732 7.63261 7 7.5 7ZM7.5 4.5H6.5C6.36739 4.5 6.24021 4.44732 6.14645 4.35355C6.05268 4.25979 6 4.13261 6 4C6 3.86739 6.05268 3.74022 6.14645 3.64645C6.24021 3.55268 6.36739 3.5 6.5 3.5H7.5C7.63261 3.5 7.75978 3.55268 7.85355 3.64645C7.94732 3.74022 8 3.86739 8 4C8 4.13261 7.94732 4.25979 7.85355 4.35355C7.75978 4.44732 7.63261 4.5 7.5 4.5ZM12.9545 3.5H10.4545V6H11.9545C12.0872 6 12.2143 6.05268 12.3081 6.14645C12.4019 6.24021 12.4545 6.36739 12.4545 6.5C12.4545 6.63261 12.4019 6.75979 12.3081 6.85355C12.2143 6.94732 12.0872 7 11.9545 7H10.4545V8.5H11.9545C12.0872 8.5 12.2143 8.55268 12.3081 8.64645C12.4019 8.74021 12.4545 8.86739 12.4545 9C12.4545 9.13261 12.4019 9.25979 12.3081 9.35355C12.2143 9.44732 12.0872 9.5 11.9545 9.5H10.4545V11H11.9545C12.0872 11 12.2143 11.0527 12.3081 11.1464C12.4019 11.2402 12.4545 11.3674 12.4545 11.5C12.4545 11.6326 12.4019 11.7598 12.3081 11.8536C12.2143 11.9473 12.0872 12 11.9545 12H10.4545V15H13.9545C14.0872 15 14.2143 14.9473 14.3081 14.8536C14.4019 14.7598 14.4545 14.6326 14.4545 14.5V5C14.4545 4.60218 14.2965 4.22064 14.0152 3.93934C13.7339 3.65804 13.3524 3.5 12.9545 3.5Z" fill="#161C22"/>
</svg>
