<svg width="20" height="20" viewBox="0 0 20 20" fill="none" xmlns="http://www.w3.org/2000/svg">
<path d="M9.99148 0.832031C4.93148 0.832031 0.833984 4.9387 0.833984 9.9987C0.833984 15.0587 4.93148 19.1654 9.99148 19.1654C15.0607 19.1654 19.1673 15.0587 19.1673 9.9987C19.1673 4.9387 15.0607 0.832031 9.99148 0.832031ZM10.0007 17.332C5.94898 17.332 2.66732 14.0504 2.66732 9.9987C2.66732 5.94703 5.94898 2.66536 10.0007 2.66536C14.0523 2.66536 17.334 5.94703 17.334 9.9987C17.334 14.0504 14.0523 17.332 10.0007 17.332ZM13.209 9.08203C13.9698 9.08203 14.584 8.46786 14.584 7.70703C14.584 6.9462 13.9698 6.33203 13.209 6.33203C12.4482 6.33203 11.834 6.9462 11.834 7.70703C11.834 8.46786 12.4482 9.08203 13.209 9.08203ZM6.79232 9.08203C7.55315 9.08203 8.16732 8.46786 8.16732 7.70703C8.16732 6.9462 7.55315 6.33203 6.79232 6.33203C6.03148 6.33203 5.41732 6.9462 5.41732 7.70703C5.41732 8.46786 6.03148 9.08203 6.79232 9.08203ZM10.0007 15.0404C12.1365 15.0404 13.9515 13.702 14.6848 11.832H5.31648C6.04982 13.702 7.86482 15.0404 10.0007 15.0404Z" fill="#566575"/>
</svg>
