<svg width="12" height="12" viewBox="0 0 12 12" fill="none" xmlns="http://www.w3.org/2000/svg">
<path d="M7.69473 2.60563L8.39973 4.01563C8.49473 4.21063 8.74973 4.39563 8.96473 4.43563L10.2397 4.64563C11.0547 4.78063 11.2447 5.37063 10.6597 5.96063L9.66473 6.95563C9.49973 7.12063 9.40473 7.44563 9.45973 7.68063L9.74473 8.91063C9.96973 9.88063 9.44973 10.2606 8.59473 9.75063L7.39973 9.04063C7.18473 8.91063 6.82473 8.91063 6.60973 9.04063L5.41473 9.75063C4.55973 10.2556 4.03973 9.88063 4.26473 8.91063L4.54973 7.68063C4.59473 7.44063 4.49973 7.11563 4.33473 6.95063L3.33973 5.95563C2.75473 5.37063 2.94473 4.78063 3.75973 4.64063L5.03473 4.43063C5.24973 4.39563 5.50473 4.20563 5.59973 4.01063L6.30473 2.60063C6.68973 1.84063 7.30973 1.84063 7.69473 2.60563Z" fill="#FFDE00"/>
</svg>
