<svg width="20" height="20" viewBox="0 0 20 20" fill="none" xmlns="http://www.w3.org/2000/svg">
<rect width="20" height="20" rx="10" fill="#E8E8E8" fill-opacity="0.5"/>
<path d="M2.99935 12.9537C3.10815 12.9531 3.21683 12.9611 3.32435 12.9777C3.33302 12.9804 3.34202 12.9814 3.35102 12.9831C3.58079 13.0295 3.79946 13.1198 3.99502 13.2491C4.39064 13.5115 4.85703 13.6468 5.33168 13.6367C5.80121 13.6479 6.26294 13.5153 6.65502 13.2567C6.65953 13.2544 6.66398 13.252 6.66835 13.2494C6.96074 13.0486 7.30906 12.9451 7.66368 12.9537C8.0192 12.9458 8.36834 13.049 8.66235 13.2491C9.05665 13.5117 9.52204 13.647 9.99568 13.6367C10.4703 13.6458 10.9364 13.5108 11.3327 13.2494C11.6251 13.0485 11.9734 12.9451 12.328 12.9537C12.6857 12.9461 13.0369 13.0506 13.3323 13.2524C13.727 13.5124 14.1912 13.6464 14.6637 13.6367C14.9821 13.6438 15.2985 13.5848 15.593 13.4634C15.7333 13.4014 15.8692 13.3299 15.9997 13.2494C16.2953 13.052 16.6439 12.9489 16.9993 12.9537C17.0878 12.9537 17.1725 12.9186 17.2351 12.8561C17.2976 12.7936 17.3327 12.7088 17.3327 12.6204C17.3327 12.532 17.2976 12.4472 17.2351 12.3847C17.1725 12.3222 17.0878 12.2871 16.9993 12.2871C16.8697 12.2855 16.7402 12.2947 16.612 12.3144C16.2733 12.3649 15.9494 12.4878 15.6623 12.6747C15.5563 12.7404 15.4461 12.799 15.3323 12.8501C15.1204 12.9366 14.8925 12.9775 14.6637 12.9701C14.3049 12.9791 13.9526 12.874 13.6573 12.6701C13.3777 12.4895 13.0634 12.3692 12.7347 12.3167L9.98802 8.30574L13.5077 6.54407C13.6625 6.46674 13.7985 6.35636 13.906 6.22073C14.0135 6.0851 14.0899 5.92752 14.1298 5.75912C14.1697 5.59072 14.1722 5.41561 14.1371 5.24615C14.1019 5.0767 14.03 4.91702 13.9263 4.77841C13.7602 4.56406 13.5265 4.41215 13.2632 4.34734C12.9998 4.28254 12.7223 4.30864 12.4757 4.42141L7.61302 6.72307C7.44402 6.80314 7.2934 6.91727 7.17059 7.0583C7.04778 7.19933 6.95543 7.36421 6.89935 7.5426C6.84326 7.721 6.82465 7.90906 6.84467 8.09499C6.86469 8.28092 6.92291 8.4607 7.01568 8.62307L7.66202 9.77241L3.35035 12.3101C3.23395 12.295 3.11671 12.2875 2.99935 12.2874C2.91094 12.2874 2.82616 12.3225 2.76365 12.385C2.70113 12.4475 2.66602 12.5323 2.66602 12.6207C2.66602 12.7091 2.70113 12.7939 2.76365 12.8564C2.82616 12.919 2.91094 12.9537 2.99935 12.9537ZM8.00168 10.3457C8.15434 10.2556 8.26532 10.1089 8.31056 9.93754C8.3558 9.76613 8.33165 9.5838 8.24335 9.43007L7.59402 8.29174C7.54695 8.20913 7.51746 8.11769 7.50737 8.02315C7.49728 7.92861 7.50682 7.83301 7.53539 7.74233C7.56395 7.65165 7.61094 7.56784 7.67339 7.49616C7.73585 7.42447 7.81243 7.36646 7.89835 7.32574L12.7603 5.02441C12.8479 4.982 12.9458 4.96543 13.0424 4.97664C13.1391 4.98785 13.2306 5.02637 13.3061 5.08768C13.3817 5.149 13.4382 5.23058 13.469 5.32286C13.4999 5.41514 13.5038 5.51431 13.4803 5.60874C13.4634 5.68174 13.4304 5.75003 13.3837 5.80862C13.337 5.86722 13.2777 5.91463 13.2103 5.94741L9.69202 7.70841C9.60567 7.75072 9.52942 7.8111 9.46846 7.88547C9.4075 7.95983 9.36324 8.04644 9.33868 8.13941C9.31388 8.23342 9.30958 8.33167 9.32609 8.42748C9.34259 8.5233 9.37952 8.61445 9.43435 8.69474L11.925 12.3164C11.5931 12.3688 11.276 12.4909 10.9947 12.6747C10.7013 12.8762 10.3517 12.9796 9.99602 12.9701C9.63838 12.9786 9.28725 12.8735 8.99302 12.6701C8.59881 12.411 8.13532 12.2774 7.66368 12.2871C7.19285 12.2768 6.73011 12.4105 6.33735 12.6704L6.32202 12.6791C6.031 12.8784 5.68426 12.9803 5.33168 12.9701C4.97562 12.9786 4.62589 12.875 4.33202 12.6737C4.28535 12.6464 4.23668 12.6187 4.18735 12.5911L8.00168 10.3457ZM16.9993 14.3361C16.5252 14.3264 16.0592 14.4614 15.6637 14.7231C15.3662 14.9162 15.0191 15.019 14.6643 15.019C14.3096 15.019 13.9625 14.9162 13.665 14.7231C13.2655 14.4703 12.8023 14.336 12.3295 14.336C11.8567 14.336 11.3936 14.4703 10.994 14.7231C10.7005 14.924 10.3513 15.0276 9.99568 15.0191C9.64041 15.0276 9.29147 14.924 8.99835 14.7231C8.6034 14.4614 8.13803 14.3264 7.66435 14.3361C7.19035 14.3263 6.72465 14.4613 6.32935 14.7231C6.03599 14.924 5.68684 15.0276 5.33135 15.0191C4.97597 15.0275 4.62694 14.924 4.33368 14.7231C3.9386 14.4614 3.47313 14.3264 2.99935 14.3361C2.91094 14.3361 2.82616 14.3712 2.76365 14.4337C2.70113 14.4962 2.66602 14.581 2.66602 14.6694C2.66602 14.7578 2.70113 14.8426 2.76365 14.9051C2.82616 14.9676 2.91094 15.0027 2.99935 15.0027C3.35473 14.9943 3.70376 15.0978 3.99702 15.2987C4.3922 15.5605 4.85779 15.6955 5.33168 15.6857C5.80545 15.6953 6.27091 15.5604 6.66602 15.2987C6.95937 15.0978 7.30853 14.9942 7.66402 15.0027C8.01918 14.9943 8.36799 15.0979 8.66102 15.2987C9.05606 15.5605 9.52156 15.6955 9.99535 15.6857C10.4695 15.6955 10.9353 15.5605 11.3307 15.2987C11.628 15.1056 11.9749 15.0029 12.3293 15.0029C12.6838 15.0029 13.0307 15.1056 13.328 15.2987C13.7277 15.5516 14.1909 15.6858 14.6638 15.6858C15.1368 15.6858 15.6 15.5516 15.9997 15.2987C16.2936 15.0977 16.6433 14.9942 16.9993 15.0027C17.0878 15.0027 17.1725 14.9676 17.2351 14.9051C17.2976 14.8426 17.3327 14.7578 17.3327 14.6694C17.3327 14.581 17.2976 14.4962 17.2351 14.4337C17.1725 14.3712 17.0878 14.3361 16.9993 14.3361Z" fill="#2E363D"/>
<path d="M12.2266 9.5464C12.2266 10.0175 12.3664 10.478 12.6281 10.8696C12.8899 11.2613 13.2619 11.5666 13.6972 11.7468C14.1324 11.9271 14.6113 11.9742 15.0733 11.8823C15.5354 11.7904 15.9598 11.5635 16.2929 11.2304C16.626 10.8973 16.8529 10.4729 16.9448 10.0108C17.0367 9.54882 16.9896 9.0699 16.8093 8.63466C16.6291 8.19942 16.3238 7.8274 15.9321 7.56564C15.5405 7.30388 15.08 7.16413 14.6089 7.16406C13.9773 7.16477 13.3718 7.416 12.9252 7.86263C12.4787 8.30926 12.2272 8.91481 12.2266 9.5464ZM14.6089 7.83073C14.9482 7.83073 15.2798 7.93133 15.5619 8.11982C15.844 8.3083 16.0638 8.5762 16.1937 8.88963C16.3235 9.20307 16.3575 9.54797 16.2913 9.88071C16.2251 10.2134 16.0617 10.5191 15.8218 10.759C15.5819 10.9989 15.2763 11.1622 14.9435 11.2284C14.6108 11.2946 14.2659 11.2607 13.9525 11.1308C13.639 11.001 13.3711 10.7811 13.1826 10.4991C12.9942 10.217 12.8936 9.88532 12.8936 9.54606C12.8941 9.09129 13.075 8.6553 13.3966 8.33372C13.7181 8.01215 14.1541 7.83126 14.6089 7.83073Z" fill="#2E363D"/>
</svg>
