<svg width="20" height="20" viewBox="0 0 20 20" fill="none" xmlns="http://www.w3.org/2000/svg">
<path d="M7.2656 16.625C6.99714 16.625 6.7347 16.5453 6.51147 16.3962C6.28825 16.247 6.11427 16.035 6.01153 15.787C5.90879 15.539 5.88191 15.2661 5.93429 15.0027C5.98666 14.7394 6.11594 14.4976 6.30578 14.3077C6.49561 14.1179 6.73748 13.9886 7.00079 13.9362C7.2641 13.8839 7.53703 13.9107 7.78506 14.0135C8.03309 14.1162 8.24509 14.2902 8.39424 14.5134C8.54339 14.7366 8.623 14.9991 8.623 15.2676C8.62258 15.6274 8.47943 15.9724 8.22496 16.2269C7.97049 16.4814 7.62548 16.6245 7.2656 16.625ZM7.2656 14.5502C7.12372 14.5502 6.98501 14.5922 6.86704 14.6711C6.74906 14.7499 6.65711 14.8619 6.60281 14.993C6.54851 15.1241 6.53431 15.2684 6.56199 15.4075C6.58967 15.5467 6.65799 15.6745 6.75833 15.7748C6.85866 15.8752 6.98648 15.9435 7.12565 15.9712C7.26481 15.9989 7.40905 15.9846 7.54014 15.9303C7.67123 15.876 7.78327 15.7841 7.8621 15.6661C7.94093 15.5481 7.983 15.4094 7.983 15.2676C7.98279 15.0774 7.90714 14.895 7.77265 14.7605C7.63816 14.626 7.45581 14.5504 7.2656 14.5502Z" fill="#2E363D"/>
<path d="M6.38927 15.0309C6.32072 15.0309 6.25398 15.0089 6.1989 14.9681C6.14381 14.9273 6.10327 14.8699 6.08327 14.8043L4.08187 8.25952C4.01854 8.05255 3.99661 7.83514 4.01733 7.6197C4.03806 7.40427 4.10102 7.19502 4.20264 7.00392C4.30425 6.81282 4.44252 6.64362 4.60954 6.50597C4.77657 6.36833 4.96907 6.26494 5.17607 6.20172C5.537 6.09254 5.92439 6.10994 6.27408 6.25103C6.62376 6.39212 6.91476 6.64844 7.09887 6.97752C7.19987 7.15932 7.24587 7.32792 7.23887 7.49252C7.16147 9.51532 7.73727 11.1557 8.99887 12.5075C9.14867 12.6675 9.24267 12.8855 9.27067 13.1359C9.29831 13.3904 9.26668 13.6478 9.17823 13.888C9.08979 14.1282 8.94694 14.3447 8.76087 14.5205L8.75327 14.5275C8.57858 14.69 8.37044 14.8123 8.14347 14.8857C8.10335 14.8982 8.06116 14.9027 8.0193 14.8989C7.97745 14.8951 7.93675 14.8831 7.89953 14.8636C7.86232 14.8441 7.82931 14.8174 7.80239 14.7852C7.77548 14.7529 7.75518 14.7156 7.74267 14.6755C7.73015 14.6354 7.72566 14.5932 7.72945 14.5514C7.73324 14.5095 7.74524 14.4688 7.76476 14.4316C7.78428 14.3944 7.81094 14.3614 7.84321 14.3344C7.87549 14.3075 7.91275 14.2872 7.95287 14.2747C8.09052 14.2291 8.21658 14.154 8.32227 14.0547L8.32827 14.0491C8.44056 13.9417 8.52667 13.8099 8.57997 13.6639C8.63327 13.5179 8.65232 13.3616 8.63567 13.2071C8.62347 13.0963 8.58667 13.0031 8.53207 12.9447C7.14787 11.4613 6.51587 9.67012 6.60087 7.46812C6.60207 7.43792 6.59247 7.38232 6.54087 7.28812C6.4283 7.08687 6.25035 6.93013 6.03651 6.84385C5.82267 6.75758 5.58577 6.74694 5.36507 6.81372C5.23846 6.85238 5.1207 6.91561 5.01854 6.99979C4.91637 7.08397 4.83179 7.18746 4.76963 7.30434C4.70746 7.42122 4.66893 7.5492 4.65624 7.68097C4.64355 7.81274 4.65695 7.94572 4.69567 8.07232L6.69527 14.6171C6.70994 14.665 6.71318 14.7156 6.70473 14.7649C6.69628 14.8143 6.67638 14.8609 6.64662 14.9012C6.61685 14.9414 6.57807 14.9741 6.53337 14.9967C6.48868 15.0192 6.43932 15.0309 6.38927 15.0309Z" fill="#2E363D"/>
<path d="M13.9427 17.3355H7.89953C7.62916 17.335 7.36999 17.2274 7.17881 17.0362C6.98763 16.845 6.88001 16.5859 6.87953 16.3155V16.3025C6.87953 16.2176 6.91325 16.1362 6.97326 16.0762C7.03327 16.0162 7.11466 15.9825 7.19953 15.9825C7.2844 15.9825 7.3658 16.0162 7.42581 16.0762C7.48582 16.1362 7.51953 16.2176 7.51953 16.3025V16.3155C7.51985 16.4162 7.55999 16.5126 7.63118 16.5838C7.70238 16.655 7.79885 16.6952 7.89953 16.6955H13.9427C14.1359 16.6953 14.327 16.6555 14.5042 16.5784C14.6813 16.5013 14.8408 16.3887 14.9725 16.2474C15.1043 16.1061 15.2057 15.9393 15.2703 15.7572C15.3349 15.5751 15.3613 15.3817 15.3481 15.189C15.3348 14.9962 15.282 14.8083 15.193 14.6368C15.1041 14.4653 14.9808 14.3139 14.8309 14.192C14.681 14.0702 14.5076 13.9804 14.3215 13.9284C14.1355 13.8763 13.9407 13.8631 13.7493 13.8895L8.58573 14.6043C8.50155 14.6152 8.4165 14.5921 8.34929 14.5403C8.28208 14.4885 8.23821 14.4121 8.22733 14.3279C8.21646 14.2437 8.23947 14.1586 8.29131 14.0914C8.34314 14.0242 8.41955 13.9804 8.50373 13.9695L13.6609 13.2555C13.9392 13.2171 14.2224 13.2364 14.493 13.312C14.7635 13.3877 15.0156 13.5182 15.2336 13.6954C15.4516 13.8726 15.6308 14.0927 15.7602 14.342C15.8895 14.5914 15.9663 14.8647 15.9856 15.145C16.0049 15.4252 15.9664 15.7064 15.8725 15.9712C15.7785 16.2359 15.6312 16.4786 15.4396 16.684C15.2479 16.8894 15.0161 17.0532 14.7585 17.1653C14.5009 17.2774 14.2231 17.3353 13.9421 17.3355H13.9427ZM5.48873 5.84988C5.27718 5.84999 5.06806 5.80469 4.87552 5.71703C4.68298 5.62938 4.51149 5.50142 4.37265 5.3418C4.23381 5.18218 4.13084 4.99462 4.07072 4.79178C4.0106 4.58895 3.99471 4.37558 4.02413 4.16608L4.19473 2.95208C4.24929 2.56388 4.45582 2.21325 4.76889 1.97733C5.08197 1.74141 5.47594 1.63952 5.86413 1.69408C6.25233 1.74863 6.60296 1.95516 6.83888 2.26824C7.0748 2.58131 7.17669 2.97528 7.12213 3.36348L6.95153 4.57748C6.90158 4.93007 6.72617 5.25283 6.45748 5.48654C6.1888 5.72026 5.84485 5.84926 5.48873 5.84988ZM5.65673 2.31948C5.45498 2.32005 5.2602 2.39332 5.10808 2.52585C4.95597 2.65838 4.85672 2.8413 4.82853 3.04108L4.65793 4.25508C4.62702 4.47517 4.68479 4.69854 4.81853 4.87605C4.95228 5.05357 5.15105 5.17069 5.37113 5.20168C5.40997 5.20707 5.44913 5.20981 5.48833 5.20988C5.69022 5.20934 5.88516 5.13612 6.03748 5.0036C6.18979 4.87109 6.28928 4.68815 6.31773 4.48828L6.48833 3.27428C6.50473 3.15544 6.49548 3.03446 6.46121 2.9195C6.42693 2.80453 6.36843 2.69824 6.28964 2.60778C6.21085 2.51732 6.1136 2.44478 6.00443 2.39505C5.89526 2.34532 5.7767 2.31955 5.65673 2.31948Z" fill="#2E363D"/>
<path d="M12.5613 18.3199H9.35973C8.43233 18.3199 7.70573 17.8031 7.70573 17.1433V17.0159C7.70573 16.9311 7.73944 16.8497 7.79945 16.7897C7.85947 16.7296 7.94086 16.6959 8.02573 16.6959C8.1106 16.6959 8.19199 16.7296 8.252 16.7897C8.31201 16.8497 8.34573 16.9311 8.34573 17.0159V17.1433C8.34573 17.3967 8.77933 17.6799 9.35973 17.6799H12.5613C13.1413 17.6799 13.5751 17.3967 13.5751 17.1433V17.0159C13.5751 16.9311 13.6088 16.8497 13.6689 16.7897C13.7289 16.7296 13.8103 16.6959 13.8951 16.6959C13.98 16.6959 14.0614 16.7296 14.1214 16.7897C14.1814 16.8497 14.2151 16.9311 14.2151 17.0159V17.1433C14.2147 17.8031 13.4883 18.3199 12.5613 18.3199ZM4.93133 6.98592C4.84646 6.98592 4.76507 6.95221 4.70505 6.8922C4.64504 6.83219 4.61133 6.75079 4.61133 6.66592V5.38792C4.61133 5.30306 4.64504 5.22166 4.70505 5.16165C4.76507 5.10164 4.84646 5.06792 4.93133 5.06792C5.0162 5.06792 5.09759 5.10164 5.1576 5.16165C5.21761 5.22166 5.25133 5.30306 5.25133 5.38792V6.66592C5.25133 6.75079 5.21761 6.83219 5.1576 6.8922C5.09759 6.95221 5.0162 6.98592 4.93133 6.98592ZM6.21573 6.89212C6.13086 6.89212 6.04947 6.85841 5.98945 6.7984C5.92944 6.73839 5.89573 6.65699 5.89573 6.57212V5.27313C5.89573 5.18826 5.92944 5.10686 5.98945 5.04685C6.04947 4.98684 6.13086 4.95312 6.21573 4.95312C6.3006 4.95312 6.38199 4.98684 6.442 5.04685C6.50201 5.10686 6.53573 5.18826 6.53573 5.27313V6.57212C6.53573 6.65699 6.50201 6.73839 6.442 6.7984C6.38199 6.85841 6.3006 6.89212 6.21573 6.89212Z" fill="#2E363D"/>
</svg>
