<svg width="250" height="581" viewBox="0 0 250 581" fill="none" xmlns="http://www.w3.org/2000/svg">
<path d="M28 42.6515C28 34.1664 33.0746 26.5276 40.8965 23.485C74.3105 10.4877 101.185 3.85644 127.319 3.70764C153.428 3.55899 179.043 9.87931 209.933 23.1686C217.315 26.3447 222 33.7473 222 41.9046V556.705C222 568.303 212.598 577.705 201 577.705H49C37.402 577.705 28 568.303 28 556.705V42.6515Z" fill="white" stroke="#EDEDED" stroke-width="6"/>
<line x1="47.75" y1="107.25" x2="202.25" y2="107.25" stroke="#B4B6B8" stroke-width="1.5" stroke-linecap="round" stroke-linejoin="round" stroke-dasharray="5 5"/>
<path d="M146.307 128.795H146.307H163.45C164.175 128.795 164.894 129.242 165.457 130.098C166.016 130.949 166.379 132.155 166.379 133.512V160.517C166.379 162.166 165.981 163.671 165.333 164.813C164.681 165.959 163.805 166.697 162.862 166.915C160.407 167.481 157.711 167.795 154.879 167.795C152.047 167.795 149.351 167.481 146.896 166.915C145.953 166.697 145.076 165.959 144.425 164.813C143.777 163.671 143.379 162.166 143.379 160.517V133.512C143.379 132.155 143.741 130.949 144.301 130.098C144.863 129.242 145.583 128.795 146.307 128.795Z" fill="white" stroke="#2E363D"/>
<path d="M146.694 163.488C149.168 164.67 151.998 165.295 154.879 165.295C157.76 165.295 160.59 164.67 163.064 163.488C163.702 163.183 164.035 162.243 163.807 161.387C163.628 160.715 163.155 160.295 162.651 160.295L147.106 160.295M146.694 163.488C146.056 163.183 145.723 162.243 145.951 161.387C146.129 160.715 146.602 160.295 147.106 160.295M146.694 163.488L146.91 163.037C149.313 164.185 152.069 164.795 154.879 164.795C157.689 164.795 160.445 164.185 162.848 163.037M146.694 163.488L146.91 163.037C146.741 162.956 146.572 162.769 146.469 162.478C146.367 162.19 146.346 161.844 146.434 161.516L146.434 161.516C146.575 160.983 146.901 160.795 147.106 160.795L147.106 160.295M147.106 160.295L147.107 160.795L162.651 160.795C162.855 160.795 163.182 160.982 163.324 161.516L163.324 161.516C163.411 161.844 163.39 162.19 163.289 162.478C163.186 162.769 163.017 162.957 162.848 163.037M162.848 163.037C162.848 163.037 162.848 163.037 162.848 163.037L163.063 163.488L162.848 163.037Z" fill="white" stroke="#2E363D"/>
<path d="M180.159 128.795H180.159H197.302C198.026 128.795 198.746 129.242 199.308 130.098C199.868 130.949 200.23 132.155 200.23 133.512V160.517C200.23 162.166 199.833 163.671 199.184 164.813C198.533 165.959 197.656 166.697 196.713 166.915C194.258 167.481 191.562 167.795 188.73 167.795C185.899 167.795 183.203 167.481 180.748 166.915C179.804 166.697 178.928 165.959 178.277 164.813C177.628 163.671 177.23 162.166 177.23 160.517V133.512C177.23 132.155 177.593 130.949 178.153 130.098C178.715 129.242 179.435 128.795 180.159 128.795Z" fill="white" stroke="#2E363D"/>
<path d="M180.546 163.488C183.02 164.67 185.85 165.295 188.73 165.295C191.611 165.295 194.441 164.67 196.915 163.488C197.554 163.183 197.887 162.243 197.659 161.387C197.48 160.715 197.007 160.295 196.503 160.295L180.958 160.295M180.546 163.488C179.907 163.183 179.574 162.243 179.802 161.387C179.981 160.715 180.453 160.295 180.958 160.295M180.546 163.488L180.761 163.037C183.164 164.185 185.92 164.795 188.73 164.795C191.54 164.795 194.296 164.185 196.7 163.037M180.546 163.488L180.761 163.037C180.592 162.956 180.424 162.769 180.321 162.478C180.219 162.19 180.198 161.844 180.285 161.516L180.285 161.516C180.427 160.983 180.753 160.795 180.958 160.795L180.958 160.295M180.958 160.295L180.958 160.795L196.503 160.795C196.707 160.795 197.034 160.982 197.176 161.516L197.176 161.516C197.263 161.844 197.242 162.19 197.14 162.478C197.037 162.769 196.869 162.957 196.7 163.037M196.7 163.037C196.7 163.037 196.7 163.037 196.7 163.037L196.915 163.488L196.7 163.037Z" fill="white" stroke="#2E363D"/>
<path d="M52.159 128.795H52.159H69.3019C70.0261 128.795 70.746 129.242 71.3084 130.098C71.868 130.949 72.2305 132.155 72.2305 133.512V160.517C72.2305 162.166 71.8326 163.671 71.1843 164.813C70.533 165.959 69.6565 166.697 68.7133 166.915C66.2582 167.481 63.5622 167.795 60.7304 167.795C57.8987 167.795 55.2027 167.481 52.7477 166.915C51.8045 166.697 50.9279 165.959 50.2767 164.813C49.6283 163.671 49.2305 162.166 49.2305 160.517V133.512C49.2305 132.155 49.5929 130.949 50.1525 130.098C50.7149 129.242 51.4348 128.795 52.159 128.795Z" fill="white" stroke="#2E363D"/>
<path d="M52.5458 163.488C55.0196 164.67 57.8498 165.295 60.7305 165.295C63.6112 165.295 66.4413 164.67 68.9151 163.488C69.5535 163.183 69.8865 162.243 69.6588 161.387C69.4798 160.715 69.007 160.295 68.5029 160.295L52.958 160.295M52.5458 163.488C51.9074 163.183 51.5744 162.243 51.8021 161.387C51.9809 160.715 52.4535 160.295 52.958 160.295M52.5458 163.488L52.7614 163.037C55.1644 164.185 57.9205 164.795 60.7305 164.795C63.5404 164.795 66.2965 164.185 68.6995 163.037M52.5458 163.488L52.7613 163.037C52.5922 162.956 52.4236 162.769 52.3205 162.478C52.2189 162.19 52.1979 161.844 52.2853 161.516L52.2853 161.516C52.427 160.983 52.7531 160.795 52.958 160.795L52.958 160.295M52.958 160.295L52.9581 160.795L68.5029 160.795C68.707 160.795 69.0336 160.982 69.1756 161.516L69.1756 161.516C69.263 161.844 69.2421 162.19 69.1404 162.478C69.0373 162.769 68.8686 162.957 68.6995 163.037M68.6995 163.037C68.6996 163.037 68.6996 163.037 68.6996 163.037L68.9151 163.488L68.6995 163.037Z" fill="white" stroke="#2E363D"/>
<path d="M146.307 180.795H146.307H163.45C164.175 180.795 164.894 181.242 165.457 182.098C166.016 182.949 166.379 184.155 166.379 185.512V212.517C166.379 214.166 165.981 215.671 165.333 216.813C164.681 217.959 163.805 218.697 162.862 218.915C160.407 219.481 157.711 219.795 154.879 219.795C152.047 219.795 149.351 219.481 146.896 218.915C145.953 218.697 145.076 217.959 144.425 216.813C143.777 215.671 143.379 214.166 143.379 212.517V185.512C143.379 184.155 143.741 182.949 144.301 182.098C144.863 181.242 145.583 180.795 146.307 180.795Z" fill="white" stroke="#2E363D"/>
<path d="M146.694 215.488C149.168 216.67 151.998 217.295 154.879 217.295C157.76 217.295 160.59 216.67 163.064 215.488C163.702 215.183 164.035 214.243 163.807 213.387C163.628 212.715 163.155 212.295 162.651 212.295L147.106 212.295M146.694 215.488C146.056 215.183 145.723 214.243 145.951 213.387C146.129 212.715 146.602 212.295 147.106 212.295M146.694 215.488L146.91 215.037C149.313 216.185 152.069 216.795 154.879 216.795C157.689 216.795 160.445 216.185 162.848 215.037M146.694 215.488L146.91 215.037C146.741 214.956 146.572 214.769 146.469 214.478C146.367 214.19 146.346 213.844 146.434 213.516L146.434 213.516C146.575 212.983 146.901 212.795 147.106 212.795L147.106 212.295M147.106 212.295L147.107 212.795L162.651 212.795C162.855 212.795 163.182 212.982 163.324 213.516L163.324 213.516C163.411 213.844 163.39 214.19 163.289 214.478C163.186 214.769 163.017 214.957 162.848 215.037M162.848 215.037C162.848 215.037 162.848 215.037 162.848 215.037L163.063 215.488L162.848 215.037Z" fill="white" stroke="#2E363D"/>
<path d="M176.73 185.512V212.517C176.73 215.968 178.393 218.885 180.635 219.402C183.128 219.977 185.862 220.295 188.73 220.295C191.599 220.295 194.332 219.977 196.826 219.402C199.068 218.885 200.73 215.968 200.73 212.517V185.512C200.73 182.631 199.195 180.295 197.302 180.295H180.159C178.265 180.295 176.73 182.631 176.73 185.512Z" fill="#C0C0C0"/>
<path d="M188.73 217.295C191.611 217.295 194.441 216.67 196.915 215.488C197.554 215.183 197.887 214.243 197.659 213.387C197.48 212.715 197.007 212.295 196.503 212.295L180.958 212.295C180.453 212.295 179.981 212.715 179.802 213.387C179.574 214.243 179.907 215.183 180.546 215.488C183.02 216.67 185.85 217.295 188.73 217.295Z" fill="#9D9B99"/>
<path d="M48.7305 185.512V212.517C48.7305 215.968 50.3927 218.885 52.6353 219.402C55.1284 219.977 57.8622 220.295 60.7304 220.295C63.5987 220.295 66.3324 219.977 68.8256 219.402C71.0682 218.885 72.7305 215.968 72.7305 212.517V185.512C72.7305 182.631 71.1954 180.295 69.3019 180.295H52.159C50.2655 180.295 48.7305 182.631 48.7305 185.512Z" fill="#C0C0C0"/>
<path d="M60.7305 217.295C63.6112 217.295 66.4413 216.67 68.9151 215.488C69.5535 215.183 69.8865 214.243 69.6588 213.387C69.4798 212.715 69.007 212.295 68.5029 212.295L52.958 212.295C52.4535 212.295 51.9809 212.715 51.8021 213.387C51.5744 214.243 51.9074 215.183 52.5458 215.488C55.0196 216.67 57.8498 217.295 60.7305 217.295Z" fill="#9D9B99"/>
<path d="M146.307 232.795H146.307H163.45C164.175 232.795 164.894 233.242 165.457 234.098C166.016 234.949 166.379 236.155 166.379 237.512V264.517C166.379 266.166 165.981 267.671 165.333 268.813C164.681 269.959 163.805 270.697 162.862 270.915C160.407 271.481 157.711 271.795 154.879 271.795C152.047 271.795 149.351 271.481 146.896 270.915C145.953 270.697 145.076 269.959 144.425 268.813C143.777 267.671 143.379 266.166 143.379 264.517V237.512C143.379 236.155 143.741 234.949 144.301 234.098C144.863 233.242 145.583 232.795 146.307 232.795Z" fill="white" stroke="#2E363D"/>
<path d="M146.694 267.488C149.168 268.67 151.998 269.295 154.879 269.295C157.76 269.295 160.59 268.67 163.064 267.488C163.702 267.183 164.035 266.243 163.807 265.387C163.628 264.715 163.155 264.295 162.651 264.295L147.106 264.295M146.694 267.488C146.056 267.183 145.723 266.243 145.951 265.387C146.129 264.715 146.602 264.295 147.106 264.295M146.694 267.488L146.91 267.037C149.313 268.185 152.069 268.795 154.879 268.795C157.689 268.795 160.445 268.185 162.848 267.037M146.694 267.488L146.91 267.037C146.741 266.956 146.572 266.769 146.469 266.478C146.367 266.19 146.346 265.844 146.434 265.516L146.434 265.516C146.575 264.983 146.901 264.795 147.106 264.795L147.106 264.295M147.106 264.295L147.107 264.795L162.651 264.795C162.855 264.795 163.182 264.982 163.324 265.516L163.324 265.516C163.411 265.844 163.39 266.19 163.289 266.478C163.186 266.769 163.017 266.957 162.848 267.037M162.848 267.037C162.848 267.037 162.848 267.037 162.848 267.037L163.063 267.488L162.848 267.037Z" fill="white" stroke="#2E363D"/>
<path d="M180.159 232.795H180.159H197.302C198.026 232.795 198.746 233.242 199.308 234.098C199.868 234.949 200.23 236.155 200.23 237.512V264.517C200.23 266.166 199.833 267.671 199.184 268.813C198.533 269.959 197.656 270.697 196.713 270.915C194.258 271.481 191.562 271.795 188.73 271.795C185.899 271.795 183.203 271.481 180.748 270.915C179.804 270.697 178.928 269.959 178.277 268.813C177.628 267.671 177.23 266.166 177.23 264.517V237.512C177.23 236.155 177.593 234.949 178.153 234.098C178.715 233.242 179.435 232.795 180.159 232.795Z" fill="white" stroke="#2E363D"/>
<path d="M180.546 267.488C183.02 268.67 185.85 269.295 188.73 269.295C191.611 269.295 194.441 268.67 196.915 267.488C197.554 267.183 197.887 266.243 197.659 265.387C197.48 264.715 197.007 264.295 196.503 264.295L180.958 264.295M180.546 267.488C179.907 267.183 179.574 266.243 179.802 265.387C179.981 264.715 180.453 264.295 180.958 264.295M180.546 267.488L180.761 267.037C183.164 268.185 185.92 268.795 188.73 268.795C191.54 268.795 194.296 268.185 196.7 267.037M180.546 267.488L180.761 267.037C180.592 266.956 180.424 266.769 180.321 266.478C180.219 266.19 180.198 265.844 180.285 265.516L180.285 265.516C180.427 264.983 180.753 264.795 180.958 264.795L180.958 264.295M180.958 264.295L180.958 264.795L196.503 264.795C196.707 264.795 197.034 264.982 197.176 265.516L197.176 265.516C197.263 265.844 197.242 266.19 197.14 266.478C197.037 266.769 196.869 266.957 196.7 267.037M196.7 267.037C196.7 267.037 196.7 267.037 196.7 267.037L196.915 267.488L196.7 267.037Z" fill="white" stroke="#2E363D"/>
<path d="M52.159 232.795H52.159H69.3019C70.0261 232.795 70.746 233.242 71.3084 234.098C71.868 234.949 72.2305 236.155 72.2305 237.512V264.517C72.2305 266.166 71.8326 267.671 71.1843 268.813C70.533 269.959 69.6565 270.697 68.7133 270.915C66.2582 271.481 63.5622 271.795 60.7304 271.795C57.8987 271.795 55.2027 271.481 52.7477 270.915C51.8045 270.697 50.9279 269.959 50.2767 268.813C49.6283 267.671 49.2305 266.166 49.2305 264.517V237.512C49.2305 236.155 49.5929 234.949 50.1525 234.098C50.7149 233.242 51.4348 232.795 52.159 232.795Z" fill="white" stroke="#2E363D"/>
<path d="M52.5458 267.488C55.0196 268.67 57.8498 269.295 60.7305 269.295C63.6112 269.295 66.4413 268.67 68.9151 267.488C69.5535 267.183 69.8865 266.243 69.6588 265.387C69.4798 264.715 69.007 264.295 68.5029 264.295L52.958 264.295M52.5458 267.488C51.9074 267.183 51.5744 266.243 51.8021 265.387C51.9809 264.715 52.4535 264.295 52.958 264.295M52.5458 267.488L52.7614 267.037C55.1644 268.185 57.9205 268.795 60.7305 268.795C63.5404 268.795 66.2965 268.185 68.6995 267.037M52.5458 267.488L52.7613 267.037C52.5922 266.956 52.4236 266.769 52.3205 266.478C52.2189 266.19 52.1979 265.844 52.2853 265.516L52.2853 265.516C52.427 264.983 52.7531 264.795 52.958 264.795L52.958 264.295M52.958 264.295L52.9581 264.795L68.5029 264.795C68.707 264.795 69.0336 264.982 69.1756 265.516L69.1756 265.516C69.263 265.844 69.2421 266.19 69.1404 266.478C69.0373 266.769 68.8686 266.957 68.6995 267.037M68.6995 267.037C68.6996 267.037 68.6996 267.037 68.6996 267.037L68.9151 267.488L68.6995 267.037Z" fill="white" stroke="#2E363D"/>
<path d="M142.879 289.512V316.517C142.879 319.968 144.541 322.885 146.784 323.402C149.277 323.977 152.011 324.295 154.879 324.295C157.747 324.295 160.481 323.977 162.974 323.402C165.217 322.885 166.879 319.968 166.879 316.517V289.512C166.879 286.631 165.344 284.295 163.45 284.295H146.307C144.414 284.295 142.879 286.631 142.879 289.512Z" fill="#C0C0C0"/>
<path d="M154.879 321.295C157.76 321.295 160.59 320.67 163.064 319.488C163.702 319.183 164.035 318.243 163.807 317.387C163.628 316.715 163.155 316.295 162.651 316.295L147.106 316.295C146.602 316.295 146.129 316.715 145.951 317.387C145.723 318.243 146.056 319.183 146.694 319.488C149.168 320.67 151.998 321.295 154.879 321.295Z" fill="#9D9B99"/>
<path d="M180.159 284.795H180.159H197.302C198.026 284.795 198.746 285.242 199.308 286.098C199.868 286.949 200.23 288.155 200.23 289.512V316.517C200.23 318.166 199.833 319.671 199.184 320.813C198.533 321.959 197.656 322.697 196.713 322.915C194.258 323.481 191.562 323.795 188.73 323.795C185.899 323.795 183.203 323.481 180.748 322.915C179.804 322.697 178.928 321.959 178.277 320.813C177.628 319.671 177.23 318.166 177.23 316.517V289.512C177.23 288.155 177.593 286.949 178.153 286.098C178.715 285.242 179.435 284.795 180.159 284.795Z" fill="white" stroke="#2E363D"/>
<path d="M180.546 319.488C183.02 320.67 185.85 321.295 188.73 321.295C191.611 321.295 194.441 320.67 196.915 319.488C197.554 319.183 197.887 318.243 197.659 317.387C197.48 316.715 197.007 316.295 196.503 316.295L180.958 316.295M180.546 319.488C179.907 319.183 179.574 318.243 179.802 317.387C179.981 316.715 180.453 316.295 180.958 316.295M180.546 319.488L180.761 319.037C183.164 320.185 185.92 320.795 188.73 320.795C191.54 320.795 194.296 320.185 196.7 319.037M180.546 319.488L180.761 319.037C180.592 318.956 180.424 318.769 180.321 318.478C180.219 318.19 180.198 317.844 180.285 317.516L180.285 317.516C180.427 316.983 180.753 316.795 180.958 316.795L180.958 316.295M180.958 316.295L180.958 316.795L196.503 316.795C196.707 316.795 197.034 316.982 197.176 317.516L197.176 317.516C197.263 317.844 197.242 318.19 197.14 318.478C197.037 318.769 196.869 318.957 196.7 319.037M196.7 319.037C196.7 319.037 196.7 319.037 196.7 319.037L196.915 319.488L196.7 319.037Z" fill="white" stroke="#2E363D"/>
<path d="M52.159 284.795H52.159H69.3019C70.0261 284.795 70.746 285.242 71.3084 286.098C71.868 286.949 72.2305 288.155 72.2305 289.512V316.517C72.2305 318.166 71.8326 319.671 71.1843 320.813C70.533 321.959 69.6565 322.697 68.7133 322.915C66.2582 323.481 63.5622 323.795 60.7304 323.795C57.8987 323.795 55.2027 323.481 52.7477 322.915C51.8045 322.697 50.9279 321.959 50.2767 320.813C49.6283 319.671 49.2305 318.166 49.2305 316.517V289.512C49.2305 288.155 49.5929 286.949 50.1525 286.098C50.7149 285.242 51.4348 284.795 52.159 284.795Z" fill="white" stroke="#2E363D"/>
<path d="M52.5458 319.488C55.0196 320.67 57.8498 321.295 60.7305 321.295C63.6112 321.295 66.4413 320.67 68.9151 319.488C69.5535 319.183 69.8865 318.243 69.6588 317.387C69.4798 316.715 69.007 316.295 68.5029 316.295L52.958 316.295M52.5458 319.488C51.9074 319.183 51.5744 318.243 51.8021 317.387C51.9809 316.715 52.4535 316.295 52.958 316.295M52.5458 319.488L52.7614 319.037C55.1644 320.185 57.9205 320.795 60.7305 320.795C63.5404 320.795 66.2965 320.185 68.6995 319.037M52.5458 319.488L52.7613 319.037C52.5922 318.956 52.4236 318.769 52.3205 318.478C52.2189 318.19 52.1979 317.844 52.2853 317.516L52.2853 317.516C52.427 316.983 52.7531 316.795 52.958 316.795L52.958 316.295M52.958 316.295L52.9581 316.795L68.5029 316.795C68.707 316.795 69.0336 316.982 69.1756 317.516L69.1756 317.516C69.263 317.844 69.2421 318.19 69.1404 318.478C69.0373 318.769 68.8686 318.957 68.6995 319.037M68.6995 319.037C68.6996 319.037 68.6996 319.037 68.6996 319.037L68.9151 319.488L68.6995 319.037Z" fill="white" stroke="#2E363D"/>
<path d="M146.307 336.795H146.307H163.45C164.175 336.795 164.894 337.242 165.457 338.098C166.016 338.949 166.379 340.155 166.379 341.512V368.517C166.379 370.166 165.981 371.671 165.333 372.813C164.681 373.959 163.805 374.697 162.862 374.915C160.407 375.481 157.711 375.795 154.879 375.795C152.047 375.795 149.351 375.481 146.896 374.915C145.953 374.697 145.076 373.959 144.425 372.813C143.777 371.671 143.379 370.166 143.379 368.517V341.512C143.379 340.155 143.741 338.949 144.301 338.098C144.863 337.242 145.583 336.795 146.307 336.795Z" fill="white" stroke="#2E363D"/>
<path d="M146.694 371.488C149.168 372.67 151.998 373.295 154.879 373.295C157.76 373.295 160.59 372.67 163.064 371.488C163.702 371.183 164.035 370.243 163.807 369.387C163.628 368.715 163.155 368.295 162.651 368.295L147.106 368.295M146.694 371.488C146.056 371.183 145.723 370.243 145.951 369.387C146.129 368.715 146.602 368.295 147.106 368.295M146.694 371.488L146.91 371.037C149.313 372.185 152.069 372.795 154.879 372.795C157.689 372.795 160.445 372.185 162.848 371.037M146.694 371.488L146.91 371.037C146.741 370.956 146.572 370.769 146.469 370.478C146.367 370.19 146.346 369.844 146.434 369.516L146.434 369.516C146.575 368.983 146.901 368.795 147.106 368.795L147.106 368.295M147.106 368.295L147.107 368.795L162.651 368.795C162.855 368.795 163.182 368.982 163.324 369.516L163.324 369.516C163.411 369.844 163.39 370.19 163.289 370.478C163.186 370.769 163.017 370.957 162.848 371.037M162.848 371.037C162.848 371.037 162.848 371.037 162.848 371.037L163.063 371.488L162.848 371.037Z" fill="white" stroke="#2E363D"/>
<path d="M180.159 336.795H180.159H197.302C198.026 336.795 198.746 337.242 199.308 338.098C199.868 338.949 200.23 340.155 200.23 341.512V368.517C200.23 370.166 199.833 371.671 199.184 372.813C198.533 373.959 197.656 374.697 196.713 374.915C194.258 375.481 191.562 375.795 188.73 375.795C185.899 375.795 183.203 375.481 180.748 374.915C179.804 374.697 178.928 373.959 178.277 372.813C177.628 371.671 177.23 370.166 177.23 368.517V341.512C177.23 340.155 177.593 338.949 178.153 338.098C178.715 337.242 179.435 336.795 180.159 336.795Z" fill="white" stroke="#2E363D"/>
<path d="M180.546 371.488C183.02 372.67 185.85 373.295 188.73 373.295C191.611 373.295 194.441 372.67 196.915 371.488C197.554 371.183 197.887 370.243 197.659 369.387C197.48 368.715 197.007 368.295 196.503 368.295L180.958 368.295M180.546 371.488C179.907 371.183 179.574 370.243 179.802 369.387C179.981 368.715 180.453 368.295 180.958 368.295M180.546 371.488L180.761 371.037C183.164 372.185 185.92 372.795 188.73 372.795C191.54 372.795 194.296 372.185 196.7 371.037M180.546 371.488L180.761 371.037C180.592 370.956 180.424 370.769 180.321 370.478C180.219 370.19 180.198 369.844 180.285 369.516L180.285 369.516C180.427 368.983 180.753 368.795 180.958 368.795L180.958 368.295M180.958 368.295L180.958 368.795L196.503 368.795C196.707 368.795 197.034 368.982 197.176 369.516L197.176 369.516C197.263 369.844 197.242 370.19 197.14 370.478C197.037 370.769 196.869 370.957 196.7 371.037M196.7 371.037C196.7 371.037 196.7 371.037 196.7 371.037L196.915 371.488L196.7 371.037Z" fill="white" stroke="#2E363D"/>
<path d="M52.159 336.795H52.159H69.3019C70.0261 336.795 70.746 337.242 71.3084 338.098C71.868 338.949 72.2305 340.155 72.2305 341.512V368.517C72.2305 370.166 71.8326 371.671 71.1843 372.813C70.533 373.959 69.6565 374.697 68.7133 374.915C66.2582 375.481 63.5622 375.795 60.7304 375.795C57.8987 375.795 55.2027 375.481 52.7477 374.915C51.8045 374.697 50.9279 373.959 50.2767 372.813C49.6283 371.671 49.2305 370.166 49.2305 368.517V341.512C49.2305 340.155 49.5929 338.949 50.1525 338.098C50.7149 337.242 51.4348 336.795 52.159 336.795Z" fill="white" stroke="#2E363D"/>
<path d="M52.5458 371.488C55.0196 372.67 57.8498 373.295 60.7305 373.295C63.6112 373.295 66.4413 372.67 68.9151 371.488C69.5535 371.183 69.8865 370.243 69.6588 369.387C69.4798 368.715 69.007 368.295 68.5029 368.295L52.958 368.295M52.5458 371.488C51.9074 371.183 51.5744 370.243 51.8021 369.387C51.9809 368.715 52.4535 368.295 52.958 368.295M52.5458 371.488L52.7614 371.037C55.1644 372.185 57.9205 372.795 60.7305 372.795C63.5404 372.795 66.2965 372.185 68.6995 371.037M52.5458 371.488L52.7613 371.037C52.5922 370.956 52.4236 370.769 52.3205 370.478C52.2189 370.19 52.1979 369.844 52.2853 369.516L52.2853 369.516C52.427 368.983 52.7531 368.795 52.958 368.795L52.958 368.295M52.958 368.295L52.9581 368.795L68.5029 368.795C68.707 368.795 69.0336 368.982 69.1756 369.516L69.1756 369.516C69.263 369.844 69.2421 370.19 69.1404 370.478C69.0373 370.769 68.8686 370.957 68.6995 371.037M68.6995 371.037C68.6996 371.037 68.6996 371.037 68.6996 371.037L68.9151 371.488L68.6995 371.037Z" fill="white" stroke="#2E363D"/>
<path d="M142.879 393.512V420.517C142.879 423.968 144.541 426.885 146.784 427.402C149.277 427.977 152.011 428.295 154.879 428.295C157.747 428.295 160.481 427.977 162.974 427.402C165.217 426.885 166.879 423.968 166.879 420.517V393.512C166.879 390.631 165.344 388.295 163.45 388.295H146.307C144.414 388.295 142.879 390.631 142.879 393.512Z" fill="#C0C0C0"/>
<path d="M154.879 425.295C157.76 425.295 160.59 424.67 163.064 423.488C163.702 423.183 164.035 422.243 163.807 421.387C163.628 420.715 163.155 420.295 162.651 420.295L147.106 420.295C146.602 420.295 146.129 420.715 145.951 421.387C145.723 422.243 146.056 423.183 146.694 423.488C149.168 424.67 151.998 425.295 154.879 425.295Z" fill="#9D9B99"/>
<path d="M176.73 393.512V420.517C176.73 423.968 178.393 426.885 180.635 427.402C183.128 427.977 185.862 428.295 188.73 428.295C191.599 428.295 194.332 427.977 196.826 427.402C199.068 426.885 200.73 423.968 200.73 420.517V393.512C200.73 390.631 199.195 388.295 197.302 388.295H180.159C178.265 388.295 176.73 390.631 176.73 393.512Z" fill="#C0C0C0"/>
<path d="M188.73 425.295C191.611 425.295 194.441 424.67 196.915 423.488C197.554 423.183 197.887 422.243 197.659 421.387C197.48 420.715 197.007 420.295 196.503 420.295L180.958 420.295C180.453 420.295 179.981 420.715 179.802 421.387C179.574 422.243 179.907 423.183 180.546 423.488C183.02 424.67 185.85 425.295 188.73 425.295Z" fill="#9D9B99"/>
<path d="M48.7305 393.512V420.517C48.7305 423.968 50.3927 426.885 52.6353 427.402C55.1284 427.977 57.8622 428.295 60.7304 428.295C63.5987 428.295 66.3324 427.977 68.8256 427.402C71.0682 426.885 72.7305 423.968 72.7305 420.517V393.512C72.7305 390.631 71.1954 388.295 69.3019 388.295H52.159C50.2655 388.295 48.7305 390.631 48.7305 393.512Z" fill="#C0C0C0"/>
<path d="M60.7305 425.295C63.6112 425.295 66.4413 424.67 68.9151 423.488C69.5535 423.183 69.8865 422.243 69.6588 421.387C69.4798 420.715 69.007 420.295 68.5029 420.295L52.958 420.295C52.4535 420.295 51.9809 420.715 51.8021 421.387C51.5744 422.243 51.9074 423.183 52.5458 423.488C55.0196 424.67 57.8498 425.295 60.7305 425.295Z" fill="#9D9B99"/>
<path d="M146.307 440.795H146.307H163.45C164.175 440.795 164.894 441.242 165.457 442.098C166.016 442.949 166.379 444.155 166.379 445.512V472.517C166.379 474.166 165.981 475.671 165.333 476.813C164.681 477.959 163.805 478.697 162.862 478.915C160.407 479.481 157.711 479.795 154.879 479.795C152.047 479.795 149.351 479.481 146.896 478.915C145.953 478.697 145.076 477.959 144.425 476.813C143.777 475.671 143.379 474.166 143.379 472.517V445.512C143.379 444.155 143.741 442.949 144.301 442.098C144.863 441.242 145.583 440.795 146.307 440.795Z" fill="white" stroke="#2E363D"/>
<path d="M146.694 475.488C149.168 476.67 151.998 477.295 154.879 477.295C157.76 477.295 160.59 476.67 163.064 475.488C163.702 475.183 164.035 474.243 163.807 473.387C163.628 472.715 163.155 472.295 162.651 472.295L147.106 472.295M146.694 475.488C146.056 475.183 145.723 474.243 145.951 473.387C146.129 472.715 146.602 472.295 147.106 472.295M146.694 475.488L146.91 475.037C149.313 476.185 152.069 476.795 154.879 476.795C157.689 476.795 160.445 476.185 162.848 475.037M146.694 475.488L146.91 475.037C146.741 474.956 146.572 474.769 146.469 474.478C146.367 474.19 146.346 473.844 146.434 473.516L146.434 473.516C146.575 472.983 146.901 472.795 147.106 472.795L147.106 472.295M147.106 472.295L147.107 472.795L162.651 472.795C162.855 472.795 163.182 472.982 163.324 473.516L163.324 473.516C163.411 473.844 163.39 474.19 163.289 474.478C163.186 474.769 163.017 474.957 162.848 475.037M162.848 475.037C162.848 475.037 162.848 475.037 162.848 475.037L163.063 475.488L162.848 475.037Z" fill="white" stroke="#2E363D"/>
<path d="M180.159 440.795H180.159H197.302C198.026 440.795 198.746 441.242 199.308 442.098C199.868 442.949 200.23 444.155 200.23 445.512V472.517C200.23 474.166 199.833 475.671 199.184 476.813C198.533 477.959 197.656 478.697 196.713 478.915C194.258 479.481 191.562 479.795 188.73 479.795C185.899 479.795 183.203 479.481 180.748 478.915C179.804 478.697 178.928 477.959 178.277 476.813C177.628 475.671 177.23 474.166 177.23 472.517V445.512C177.23 444.155 177.593 442.949 178.153 442.098C178.715 441.242 179.435 440.795 180.159 440.795Z" fill="white" stroke="#2E363D"/>
<path d="M180.546 475.488C183.02 476.67 185.85 477.295 188.73 477.295C191.611 477.295 194.441 476.67 196.915 475.488C197.554 475.183 197.887 474.243 197.659 473.387C197.48 472.715 197.007 472.295 196.503 472.295L180.958 472.295M180.546 475.488C179.907 475.183 179.574 474.243 179.802 473.387C179.981 472.715 180.453 472.295 180.958 472.295M180.546 475.488L180.761 475.037C183.164 476.185 185.92 476.795 188.73 476.795C191.54 476.795 194.296 476.185 196.7 475.037M180.546 475.488L180.761 475.037C180.592 474.956 180.424 474.769 180.321 474.478C180.219 474.19 180.198 473.844 180.285 473.516L180.285 473.516C180.427 472.983 180.753 472.795 180.958 472.795L180.958 472.295M180.958 472.295L180.958 472.795L196.503 472.795C196.707 472.795 197.034 472.982 197.176 473.516L197.176 473.516C197.263 473.844 197.242 474.19 197.14 474.478C197.037 474.769 196.869 474.957 196.7 475.037M196.7 475.037C196.7 475.037 196.7 475.037 196.7 475.037L196.915 475.488L196.7 475.037Z" fill="white" stroke="#2E363D"/>
<path d="M52.159 440.795H52.159H69.3019C70.0261 440.795 70.746 441.242 71.3084 442.098C71.868 442.949 72.2305 444.155 72.2305 445.512V472.517C72.2305 474.166 71.8326 475.671 71.1843 476.813C70.533 477.959 69.6565 478.697 68.7133 478.915C66.2582 479.481 63.5622 479.795 60.7304 479.795C57.8987 479.795 55.2027 479.481 52.7477 478.915C51.8045 478.697 50.9279 477.959 50.2767 476.813C49.6283 475.671 49.2305 474.166 49.2305 472.517V445.512C49.2305 444.155 49.5929 442.949 50.1525 442.098C50.7149 441.242 51.4348 440.795 52.159 440.795Z" fill="white" stroke="#2E363D"/>
<path d="M52.5458 475.488C55.0196 476.67 57.8498 477.295 60.7305 477.295C63.6112 477.295 66.4413 476.67 68.9151 475.488C69.5535 475.183 69.8865 474.243 69.6588 473.387C69.4798 472.715 69.007 472.295 68.5029 472.295L52.958 472.295M52.5458 475.488C51.9074 475.183 51.5744 474.243 51.8021 473.387C51.9809 472.715 52.4535 472.295 52.958 472.295M52.5458 475.488L52.7614 475.037C55.1644 476.185 57.9205 476.795 60.7305 476.795C63.5404 476.795 66.2965 476.185 68.6995 475.037M52.5458 475.488L52.7613 475.037C52.5922 474.956 52.4236 474.769 52.3205 474.478C52.2189 474.19 52.1979 473.844 52.2853 473.516L52.2853 473.516C52.427 472.983 52.7531 472.795 52.958 472.795L52.958 472.295M52.958 472.295L52.9581 472.795L68.5029 472.795C68.707 472.795 69.0336 472.982 69.1756 473.516L69.1756 473.516C69.263 473.844 69.2421 474.19 69.1404 474.478C69.0373 474.769 68.8686 474.957 68.6995 475.037M68.6995 475.037C68.6996 475.037 68.6996 475.037 68.6996 475.037L68.9151 475.488L68.6995 475.037Z" fill="white" stroke="#2E363D"/>
<path d="M142.879 497.512V524.517C142.879 527.968 144.541 530.885 146.784 531.402C149.277 531.977 152.011 532.295 154.879 532.295C157.747 532.295 160.481 531.977 162.974 531.402C165.217 530.885 166.879 527.968 166.879 524.517V497.512C166.879 494.631 165.344 492.295 163.45 492.295H146.307C144.414 492.295 142.879 494.631 142.879 497.512Z" fill="#C0C0C0"/>
<path d="M154.879 529.295C157.76 529.295 160.59 528.67 163.064 527.488C163.702 527.183 164.035 526.243 163.807 525.387C163.628 524.715 163.155 524.295 162.651 524.295L147.106 524.295C146.602 524.295 146.129 524.715 145.951 525.387C145.723 526.243 146.056 527.183 146.694 527.488C149.168 528.67 151.998 529.295 154.879 529.295Z" fill="#9D9B99"/>
<path d="M180.159 492.795H180.159H197.302C198.026 492.795 198.746 493.242 199.308 494.098C199.868 494.949 200.23 496.155 200.23 497.512V524.517C200.23 526.166 199.833 527.671 199.184 528.813C198.533 529.959 197.656 530.697 196.713 530.915C194.258 531.481 191.562 531.795 188.73 531.795C185.899 531.795 183.203 531.481 180.748 530.915C179.804 530.697 178.928 529.959 178.277 528.813C177.628 527.671 177.23 526.166 177.23 524.517V497.512C177.23 496.155 177.593 494.949 178.153 494.098C178.715 493.242 179.435 492.795 180.159 492.795Z" fill="white" stroke="#2E363D"/>
<path d="M180.546 527.488C183.02 528.67 185.85 529.295 188.73 529.295C191.611 529.295 194.441 528.67 196.915 527.488C197.554 527.183 197.887 526.243 197.659 525.387C197.48 524.715 197.007 524.295 196.503 524.295L180.958 524.295M180.546 527.488C179.907 527.183 179.574 526.243 179.802 525.387C179.981 524.715 180.453 524.295 180.958 524.295M180.546 527.488L180.761 527.037C183.164 528.185 185.92 528.795 188.73 528.795C191.54 528.795 194.296 528.185 196.7 527.037M180.546 527.488L180.761 527.037C180.592 526.956 180.424 526.769 180.321 526.478C180.219 526.19 180.198 525.844 180.285 525.516L180.285 525.516C180.427 524.983 180.753 524.795 180.958 524.795L180.958 524.295M180.958 524.295L180.958 524.795L196.503 524.795C196.707 524.795 197.034 524.982 197.176 525.516L197.176 525.516C197.263 525.844 197.242 526.19 197.14 526.478C197.037 526.769 196.869 526.957 196.7 527.037M196.7 527.037C196.7 527.037 196.7 527.037 196.7 527.037L196.915 527.488L196.7 527.037Z" fill="white" stroke="#2E363D"/>
<path d="M52.159 492.795H52.159H69.3019C70.0261 492.795 70.746 493.242 71.3084 494.098C71.868 494.949 72.2305 496.155 72.2305 497.512V524.517C72.2305 526.166 71.8326 527.671 71.1843 528.813C70.533 529.959 69.6565 530.697 68.7133 530.915C66.2582 531.481 63.5622 531.795 60.7304 531.795C57.8987 531.795 55.2027 531.481 52.7477 530.915C51.8045 530.697 50.9279 529.959 50.2767 528.813C49.6283 527.671 49.2305 526.166 49.2305 524.517V497.512C49.2305 496.155 49.5929 494.949 50.1525 494.098C50.7149 493.242 51.4348 492.795 52.159 492.795Z" fill="white" stroke="#2E363D"/>
<path d="M52.5458 527.488C55.0196 528.67 57.8498 529.295 60.7305 529.295C63.6112 529.295 66.4413 528.67 68.9151 527.488C69.5535 527.183 69.8865 526.243 69.6588 525.387C69.4798 524.715 69.007 524.295 68.5029 524.295L52.958 524.295M52.5458 527.488C51.9074 527.183 51.5744 526.243 51.8021 525.387C51.9809 524.715 52.4535 524.295 52.958 524.295M52.5458 527.488L52.7614 527.037C55.1644 528.185 57.9205 528.795 60.7305 528.795C63.5404 528.795 66.2965 528.185 68.6995 527.037M52.5458 527.488L52.7613 527.037C52.5922 526.956 52.4236 526.769 52.3205 526.478C52.2189 526.19 52.1979 525.844 52.2853 525.516L52.2853 525.516C52.427 524.983 52.7531 524.795 52.958 524.795L52.958 524.295M52.958 524.295L52.9581 524.795L68.5029 524.795C68.707 524.795 69.0336 524.982 69.1756 525.516L69.1756 525.516C69.263 525.844 69.2421 526.19 69.1404 526.478C69.0373 526.769 68.8686 526.957 68.6995 527.037M68.6995 527.037C68.6996 527.037 68.6996 527.037 68.6996 527.037L68.9151 527.488L68.6995 527.037Z" fill="white" stroke="#2E363D"/>
<path d="M250 56.5211C250 55.7405 249.254 55.1017 248.343 55.1017H242.067V49.1657C242.067 41.6828 234.842 39.7051 231.023 39.7051H219.275V42.1103H231.019C231.862 42.1151 239.259 42.3523 239.259 49.1657V55.1017H233.281C232.37 55.1017 231.625 55.7405 231.625 56.5211C231.625 57.3017 232.37 57.9412 233.281 57.9412H248.343C249.254 57.9412 250 57.3024 250 56.5211Z" fill="#B4B6B8"/>
<path d="M0.00164795 56.5211C0.00164795 55.7405 0.747353 55.1017 1.65856 55.1017H7.93514V49.1657C7.93514 41.6828 15.1596 39.7051 18.9787 39.7051H30.7266V42.1103H18.9827C18.14 42.1151 10.7428 42.3523 10.7428 49.1657V55.1017H16.7202C17.6314 55.1017 18.3771 55.7405 18.3771 56.5211C18.3771 57.3017 17.6314 57.9412 16.7202 57.9412H1.65856C0.747353 57.9412 0.00164795 57.3024 0.00164795 56.5211Z" fill="#B4B6B8"/>
</svg>
