<svg width="40" height="34" viewBox="0 0 40 34" fill="none" xmlns="http://www.w3.org/2000/svg">
<circle cx="22.1016" cy="16.0508" r="16" fill="#DCDCDC"/>
<path d="M27.5866 9.90681V3.69245C27.5866 3.08782 27.0965 2.59766 26.4918 2.59766H12.3721C11.7675 2.59766 11.2773 3.08782 11.2773 3.69245V9.90681C11.2773 10.5114 11.7675 11.0016 12.3721 11.0016H26.4918C27.0965 11.0016 27.5866 10.5114 27.5866 9.90681Z" fill="#88909A"/>
<path d="M11.2773 12.0714V28.4101C11.2773 29.0147 11.7675 29.5049 12.3721 29.5049H26.4918C27.0965 29.5049 27.5866 29.0147 27.5866 28.4101V12.0714C27.5866 11.4667 27.0965 10.9766 26.4918 10.9766H12.3721C11.7675 10.9766 11.2773 11.4667 11.2773 12.0714Z" fill="white"/>
<path d="M12.3721 10.9766C11.7675 10.9766 11.2773 11.4667 11.2773 12.0714V28.4101C11.2773 28.8396 11.5252 29.2102 11.8851 29.3896H22.2632C23.5851 29.3896 24.6568 28.318 24.6568 26.9961V10.9766H12.3721Z" fill="#DCDCDC"/>
<path d="M23.5683 15.0273H18.9258V25.4507H23.5683C24.1729 25.4507 24.6631 24.9606 24.6631 24.3559V16.1222C24.6632 15.5175 24.173 15.0273 23.5683 15.0273Z" fill="#88909A"/>
<path d="M17.7138 29.5057H4.64062C4.03655 29.5057 3.54688 29.016 3.54688 28.4119V9.25C3.54688 8.64592 4.03655 8.15625 4.64062 8.15625H17.7138C19.0345 8.15625 20.105 9.22681 20.105 10.5475V27.1145C20.105 28.4351 19.0345 29.5057 17.7138 29.5057Z" fill="#DCDCDC"/>
<path d="M11.8259 21.8979C14.4664 21.8979 16.6069 19.7574 16.6069 17.1169C16.6069 14.4765 14.4664 12.3359 11.8259 12.3359C9.18545 12.3359 7.04492 14.4765 7.04492 17.1169C7.04492 19.7574 9.18545 21.8979 11.8259 21.8979Z" fill="#88909A"/>
<path d="M11.8272 21.8979C12.9226 21.8979 13.8107 19.7574 13.8107 17.1169C13.8107 14.4765 12.9226 12.3359 11.8272 12.3359C10.7318 12.3359 9.84375 14.4765 9.84375 17.1169C9.84375 19.7574 10.7318 21.8979 11.8272 21.8979Z" fill="#DCDCDC"/>
<path d="M24.4424 6.00781H14.4336C14.1316 6.00781 13.8867 5.76298 13.8867 5.46094C13.8867 5.1589 14.1316 4.91406 14.4336 4.91406H24.4424C24.7445 4.91406 24.9893 5.1589 24.9893 5.46094C24.9893 5.76298 24.7445 6.00781 24.4424 6.00781Z" fill="white"/>
<path d="M24.4365 8.80859H22.8652C22.5632 8.80859 22.3184 8.56376 22.3184 8.26172C22.3184 7.95968 22.5632 7.71484 22.8652 7.71484H24.4365C24.7386 7.71484 24.9834 7.95968 24.9834 8.26172C24.9834 8.56376 24.7386 8.80859 24.4365 8.80859Z" fill="white"/>
<path d="M28.1382 3.69245C28.1382 2.78726 27.4017 2.05078 26.4965 2.05078H12.3768C11.4716 2.05078 10.7351 2.78726 10.7351 3.69245V7.60763H4.64062C3.73598 7.60763 3 8.34362 3 9.24826V28.4102C3 29.3148 3.73598 30.0508 4.64062 30.0508H26.4965C27.4018 30.0508 28.1383 29.3143 28.1383 28.4091V12.0704C28.1383 11.6562 27.9838 11.2777 27.7299 10.9886C27.9838 10.6994 28.1383 10.321 28.1383 9.9068V3.69245H28.1382ZM11.8289 3.69245C11.8289 3.3903 12.0747 3.14453 12.3769 3.14453H26.4965C26.7987 3.14453 27.0445 3.39035 27.0445 3.69245V9.9068C27.0445 10.1595 26.8723 10.3722 26.6392 10.4352C26.5921 10.4312 26.5447 10.4287 26.4965 10.4287H20.6489C20.5872 8.86271 19.2946 7.60763 17.7138 7.60763H11.8289V3.69245ZM4.64062 28.957C4.33908 28.957 4.09375 28.7117 4.09375 28.4102V9.24826C4.09375 8.94671 4.33908 8.70138 4.64062 8.70138H17.7138C18.7308 8.70138 19.5582 9.52875 19.5582 10.5457V27.1128C19.5582 28.1297 18.7308 28.9571 17.7138 28.9571H4.64062V28.957ZM27.0445 28.4091C27.0445 28.7113 26.7986 28.957 26.4965 28.957H19.9986C20.4068 28.4524 20.6519 27.8108 20.6519 27.1127V11.5485H26.4965C26.5446 11.5485 26.5921 11.546 26.6392 11.5419C26.8723 11.6049 27.0445 11.8176 27.0445 12.0704V28.4091H27.0445Z" fill="#566575"/>
<path d="M11.8259 11.7891C8.88811 11.7891 6.49805 14.1791 6.49805 17.1169C6.49805 20.0547 8.88816 22.4448 11.8259 22.4448C14.7637 22.4448 17.1538 20.0547 17.1538 17.1169C17.1538 14.1791 14.7637 11.7891 11.8259 11.7891ZM11.8259 21.3511C9.4912 21.3511 7.5918 19.4517 7.5918 17.117C7.5918 14.7823 9.4912 12.8829 11.8259 12.8829C14.1606 12.8829 16.06 14.7823 16.06 17.117C16.06 19.4517 14.1606 21.3511 11.8259 21.3511Z" fill="#566575"/>
<path d="M16.4422 25.5312H7.21094C6.9089 25.5312 6.66406 25.2864 6.66406 24.9844C6.66406 24.6823 6.9089 24.4375 7.21094 24.4375H16.4422C16.7442 24.4375 16.9891 24.6823 16.9891 24.9844C16.9891 25.2864 16.7442 25.5312 16.4422 25.5312Z" fill="white"/>
</svg>
