<svg width="21" height="20" viewBox="0 0 21 20" fill="none" xmlns="http://www.w3.org/2000/svg">
<g clip-path="url(#clip0_2792_47775)">
<path d="M19.4275 3.3975C19.1931 3.1162 18.8996 2.88996 18.568 2.73485C18.2363 2.57973 17.8745 2.49955 17.5083 2.5H4.035L4 2.2075C3.92837 1.59951 3.63615 1.03894 3.17874 0.632065C2.72133 0.225186 2.13052 0.000284828 1.51833 0L1.33333 0C1.11232 0 0.900358 0.0877974 0.744078 0.244078C0.587797 0.400358 0.5 0.61232 0.5 0.833333C0.5 1.05435 0.587797 1.26631 0.744078 1.42259C0.900358 1.57887 1.11232 1.66667 1.33333 1.66667H1.51833C1.72244 1.66669 1.91945 1.74163 2.07198 1.87726C2.22451 2.0129 2.32195 2.19979 2.34583 2.4025L3.4925 12.1525C3.61154 13.1665 4.09873 14.1015 4.86159 14.78C5.62445 15.4585 6.60988 15.8334 7.63083 15.8333H16.3333C16.5543 15.8333 16.7663 15.7455 16.9226 15.5893C17.0789 15.433 17.1667 15.221 17.1667 15C17.1667 14.779 17.0789 14.567 16.9226 14.4107C16.7663 14.2545 16.5543 14.1667 16.3333 14.1667H7.63083C7.11505 14.1652 6.61233 14.0043 6.19161 13.7059C5.77089 13.4075 5.45276 12.9863 5.28083 12.5H15.2142C16.1911 12.5001 17.1369 12.1569 17.8865 11.5304C18.6361 10.9039 19.1417 10.0339 19.315 9.0725L19.9692 5.44417C20.0345 5.08417 20.0198 4.71422 19.9262 4.36053C19.8326 4.00684 19.6623 3.67806 19.4275 3.3975ZM18.3333 5.14833L17.6783 8.77667C17.5743 9.35417 17.2704 9.87666 16.8199 10.2527C16.3694 10.6287 15.801 10.8342 15.2142 10.8333H5.01583L4.23167 4.16667H17.5083C17.6308 4.16594 17.7518 4.19218 17.8629 4.24355C17.9741 4.29491 18.0725 4.37012 18.1513 4.46384C18.23 4.55756 18.2872 4.66748 18.3186 4.78578C18.3501 4.90409 18.3551 5.02787 18.3333 5.14833Z" fill="white"/>
<path d="M6.33268 20.0013C7.25316 20.0013 7.99935 19.2551 7.99935 18.3346C7.99935 17.4142 7.25316 16.668 6.33268 16.668C5.41221 16.668 4.66602 17.4142 4.66602 18.3346C4.66602 19.2551 5.41221 20.0013 6.33268 20.0013Z" fill="white"/>
<path d="M14.6667 20.0013C15.5871 20.0013 16.3333 19.2551 16.3333 18.3346C16.3333 17.4142 15.5871 16.668 14.6667 16.668C13.7462 16.668 13 17.4142 13 18.3346C13 19.2551 13.7462 20.0013 14.6667 20.0013Z" fill="white"/>
</g>
<defs>
<clipPath id="clip0_2792_47775">
<rect width="20" height="20" fill="white" transform="translate(0.5)"/>
</clipPath>
</defs>
</svg>
