<svg width="16" height="14" viewBox="0 0 16 14" fill="none" xmlns="http://www.w3.org/2000/svg">
<path d="M8.06965 13.2506C8.61079 13.2506 9.04946 12.812 9.04946 12.2708C9.04946 11.7297 8.61079 11.291 8.06965 11.291C7.52852 11.291 7.08984 11.7297 7.08984 12.2708C7.08984 12.812 7.52852 13.2506 8.06965 13.2506Z" fill="#2E363D"/>
<path d="M15.5425 3.99714C13.5909 1.90323 10.9482 0.75003 8.10084 0.75C5.25375 0.75003 2.61103 1.90323 0.659403 3.99714C0.435828 4.23705 0.449041 4.61282 0.688946 4.83642C0.92888 5.06 1.30462 5.04681 1.52823 4.80688C3.25269 2.95665 5.58689 1.93768 8.10105 1.93765C10.615 1.93768 12.9492 2.95665 14.6737 4.80688C14.7292 4.86659 14.7964 4.91419 14.8712 4.94671C14.946 4.97922 15.0267 4.99595 15.1082 4.99583C15.2532 4.99583 15.3985 4.94304 15.5129 4.83642C15.7528 4.61279 15.7661 4.23705 15.5425 3.99714Z" fill="#2E363D"/>
<path d="M13.3626 6.4492C11.92 4.9957 10.0516 4.19525 8.10146 4.19531C6.1509 4.19534 4.28243 4.99582 2.84027 6.44926C2.60927 6.68207 2.61072 7.05805 2.84353 7.28905C3.07634 7.52005 3.45232 7.51859 3.68332 7.28578C4.90081 6.05876 6.46987 5.38299 8.10146 5.38296C9.73264 5.3829 11.3017 6.0587 12.5196 7.28584C12.5748 7.34154 12.6404 7.38573 12.7128 7.41586C12.7851 7.44599 12.8628 7.46145 12.9411 7.46135C13.0979 7.46152 13.2483 7.39954 13.3595 7.28899C13.5922 7.05796 13.5937 6.68198 13.3626 6.4492ZM10.9861 8.90864C10.2135 8.14323 9.10609 7.66779 8.09594 7.66779H8.05226C7.04208 7.66779 5.9346 8.14326 5.16206 8.90864C4.9291 9.13946 4.92735 9.51544 5.15817 9.74843C5.21332 9.80424 5.27902 9.84853 5.35144 9.87873C5.42386 9.90892 5.50156 9.92442 5.58002 9.92432C5.73659 9.92452 5.88685 9.86269 5.99793 9.75235C6.5479 9.20746 7.35422 8.85544 8.05232 8.85544H8.09585C8.79386 8.85544 9.60024 9.20749 10.1502 9.75235C10.3831 9.98314 10.7592 9.98148 10.9899 9.74843C11.2208 9.51547 11.219 9.13946 10.9861 8.90864Z" fill="#2E363D"/>
</svg>
