<svg width="20" height="20" viewBox="0 0 20 20" fill="none" xmlns="http://www.w3.org/2000/svg">
<rect width="20" height="20" rx="10" fill="#E8E8E8" fill-opacity="0.5"/>
<path d="M10.0573 15.0013C10.4902 15.0013 10.8411 14.6503 10.8411 14.2174C10.8411 13.7845 10.4902 13.4336 10.0573 13.4336C9.62438 13.4336 9.27344 13.7845 9.27344 14.2174C9.27344 14.6503 9.62438 15.0013 10.0573 15.0013Z" fill="#2E363D"/>
<path d="M16.034 7.59771C14.4727 5.92259 12.3585 5.00002 10.0807 5C7.803 5.00002 5.68883 5.92259 4.12752 7.59771C3.94866 7.78964 3.95923 8.09026 4.15116 8.26914C4.3431 8.448 4.6437 8.43745 4.82258 8.2455C6.20215 6.76532 8.06951 5.95014 10.0808 5.95012C12.092 5.95014 13.9594 6.76532 15.3389 8.2455C15.3833 8.29327 15.4371 8.33135 15.497 8.35737C15.5568 8.38338 15.6213 8.39676 15.6866 8.39667C15.8025 8.39667 15.9188 8.35444 16.0104 8.26914C16.2023 8.09023 16.2129 7.78964 16.034 7.59771Z" fill="#2E363D"/>
<path d="M14.2881 9.56092C13.1341 8.39812 11.6393 7.75776 10.0792 7.75781C8.51876 7.75784 7.02399 8.39822 5.87026 9.56097C5.68546 9.74722 5.68663 10.048 5.87287 10.2328C6.05912 10.4176 6.3599 10.4164 6.5447 10.2302C7.51869 9.24857 8.77394 8.70796 10.0792 8.70793C11.3842 8.70788 12.6394 9.24852 13.6138 10.2302C13.6579 10.2748 13.7104 10.3101 13.7683 10.3342C13.8262 10.3584 13.8882 10.3707 13.9509 10.3706C14.0764 10.3708 14.1967 10.3212 14.2856 10.2328C14.4718 10.0479 14.473 9.74715 14.2881 9.56092ZM12.3869 11.5285C11.7688 10.9161 10.8829 10.5358 10.0748 10.5358H10.0399C9.23171 10.5358 8.34572 10.9162 7.7277 11.5285C7.54133 11.7131 7.53993 12.0139 7.72458 12.2003C7.76871 12.245 7.82126 12.2804 7.8792 12.3045C7.93714 12.3287 7.9993 12.3411 8.06207 12.341C8.18732 12.3412 8.30753 12.2917 8.39639 12.2034C8.83637 11.7675 9.48143 11.4859 10.0399 11.4859H10.0747C10.6331 11.4859 11.2782 11.7676 11.7182 12.2034C11.9045 12.3881 12.2054 12.3867 12.39 12.2003C12.5747 12.0139 12.5733 11.7131 12.3869 11.5285Z" fill="#2E363D"/>
</svg>
