<svg width="20" height="20" viewBox="0 0 20 20" fill="none" xmlns="http://www.w3.org/2000/svg">
<g clip-path="url(#clip0_2015_100338)">
<path d="M10.0007 -0.05C5.71111 -0.05 2.22148 3.43962 2.22148 7.72925V12.271C2.22148 16.5604 5.71111 20.05 10.0007 20.05C14.2904 20.05 17.78 16.5604 17.78 12.2708V7.72925C17.78 3.43962 14.2904 -0.05 10.0007 -0.05ZM17.18 12.271C17.18 16.2296 13.9594 19.45 10.0007 19.45C6.04211 19.45 2.82148 16.2296 2.82148 12.271V7.72925C2.82148 3.77063 6.04212 0.55 10.0007 0.55C13.9593 0.55 17.18 3.77063 17.18 7.72925V12.271Z" fill="#2E363D" stroke="#2E363D" stroke-width="0.1"/>
<path d="M10.0005 1.65898C6.58987 1.65898 3.81523 4.43362 3.81523 7.84424V12.168C3.81523 15.5786 6.58987 18.3532 10.0005 18.3532C13.4111 18.3532 16.1857 15.5786 16.1857 12.168V7.84424C16.1857 4.43367 13.4111 1.65898 10.0005 1.65898ZM15.5857 12.168C15.5857 15.2476 13.0801 17.7533 10.0005 17.7533C6.92083 17.7533 4.41523 15.2476 4.41523 12.168V7.84429C4.41523 4.76467 6.92083 2.25903 10.0005 2.25903C13.0801 2.25903 15.5857 4.76463 15.5857 7.84429V12.168Z" fill="#2E363D" stroke="#2E363D" stroke-width="0.1"/>
<path d="M11.4237 14.9316H8.57993C8.12344 14.9316 7.75195 15.3031 7.75195 15.7596C7.75195 16.2161 8.12344 16.5876 8.57993 16.5876H11.4237C11.8802 16.5876 12.2517 16.2161 12.2517 15.7596C12.2517 15.3032 11.8802 14.9316 11.4237 14.9316ZM11.4237 16.0874H8.57993C8.39893 16.0874 8.25195 15.9401 8.25195 15.7594C8.25195 15.5787 8.39922 15.4314 8.57993 15.4314H11.4237C11.6047 15.4314 11.7517 15.5787 11.7517 15.7594C11.7517 15.9401 11.6044 16.0874 11.4237 16.0874Z" fill="#2E363D"/>
</g>
<defs>
<clipPath id="clip0_2015_100338">
<rect width="20" height="20" fill="white"/>
</clipPath>
</defs>
</svg>
