<svg width="44" height="44" viewBox="0 0 44 44" fill="none" xmlns="http://www.w3.org/2000/svg">
<g clip-path="url(#clip0_2852_131115)">
<rect width="44" height="44" rx="6" fill="#E6EDF6"/>
<g clip-path="url(#clip1_2852_131115)">
<path d="M32.713 14.077C32.4317 13.7394 32.0796 13.468 31.6815 13.2818C31.2835 13.0957 30.8494 12.9995 30.41 13H14.242L14.2 12.649C14.114 11.9194 13.7634 11.2467 13.2145 10.7585C12.6656 10.2702 11.9566 10.0003 11.222 10H11C10.7348 10 10.4804 10.1054 10.2929 10.2929C10.1054 10.4804 10 10.7348 10 11C10 11.2652 10.1054 11.5196 10.2929 11.7071C10.4804 11.8946 10.7348 12 11 12H11.222C11.4669 12 11.7033 12.09 11.8864 12.2527C12.0694 12.4155 12.1863 12.6397 12.215 12.883L13.591 24.583C13.7339 25.7998 14.3185 26.9218 15.2339 27.736C16.1493 28.5502 17.3319 29 18.557 29H29C29.2652 29 29.5196 28.8946 29.7071 28.7071C29.8946 28.5196 30 28.2652 30 28C30 27.7348 29.8946 27.4804 29.7071 27.2929C29.5196 27.1054 29.2652 27 29 27H18.557C17.9381 26.9983 17.3348 26.8051 16.8299 26.4471C16.3251 26.089 15.9433 25.5836 15.737 25H27.657C28.8293 25.0001 29.9643 24.5882 30.8638 23.8364C31.7633 23.0846 32.37 22.0407 32.578 20.887L33.363 16.533C33.4414 16.101 33.4237 15.6571 33.3114 15.2326C33.1991 14.8082 32.9948 14.4137 32.713 14.077ZM31.4 16.178L30.614 20.532C30.4891 21.225 30.1245 21.852 29.5839 22.3032C29.0433 22.7544 28.3612 23.0011 27.657 23H15.419L14.478 15H30.41C30.5569 14.9991 30.7022 15.0306 30.8355 15.0923C30.9689 15.1539 31.087 15.2441 31.1815 15.3566C31.276 15.4691 31.3446 15.601 31.3824 15.7429C31.4201 15.8849 31.4262 16.0334 31.4 16.178Z" fill="#014EA2"/>
<path d="M17 34C18.1046 34 19 33.1046 19 32C19 30.8954 18.1046 30 17 30C15.8954 30 15 30.8954 15 32C15 33.1046 15.8954 34 17 34Z" fill="#014EA2"/>
<path d="M27 34C28.1046 34 29 33.1046 29 32C29 30.8954 28.1046 30 27 30C25.8954 30 25 30.8954 25 32C25 33.1046 25.8954 34 27 34Z" fill="#014EA2"/>
</g>
</g>
<defs>
<clipPath id="clip0_2852_131115">
<rect width="44" height="44" rx="6" fill="white"/>
</clipPath>
<clipPath id="clip1_2852_131115">
<rect width="24" height="24" fill="white" transform="translate(10 10)"/>
</clipPath>
</defs>
</svg>
