<svg width="50" height="50" viewBox="0 0 50 50" fill="none" xmlns="http://www.w3.org/2000/svg">
<mask id="mask0_1138_96882" style="mask-type:alpha" maskUnits="userSpaceOnUse" x="0" y="0" width="50" height="50">
<rect width="50" height="50" fill="#D9D9D9"/>
</mask>
<g mask="url(#mask0_1138_96882)">
<path d="M22.0846 34.5837L36.7721 19.8962L33.8555 16.9795L22.0846 28.7503L16.1471 22.8128L13.2305 25.7295L22.0846 34.5837ZM25.0013 45.8337C22.1194 45.8337 19.411 45.2868 16.8763 44.193C14.3416 43.0993 12.1367 41.6149 10.2617 39.7399C8.38672 37.8649 6.90234 35.6601 5.80859 33.1253C4.71484 30.5906 4.16797 27.8823 4.16797 25.0003C4.16797 22.1184 4.71484 19.41 5.80859 16.8753C6.90234 14.3406 8.38672 12.1357 10.2617 10.2607C12.1367 8.38574 14.3416 6.90137 16.8763 5.80762C19.411 4.71387 22.1194 4.16699 25.0013 4.16699C27.8832 4.16699 30.5916 4.71387 33.1263 5.80762C35.661 6.90137 37.8659 8.38574 39.7409 10.2607C41.6159 12.1357 43.1003 14.3406 44.194 16.8753C45.2878 19.41 45.8346 22.1184 45.8346 25.0003C45.8346 27.8823 45.2878 30.5906 44.194 33.1253C43.1003 35.6601 41.6159 37.8649 39.7409 39.7399C37.8659 41.6149 35.661 43.0993 33.1263 44.193C30.5916 45.2868 27.8832 45.8337 25.0013 45.8337Z" fill="#00A651"/>
</g>
</svg>
