<svg width="93" height="120" viewBox="0 0 93 120" fill="none" xmlns="http://www.w3.org/2000/svg">
<g opacity="0.1">
<path d="M24.0152 58.9711H1.65595C0.779113 58.9711 0.101562 58.2537 0.101562 57.4167V37.13C0.101562 36.2531 0.779113 35.5756 1.65595 35.5756H35.414V1.69794C35.414 0.821105 36.0916 0.143555 36.9684 0.143555H57.2552C58.132 0.143555 58.8095 0.860961 58.8095 1.69794V25.6514C58.8095 26.3688 58.3313 26.9667 57.6936 27.166C50.2405 29.3182 43.6642 33.0647 38.0844 38.2858C37.5663 38.8039 37.1677 39.2423 36.7691 39.601C31.7074 44.7823 27.9211 50.96 25.5297 57.9348C25.3305 58.5725 24.7326 58.9711 24.0551 58.9711" fill="white"/>
<path d="M76.0332 99.0282C78.0658 99.0282 79.9789 98.7891 81.8522 98.271C82.5297 98.1115 83.2471 98.3905 83.6058 98.9884L92.693 114.253C93.1713 115.09 92.8126 116.126 91.9358 116.485C86.9936 118.558 81.5732 119.634 75.8738 119.634C63.6778 119.634 53.2355 115.529 45.623 107.717C38.3294 100.264 34.3438 89.8215 34.3438 78.3828C34.3438 54.5887 52.1196 36.6934 75.7143 36.6934C81.6529 36.6934 87.1132 37.6898 92.0155 39.6427C92.8923 40.0014 93.2909 41.0775 92.7727 41.8746L83.566 57.3388C83.2073 57.9366 82.4899 58.2156 81.8123 58.0562C79.9391 57.5381 77.9463 57.2591 75.8738 57.2591C64.4749 57.2591 56.7827 65.6687 56.7827 78.2234C56.7827 88.5461 63.359 99.0282 75.9933 99.0282" fill="white"/>
</g>
</svg>
