<svg width="962" height="131" viewBox="0 0 962 131" fill="none" xmlns="http://www.w3.org/2000/svg">
<g clip-path="url(#clip0_1585_12579)">
<path d="M0 12C0 5.37258 5.37258 0 12 0H950C956.627 0 962 5.37258 962 12V131H0V12Z" fill="url(#paint0_linear_1585_12579)"/>
<path opacity="0.12" d="M48.9662 200.154C47.1705 199.778 46.0188 198.018 46.3947 196.221L101.505 -67.1811C101.881 -68.9768 103.642 -70.1283 105.437 -69.7526C107.234 -69.3768 108.385 -67.6161 108.009 -65.8204L52.8984 197.582C52.5226 199.378 50.7625 200.529 48.9662 200.154ZM74.3517 181.026C72.5554 180.651 71.4044 178.89 71.7802 177.094L90.1504 89.2933C90.5263 87.497 92.2863 86.346 94.0827 86.7218L181.883 105.092C183.68 105.468 184.831 107.228 184.455 109.024C184.079 110.821 182.319 111.972 180.523 111.596L95.9738 93.906L78.284 178.455C77.9082 180.251 76.1481 181.402 74.3517 181.026ZM33.378 172.454C31.5823 172.078 30.4307 170.318 30.8065 168.521L48.4963 83.9724L-36.0526 66.2826C-37.8483 65.9069 -38.9999 64.1467 -38.6241 62.3504C-38.2483 60.554 -36.4875 59.4032 -34.6918 59.7789L53.109 78.1491C54.9047 78.5248 56.0563 80.285 55.6805 82.0813L37.3103 169.882C36.9345 171.678 35.1737 172.829 33.378 172.454ZM97.9003 170.679C96.104 170.303 94.953 168.543 95.3288 166.747L105.739 116.993C106.114 115.197 107.874 114.046 109.671 114.422L159.425 124.832C161.221 125.207 162.372 126.967 161.996 128.764C161.62 130.56 159.86 131.711 158.064 131.335L111.562 121.606L101.833 168.108C101.457 169.904 99.6966 171.055 97.9003 170.679ZM13.6385 149.995C11.8428 149.619 10.6912 147.859 11.067 146.062L20.7964 99.5606L-25.7055 89.8312C-27.5012 89.4555 -28.6528 87.6953 -28.277 85.8989C-27.9012 84.1026 -26.1404 82.9517 -24.3447 83.3274L25.409 93.7372C27.2047 94.1129 28.3564 95.8731 27.9806 97.6695L17.5708 147.423C17.1949 149.22 15.4342 150.37 13.6385 149.995ZM208.223 96.0076L97.0109 72.7393C95.2146 72.3634 94.0636 70.6033 94.4394 68.807C94.8151 67.0113 96.5753 65.8597 98.3717 66.2355L209.583 89.5038C211.38 89.8797 212.531 91.6404 212.155 93.4361C211.779 95.2324 210.019 96.3835 208.223 96.0076ZM56.032 64.1654L-55.1798 40.8971C-56.9755 40.5214 -58.1271 38.7612 -57.7513 36.9648C-57.3756 35.1691 -55.6147 34.0176 -53.819 34.3933L57.3927 57.6617C59.1884 58.0374 60.34 59.7982 59.9643 61.5939C59.5884 63.3903 57.8283 64.5413 56.032 64.1654ZM189.095 70.622L101.295 52.2519C99.4983 51.876 98.3475 50.1153 98.7232 48.3196L117.093 -39.4812C117.469 -41.2769 119.229 -42.4285 121.026 -42.0527C122.822 -41.6769 123.973 -39.9161 123.597 -38.1204L105.907 46.4285L190.456 64.1183C192.253 64.4941 193.403 66.2549 193.028 68.0505C192.652 69.8462 190.892 70.9979 189.095 70.622ZM60.321 43.6791L-27.4798 25.3089C-29.2755 24.9332 -30.4271 23.1724 -30.0513 21.3767C-29.6756 19.581 -27.9148 18.4295 -26.1191 18.8052L58.4298 36.495L76.1196 -48.054C76.4953 -49.8496 78.2562 -51.0012 80.0519 -50.6255C81.8476 -50.2498 82.9991 -48.4889 82.6234 -46.6932L64.2532 41.1076C63.8775 42.9033 62.1167 44.0548 60.321 43.6791ZM178.748 47.0735L128.995 36.6637C127.198 36.2879 126.047 34.5272 126.423 32.7315L136.833 -17.0223C137.209 -18.818 138.969 -19.9697 140.765 -19.5938C142.561 -19.218 143.712 -17.4573 143.337 -15.6616L133.607 30.8403L180.109 40.5697C181.905 40.9456 183.056 42.7063 182.681 44.502C182.305 46.2977 180.545 47.4493 178.748 47.0735ZM44.7328 15.9792L-5.02097 5.56942C-6.81666 5.19372 -7.96818 3.43285 -7.59247 1.63716C-7.21677 -0.158525 -5.4559 -1.31005 -3.66021 -0.934341L42.8417 8.79505L52.5711 -37.7069C52.9468 -39.5025 54.7077 -40.6541 56.5034 -40.2784C58.299 -39.9027 59.4506 -38.1418 59.0749 -36.3461L48.6651 13.4077C48.2894 15.2034 46.5285 16.3549 44.7328 15.9792Z" fill="url(#paint1_linear_1585_12579)"/>
<path opacity="0.12" d="M938.424 201.154C940.22 200.778 941.372 199.018 940.996 197.221L885.885 -66.1811C885.51 -67.9768 883.749 -69.1283 881.953 -68.7526C880.157 -68.3768 879.006 -66.6161 879.382 -64.8204L934.492 198.582C934.868 200.378 936.628 201.529 938.424 201.154ZM913.039 182.026C914.835 181.651 915.986 179.89 915.61 178.094L897.24 90.2933C896.864 88.497 895.104 87.346 893.308 87.7218L805.507 106.092C803.711 106.468 802.56 108.228 802.936 110.024C803.311 111.821 805.072 112.972 806.868 112.596L891.417 94.906L909.107 179.455C909.482 181.251 911.243 182.402 913.039 182.026ZM954.013 173.454C955.808 173.078 956.96 171.318 956.584 169.521L938.894 84.9724L1023.44 67.2826C1025.24 66.9069 1026.39 65.1467 1026.01 63.3504C1025.64 61.554 1023.88 60.4032 1022.08 60.7789L934.282 79.1491C932.486 79.5248 931.334 81.285 931.71 83.0813L950.08 170.882C950.456 172.678 952.217 173.829 954.013 173.454ZM889.49 171.679C891.287 171.303 892.438 169.543 892.062 167.747L881.652 117.993C881.276 116.197 879.516 115.046 877.72 115.422L827.966 125.832C826.17 126.207 825.019 127.967 825.395 129.764C825.77 131.56 827.53 132.711 829.327 132.335L875.829 122.606L885.558 169.108C885.934 170.904 887.694 172.055 889.49 171.679ZM973.752 150.995C975.548 150.619 976.699 148.859 976.324 147.062L966.594 100.561L1013.1 90.8312C1014.89 90.4555 1016.04 88.6953 1015.67 86.8989C1015.29 85.1026 1013.53 83.9517 1011.74 84.3274L961.982 94.7372C960.186 95.1129 959.034 96.8731 959.41 98.6695L969.82 148.423C970.196 150.22 971.956 151.37 973.752 150.995ZM779.168 97.0076L890.38 73.7393C892.176 73.3634 893.327 71.6033 892.951 69.807C892.576 68.0113 890.815 66.8597 889.019 67.2355L777.807 90.5038C776.011 90.8797 774.86 92.6404 775.236 94.4361C775.612 96.2324 777.372 97.3835 779.168 97.0076ZM931.359 65.1654L1042.57 41.8971C1044.37 41.5214 1045.52 39.7612 1045.14 37.9648C1044.77 36.1691 1043.01 35.0176 1041.21 35.3933L929.998 58.6617C928.202 59.0374 927.051 60.7982 927.426 62.5939C927.802 64.3903 929.562 65.5413 931.359 65.1654ZM798.295 71.622L886.096 53.2519C887.892 52.876 889.043 51.1153 888.667 49.3196L870.297 -38.4812C869.922 -40.2769 868.161 -41.4285 866.365 -41.0527C864.569 -40.6769 863.418 -38.9161 863.794 -37.1204L881.483 47.4285L796.934 65.1183C795.138 65.4941 793.987 67.2549 794.363 69.0505C794.739 70.8462 796.499 71.9979 798.295 71.622ZM927.07 44.6791L1014.87 26.3089C1016.67 25.9332 1017.82 24.1724 1017.44 22.3767C1017.07 20.581 1015.31 19.4295 1013.51 19.8052L928.961 37.495L911.271 -47.054C910.895 -48.8496 909.134 -50.0012 907.339 -49.6255C905.543 -49.2498 904.392 -47.4889 904.767 -45.6932L923.137 42.1076C923.513 43.9033 925.274 45.0548 927.07 44.6791ZM808.642 48.0735L858.396 37.6637C860.192 37.2879 861.343 35.5272 860.968 33.7315L850.558 -16.0223C850.182 -17.818 848.422 -18.9697 846.625 -18.5938C844.829 -18.218 843.678 -16.4573 844.054 -14.6616L853.783 31.8403L807.281 41.5697C805.485 41.9456 804.334 43.7063 804.71 45.502C805.086 47.2977 806.846 48.4493 808.642 48.0735ZM942.658 16.9792L992.412 6.56942C994.207 6.19372 995.359 4.43285 994.983 2.63716C994.607 0.841475 992.847 -0.310045 991.051 0.0656592L944.549 9.79505L934.82 -36.7069C934.444 -38.5025 932.683 -39.6541 930.887 -39.2784C929.092 -38.9027 927.94 -37.1418 928.316 -35.3461L938.726 14.4077C939.101 16.2034 940.862 17.3549 942.658 16.9792Z" fill="url(#paint2_linear_1585_12579)"/>
<g clip-path="url(#clip1_1585_12579)">
<path d="M506.892 90.9621C521.232 76.6226 521.232 53.3735 506.892 39.034C492.553 24.6944 469.304 24.6944 454.964 39.034C440.625 53.3735 440.625 76.6226 454.964 90.9621C469.304 105.302 492.553 105.302 506.892 90.9621Z" fill="white"/>
<path fill-rule="evenodd" clip-rule="evenodd" d="M480.937 79.9152C482.996 79.9152 484.665 81.5843 484.665 83.6432C484.665 85.7021 482.996 87.371 480.937 87.371C478.878 87.371 477.209 85.702 477.209 83.6432C477.209 81.5845 478.878 79.9152 480.937 79.9152ZM480.937 42.627C482.633 42.627 484.02 44.0145 484.02 45.7104V71.1557C484.02 72.8516 482.633 74.2391 480.937 74.2391C479.241 74.2391 477.854 72.8516 477.854 71.1557V45.7104C477.854 44.0145 479.241 42.627 480.937 42.627Z" fill="#014EA2"/>
</g>
</g>
<defs>
<linearGradient id="paint0_linear_1585_12579" x1="-283.715" y1="65.5" x2="962" y2="65.5" gradientUnits="userSpaceOnUse">
<stop stop-color="#0E75E3"/>
<stop offset="1" stop-color="#014EA2"/>
</linearGradient>
<linearGradient id="paint1_linear_1585_12579" x1="11.0005" y1="5.00001" x2="200.5" y2="69" gradientUnits="userSpaceOnUse">
<stop stop-color="white"/>
<stop offset="1" stop-color="#0865C8"/>
</linearGradient>
<linearGradient id="paint2_linear_1585_12579" x1="984.5" y1="-2" x2="806.5" y2="76" gradientUnits="userSpaceOnUse">
<stop stop-color="white"/>
<stop offset="1" stop-color="#0353AB"/>
</linearGradient>
<clipPath id="clip0_1585_12579">
<path d="M0 12C0 5.37258 5.37258 0 12 0H950C956.627 0 962 5.37258 962 12V131H0V12Z" fill="white"/>
</clipPath>
<clipPath id="clip1_1585_12579">
<rect width="80" height="80" fill="white" transform="translate(441 25)"/>
</clipPath>
</defs>
</svg>
