<svg width="14" height="14" viewBox="0 0 14 14" fill="none" xmlns="http://www.w3.org/2000/svg">
<path d="M12.925 13.7313L7.99375 8.80001C7.61875 9.12501 7.18125 9.37814 6.68125 9.55939C6.18125 9.74064 5.65 9.83126 5.0875 9.83126C3.7375 9.83126 2.59375 9.36251 1.65625 8.42501C0.71875 7.48751 0.25 6.35626 0.25 5.03126C0.25 3.70626 0.71875 2.57501 1.65625 1.63751C2.59375 0.700012 3.73125 0.231262 5.06875 0.231262C6.39375 0.231262 7.52187 0.700012 8.45312 1.63751C9.38437 2.57501 9.85 3.70626 9.85 5.03126C9.85 5.56876 9.7625 6.08751 9.5875 6.58751C9.4125 7.08751 9.15 7.55626 8.8 7.99376L13.75 12.9063L12.925 13.7313ZM5.06875 8.70626C6.08125 8.70626 6.94375 8.34689 7.65625 7.62814C8.36875 6.90939 8.725 6.04376 8.725 5.03126C8.725 4.01876 8.36875 3.15314 7.65625 2.43439C6.94375 1.71564 6.08125 1.35626 5.06875 1.35626C4.04375 1.35626 3.17188 1.71564 2.45312 2.43439C1.73438 3.15314 1.375 4.01876 1.375 5.03126C1.375 6.04376 1.73438 6.90939 2.45312 7.62814C3.17188 8.34689 4.04375 8.70626 5.06875 8.70626Z" fill="#555555"/>
</svg>
